<svg xmlns="http://www.w3.org/2000/svg" xml:space="preserve" width="1500" height="989" style="clip-rule:evenodd;fill-rule:evenodd;stroke-miterlimit:10"><defs><marker id="d" markerHeight="1" markerWidth="1" orient="auto" preserveAspectRatio="xMidYMid" refX="0" refY="0" style="overflow:visible" viewBox="0 0 1 1"><path d="M5 0c0 2.76-2.24 5-5 5s-5-2.24-5-5 2.3-5 5-5c2.76 0 5 2.24 5 5" style="fill:context-stroke;fill-rule:evenodd;stroke:none" transform="scale(.5)"/></marker><marker id="a" markerHeight="1" markerWidth="1" orient="auto" preserveAspectRatio="xMidYMid" refX="0" refY="0" style="overflow:visible" viewBox="0 0 1 1"><path d="M5 0c0 2.76-2.24 5-5 5s-5-2.24-5-5 2.3-5 5-5c2.76 0 5 2.24 5 5" style="fill:context-stroke;fill-rule:evenodd;stroke:none" transform="scale(.5)"/></marker><marker id="b" markerHeight="1" markerWidth="1" orient="auto" preserveAspectRatio="xMidYMid" refX="0" refY="0" style="overflow:visible" viewBox="0 0 1 1"><path d="M5 0c0 2.76-2.24 5-5 5s-5-2.24-5-5 2.3-5 5-5c2.76 0 5 2.24 5 5" style="fill:context-stroke;fill-rule:evenodd;stroke:none" transform="scale(.5)"/></marker><marker id="c" markerHeight="1" markerWidth="1" orient="auto" preserveAspectRatio="xMidYMid" refX="0" refY="0" style="overflow:visible" viewBox="0 0 1 1"><path d="M5 0c0 2.76-2.24 5-5 5s-5-2.24-5-5 2.3-5 5-5c2.76 0 5 2.24 5 5" style="fill:context-stroke;fill-rule:evenodd;stroke:none" transform="scale(.5)"/></marker></defs><g style="display:inline"><path d="m202.493 633.986 5.214 61.703 707.857 157.736L928.6 840.39l1.738-73.436-13.47 11.732" style="opacity:.66855;fill:none;stroke:#000;stroke-width:2;stroke-dasharray:none;stroke-opacity:1" transform="translate(-201.497 -32.023)"/><path d="m915.13 853.86 1.737-76.044-48.668-9.56-6.952 3.477-6.084 20.423-46.495-36.5L523.18 698.73M513.62 696.993 274.19 648.325l-29.548 16.078-6.953-23.03M930.338 766.084 903.397 760M797.37 740.012l-236.82-46.93M492.762 680.046l-199.017-39.108" style="opacity:.66855;fill:none;stroke:#000;stroke-width:2;stroke-dasharray:none;stroke-opacity:1" transform="translate(-201.497 -32.023)"/></g><g style="display:inline"><path d="m558.91 643.714 2.15 49.47-17.82 9.524-14.135-396.06-11.676-78.967 9.295.461-2.241-62.15 19.12-1.304 2.607 60.835M549.686 340.24l8.256 233.78M471.47 166.861l2.607 58.662h9.125l-6.083 77.347L488.85 579.67l4.78 112.544" style="opacity:.66855;fill:none;stroke:#000;stroke-width:2;stroke-dasharray:none;stroke-opacity:1" transform="translate(-201.497 -32.023)"/><path d="m554.683 468.21 27.593-76.26M551.424 403.03l13.905-39.108M588.36 294.397l44.54-133.185 20.205 32.156-46.712 130.577M571.195 267.456l35.85-106.678M516.227 764.563l-4.78-137.747 8.69 1.52 4.998 139.052M1005.976 133.966l31.648 153.631-2.15 38.408-17.207-1.536-44.86-188.66 17.82-1.843 44.246 192.04M1058.825 130.894l-2.458 32.877 90.95 138.268" style="fill:none;stroke:#000;stroke-width:2;stroke-dasharray:none;stroke-opacity:.670588" transform="translate(-201.497 -32.023)"/><path d="m1052.066 129.972-.922 35.028 90.95 139.804M1050.837 165l-6.76-.615 5.223 43.939 68.827 105.39M1048.993 208.938l-5.53 134.581M1048.378 341.368l6.146-123.826M1050.837 164.385l5.53-.307M1059.44 131.815l-7.067-.614M1018.267 133.045l-1.537 30.418 5.531.922-3.994 22.738-.615 1.536M1017.038 163.156l-3.688 4.302M1010.892 293.743l-2.15 63.91M1041.926 373.016l-2.765 61.76M1039.775 408.044l97.71-63.296-7.068-10.14M1136.87 344.748l19.665 28.883M1007.205 405.279v-17.514M1053.91 440l42.094 3.994M1113.518 445.53l35.642 3.687M1165.753 450.754l42.709 3.994 6.145 3.994M1233.965 471.955l2.458 2.15 2.765-6.76" style="fill:none;stroke:#000;stroke-width:2;stroke-dasharray:none;stroke-opacity:.670588" transform="translate(-201.497 -32.023)"/><path d="m1044.691 431.396 1.23-26.424 90.334-59.61M1006.898 404.05l-.614 30.726 12.905 1.536 1.843-41.48 5.838.614-1.229 41.48 6.76.923M1006.284 434.776l-58.688-5.53M1194.02 431.396l12.906 19.665-36.564-3.38M1205.697 450.754l2.765 3.687M1237.037 440.307l-16.9-26.425M1214.915 405.893l-10.447-16.285M1199.551 382.234l-10.446-15.67M1184.188 358.575l-9.832-14.749M1168.825 345.977l9.525 14.749M1183.881 369.33l11.369 16.899M1199.551 392.681l10.447 16.9M1215.222 417.877l18.436 27.653M1172.512 398.212l-10.754-16.9M1177.736 406.815l10.447 16.592M1258.239 459.971l15.67 1.844M1262.54 455.977l15.67 2.765-1.843 42.71-5.223 3.687-68.827-7.067" style="fill:none;stroke:#000;stroke-width:2;stroke-dasharray:none;stroke-opacity:.670588" transform="translate(-201.497 -32.023)"/><path d="m1271.758 503.91 2.765-42.095 3.995-3.38M1168.518 494.385l-56.536-6.145M1094.468 486.089l-39.944-4.61M1036.395 479.943l-45.782-5.223M939.915 468.575l-19.972-2.151M882.457 462.122l-23.352-1.843M800.725 437.541v-9.218M1154.998 446.145l-35.95-4.302M1099.077 440.614l-38.715-4.302M1005.976 431.396l-61.76-6.145M1006.284 404.357l-12.291-10.754M970.334 371.787l-47.626-42.402M998.602 360.111l-58.994-53.156 7.374-2.151 59.302 53.156M996.451 231.983 901.2 357.346M997.68 236.592l-50.39 67.598M988.155 201.564 887.68 335.53M885.837 382.849l-9.525 14.134M869.245 358.882l-9.526 13.212M883.686 379.776l-10.14 13.827M903.397 361.315l21.944-29.548M829.309 414.328l12.167-15.643M933.38 221.178c2.1-.744.544-4.78 2.172-4.78M1018.983 435.512l-.326 10.863M1018.766 459.303l-.978 18.033M1022.785 478.53l1.304-22.052M1025.284 443.008l.543-5.758" style="fill:none;stroke:#000;stroke-width:2;stroke-dasharray:none;stroke-opacity:.670588" transform="translate(-201.497 -32.023)"/></g><path d="m684.273 556.452-125.978 87.877-17.206 7.681-1.537-63.603 111.536-82.346M681.815 553.38l-139.497 98.323" style="opacity:.66855;fill:none;stroke:#000;stroke-width:2;stroke-dasharray:none;stroke-opacity:1" transform="translate(-201.497 -32.023)"/><g style="clip-rule:evenodd;fill-rule:evenodd;stroke-miterlimit:10"><path d="M491.312 641.87 358.575 504.833M488.547 579.804 379.16 469.189l19.973-5.53 88.798 89.106" style="opacity:.66855;fill:none;stroke:#000;stroke-width:2;stroke-dasharray:none;stroke-opacity:1" transform="translate(-201.497 -32.023)"/></g><g style="clip-rule:evenodd;fill-rule:evenodd;stroke-miterlimit:10"><path d="m861.563 772.764-7.067 19.05-45.782-36.256-279.609-449.371-11.983-78.199 9.218.308 19.05-1.537 157.933 251.648M748.798 551.228 861.256 730.67M847.122 742.038l-139.19-223.072M690.418 490.39 526.873 228.348" style="clip-rule:evenodd;display:inline;opacity:.66855;fill:none;fill-rule:evenodd;stroke:#000;stroke-width:2;stroke-miterlimit:10;stroke-dasharray:none;stroke-opacity:1" transform="translate(-201.497 -32.023)"/></g><g style="clip-rule:evenodd;fill-rule:evenodd;stroke-miterlimit:10"><path d="m476.87 303.268 6.453-77.43-10.14-.615-235.362 416.648 6.145 22.122 30.726-15.67z" style="clip-rule:evenodd;opacity:.66855;fill:none;fill-rule:evenodd;stroke:#000;stroke-width:2;stroke-miterlimit:10;stroke-dasharray:none;stroke-opacity:1" transform="translate(-201.497 -32.023)"/><path d="m275.614 648.323 18.743-7.681 74.05-124.749M379.776 469.497l19.358-6.146 78.659-132.43" style="opacity:.66855;fill:none;stroke:#000;stroke-width:2;stroke-dasharray:none;stroke-opacity:1" transform="translate(-201.497 -32.023)"/></g><path d="m732.206 501.452-24.274 16.592 24.58 39.637" style="fill:none;stroke:#000;stroke-width:2;stroke-dasharray:none;stroke-opacity:.670588" transform="translate(-201.497 -32.023)"/><path d="m732.513 557.374 17.207-6.76-.922-56.536-16.9 7.067zM202.493 634.203h-.217M237.908 642.242l-35.632-8.474M203.408 633.575l13.414-4.557 24.686 4.557M458.868 118.193l2.607 48.234h32.156l-2.173-48.668M493.63 166.861l137.314-7.387M490.59 117.759l112.11-2.607M640.938 112.979l20.858.869M667.88 155.563h19.988M720.892 152.522l16.947-1.304M769.126 149.48l288.096-19.554.434-26.941-312.864 8.256M459.05 117.989h31.34M695.027 111.843l19.05.615M868.2 768.474l20.857 3.693 13.688-11.08.435-15.209M889.057 772.602l.87-16.512" style="fill:none;stroke:#000;stroke-width:2;stroke-dasharray:none;stroke-opacity:.670588" transform="translate(-201.497 -32.023)"/><path d="m847.994 778.903 42.15-23.682-16.296-25.203-41.28 24.116zM873.848 730.452l79.086-61.486M832.568 753.7l117.976-90.166M890.143 755.655l77.782-64.745M708.074 517.965l-17.599 8.473 38.674-28.462-15.861-24.55-38.022 27.81 15.426 24.333M713.505 473.208l93.425-36.501M728.28 498.194l92.12-38.891M749.572 500.149l75.609-32.59M922.4 619.133l116.76 185.28 1.23 2.15 11.368-11.983 1.23-27.654-104.47-166.229-13.212 8.297 106.62 167.457 10.447-9.217M1040.697 805.641l1.229-29.19M1076.34 766.312l1.536-27.654-101.09-158.547-12.905 9.218z" style="fill:none;stroke:#000;stroke-width:2;stroke-dasharray:none;stroke-opacity:.670588" transform="translate(-201.497 -32.023)"/><path d="m1077.568 765.39 8.296-8.296.922-27.346-99.245-156.397M1086.479 730.67l-8.296 7.988M1108.295 732.206l.614-26.732-95.559-150.251 9.833-6.146 95.251 148.715-9.525 7.99z" style="fill:none;stroke:#000;stroke-width:2;stroke-dasharray:none;stroke-opacity:.670588" transform="translate(-201.497 -32.023)"/><path d="m1118.127 699.021-1.536 24.889-8.911 8.603-106.62-167.458M992.764 670.753l15.056-11.522M1030.557 640.027l11.983-9.986M1016.116 619.133l13.52-9.525M978.63 648.938l15.67-11.37M974.328 642.792l16.285-11.522M1013.965 613.91l12.905-9.218M853.425 662.23l-8.256-11.732 11.298-6.518 7.822 12.167 400.206-272.453-3.911-6.953-404.986 266.804 9.125 12.602zM837.348 614.431l-7.822-13.036-10.863 6.953 8.256 12.167 423.67-258.548-4.345-6.518-415.849 245.946" style="fill:none;stroke:#000;stroke-width:2;stroke-dasharray:none;stroke-opacity:.670588" transform="translate(-201.497 -32.023)"/><path d="m811.032 571.515-7.128-13.427-11.213 6.374 7.609 12.583 436.621-236.02-3.998-6.737-428.151 223.845" style="clip-rule:evenodd;fill:none;fill-rule:evenodd;stroke:#000;stroke-width:2;stroke-miterlimit:10;stroke-dasharray:none;stroke-opacity:.670588" transform="translate(-201.497 -32.023)"/><path d="M913.608 604.654 897.096 578.8M939.68 587.925l-16.077-25.638M955.975 577.279l-15.86-25.42M980.092 560.766l-14.991-23.247M993.345 552.51l-15.426-24.334M1005.73 544.471l-14.992-23.899M995.3 503.408l-16.077-23.465-10.212 6.084 15.644 23.899M971.401 517.965l-15.208-24.117M941.853 501.018l16.295 25.203-11.732 6.735-16.295-25.854M932.293 540.56l-15.643-24.985M864.636 526.34 597.01 106.005l.308-32.57 281.144 445.53M891.367 512.206 613.91 72.821l-16.9-.307M907.96 502.68 655.697 103.856l-1.536-29.805 16.592-.614 263.324 414.496M922.094 495.921 654.468 74.051M707.625 75.586l253.798 398.827M948.825 482.402 706.703 103.547l.614-28.882 13.52-.922 251.34 395.139M968.49 568.435l-15.67-24.888M927.624 596.089l-16.899-26.425M903.658 558.295l-17.207-27.039M889.217 565.67l-17.514-26.425M915.948 549.692l-15.977-25.503M1015.501 537.401l-14.134-22.43M850.384 446.701l17.598-6.952M854.946 453.654l17.599-6.735M837.13 424.975l17.599-6.953M882.974 406.941l13.253-5.431M895.358 427.147l14.774-5.431M899.703 434.534l14.123-5.649" style="fill:none;stroke:#000;stroke-width:2;stroke-dasharray:none;stroke-opacity:.670588" transform="translate(-201.497 -32.023)"/><path d="m935.77 410.418 252.899-107.548-7.822-13.253-258.33 101.681M939.463 416.936l215.095-93.425M1169.549 345.237l-15.643-21.292 16.512-10.863-.869 32.155 4.345-2.39 1.739-31.069-4.78 1.087M1063.742 611.759l212.932-175.14-8.91-13.519-216.62 168.994M1047.764 587.792l193.575-149.636 24.888-14.749" style="fill:none;stroke:#000;stroke-width:2;stroke-dasharray:none;stroke-opacity:.670588" transform="translate(-201.497 -32.023)"/><path d="m1249.02 459.357 9.526.922v-7.99M1258.546 459.971l4.609-3.687v-7.374" style="fill:none;stroke:#000;stroke-width:2;stroke-dasharray:none;stroke-opacity:.670588" transform="translate(-201.497 -32.023)"/><path d="M519.724 747.724V876.76" style="opacity:.66855;fill:none;fill-opacity:1;stroke:#4133aa;stroke-width:1.88976;stroke-dasharray:none;stroke-opacity:1;marker-start:url(#a)" transform="translate(-201.497 -32.023)"/><path d="M716.224 783.724V912.76" style="clip-rule:evenodd;opacity:.66855;fill:none;fill-opacity:1;fill-rule:evenodd;stroke:#4133aa;stroke-width:1.8901;stroke-miterlimit:10;stroke-dasharray:none;stroke-opacity:1;marker-start:url(#b)" transform="translate(-201.497 -32.023)"/><path d="M326.225 511.035V382" style="clip-rule:evenodd;opacity:.66855;fill:none;fill-opacity:1;fill-rule:evenodd;stroke:#4133aa;stroke-width:1.8901;stroke-miterlimit:10;stroke-dasharray:none;stroke-opacity:1;marker-start:url(#c)" transform="translate(-201.497 -32.023)"/><text xml:space="preserve" x="181.379" y="10.477" style="font-style:normal;font-variant:normal;font-weight:400;font-stretch:normal;font-size:7.05556px;font-family:Calibri;-inkscape-font-specification:Calibri;text-align:start;writing-mode:lr-tb;direction:ltr;text-anchor:start;opacity:.66855;fill:#000;fill-opacity:1;stroke:none;stroke-width:.499999;stroke-dasharray:none;stroke-opacity:1" transform="matrix(3.77953 0 0 3.77953 -407.514 828.966)"><tspan x="181.379" y="10.477" style="stroke-width:.5">Etrier</tspan></text><g style="clip-rule:evenodd;fill-rule:evenodd;stroke-miterlimit:10"><text xml:space="preserve" x="181.379" y="10.477" style="font-style:normal;font-variant:normal;font-weight:400;font-stretch:normal;font-size:7.05556px;font-family:Calibri;-inkscape-font-specification:Calibri;text-align:start;writing-mode:lr-tb;direction:ltr;text-anchor:start;opacity:.66855;fill:#000;fill-opacity:1;stroke:none;stroke-width:.499999;stroke-dasharray:none;stroke-opacity:1" transform="matrix(3.77953 0 0 3.77953 -521.262 740.658)"><tspan x="181.379" y="10.477" style="stroke-width:.5">Etrier</tspan></text></g><g style="clip-rule:evenodd;fill-rule:evenodd;stroke-miterlimit:10"><text xml:space="preserve" x="161.36" y="11.225" style="font-style:normal;font-variant:normal;font-weight:400;font-stretch:normal;font-size:7.05556px;font-family:Calibri;-inkscape-font-specification:Calibri;text-align:start;writing-mode:lr-tb;direction:ltr;text-anchor:start;opacity:.66855;fill:#000;fill-opacity:1;stroke:none;stroke-width:.499999;stroke-dasharray:none;stroke-opacity:1" transform="matrix(3.77953 0 0 3.77953 -445.262 -22.342)"><tspan x="161.36" y="11.225" style="stroke-width:.5">Panne faîtière</tspan></text></g><text xml:space="preserve" x="553.76" y="50.279" style="font-style:normal;font-variant:normal;font-weight:400;font-stretch:normal;font-size:26.6667px;font-family:Calibri;-inkscape-font-specification:Calibri;text-align:start;writing-mode:lr-tb;direction:ltr;text-anchor:start;clip-rule:evenodd;opacity:.66855;fill:#000;fill-opacity:1;fill-rule:evenodd;stroke:none;stroke-width:1.88976;stroke-miterlimit:10;stroke-dasharray:none;stroke-opacity:1" transform="translate(-201.497 -32.023)"><tspan x="553.76" y="50.279" style="stroke-width:1.88976">Lien de faîtage</tspan></text><g style="clip-rule:evenodd;fill-rule:evenodd;stroke-miterlimit:10"><text xml:space="preserve" x="181.379" y="10.477" style="font-style:normal;font-variant:normal;font-weight:400;font-stretch:normal;font-size:7.05556px;font-family:Calibri;-inkscape-font-specification:Calibri;text-align:start;writing-mode:lr-tb;direction:ltr;text-anchor:start;opacity:.66855;fill:#000;fill-opacity:1;stroke:none;stroke-width:.499999;stroke-dasharray:none;stroke-opacity:1" transform="matrix(3.77953 0 0 3.77953 48.738 -20.342)"><tspan x="181.379" y="10.477" style="stroke-width:.5">Panne</tspan></text></g><g style="clip-rule:evenodd;fill-rule:evenodd;stroke-miterlimit:10"><text xml:space="preserve" x="181.379" y="10.477" style="font-style:normal;font-variant:normal;font-weight:400;font-stretch:normal;font-size:7.05556px;font-family:Calibri;-inkscape-font-specification:Calibri;text-align:start;writing-mode:lr-tb;direction:ltr;text-anchor:start;opacity:.66855;fill:#000;fill-opacity:1;stroke:none;stroke-width:.499999;stroke-dasharray:none;stroke-opacity:1" transform="matrix(3.77953 0 0 3.77953 226.354 84.951)"><tspan x="181.379" y="10.477" style="stroke-width:.5">Echantignol</tspan></text></g><g style="clip-rule:evenodd;fill-rule:evenodd;stroke-miterlimit:10"><text xml:space="preserve" x="181.379" y="10.477" style="font-style:normal;font-variant:normal;font-weight:400;font-stretch:normal;font-size:7.05556px;font-family:Calibri;-inkscape-font-specification:Calibri;text-align:start;writing-mode:lr-tb;direction:ltr;text-anchor:start;opacity:.66855;fill:#000;fill-opacity:1;stroke:none;stroke-width:.499999;stroke-dasharray:none;stroke-opacity:1" transform="matrix(3.77953 0 0 3.77953 229.738 568.658)"><tspan x="181.379" y="10.477" style="stroke-width:.5">Liteau</tspan></text></g><g style="clip-rule:evenodd;fill-rule:evenodd;stroke-miterlimit:10"><text xml:space="preserve" x="181.379" y="10.477" style="font-style:normal;font-variant:normal;font-weight:400;font-stretch:normal;font-size:7.05556px;font-family:Calibri;-inkscape-font-specification:Calibri;text-align:start;writing-mode:lr-tb;direction:ltr;text-anchor:start;opacity:.66855;fill:#000;fill-opacity:1;stroke:none;stroke-width:.499999;stroke-dasharray:none;stroke-opacity:1" transform="matrix(3.77953 0 0 3.77953 191.738 818.658)"><tspan x="181.379" y="10.477" style="stroke-width:.5">Chevron</tspan></text></g><g style="clip-rule:evenodd;fill-rule:evenodd;stroke-miterlimit:10"><text xml:space="preserve" x="181.379" y="10.477" style="font-style:normal;font-variant:normal;font-weight:400;font-stretch:normal;font-size:7.05556px;font-family:Calibri;-inkscape-font-specification:Calibri;text-align:start;writing-mode:lr-tb;direction:ltr;text-anchor:start;opacity:.66855;fill:#000;fill-opacity:1;stroke:none;stroke-width:.499999;stroke-dasharray:none;stroke-opacity:1" transform="matrix(3.77953 0 0 3.77953 -57.262 844.658)"><tspan x="181.379" y="10.477" style="stroke-width:.5">Panne sablière</tspan></text></g><g style="clip-rule:evenodd;fill-rule:evenodd;stroke-miterlimit:10"><text xml:space="preserve" x="181.379" y="10.477" style="font-style:normal;font-variant:normal;font-weight:400;font-stretch:normal;font-size:7.05556px;font-family:Calibri;-inkscape-font-specification:Calibri;text-align:start;writing-mode:lr-tb;direction:ltr;text-anchor:start;opacity:.66855;fill:#000;fill-opacity:1;stroke:none;stroke-width:.499999;stroke-dasharray:none;stroke-opacity:1" transform="matrix(3.77953 0 0 3.77953 -622.262 304.158)"><tspan x="181.379" y="10.477" style="stroke-width:.5">Arbalétrier</tspan></text></g><g style="clip-rule:evenodd;fill-rule:evenodd;stroke-miterlimit:10"><text xml:space="preserve" x="181.379" y="10.477" style="font-style:normal;font-variant:normal;font-weight:400;font-stretch:normal;font-size:7.05556px;font-family:Calibri;-inkscape-font-specification:Calibri;text-align:start;writing-mode:lr-tb;direction:ltr;text-anchor:start;opacity:.66855;fill:#000;fill-opacity:1;stroke:none;stroke-width:.499999;stroke-dasharray:none;stroke-opacity:1" transform="matrix(3.77953 0 0 3.77953 -181.233 861.135)"><tspan x="181.379" y="10.477" style="stroke-width:.5">Entrait</tspan></text></g><text xml:space="preserve" x="551.76" y="860.586" style="font-style:normal;font-variant:normal;font-weight:400;font-stretch:normal;font-size:26.6667px;font-family:Calibri;-inkscape-font-specification:Calibri;text-align:start;writing-mode:lr-tb;direction:ltr;text-anchor:start;clip-rule:evenodd;opacity:.66855;fill:#000;fill-opacity:1;fill-rule:evenodd;stroke:none;stroke-width:1.88976;stroke-miterlimit:10;stroke-dasharray:none;stroke-opacity:1" transform="translate(-201.497 -32.023)"><tspan x="551.76" y="860.586" style="stroke-width:1.88976">Contrefiche</tspan></text><path d="M863 751v143" style="clip-rule:evenodd;opacity:.669;fill:none;fill-rule:evenodd;stroke:#4133aa;stroke-width:1.89;stroke-miterlimit:10;stroke-dasharray:none;stroke-opacity:1;marker-start:url(#a)" transform="translate(-201.497 -32.023)"/><path d="M1147.634 456.791v156.27" style="clip-rule:evenodd;opacity:.669;fill:none;fill-rule:evenodd;stroke:#4133aa;stroke-width:1.89;stroke-miterlimit:10;stroke-dasharray:none;stroke-opacity:1;marker-start:url(#d)" transform="translate(-201.497 -32.023)"/><path d="M1110.865 707.814v158.392" style="clip-rule:evenodd;opacity:.669;fill:none;fill-rule:evenodd;stroke:#4133aa;stroke-width:1.89;stroke-miterlimit:10;stroke-dasharray:none;stroke-opacity:1;marker-start:url(#d)" transform="translate(-201.497 -32.023)"/><path d="M476.59 142.836V63.64" style="clip-rule:evenodd;opacity:.669;fill:none;fill-rule:evenodd;stroke:#4133aa;stroke-width:1.89;stroke-miterlimit:10;stroke-dasharray:none;stroke-opacity:1;marker-start:url(#a)" transform="translate(-201.497 -32.023)"/><path d="M969.443 386.787V58.69" style="clip-rule:evenodd;opacity:.669;fill:none;fill-rule:evenodd;stroke:#4133aa;stroke-width:1.89;stroke-miterlimit:10;stroke-dasharray:none;stroke-opacity:1;marker-start:url(#b)" transform="translate(-201.497 -32.023)"/><path d="M586.192 251.73V57.983" style="clip-rule:evenodd;opacity:.669;fill:none;fill-rule:evenodd;stroke:#4133aa;stroke-width:1.89;stroke-miterlimit:10;stroke-dasharray:none;stroke-opacity:1;marker-start:url(#a)" transform="translate(-201.497 -32.023)"/><path d="M1165.312 326.683v-166.17" style="clip-rule:evenodd;opacity:.669;fill:none;fill-rule:evenodd;stroke:#4133aa;stroke-width:1.89;stroke-miterlimit:10;stroke-dasharray:none;stroke-opacity:1;marker-start:url(#a)" transform="translate(-201.497 -32.023)"/><path d="M516.188 558.614 397.535 627.12v164.133" style="clip-rule:evenodd;opacity:.669;fill:none;fill-rule:evenodd;stroke:#4133aa;stroke-width:1.89;stroke-miterlimit:10;stroke-dasharray:none;stroke-opacity:1;marker-start:url(#a)" transform="translate(-201.497 -32.023)"/><path d="M577 598v240" style="opacity:.669;fill:none;stroke:#4133aa;stroke-width:1.89;stroke-dasharray:none;stroke-opacity:1;marker-start:url(#a)" transform="translate(-201.497 -32.023)"/></svg>