<svg xmlns="http://www.w3.org/2000/svg" width="1920" height="1080"><defs><marker id="a" markerHeight="1" markerWidth="1" orient="auto" preserveAspectRatio="xMidYMid" refX="0" refY="0" style="overflow:visible" viewBox="0 0 1 1"><path d="M5 0c0 2.76-2.24 5-5 5s-5-2.24-5-5 2.3-5 5-5c2.76 0 5 2.24 5 5" style="fill:context-stroke;fill-rule:evenodd;stroke:none" transform="scale(.5)"/></marker></defs><g fill="none" stroke-linejoin="round" stroke-opacity="1" stroke-width="3" style="stroke:#000;stroke-opacity:.67048711"><path d="m218.634 544.049 2.412-9.705.079-.317 1.823-7.334 2.412-9.705 1.665-6.697 1.777-7.149-.887-9.961-.542-6.088M154.779 758.51l.461 4.555 1.007 9.949.338 3.332 1.006 9.949.241 2.379" style="stroke:#000;stroke-opacity:.67048711"/><path d="m125.322 745.239-2.775 9.607-1.733 6.001 1.049 9.945.836 7.924 1.049 9.945.254 2.406 9.975-.706 9.975-.705 9.975-.706 3.905-.276 2.412-9.705.729-2.93 2.412-9.705 2.412-9.705 2.412-9.704 1.162-4.675" style="stroke:#000;stroke-opacity:.67048711"/><path d="m158.793 742.968-2.5 9.682-1.514 5.86-9.976.687-9.976.686-3.692.254-9.976.687-.345.023M127.725 216.075l9.994-.344 9.994-.344 9.994-.345.522-.018M159.419 227.635l-.939-9.956-.251-2.655.605-1.187M162.871 574.964l.975 9.952.974 9.953.996 10.168 9.983-.59.123-.008 9.622-.569" style="stroke:#000;stroke-opacity:.67048711"/><path d="m128.398 214.883-.673 1.192.357 3.642.88 8.992M185.423 538.419l-.178-.648-.482-1.75-1.965-7.145-2.652-9.642-1.747-6.348-1.918-6.976-2.652-9.642-2.653-9.642-2.158-7.847-2.652-9.642-.981-3.563-2.652-9.642-2.43-8.834-.025.002" style="stroke:#000;stroke-opacity:.67048711"/><path d="m160.303 447.098-.028 10-.029 10-.019 6.472M180.563 546.161l-2.698-9.629-.036-.131-2.689-9.598-2.698-9.63-2.698-9.629-2.697-9.629-1.712-6.11-2.698-9.63-2.41-8.605-.025.002M164.831 574.852l1.228 4.121.736-.042 6.672-.384 9.815-.564 2.214-.127M1012.631 554.441l9.066-4.289.076-10 .037-4.972.076-10 .075-9.999.011-1.34.075-10 .076-10 .028-3.749.052-6.87.076-10 .025-3.309.016-2.06.05-6.701.018-2.407.076-10 .022-2.909.041-5.403.076-9.999.038-5.062.041-5.459.038-5.015.076-10 .075-10 .076-9.999.056-7.387.045-5.939.076-10 .039-5.219.045-5.998.076-10 .076-10 .075-9.999.076-10 .076-10 .011-1.529.05-6.585.076-10 .04-5.328.038-4.97M673.428 980.113l-.37-9.994-.37-9.993-.37-9.993-.168-4.516" style="stroke:#000;stroke-opacity:.67048711"/><path d="m705.696 942.821-1.273.106-9.966.831-9.965.831-9.966.83-2.376.198-1.821-9.832-1.312-7.083" style="stroke:#000;stroke-opacity:.67048711"/><path d="m689.927 926.982-9.967.82-9.966.82-.977.08.374 9.993.373 9.993.373 9.993.155 4.135 1.784 9.839 1.352 7.458 9.964-.854 9.963-.853 9.964-.853 2.415-.207 5.845-.5 9.963-.853 9.964-.854 9.963-.853 9.964-.853 9.964-.853 9.963-.853 9.964-.853 9.963-.854 9.964-.853 9.963-.853 9.964-.853 9.963-.853 9.964-.853 9.963-.854 9.964-.853 9.963-.853 9.964-.853 9.964-.853 9.963-.854 9.964-.853 9.963-.853 9.964-.853 9.963-.853 9.964-.853 9.963-.854 9.964-.853 9.963-.853 9.964-.853 9.963-.853 9.964-.854 9.964-.853 9.963-.853 9.964-.853 9.963-.853 9.964-.853 9.963-.854 9.964-.853 9.963-.853 9.964-.853 9.963-.853 9.964-.853 9.963-.854 9.964-.853 9.963-.853 9.964-.853 9.964-.853 9.963-.854 9.964-.853 9.963-.853 9.964-.853 9.963-.853 9.964-.853 9.963-.854 9.964-.853 9.963-.853 9.964-.853 9.963-.853 9.964-.853 9.964-.854 9.963-.853 9.964-.853 9.963-.853 9.964-.853 9.963-.854 9.964-.853 9.963-.853 9.964-.853 9.963-.853 9.964-.853 9.963-.854 9.964-.853 9.964-.853 9.963-.853 9.964-.853 9.963-.853 9.964-.854 9.963-.853 9.964-.853 9.963-.853 9.964-.853 9.963-.854 9.964-.853 9.963-.853 9.964-.853 9.964-.853 9.963-.853 9.964-.854 9.963-.853 9.964-.853 9.963-.853 9.964-.853 9.963-.853 9.964-.854 9.963-.853 9.964-.853 13.354-1.144 9.963-.853 9.964-.853 9.963-.853 2.461-.211.435-.037 9.964-.853 9.963-.853 9.964-.854 3.297-.282 3.31-.283.993-9.951.993-9.951.993-9.95.26-2.606-4.77-4.325" style="stroke:#000;stroke-opacity:.67048711"/><path d="m1743.992 856.26-9.966.831-.131.011M1225.674 399.881l.201-.009 4.456-.221M1214.924 389.948l7.345 6.787 3.405 3.146-.205 6.404-.091 2.855-.019.608-.32 9.995-.015.486-.033 1.023-.035 1.1-.32 9.995-.096 3.005-.079 2.494-.1 3.121-.061 1.894-.222 6.968-.021.651-.32 9.995-.319 9.994-.211 6.588-.034 1.084-.03.927-.319 9.995-.32 9.994-.319 9.995-.32 9.995-.319 9.995-.32 9.995-.319 9.995-.319 9.995-.32 9.995-.319 9.995-.32 9.995-.319 9.994-.32 9.995-.319 9.995-.32 9.995-.319 9.995-.32 9.995-.319 9.995-.32 9.995-.319 9.995-.319 9.994-.32 9.995-.319 9.995-.32 9.995-.319 9.995-.32 9.995-.319 9.995-.32 9.995-.319 9.995-.32 9.995-.319 9.994-.319 9.995-.32 9.995-.117 3.679-.32 9.995-.187 5.84-.052 1.638-.319 9.994-.32 9.995-.319 9.995-.168 5.254-.32 9.995-.284 8.909-.32 9.994-.211 6.619" style="stroke:#000;stroke-opacity:.67048711"/><path d="m1219.521 389.724-3.816.186-.582.028-.199.01-.181 5.934-.012.39-.064 2.085-.306 9.996-.044 1.436-.016.514-.013.413-.005.185-.026.85-.121 3.946-.106 3.45M1200.641 856.245l-.307 9.995-.306 9.995-.27 8.816M1245.345 897.831l.364-9.993.241-6.586.365-9.994.365-9.993.034-.93.365-9.994.365-9.993.047-1.306.365-9.993.365-9.993.25-6.851.365-9.993.365-9.993.035-.96.365-9.993.365-9.994.365-9.993.365-9.993.365-9.994.364-9.993.365-9.993.365-9.994.365-9.993.365-9.993.365-9.994.365-9.993.365-9.993.365-9.994.365-9.993.364-9.993.365-9.994.365-9.993.365-9.993.365-9.994.365-9.993.365-9.993.365-9.994.365-9.993.365-9.993.365-9.994.365-9.993.364-9.993.365-9.994.365-9.993.156-4.282.323-8.837.002-.044.294-8.06.191-5.226.238-6.53.332-9.079.033-.916.123-3.355.011-.311.162-4.427.015-.412.132-3.621.104-2.838.021-.581.198-5.429.055-1.491.022-.62.065-1.773.032-.876.299-8.183.022-.619.2-5.453M1447.566 660.73l-7.161-6.98-7.161-6.98-7.161-6.98-2.289-2.232" style="stroke:#000;stroke-opacity:.67048711"/><path d="m1248.471 812.205 7.085-7.057 7.085-7.057 7.084-7.058 7.085-7.057 7.085-7.058 7.084-7.057 7.085-7.058 7.085-7.057 7.084-7.057 7.085-7.058 7.085-7.057 7.084-7.058 7.085-7.057 7.085-7.058 7.085-7.057 7.084-7.057 7.085-7.058 7.085-7.057 7.084-7.058 7.085-7.057 7.085-7.057 7.084-7.058 7.085-7.057 6.527-6.502 5.848-5.825-7.145-6.997-3.158-3.093" style="stroke:#000;stroke-opacity:.67048711"/><path d="m1246.714 860.335 7.093-7.049 7.093-7.049 7.093-7.049 7.093-7.049 7.093-7.049 7.093-7.049 7.093-7.049 7.093-7.049 7.093-7.049 7.093-7.049 7.093-7.049 7.094-7.049 7.093-7.049 7.093-7.049 7.093-7.049 7.093-7.049 7.093-7.049 7.093-7.049 7.093-7.049 7.093-7.049 7.093-7.049 7.093-7.049 7.093-7.049 7.093-7.049 7.093-7.049 7.093-7.049 7.093-7.049 3.29-3.269 6.05-6.013-7.145-6.996-3.356-3.286-7.16-6.98-7.161-6.981-7.161-6.98-2.092-2.039-5.784 5.767-7.081 7.061-7.081 7.061-7.081 7.061-7.081 7.061-7.081 7.061-7.081 7.061-7.081 7.061-7.081 7.061-7.081 7.061-7.081 7.062-7.081 7.061-7.081 7.061-7.081 7.061-7.081 7.061-7.081 7.061-7.081 7.061-7.081 7.061-7.081 7.061-7.082 7.061-7.081 7.061-7.081 7.061-7.081 7.061-2.688 2.681M1014.24 690.285l7.02-7.122 7.02-7.122 7.02-7.121 5.831-5.915M1218.12 822.287l-7.433-6.689-7.433-6.69-1.132-1.018-7.433-6.69-7.433-6.689-7.433-6.69-7.434-6.689-7.433-6.69-7.433-6.689-7.433-6.69-7.433-6.689-7.433-6.69-7.433-6.689-7.433-6.69-7.433-6.689-7.433-6.69-7.433-6.689-7.434-6.69-7.433-6.689-7.433-6.69-7.433-6.689-7.433-6.689-7.433-6.69-7.433-6.689-4.896-4.406-.07-.116" style="stroke:#000;stroke-opacity:.67048711"/><path d="m1014.173 690.166.067.119 7.469 6.649 7.468 6.65 7.469 6.65 7.469 6.649 7.469 6.65 7.468 6.65 7.469 6.65 7.469 6.649 7.468 6.65 7.469 6.65 7.469 6.649 7.469 6.65 7.468 6.65 7.469 6.649 7.469 6.65 7.468 6.65 7.469 6.65 7.469 6.649 7.468 6.65 7.469 6.65 7.469 6.649 7.469 6.65 7.468 6.65 7.469 6.649 7.152 6.368 7.468 6.65 2.69 2.394M1014.137 152.898v-.035l-.04.002h-.009l-.031.001-9.995.323-2.409.077M184.762 179.629l-9.995.323-9.995.323-9.995.322-9.994.323-9.995.322-9.995.323-9.995.322-9.994.323-7.572.244-2.809 4.251 1.01 9.949 1.009 9.949.949 9.346 7.269-.249.856-.03 9.994-.344 9.994-.343 2.894-.1 2.894-.099 9.994-.344 9.994-.343 7.554-.26 2.629-.09 9.994-.344 9.994-.344 3.372-.116" style="stroke:#000;stroke-opacity:.67048711"/><path d="m94.423 186.705 9.994-.325 9.995-.326 9.995-.325 9.995-.325 9.994-.325 9.995-.325 9.995-.325 9.994-.326 10.39-.338M644.939 758.425l-.396-9.992-.245-6.201-.396-9.992-.129-3.272" style="stroke:#000;stroke-opacity:.67048711"/><path d="m649.368 726.32-5.595 2.648-9.629-2.699-6.786-1.902M620.246 735.218l.369 8.67.325 7.625 9.609 2.768.382.11 1.653.476" style="stroke:#000;stroke-opacity:.67048711"/><path d="m632.584 754.867 9.609 2.767 2.746.791 8.992-4.375.949-.462M996.635 185.031l.227.208 4.527 4.158.029.026 2.023 1.858 2.393 2.198.251.231 2.26 2.075.848.779 4.446 4.083 3.916 3.596.275.253 6.437 5.912.987.906 7.365 6.764 7.365 6.764 6.093 5.595 7.134 6.552 1.308 1.201 7.365 6.764 4.522 4.153 7.365 6.764 7.365 6.764 5.562 5.107 6.901 6.338 7.365 6.764 6.87 6.309.043.039 6.424 5.9.135.124 7.365 6.764 7.365 6.764 7.366 6.764 7.365 6.764 7.365 6.764 7.365 6.764 7.366 6.765 3.417 3.138 6.158 5.655 7.365 6.764 1.165 1.07.552.507 5.229 4.802.523.48 7.365 6.764 7.365 6.764 7.366 6.765 7.023 6.45 7.365 6.764 3.445 3.163 7.365 6.764 2.803 2.574.668.613 5.788-.29.923-.046 3.744-.188 4.852-.244.131-.007.614-.03.062-.004.265-.013 5.667-.284 3.115-.157.895-.045 4.704-.236.287-7.636.043-1.134.375-9.993.263-6.981.062-1.673.376-9.993.048-1.278-7.676-6.41-7.676-6.409-7.676-6.41-7.676-6.409-7.676-6.409-7.676-6.41-7.675-6.409-7.676-6.41-7.676-6.409-7.676-6.41-7.676-6.409-7.676-6.41-7.676-6.409-7.676-6.409-7.675-6.41-7.676-6.409-7.676-6.41-7.676-6.409-7.676-6.41-7.676-6.409-7.676-6.41-7.676-6.409-7.675-6.409-7.676-6.41-7.676-6.409-7.676-6.41-7.676-6.409-7.676-6.41-7.676-6.409-7.676-6.409-7.676-6.41-7.675-6.409-7.676-6.41-5.94-4.96-.032-.026-.008-.007-.009-.007-.031.008" style="stroke:#000;stroke-opacity:.67048711"/><path d="m1242.479 370.84-.081 2.413-.339 9.995-.089 2.622-.093 2.763-.339 9.994-.188 5.576-.161 4.751-.022.648" style="stroke:#000;stroke-opacity:.67048711"/><path d="m998.171 158.579 7.549 6.559 7.548 6.558.746.648 7.548 6.558 2.669 2.318 7.548 6.559.526.457 7.412 6.439 7.548 6.558 7.549 6.559 7.549 6.559 7.549 6.558 7.549 6.559 7.549 6.558 7.548 6.559 7.549 6.559 7.549 6.558 7.549 6.559 7.549 6.558 7.548 6.559 7.549 6.559 7.549 6.558 7.549 6.559 7.549 6.558 7.549 6.559 7.548 6.558 7.549 6.559 7.549 6.559 7.549 6.558 7.549 6.559 7.549 6.558 7.548 6.559 7.549 6.559 7.549 6.558 6.493 5.642 9.989-.475 7.938-.378 9.989-.475 2.986-.142M184.849 226.739l-9.994.352-9.994.353-2.105.074-3.025.107-.312.01-9.994.353-9.994.352-3.797.134-2.997.106-3.675.129-9.993.353-9.994.352-2.291.081-2.219.078-9.994.352-.312.011-.161 9.999-.032 1.998 2.705 9.628 1.909 6.795 9.993-.37 9.994-.371 9.993-.37 3.185-.118.636-.024 3.026-.112 1.074-.04.213-.008 6.118-.226 9.993-.371 4.034-.149 3.796-.141.197-.007 1.262-.047 3.326-.123 1.077-.04 9.993-.37 8.411-.312" style="stroke:#000;stroke-opacity:.67048711"/><path d="m93.966 241.933 9.994-.359 1.678-.061 9.993-.36 9.994-.36 4.505-.162 2.392-.086 3.017-.109 9.994-.36 9.993-.359 2.927-.106 4.117-.148 1.304-.047 9.993-.36 9.994-.36 1.01-.036M1001.063 192.929l-5.445 8.388-5.444 8.388-1.914 2.948-1.037 1.597M185.134 381.664l-7.865.354-2.583.117-.691.031-5.151.232-.037.002-3.262.147-5.08.229-4.093.184-8.646.39-3.604.162-8.399.379-4.421.199-9.99.45-9.99.451-9.99.45-9.685.437-.161 9.998-.044 2.752 2.974 9.547 1.807 5.801 9.989-.468 9.989-.468 9.989-.468 4.872-.228 4.445-.209 9.989-.468 1.377-.064 3.591-.169 1.497-.07 1.728-.081 2.579-.12 4.115-.193 5.108-.24 3.611-.169 6.924-.324.614-.029 3.263-.153 1.857-.087 3.426-.16" style="stroke:#000;stroke-opacity:.67048711"/><path d="m91.442 398.628 9.99-.459 9.989-.458 9.99-.458 9.783-.449 9.989-.458 4.177-.192 6.671-.306 8.397-.385 5.093-.234 6.555-.3 6.378-.293 6.703-.308M185.437 545.891l-2.579.143-2.295.127-9.985.554-1.644.091-3.705.206-1.111.061-.427.024-3.53.196-.173.009-3.305.184-.918.051-9.984.554-9.985.553-1.334.074-4.561.253-9.985.554-9.984.554-9.985.554-9.985.554-.978.054-.161 9.999-.058 3.575 3.317 9.434 1.642 4.673 9.984-.572 9.984-.571 9.983-.572 5.989-.342 4.585-.263 9.983-.571 9.984-.572 1.447-.083 4.244-.243 2.964-.169 1.96-.112 1.235-.071.322-.018 8.31-.476 9.767-.559 1.023-.059" style="stroke:#000;stroke-opacity:.67048711"/><path d="m88.765 564.815 9.984-.562 9.984-.563 9.985-.562 9.984-.563 1.084-.061 9.984-.562 9.984-.563 10.195-.574.688-.039.839-.047 4.808-.271 9.984-.562 2.632-.148 6.562-.37M674.363 694.356l.1-.155-.156-.084M185.746 713.809l-9.461.625-9.979.66-.32.021-6.486.429-4.355.288-9.978.66-.426.028-9.978.66-1.363.09-.227.015-4.705.311-9.978.659-9.978.66-9.979.66-9.978.66-2.296.151-.161 9.999-.072 4.444 3.747 9.272 1.397 3.455 9.977-.677 9.977-.677 9.977-.677 4.221-.286 2.913-.198 4.728-.321 4.008-.271 9.977-.677 8.096-.55 3.749-.254.628-.043 9.95-.675 9.977-.677 6.448-.437" style="stroke:#000;stroke-opacity:.67048711"/><path d="m86.026 734.829 9.978-.669 9.978-.668 9.977-.669 9.978-.669 2.409-.161.818-.055 9.977-.669 9.978-.669 9.977-.668.363-.025 9.977-.668 3.223-.216 9.977-.669 3.136-.21M963.998 210.72l2.653 2.716 1.407 1.44 2.262 2.316 2.773 2.839 5.579 5.711.656.672 3.107 3.181 3.519 3.602 4.069 4.167 6.024 6.166 5.053 5.174 1.011 1.035 6.735 6.894 6.987 7.154 6.392 6.543 1.577 1.615 4.668 4.779 6.987 7.153 6.988 7.154.403.413 6.169 6.315 6.987 7.154 4.058 4.153 6.987 7.154 4.008 4.103 2.791 2.857 6.987 7.154 3.955 4.048 6.987 7.154 5.331 5.457 5.578 5.71 6.987 7.154 6.988 7.154.158.162 5.508 5.639 6.988 7.154 6.987 7.153 6.988 7.154 6.987 7.154 6.988 7.153 4.268 4.369 5.032 5.152 6.987 7.153 6.648 6.807.243.235 5.237 5.072 5.355 5.187 7.183 6.958 1.331 1.289.954.924.236.228 5.885 5.701 6.427-6.532.063-.064 5.98-6.078.93-.945-.724-.715-5.834-5.758-.457-.451-1.118-1.104-5.134-5.068-2.189-2.16-7.117-7.025-5.026-4.961-5.201-5.133-7.117-7.025-7.117-7.025-7.117-7.025-7.117-7.025-7.117-7.024-4.942-4.878-5.694-5.621-7.117-7.025-7.117-7.025-.378-.373-5.767-5.692-7.117-7.025-7.117-7.025-7.117-7.024-7.117-7.025-1.167-1.152-7.117-7.025-3.578-3.532-.336-.33-7.116-7.025-1.946-1.921-1.556-1.535-4.824-4.762-7.117-7.025-7.117-7.025-.637-.628-6.458-6.375-7.118-7.025-7.116-7.025-4.989-4.924-7.117-7.025-6.581-6.495-1.299-1.283-4.834-4.771-2.932-2.894-3.16-3.119-.406-.4-4.645-4.586-2.623-2.589-3.144-3.103-.309-.305-.898-.872-.336-.326-7.173-6.968-.141-.136-.31-.302-6.436-6.251" style="stroke:#000;stroke-opacity:.67048711"/><path d="m1193.651 418.354 7.164 6.977 3.65 3.553 7.164 6.977.157.152 1.677 1.634 5.83 5.677.731.712M971.617 199.094l6.395 6.315 7.115 7.026.324.32.564.557 6.906 6.82 7.116 7.027 7.115 7.026 3.01 2.972 7.116 7.027 6.684 6.601 7.115 7.026 7.115 7.027 4.722 4.662 7.115 7.026 7.115 7.027 7.116 7.026 4.732 4.673 1.619 1.599 7.115 7.026 7.115 7.027 6.069 5.993 7.116 7.026 7.115 7.027 7.115 7.026 7.116 7.027.946.934 7.115 7.026 7.115 7.027 7.116 7.026 4.716 4.658 7.115 7.026 7.116 7.027 7.115 7.026 7.115 7.027 7.116 7.026 4.933 4.871 6.761 6.677-.943.961-7.004 7.138-5.504 5.608M863.742 363.691l.002.005 1.368 2.217 3.946 6.397 3.271 5.302.619 1.004 3.594 5.827.1.162 2.619 4.245 5.25 8.511 1.148 1.863 5.085 8.242 5.123 8.306 5.25 8.511 1.034 1.676 3.29 5.334 5.25 8.511 3.821 6.195 3.252 5.271 5.25 8.511 3.959 6.418 4.026 6.527 5.25 8.511 3.974 6.444 4.12 6.678 5.25 8.511 5.25 8.511 5.25 8.512 5.25 8.511 5.25 8.511 5.25 8.511 5.337 8.652 5.25 8.511 2.029 3.289 4.683 7.593 5.25 8.511 2.118 3.433 5.25 8.511 5.25 8.511.772 1.252 7.41 6.715 3.68 3.334 7.41 6.715 1.305 1.182 7.243 6.563 7.013-7.129 6.158-6.258-5.465-8.38-5.463-8.377-1.115-1.709-5.462-8.376-5.463-8.377-3.988-6.115-5.462-8.376-2.127-3.261-4.825-7.399-4.698-7.204-.761-1.167-2.042-3.131-5.42-8.311-2.788-4.275-5.463-8.376-.215-.33-5.462-8.377-.684-1.048-5.463-8.376-5.462-8.376-1.729-2.652-.884-1.354-3.456-5.3-5.462-8.376-4.254-6.524-4.241-6.503-5.463-8.376-4.239-6.5-3.425-5.252-5.463-8.376-4.094-6.279-3.467-5.316-5.462-8.376-5.463-8.376-5.462-8.376-2.701-4.141-5.244-8.041-2.652-4.067-2.552-3.914-1.236-1.894-5.315-8.15-2.681-4.112-.408-.625-2.399-1.959-7.02-5.731-.184-.151-7.117-5.811" style="stroke:#000;stroke-opacity:.67048711"/><path d="m1025.001 590.218 7.393 6.734 3.678 3.349 7.393 6.734 7.393 6.734 1.143 1.042" style="stroke:#000;stroke-opacity:.67048711"/><path d="m871.951 351.165.009.013 3.77 5.889 1.624 2.536 5.391 8.422 1.959 3.059 5.392 8.421 2.669 4.17 5.392 8.422 5.392 8.422 1.04 1.624 5.392 8.421 5.392 8.422 3.914 6.113 5.392 8.422 5.392 8.422 5.383 8.409 5.392 8.422 4.144 6.472 5.392 8.422 5.392 8.422 5.392 8.421 1.809 2.826 5.392 8.422 5.392 8.422 5.392 8.422 5.392 8.422.507.792 5.392 8.422 5.392 8.421 1.284 2.005 5.392 8.422.728 1.138 5.392 8.422 5.392 8.422 2.818 4.401 5.392 8.421 2.769 4.327-7.004 7.137-6.215 6.334M755.884 528.261l3.494 9.37.639 1.715.526 1.41 3.493 9.37 1.884 5.05 2.04 5.472 3.494 9.37 1.495 4.01 3.494 9.37.475 1.273 3.493 9.37.51 1.365 3.493 9.37 3.494 9.369 3.494 9.37 3.494 9.37 2.491 6.681 3.494 9.37 1.805 4.841 3.417 9.164 3.494 9.369 1.893 5.077 3.493 9.369 3.494 9.37 3.494 9.37 3.494 9.37 3.494 9.37 3.493 9.369 3.494 9.37 3.494 9.37 3.494 9.37 3.794 10.174 7.625 6.47 3.71 3.149 7.625 6.47 1.282 1.088 7.403 6.282 7.014-7.129 5.935-6.032-3.761-9.266-.21-.516-3.761-9.266-1.018-2.509-3.762-9.266-3.761-9.265-3.761-9.266-3.761-9.266-3.761-9.265-3.762-9.266-3.761-9.266-3.761-9.265-3.761-9.266-3.761-9.266-1.67-4.113-3.761-9.266-1.948-4.797-3.622-8.924-3.761-9.266-1.858-4.577-3.762-9.266-3.761-9.265-3.761-9.266-3.761-9.266-3.761-9.266-3.762-9.265-2.14-5.272-3.761-9.266-.431-1.062-3.761-9.266-.396-.976-3.762-9.265-1.466-3.612-2.138-5.267-.447-1.102-8.318-5.55-2.108-1.407-7.895-5.267" style="stroke:#000;stroke-opacity:.67048711"/><path d="m859.723 758.646 7.608 6.49 3.708 3.162 7.608 6.49 7.609 6.489 1.066.91" style="stroke:#000;stroke-opacity:.67048711"/><path d="m764.753 514.729 3.628 9.318.606 1.557 3.629 9.319 1.958 5.03 3.628 9.318 3.629 9.319 3.628 9.318 3.628 9.319 1.311 3.368 3.628 9.318 3.629 9.319 3.628 9.318 3.628 9.319 3.628 9.319 2.371 6.088 3.628 9.319 3.629 9.319 3.628 9.318 3.646 9.366 3.629 9.319 3.628 9.318 3.628 9.319 3.628 9.318 3.628 9.319 3.629 9.319 3.628 9.318 3.628 9.319 3.628 9.318 1.628 4.181-7.004 7.138-5.991 6.105M643.878 699.16l1.982 9.802.191.948.009.044 1.981 9.801 1.327 6.565 1.981 9.802.156.77.964 4.768 1.981 9.802.43 2.126 1.981 9.802 1.372 6.789 1.981 9.801 1.981 9.802 1.981 9.802 1.982 9.802 1.981 9.802 1.981 9.801 1.981 9.802 1.981 9.802 1.981 9.802 1.982 9.801 1.981 9.802 1.981 9.802 1.981 9.802 1.981 9.802 1.981 9.801 1.977 9.777.787 3.895 6.497 5.18 6.927 5.522 1.558 1.242 7.819 6.233 5.396 4.302 2.265-2.302 6.129-6.229 4.079-4.146.268-.272-2.268-9.74-.313-1.344-1.27-5.456-1.837-7.888-2.268-9.74-2.267-9.739-2.268-9.74-2.268-9.739-2.267-9.74-2.268-9.739-2.268-9.74-2.267-9.739-2.268-9.74-2.268-9.739-2.267-9.74-2.268-9.739-2.268-9.74-2.267-9.739-2.268-9.74-2.268-9.739-2.267-9.74-2.646-11.362-2.267-9.739-.48-2.061-1.037-4.454-1.049-4.505-.488-2.093-.86-3.698-2.268-9.739-1.113-4.782-.332-1.423-.191-.821-.32-1.374-.034-.146-.022-.093-.028-.121-8.823-4.705-2.465-1.315-2.164-1.154" style="stroke:#000;stroke-opacity:.67048711"/><path d="m703.499 917.848 7.804 6.253 1.271 1.019 2.468 1.977 7.803 6.253 7.804 6.254 1.003.803M653.46 684.541l2.097 9.777 2.097 9.778.09.423.972 4.531 2.097 9.778 2.098 9.778 2.097 9.777 1.995 9.306 2.098 9.778 2.097 9.777 2.097 9.778 2.097 9.778 2.097 9.777 2.097 9.778 2.097 9.777 2.097 9.778 2.097 9.778 2.097 9.777 2.098 9.778 2.097 9.778 2.097 9.777 2.097 9.778 2.097 9.778 2.097 9.777 2.097 9.778.845 3.939-3.595 3.663-4.964 5.059-4.226 4.307M1005.07 526.212l-4.471-8.945-2.626-5.255-4.47-8.945-4.471-8.945-1.076-2.155-2.779-5.56-4.47-8.945-4.471-8.945-2.397-4.798-4.471-8.945-3.011-6.026-4.47-8.945-4.471-8.945-3.74-7.484-4.47-8.945-4.47-8.945-4.471-8.945-4.47-8.945-2.907-5.818-4.471-8.945-2.224-4.45-.068-.136 5.39-8.423 3.489-5.453 4.371-6.829.066.137 3.115 6.349 2.892 5.896 4.404 8.978 2.928 5.97 2.86 5.83 4.404 8.978 4.404 8.978 4.404 8.978 4.404 8.978 2.767 5.642 2.62 5.341 4.404 8.978 2.269 4.624.552 1.125 2.589 5.28 4.404 8.978 2.933 5.978 3.207 6.539 1.018 2.074 1.655 3.375 4.404 8.978.275.56M1082.93 297.326l-2.972 8.459M1262.66 423.627l5.288 4.819 3.749 3.417 4.074 3.714 7.391 6.736 7.39 6.736 4.281 3.902 5.083-5.145.35-.353 4.703-4.761.463-.468 6.785-6.867.652-.66 7.028-7.113 2.831-2.864-7.081-7.062-5.228-5.215-7.623-6.472-7.624-6.471-7.623-6.472-7.624-6.472-6.968-5.915" style="stroke:#000;stroke-opacity:.67048711"/><path d="m1310.419 412.443-7.024 7.117-3.648 3.697-7.024 7.117-.297.301-5.085 5.153-4.867 4.932M1262.692 422.751l6.489 5.908 6.624 6.03 6.669 6.071 7.119 7.023 5.24 5.168M131.965 306.072l-.642.026-.086 10-.086 9.999-.029 3.29.625 2.289M1107.834 287.153l-.997 1.627-.248.404 5.897 5.906.374.374 7.345 6.786 7.345 6.786 7.345 6.785 7.346 6.786 7.345 6.786 7.345 6.786 7.345 6.786 1.003.926 6.125 5.658 7.345 6.786 3.797 3.508.553.511 5.256 4.855.492.455 7.346 6.786 7.345 6.786 7.345 6.786 4.24 3.916M1398.622 559.461l7.345 6.786 7.346 6.786 7.345 6.785 7.345 6.786 7.345 6.786 7.346 6.786 6.074 5.611 7.083-7.059 5.567-5.547.418-.417 5.628-5.609.554-.551 7.084-7.059 1.038-1.034-7.081-7.062-4.538-4.526-7.538-6.571-7.537-6.572-7.537-6.572-7.538-6.572-7.537-6.572-7.537-6.572-7.537-6.571-7.538-6.572-7.537-6.572-7.537-6.572-7.538-6.572-7.537-6.571-7.537-6.572-7.538-6.572-7.537-6.572-7.537-6.572-7.538-6.572-7.537-6.571-7.537-6.572-8.443-7.362" style="stroke:#000;stroke-opacity:.67048711"/><path d="m1464.521 566.923-7.08 7.063-1.71 1.707-6.105 6.09-7.079 7.063-5.447 5.434M1387.42 548.421l7.348 6.783 7.348 6.783 7.348 6.783 7.348 6.783 7.348 6.783 7.348 6.783 5.592 5.161 7.12 7.022 4.548 4.485M1183.099 360.354l-2.285 3.909 5.164 5.169.434.435 7.314 6.82 7.314 6.819 7.314 6.82 6.377 5.946M1554.434 713.021l7.314 6.82 7.314 6.819 7.313 6.82 7.314 6.82 5.758 5.368 7.133-7.008 7.133-7.009 5.516-5.419.482-.473 6.488-6.375-7.082-7.06-3.87-3.859-7.478-6.64-7.477-6.64-7.477-6.64-7.478-6.64-7.477-6.64-7.477-6.64-7.478-6.64-7.477-6.64-7.477-6.64-7.478-6.64-7.477-6.64-7.477-6.64-7.478-6.64-7.477-6.64-7.477-6.64-7.478-6.64-7.477-6.64-7.477-6.64-2.637-2.341" style="stroke:#000;stroke-opacity:.67048711"/><path d="m1605.247 708.465-7.053 6.936-7.129 7.013-7.13 7.012-5.488 5.398" style="stroke:#000;stroke-opacity:.67048711"/><path d="m1543.691 702.433 7.316 6.818 7.315 6.818 7.316 6.817 7.316 6.818 5.493 5.12 7.121 7.02 3.879 3.824M1695.023 851.579l7.292 6.842 1.285 1.206 7.293 6.843 6.782 6.364 1.23-1.194 6.64-6.439 7.178-6.962 1.172-1.137 5.327-5.167 4.647-4.507-7.082-7.06-3.286-3.276-7.436-6.687-7.435-6.687-7.435-6.687-7.435-6.687-7.436-6.687-7.435-6.687-7.435-6.687-7.435-6.687-7.436-6.687-7.435-6.687-7.435-6.687-7.435-6.687-7.436-6.688-7.435-6.687-7.435-6.687-7.435-6.687-4.826-4.34" style="stroke:#000;stroke-opacity:.67048711"/><path d="m1733.501 837.092-5.142 4.992-7.175 6.966-7.174 6.966-5.788 5.619-.961.933M1684.744 841.448l3.641 3.415 7.294 6.842 7.293 6.841 4.289 4.022 7.121 7.021 3.293 3.245M633.824 784.255l1.749 9.846 1.749 9.846 1.75 9.845 1.749 9.846 1.749 9.846 1.749 9.846 1.75 9.846 1.749 9.845 1.749 9.846 1.749 9.846 1.75 9.846 1.749 9.846 1.749 9.846 1.749 9.845 1.749 9.846 1.75 9.846 1.749 9.846 1.749 9.846 1.749 9.845 1.75 9.846 1.749 9.846 1.749 9.846 1.749 9.846 1.75 9.846 1.749 9.845.855 4.815 9.961-.889 9.96-.889 9.961-.889 8.677-.774-.316-9.996-.316-9.994-.316-9.996-.145-4.573-2.064-9.784-2.064-9.785-.169-.8" style="stroke:#000;stroke-opacity:.67048711"/><path d="m715.876 997.215-9.962.867-9.962.867-9.963.866-8.848.77M632.584 754.867l.041.224 1.784 9.84 1.784 9.84 1.784 9.839 1.785 9.84 1.784 9.839 1.784 9.84 1.784 9.839 1.785 9.84 1.784 9.839 1.784 9.84 1.784 9.839 1.784 9.84 1.785 9.839 1.784 9.84 1.784 9.84 1.784 9.839 1.785 9.84 1.784 9.839 1.784 9.84 1.784 9.839 1.785 9.84 1.784 9.839 1.784 9.84 1.784 9.839 1.695 9.345.366 9.993.366 9.994.367 9.993.17 4.65M1671.469 894.65l7.102 7.04 7.103 7.039 7.102 7.04 7.103 7.039 7.102 7.04 7.103 7.039 5.446 5.397 9.96-.889 9.96-.889 9.961-.889 3.612-.323 1.015-9.948 1.015-9.948 1.014-9.949.28-2.743-7.299-6.836-7.299-6.836-4.306-4.033" style="stroke:#000;stroke-opacity:.67048711"/><path d="m1756.347 906.706-9.962.866-9.963.867-9.962.867-3.739.325M1704.255 891.843l7.202 6.938 7.202 6.937 4.062 3.913-.973 9.952-.973 9.953-.972 9.953-.273 2.795M632.625 755.091l-.041-.224M632.625 755.091l-1.66.118-9.975.705-9.976.706-9.975.705-9.975.706-9.975.705-9.975.706-9.975.705-9.975.706-9.975.706-9.975.705-9.975.706-9.975.705-9.975.706-9.975.705-9.976.706-9.975.706-9.975.705-9.975.706-9.975.705-9.975.706-9.975.705-9.975.706-9.975.705-9.975.706-9.975.706-9.975.705-9.975.706-9.976.705-9.975.706-9.975.705-9.975.706-9.975.705-9.975.706-9.975.706-9.975.705-9.975.706-9.975.705-9.975.706-9.975.705-9.976.706-9.975.705-9.975.706-9.975.706-9.975.705-9.975.706-9.975.705-9.975.706-9.975.705-9.975.706-9.975.705-9.975.706-9.975.706-9.976.705-12.258.867" style="stroke:#000;stroke-opacity:.67048711"/><path d="m122.699 778.716-9.976.698-9.975.697-8.798.616-2.942 9.557-.981 3.186 1.092 9.94 1.091 9.941 1.117 10.165 9.973-.724 9.974-.725 9.974-.724 9.974-.725 9.973-.724 9.974-.725 9.974-.724 9.973-.725 9.974-.724 9.974-.725 9.974-.724 9.973-.725 9.974-.724 9.974-.725 9.974-.724 9.973-.725 9.974-.724 9.974-.725 9.973-.724 9.974-.725 9.974-.724 9.974-.724 9.973-.725 9.974-.724 9.974-.725 9.973-.724 9.974-.725 9.974-.724 9.974-.725 9.973-.724 9.974-.725 9.974-.724 9.974-.725 9.973-.724 9.974-.725 9.974-.724 9.973-.725 9.974-.724 9.974-.725 9.974-.724 9.973-.725 9.974-.724 9.974-.725 9.973-.724 9.974-.725 9.974-.724 9.974-.725 9.973-.724 9.974-.725 9.974-.724 9.973-.724 9.974-.725 9.974-.724 11.89-.864M747.848 512.24l-.005-.17-.739-6.892-.746-6.953-1.067-9.943-.602-5.614-.728-6.785-1.067-9.943-.597-5.565-.587-5.472-1.067-9.943-.57-5.313-.593-5.53-1.066-9.942-1.067-9.943-1.067-9.943-1.066-9.943-.344-3.2-.646-6.021-.111-1.037-1.067-9.943-.229-2.139-.248-2.312-.051-.475-.602-5.608-.703-6.56-1.067-9.943-1.067-9.942-1.067-9.943-1.066-9.943-.638-5.948-.717-6.685-1.067-9.943-.603-5.618-.724-6.75-1.067-9.943-1.066-9.943-1.067-9.943-1.067-9.943-.769-7.168-1.066-9.943-.157-1.46-.162-1.51-.318-2.967-.483-4.502-.749-6.974-.928-8.657-.497-4.627-.312-2.911-.138-1.285-1.067-9.943-1.066-9.943-.432-4.022-.427-3.985-1.067-9.943-1.067-9.943-.264-2.464-9.071.457.32 9.995.17 5.331.726 6.898.42 3.988 1.046 9.945 1.047 9.945.424 4.035.136 1.286.306 2.913.487 4.631.912 8.663.734 6.98.474 4.506.313 2.968.159 1.512 1.046 9.945.154 1.466 1.047 9.945 1.046 9.946 1.047 9.945 1.046 9.945.757 7.195.711 6.755 1.046 9.945.592 5.628.704 6.69 1.047 9.945 1.046 9.945 1.046 9.946 1.047 9.945.629 5.975.69 6.564.591 5.613.05.475.243 2.314 1.047 9.945.226 2.147.109 1.038.634 6.026 1.046 9.945 1.047 9.945 1.046 9.945 1.046 9.945.34 3.226.582 5.534 1.046 9.945.56 5.323.577 5.476 1.046 9.945.587 5.576.714 6.791 1.047 9.945.591 5.625.733 6.958 1 9.506 1.046 9.945.146 1.387" style="stroke:#000;stroke-opacity:.67048711"/><path d="m698.89 140.774 1.048 9.945 1.049 9.945.242 2.298 1.049 9.945 1.048 9.945.982 9.307.307 2.912 1.049 9.945.353 3.348 1.048 9.945.476 4.508 1.048 9.945.314 2.977 1.049 9.945 1.048 9.945 1.049 9.945 1.049 9.945.758 7.192 1.049 9.945 1.048 9.944.963 9.127 1.048 9.945 1.049 9.944 1.048 9.945 1.049 9.945.63 5.972.692 6.564 1.048 9.945 1.049 9.945.064.602.744 7.064 1.049 9.944 1.049 9.945 1.048 9.945 1.049 9.945.34 3.222 1.048 9.945 1.049 9.945.673 6.387 1.049 9.944.588 5.575 1.048 9.945 1.049 9.945.994 9.426 1.002 9.505 1.035 9.819M812.221 414.65l-1.207-9.927-1.207-9.927-.869-7.154-.728-5.988-.126-1.032-1.206-9.927-.254-2.089-.28-2.299-.057-.472-.678-5.578-.793-6.523-1.207-9.927-1.207-9.927-1.207-9.927-1.207-9.927-.7-5.764-.809-6.648-1.206-9.927-.675-5.551-.817-6.714-1.206-9.927-1.207-9.927-1.207-9.927-1.207-9.927-.849-6.984-1.207-9.927-.172-1.416-.182-1.503-.359-2.951-.545-4.478-.843-6.939-1.047-8.612-.56-4.603-.352-2.896-.155-1.278-1.207-9.927-1.207-9.927-.478-3.931-.482-3.965-1.206-9.926-1.207-9.927-.251-2.06-9.059-.166.246 9.997.132 5.329.847 7.092.474 3.968 1.186 9.929 1.186 9.929.471 3.945.153 1.279.346 2.898.55 4.607 1.03 8.619.829 6.944.536 4.481.353 2.954.179 1.504 1.186 9.929.17 1.422 1.186 9.93 1.186 9.929 1.187 9.93 1.186 9.929.837 7.011.803 6.719 1.186 9.93.664 5.56.795 6.654 1.186 9.93 1.186 9.929 1.186 9.93 1.186 9.929.692 5.791.78 6.529.667 5.582.056.472.275 2.301 1.186 9.93.251 2.096.123 1.032.716 5.993 1.186 9.93 1.186 9.929 1.186 9.929 1.186 9.93.119.99" style="stroke:#000;stroke-opacity:.67048711"/><path d="m769.586 138.298 1.189 9.929 1.189 9.93.301 2.512 1.188 9.929 1.189 9.929 1.101 9.189.347 2.898 1.189 9.929.394 3.295 1.189 9.929.533 4.449 1.189 9.929.35 2.925 1.189 9.929 1.189 9.929 1.189 9.929 1.189 9.929.839 7.007 1.189 9.929 1.189 9.929 1.078 9.003 1.189 9.929 1.189 9.929 1.189 9.929 1.189 9.929.693 5.787.782 6.528 1.189 9.929 1.189 9.929.062.521.841 7.024 1.189 9.929 1.189 9.929 1.189 9.93 1.08 9.018M680.468 614.388l-.008-.213-.925-9.957-.924-9.958-.925-9.957-.925-9.957-.925-9.957-.924-9.957-.811-8.729-.925-9.957-.273-2.94-.083-.891-.924-9.957-.282-3.038-.888-9.553-.649-6.993-.925-9.957-.528-5.69-.634-6.824-.925-9.957-.524-5.641-.511-5.502-.924-9.957-.501-5.386-.516-5.561-.925-9.957-.924-9.958-.925-9.957-.925-9.957-.314-3.384-.563-6.055-.096-1.043-.925-9.957-.204-2.193-.216-2.325-.044-.477-.524-5.639-.612-6.596-.925-9.957-.925-9.957-.925-9.957-.924-9.957-.571-6.142-.624-6.721-.925-9.957-.528-5.689-.63-6.786-.925-9.957-.925-9.957-.924-9.958-.925-9.957-.684-7.362-.925-9.957-.139-1.506-.141-1.518-.277-2.982-.421-4.526-.651-7.011-.808-8.702-.432-4.652-.272-2.926-.12-1.291-.925-9.958-.924-9.957-.383-4.117-.372-4.006-.924-9.957-.925-9.957-.194-2.089-9.173.312.393 9.992.208 5.265.614 6.757.364 4.008.905 9.959.905 9.959.375 4.132.118 1.292.266 2.928.423 4.655.791 8.709.637 7.016.412 4.529.271 2.984.138 1.52.905 9.959.137 1.512.905 9.959.905 9.959.905 9.959.905 9.959.671 7.39.618 6.791.904 9.959.518 5.699.611 6.726.905 9.959.905 9.958.905 9.959.905 9.959.56 6.17.6 6.601.513 5.643.043.478.212 2.327.905 9.959.199 2.2.095 1.044.551 6.059.905 9.959.905 9.959.905 9.959.904 9.959.31 3.411.506 5.566.905 9.959.49 5.395.501 5.508.904 9.959.514 5.65.62 6.83.905 9.959.518 5.7.636 6.999.869 9.561.905 9.959.277 3.047.081.891.905 9.959.267 2.949.905 9.959.905 9.959.905 9.959.905 9.959.905 9.959.905 9.959.905 9.959.904 9.959.269 2.951" style="stroke:#000;stroke-opacity:.67048711"/><path d="m627.526 143.287.906 9.959.906 9.959.189 2.071.906 9.959.907 9.958.858 9.431.267 2.928.906 9.959.31 3.404.906 9.958.416 4.571.907 9.958.276 3.032.906 9.959.907 9.958.906 9.959.906 9.959.673 7.387.906 9.959.907 9.959.842 9.256.907 9.958.906 9.959.906 9.959.907 9.959.561 6.167.601 6.601.906 9.958.907 9.959.062.688.647 7.103.906 9.959.907 9.959.906 9.959.907 9.959.31 3.408.906 9.959.907 9.959.592 6.508.907 9.959.514 5.65.906 9.959.907 9.959.871 9.568.87 9.56.906 9.959.907 9.959.627 6.886.906 9.959.906 9.958.907 9.959.906 9.959.907 9.959.906 9.959.907 9.959.906 9.958.127 1.399M680.46 614.175l-5.591 8.291-3.286 4.873.018.49M932.663 232.06l-.687-4.587-1.481-9.89-.2-1.336-.223-1.487-.438-2.921-.664-4.432-1.028-6.867-1.277-8.524-.682-4.556-.43-2.866-.189-1.265-1.482-9.89-1.481-9.89-.564-3.764-.588-3.924-1.481-9.89-1.481-9.889-.287-1.914-8.808.501.067 9.999.034 4.9.981 6.647.579 3.928 1.46 9.893 1.46 9.892.557 3.777.187 1.266.424 2.869.673 4.56 1.258 8.53 1.015 6.873.654 4.436.432 2.923.219 1.488 1.46 9.893.198 1.342 1.46 9.893 1.203 8.153" style="stroke:#000;stroke-opacity:.67048711"/><path d="m909.192 134.669 1.464 9.892 1.464 9.892.251 1.695 1.464 9.892 1.464 9.892 1.327 8.967.424 2.868 1.464 9.892.473 3.197 1.464 9.892.642 4.337 1.464 9.892.419 2.829 1.464 9.892.825 5.577M195.817 172.209l-.894-9.96-.489-5.451-9.714.255.019 10 .018 10 .005 2.576.008 4.136.018 10 .018 10 .009 4.821.003 1.335.005 3.022.009 4.806.017 8.99.013 7.245.009 4.676.005 3.081.003 1.569.019 10 .003 1.847.018 10 .019 10 .018 10 .019 10 .016 8.786.013 7.019.018 10 .012 6.182.011 6.038.001.914.019 10 .018 10 .005 2.442.018 10 .005 2.447.018 10 .005 2.679.002 1.283.011 5.544.01 5.837.001.495.005 2.406.018 10 .005 2.579.002 1.08.012 6.269.011 6.391.019 10 .018 10 .005 2.455.018 10 .011 5.911.01 5.515.001.246.018 10 .011 5.897.01 5.703.019 10 .006 3.339.005 2.826.013 7.073.019 10 .011 6.221.013 7.251.003 1.176.002 1.258.014 7.472.012 6.893.006 2.871.007 3.713.001.924.006 3.384.009 4.762.003 1.638.007 3.593.008 4.187.018 10 .013 7.06.017 8.954.018 10 .018 10 .019 10 .009 5.26.019 10 .018 10 .019 10 .014 7.513.018 10 .018 10 .019 10 .013 7.166.018 10 .006 3.107.002 1.228.019 10 .005 2.992.019 10 .018 10 .019 10 .006 3.162.004 2.377 1.55 4.671 9.975-.702.9-.064-.029-7.149-.041-10-.041-10-.04-10-.013-3.131-.04-10-.013-2.98-.005-1.227-.04-10-.013-3.095-.04-10-.041-10-.04-10-.041-10-.041-10-.04-10-.041-10-.04-9.999-.019-4.601-.041-10-.04-9.999-.041-10-.022-5.414-.04-10-.041-10-.041-10-.013-3.366-.004-.923-.041-10-.014-3.465-.04-9.897-.029-7.244-.002-.354-.04-10-.024-5.853-.029-7.067-.033-8.21-.019-4.62-.013-3.322-.023-5.697-.041-10-.012-2.93-.012-2.954-.023-5.757-.041-10-.04-10-.041-9.999-.04-10-.02-4.719-.025-6.264-.004-1.08-.02-4.762-.031-7.805-.01-2.405-.002-.494-.024-5.832-.026-6.318-.002-.504-.04-10-.041-10-.04-10-.041-9.999-.03-7.53-.029-6.946-.04-10-.025-6.169-.029-7.013-.04-10-.041-9.999-.04-10-.041-10-.036-8.748-.04-10-.008-1.837-.006-1.568-.012-3.079-.019-4.673-.03-7.239-.036-8.983-.02-4.801-.012-3.02-.005-1.334-.041-10-.041-10-.019-4.801-.017-4.133-.029-7.063" style="stroke:#000;stroke-opacity:.67048711"/><path d="m185.862 776.675 9.975-.699.945-.066M194.434 156.798l.038 10 .038 10 .009 2.517.038 9.999.038 10 .039 10.271.011 3.021.038 9.999.015 3.787.038 10 .019 4.992.038 10 .012 3.406.038 10 .038 10 .038 10 .038 10 .033 8.752.038 10 .038 10 .039 10.131.038 10 .038 10 .038 10 .037 10 .009 2.124.02 5.409.026 6.822.038 10 .038 10 .005 1.301.028 7.344.038 10 .037 10 .038 10 .038 10 .018 4.724.038 10 .038 9.999.019 5.042.009 2.299.038 10 .01 2.692.013 3.461.038 10 .038 10 .038 10 .002.522.038 9.898.037 10 .038 10 .03 7.757.033 8.849.038 10 .025 6.552.038 10 .038 10 .038 10 .021 5.662.038 10 .038 9.999.038 10 .038 10 .038 10 .038 10 .038 10 .034 8.966.038 10 .038 10 .028 7.305.038 10 .037 10 .038 10 .012 3.135.009 2.375 1.505 4.67M615.396 735.728l-2.21-9.578M613.186 726.15l-2.145-6.511M611.041 719.639l.37 9.993.186 5.017 3.799 1.079 3.806 1.082 1.044-1.592 5.481-8.363 1.631-2.488 5.387-8.22 3.659-5.583 5.482-8.364 1.992-3.04.737-1.125.13-.198 1.129-1.722 5.482-8.364 2.104-3.21.799-1.221.025-.038 5.482-8.363 5.481-8.364 5.482-8.364 5.481-8.364 5.482-8.363 5.482-8.364 5.481-8.364 5.482-8.364 5.481-8.363 5.482-8.364 5.481-8.364 5.482-8.364 5.481-8.364 5.482-8.363 5.482-8.364 5.481-8.364 5.205-7.942 5.482-8.364 3.208-4.895.091-.139.15-.229.187-.285 5.481-8.364 2.96-4.515.27-.411.126-.194 5.482-8.364 1.273-1.943 4.745-7.24 5.482-8.363 5.123-7.818 4.62-7.048 5.481-8.364 5.066-7.729 3.717-5.672 5.482-8.364 4.871-7.432 3.749-5.72 5.481-8.364 5.482-8.364 5.481-8.363 5.482-8.364 5.481-8.364 1.65-2.516 4.061-6.197.699-1.067 5.482-8.364 2.659-4.057 1.543-2.354.001-.002.013-.019.138-.211 3.955-6.036 4.101-6.256.002-.004.149-.227 5.482-8.364 5.481-8.363 5.482-8.364 5.481-8.364 5.482-8.364 3.418-5.216 4.472-6.822 5.481-8.364 4.916-7.501 4.505-6.874 5.482-8.364 5.482-8.363 5.481-8.364 5.482-8.364 5.481-8.364 3.834-5.849 5.482-8.364 2.085-3.182 1.001-1.528 1.569-2.393.319-.487.009-.013 3.054-4.66 4.537-6.924.019-.029.003-.004 5.482-8.363.308-.471 3.06-4.669 1.924-2.936.85-1.296 5.481-8.364 5.482-8.364 2.524-3.851.049-.075 1.391-2.122 1.253-1.912.014-.022 2.215-3.379 5.481-8.363 2.475-3.776.107-9.999.043-4.038-4.113 2.821-6.062.697-5.506 8.348-5.507 8.347-4.303 6.524-2.647 4.013-5.506 8.348-5.507 8.347-4.892 7.417-.856 1.298-1.94 2.94-3.084 4.676-5.506 8.347-.268.406-4.656 7.058-3.006 4.559-1.983 3.005-1.009 1.53-5.506 8.347-2.12 3.214-3.119 4.728-1.778 2.695-5.506 8.348-.114.172-1.752 2.656-5.506 8.348-5.506 8.347-5.506 8.348-2.699 4.091-4.541 6.883-5.506 8.348-4.973 7.539-4.507 6.832-5.506 8.348-5.501 8.339-1.566 2.374-5.506 8.348-.654.991-1.538 2.331-5.506 8.347-5.131 7.778-4.446 6.741-3.804 5.767-.322.488-1.569 2.379-5.506 8.347-2.699 4.092-.705 1.069-4.094 6.205-5.506 8.348-5.506 8.347-5.506 8.348-1.977 2.996-1.333 2.021-5.506 8.347-1.238 1.876-1.301 1.974-1.414 2.142-3.778 5.728-5.507 8.348-4.929 7.472-3.746 5.68-5.506 8.348-5.125 7.769-4.657 7.059-5.506 8.348-5.183 7.857-4.783 7.251-4.861 7.37-1.066 1.615-.612.929-5.507 8.347-.406.616-.85 1.288-1.042 1.58-1.102 1.67-.61.926-5.507 8.348-3.345 5.071-5.506 8.347-5.506 8.348-5.506 8.347-5.507 8.348-5.506 8.347-5.506 8.348-5.506 8.347-5.507 8.348-3.283 4.978-.801 1.214-5.507 8.347-2.559 3.88-.733 1.112-5.507 8.348-5.506 8.347-5.506 8.348-5.506 8.347-5.507 8.348-5.506 8.347-3.375 5.117-5.506 8.347-3.284 4.978-.823 1.248-5.506 8.348-3.217 4.876-5.078 7.699" style="stroke:#000;stroke-opacity:.67048711"/><path d="m1009.759 127.09-5.495 8.355-5.494 8.355-5.495 8.355-.928 1.412-5.495 8.355-5.495 8.355-5.495 8.355-2.854 4.34-1.932 2.938-5.495 8.355-3.331 5.065-5.495 8.355-4.115 6.258-5.495 8.355-3.11 4.728-5.494 8.355-5.495 8.355-.234.355-5.494 8.355-2.322 3.53-5.495 8.355-5.495 8.355-1.343 2.043-5.495 8.355-5.495 8.355-5.495 8.355-2.971 4.518-5.495 8.355-5.495 8.355-5.494 8.355-2.812 4.276-5.495 8.355-2.523 3.836-3.482 5.294-4.43 6.736-5.494 8.355-5.495 8.355-2.86 4.349-4.781 7.269-5.495 8.356-5.495 8.355-5.494 8.355-5.495 8.355-4.892 7.438-2.309 3.511-5.495 8.355-.535.813-5.494 8.355-5.495 8.355-.876 1.331-5.494 8.355-5.098 7.751-5.495 8.355-5.494 8.355-5.495 8.355-3.57 5.429-5.495 8.355-1.021 1.551-5.494 8.355-1.427 2.17-5.495 8.355-3.141 4.776-2.743 4.171-5.495 8.355-5.495 8.355-5.494 8.355-5.495 8.355-5.495 8.355-5.495 8.355-5.495 8.355-5.494 8.355-5.495 8.355-5.495 8.356-.95 1.443-5.494 8.355-3.481 5.293-5.495 8.355-5.495 8.355-5.494 8.355-5.495 8.355-5.495 8.355-.653.993-5.495 8.355-5.495 8.355-5.494 8.355-1.784 2.712-5.495 8.355-1.393 2.118" style="stroke:#000;stroke-opacity:.67048711"/><path d="m1005.646 129.911-5.498 8.353-5.498 8.353-4.624 7.025-5.498 8.353-5.498 8.352-5.498 8.353-2.864 4.352-1.934 2.938-5.499 8.353-3.337 5.07-5.498 8.353-4.122 6.262-5.498 8.353-3.115 4.733-5.498 8.353-3.364 5.11-5.498 8.353-2.736 4.156-5.498 8.353-5.498 8.353-3.313 5.034-5.498 8.352-5.499 8.353-5.498 8.353-2.981 4.53-5.498 8.353-5.499 8.353-5.498 8.353-.413.628-5.498 8.352-2.886 4.385-5.536 8.411-4.435 6.737-5.498 8.353-5.498 8.353-2.868 4.357-4.786 7.271-5.498 8.353-5.498 8.353-5.498 8.352-5.498 8.353-2.462 3.74-4.757 7.227-3.892 5.914-5.498 8.352-5.499 8.353-3.024 4.595-5.498 8.353-5.106 7.756-5.498 8.353-5.498 8.353-5.498 8.353-3.581 5.441-5.499 8.353-1.024 1.556-4.451 6.763-5.499 8.353-3.381 5.137-4.988 7.579-5.499 8.353-5.498 8.353-5.498 8.353-5.498 8.353-5.498 8.353-5.498 8.352-5.498 8.353-5.498 8.353-5.498 8.353-3.956 6.009-5.498 8.353-3.657 5.556-5.498 8.353-5.498 8.353-5.498 8.353-5.498 8.352-5.498 8.353-3.016 4.582-5.498 8.353-5.498 8.353-5.498 8.352-1.793 2.725-5.498 8.352-4.155 6.313 5.472-4.376.362 9.993.182 5.043M873.762 321.354l-1.345-9.909-.845-6.223-.898-6.613-1.345-9.909-.744-5.486-.907-6.679-1.345-9.909-1.345-9.909-1.345-9.909-1.345-9.909-.924-6.81-1.345-9.909-.187-1.375-.203-1.495-.398-2.936-.605-4.455-.937-6.903-1.163-8.567-.622-4.58-.391-2.88-.172-1.272-1.346-9.91-1.345-9.909-.522-3.845-.535-3.944-1.345-9.909-1.345-9.909-.257-1.894-8.962-.009.191 9.998.105 5.529.874 6.54.527 3.948 1.324 9.912 1.324 9.912.515 3.858.17 1.273.385 2.883.612 4.583 1.146 8.574.922 6.909.596 4.458.392 2.938.2 1.496 1.324 9.912.185 1.381 1.324 9.912 1.324 9.912 1.324 9.912 1.324 9.912.913 6.836.892 6.684 1.324 9.912.735 5.496.884 6.619 1.324 9.912 1.323 9.911 1.321 9.888" style="stroke:#000;stroke-opacity:.67048711"/><path d="m839.694 136.388 1.327 9.911 1.328 9.912.293 2.187 1.327 9.912 1.328 9.911 1.215 9.076.386 2.882 1.328 9.912.434 3.244 1.328 9.912.588 4.391 1.327 9.912.386 2.876 1.327 9.911 1.328 9.912 1.327 9.911 1.327 9.912.915 6.831 1.328 9.912 1.327 9.911 1.19 8.884 1.328 9.911 1.327 9.912 1.023 7.634M271.151 169.811l-.806-9.967-.434-5.374-9.622.253.17 9.998.171 9.999.042 2.46.07 4.114.17 9.998.17 9.999.08 4.691.023 1.328.051 3.006.081 4.78.152 8.942.123 7.205.079 4.651.052 3.065.027 1.561.17 9.998.031 1.784.17 9.998.17 9.999.17 9.998.171 9.999.145 8.524.119 6.98.17 9.999.104 6.093.117 6.913.17 9.999.171 9.998.17 9.999.17 9.998.125 7.306.115 6.788.099 5.805.008.491.041 2.393.17 9.998.043 2.508.018 1.074.106 6.233.171 9.999.17 9.998.17 9.999.17 9.998.077 4.504.098 5.727.17 9.999.099 5.806.096 5.669.17 9.998.104 6.072.12 7.031.17 9.998.104 6.126.123 7.208.167 9.846.171 9.998.058 3.398.015.919.17 9.998.057 3.298.17 9.999.17 9.998.17 9.999.17 9.999.171 9.998.17 9.999.17 9.998.17 9.999.171 9.998.17 9.999.17 9.998.17 9.999.171 9.999.158 9.291.17 9.999.052 3.026.02 1.22.171 9.998.049 2.911.17 9.999.171 9.998.17 9.999.05 2.954.04 2.362 1.198 4.67 9.975-.703.784-.055-.136-7.104-.192-9.998-.191-9.998-.192-9.998-.056-2.926-.191-9.998-.056-2.9-.023-1.218-.192-9.999-.057-3.014-.192-9.999-.191-9.998-.192-9.998-.191-9.998-.192-9.998-.191-9.998-.192-9.999-.191-9.998-.192-9.998-.191-9.998-.191-9.998-.192-9.998-.191-9.999-.176-9.175-.192-9.999-.063-3.287-.017-.917-.192-9.999-.064-3.387-.189-9.837-.138-7.202-.191-9.998-.117-6.113-.135-7.025-.191-9.998-.116-6.059-.109-5.664-.191-9.998-.111-5.793-.11-5.723-.191-9.999-.192-9.998-.191-9.998-.192-9.998-.085-4.469-.12-6.228-.02-1.073-.192-9.998-.047-2.498-.046-2.391-.01-.491-.111-5.8-.13-6.782-.191-9.999-.192-9.998-.191-9.998-.191-9.998-.14-7.27-.132-6.908-.191-9.998-.117-6.081-.133-6.974-.192-9.998-.191-9.998-.192-9.999-.191-9.998-.163-8.488-.191-9.999-.034-1.775-.03-1.559-.059-3.063-.089-4.647-.138-7.2-.171-8.935-.091-4.776-.058-3.004-.025-1.327-.192-9.998-.191-9.998-.09-4.674-.078-4.111-.135-7.026" style="stroke:#000;stroke-opacity:.67048711"/><path d="m270.777 770.723 9.976-.7.828-.058M269.911 154.47l.189 9.998.19 9.998.045 2.402.19 9.998.189 9.998.192 10.113.057 3.005.19 9.998.07 3.714.19 9.998.093 4.913.189 9.998.064 3.335.189 9.999.19 9.998.189 9.998.19 9.998.161 8.492.19 9.998.189 9.998.189 9.967.19 9.999.189 9.998.19 9.998.189 9.998.138 7.273.129 6.783.189 9.999.19 9.998.022 1.183.139 7.302.189 9.998.19 9.998.19 9.998.189 9.998.085 4.472.19 9.998.189 9.998.136 7.184.19 9.999.115 6.059.189 9.998.19 9.999.189 9.998.007.345.187 9.839.189 9.998.19 9.998.144 7.594.189 9.998.19 9.999.189 9.998.19 9.998.19 9.998.189 9.998.19 9.999.189 9.998.19 9.998.189 9.998.19 9.998.19 9.999.189 9.998.174 9.186.19 9.998.189 9.998.136 7.136.189 9.998.19 9.998.189 9.998.056 2.929.045 2.359 1.153 4.67M345.769 167.437l-.719-9.975-.381-5.298-9.531.25.321 9.995.32 9.995.076 2.349.131 4.093.321 9.995.32 9.994.147 4.569.042 1.32.096 2.99.153 4.754.285 8.894.23 7.167.148 4.626.098 3.049.05 1.552.321 9.995.055 1.723.32 9.995.321 9.995.321 9.995.32 9.995.266 8.274.222 6.941.321 9.995.193 6.008.22 6.875.321 9.995.321 9.995.32 9.995.321 9.995.226 7.055.217 6.75.185 5.771.016.488.076 2.38.32 9.995.079 2.44.034 1.068.199 6.197.32 9.995.321 9.995.321 9.995.32 9.995.137 4.261.183 5.695.32 9.995.184 5.717.181 5.636.32 9.995.192 5.98.224 6.99.321 9.995.193 6.034.23 7.165.314 9.788.321 9.994.107 3.322.029.913.32 9.995.104 3.222.32 9.995.321 9.994.321 9.995.32 9.995.321 9.995.321 9.995.32 9.995.321 9.995.32 9.994.321 9.995.321 9.995.32 9.995.321 9.995.272 8.484.321 9.995.094 2.947.039 1.212.321 9.995.091 2.833.32 9.995.321 9.995.321 9.995.088 2.756.075 2.346.853 4.669 9.975-.703.669-.047-.24-7.058-.341-9.994-.341-9.994-.341-9.995-.093-2.729-.341-9.994-.096-2.823-.042-1.211-.341-9.994-.1-2.938-.341-9.994-.341-9.994-.341-9.994-.341-9.994-.341-9.995-.341-9.994-.34-9.994-.341-9.994-.341-9.994-.341-9.994-.341-9.995-.341-9.994-.341-9.994-.286-8.377-.341-9.994-.109-3.212-.031-.912-.341-9.995-.113-3.311-.334-9.78-.244-7.159-.341-9.994-.206-6.022-.238-6.984-.341-9.994-.203-5.969-.192-5.631-.341-9.994-.195-5.706-.194-5.69-.341-9.994-.341-9.994-.341-9.994-.341-9.995-.144-4.229-.211-6.193-.037-1.067-.341-9.994-.083-2.432-.081-2.377-.016-.488-.197-5.767-.23-6.745-.341-9.994-.341-9.994-.341-9.994-.341-9.995-.24-7.022-.234-6.87-.341-9.994-.204-5.996-.237-6.936-.341-9.994-.341-9.995-.341-9.994-.341-9.994-.281-8.241-.341-9.995-.058-1.715-.053-1.551-.104-3.047-.158-4.622-.244-7.162-.303-8.888-.162-4.75-.102-2.988-.045-1.32-.341-9.994-.341-9.994-.156-4.552-.139-4.089-.238-6.989" style="stroke:#000;stroke-opacity:.67048711"/><path d="m354.784 764.834 9.976-.699.712-.05" style="stroke:#000;stroke-opacity:.67048711"/><path d="m344.669 152.164.34 9.994.339 9.995.078 2.291.34 9.995.34 9.994.339 9.962.101 2.988.34 9.994.124 3.645.34 9.994.164 4.837.34 9.994.111 3.267.34 9.995.339 9.994.34 9.994.34 9.994.28 8.244.34 9.994.34 9.994.333 9.809.34 9.995.34 9.994.34 9.994.339 9.994.239 7.024.229 6.745.34 9.994.34 9.995.036 1.07.247 7.26.34 9.995.34 9.994.34 9.994.339 9.994.144 4.232.34 9.994.34 9.994.239 7.034.34 9.994.203 5.97.339 9.994.34 9.994.346 10.172.332 9.781.34 9.994.34 9.994.253 7.437.34 9.994.339 9.994.34 9.994.34 9.995.34 9.994.339 9.994.34 9.994.34 9.994.34 9.995.34 9.994.339 9.994.34 9.994.34 9.995.285 8.383.34 9.994.339 9.994.237 6.973.34 9.994.34 9.994.34 9.994.093 2.731.079 2.345.809 4.668M419.68 165.084l-.631-9.98-.33-5.224-9.442.248.47 9.988.469 9.989.106 2.245.191 4.071.47 9.989.469 9.989.209 4.45.062 1.314.14 2.974.222 4.729.416 8.847.335 7.128.216 4.602.143 3.032.072 1.543.47 9.989.078 1.667.47 9.989.469 9.989.47 9.989.469 9.989.378 8.036.325 6.903.469 9.989.279 5.926.321 6.837.47 9.989.469 9.989.47 9.989.469 9.989.32 6.816.316 6.712.27 5.739.023.486.111 2.366.469 9.989.112 2.375.05 1.062.289 6.162.47 9.989.47 9.989.469 9.989.47 9.989.189 4.032.266 5.662.47 9.989.264 5.632.264 5.603.469 9.989.277 5.893.327 6.949.469 9.989.28 5.946.335 7.122.457 9.73.47 9.989.152 3.248.043.908.469 9.989.148 3.149.47 9.989.469 9.989.47 9.989.47 9.989.469 9.988.47 9.989.469 9.989.47 9.989.469 9.989.47 9.989.469 9.989.47 9.989.469 9.989.363 7.715.469 9.989.135 2.872.057 1.205.469 9.989.13 2.758.47 9.989.469 9.989.47 9.989.12 2.566.11 2.332.515 4.667 9.975-.702.557-.039-.343-7.014-.489-9.988-.489-9.988-.489-9.988-.124-2.542-.489-9.988-.135-2.749-.059-1.204-.489-9.988-.14-2.863-.489-9.988-.489-9.988-.489-9.988-.488-9.988-.489-9.988-.489-9.988-.489-9.988-.489-9.988-.489-9.988-.489-9.988-.489-9.988-.489-9.988-.489-9.988-.372-7.617-.489-9.988-.154-3.14-.044-.906-.489-9.988-.159-3.239-.476-9.723-.348-7.116-.489-9.988-.29-5.935-.34-6.943-.489-9.989-.288-5.882-.274-5.598-.489-9.988-.275-5.621-.277-5.658-.489-9.988-.489-9.988-.489-9.988-.489-9.988-.196-4.003-.301-6.157-.052-1.061-.489-9.988-.116-2.368-.116-2.364-.023-.485-.281-5.735-.328-6.707-.489-9.988-.489-9.988-.489-9.988-.489-9.988-.332-6.786-.334-6.832-.489-9.988-.29-5.916-.338-6.898-.488-9.988-.489-9.988-.489-9.988-.489-9.988-.392-8.005-.489-9.989-.081-1.659-.076-1.543-.148-3.03-.225-4.598-.349-7.123-.432-8.841-.232-4.726-.145-2.972-.065-1.312-.488-9.988-.489-9.988-.217-4.436-.2-4.068-.34-6.953" style="stroke:#000;stroke-opacity:.67048711"/><path d="m437.897 759.008 9.975-.699.599-.042" style="stroke:#000;stroke-opacity:.67048711"/><path d="m418.719 149.88.488 9.988.488 9.988.107 2.188.489 9.988.488 9.988.48 9.817.146 2.972.488 9.988.175 3.578.489 9.988.233 4.764.488 9.988.157 3.203.488 9.988.489 9.988.488 9.988.489 9.988.391 8.006.489 9.988.488 9.988.472 9.658.489 9.988.488 9.988.489 9.988.488 9.988.332 6.787.328 6.707.489 9.988.488 9.988.047.964.353 7.219.489 9.988.488 9.988.489 9.988.488 9.988.196 4.004.488 9.988.489 9.988.337 6.889.488 9.988.288 5.883.488 9.988.489 9.988.489 10.007.476 9.723.488 9.988.489 9.988.356 7.286.488 9.988.489 9.988.488 9.988.489 9.988.488 9.988.489 9.988.488 9.988.489 9.988.488 9.988.489 9.988.488 9.988.488 9.988.489 9.988.373 7.619.488 9.988.488 9.988.334 6.816.488 9.988.489 9.988.488 9.988.125 2.543.113 2.33.473 4.667M492.07 147.618l-9.353.244.556 9.985.295 5.298.422 6.828.25 4.049.617 9.981.617 9.981.268 4.339.081 1.306.182 2.959.291 4.704.544 8.8.438 7.09.282 4.577.187 3.016.095 1.536.616 9.981.1 1.612.617 9.981.616 9.981.617 9.981.617 9.981.482 7.81.424 6.865.617 9.981.361 5.847.42 6.799.617 9.981.616 9.981.617 9.981.617 9.981.407 6.59.412 6.674.353 5.707.03.483.145 2.352.617 9.981.143 2.314.065 1.056.378 6.128.617 9.981.617 9.981.616 9.981.617 9.981.236 3.813.347 5.629.617 9.981.343 5.55.344 5.571.617 9.981.359 5.809.426 6.909.617 9.981.362 5.861.438 7.08.597 9.673.617 9.981.196 3.178.056.902.617 9.981.19 3.079.616 9.981.617 9.981.617 9.981.616 9.981.617 9.981.617 9.981.616 9.981.617 9.981.617 9.981.616 9.981.617 9.981.617 9.981.616 9.981.432 6.984.616 9.981.173 2.8.074 1.197.617 9.981.166 2.687.617 9.981.616 9.981.617 9.981.147 2.386.431 6.975 9.975-.702.446-.031-.142-4.666-.148-2.315-.635-9.979-.636-9.98-.636-9.98-.15-2.363-.636-9.98-.17-2.678-.076-1.196-.636-9.98-.178-2.792-.635-9.979-.636-9.98-.635-9.98-.636-9.98-.636-9.979-.635-9.98-.636-9.98-.635-9.98-.636-9.98-.635-9.979-.636-9.98-.636-9.98-.635-9.98-.439-6.892-.636-9.979-.195-3.071-.058-.901-.635-9.98-.202-3.169-.616-9.666-.45-7.075-.636-9.979-.372-5.851-.44-6.903-.635-9.98-.37-5.798-.354-5.567-.636-9.979-.353-5.54-.358-5.625-.635-9.98-.636-9.98-.636-9.98-.635-9.979-.241-3.786-.39-6.124-.067-1.055-.636-9.979-.147-2.307-.15-2.351-.03-.482-.363-5.703-.425-6.669-.636-9.98-.635-9.98-.636-9.98-.635-9.98-.418-6.56-.433-6.795-.636-9.98-.371-5.837-.437-6.86-.636-9.98-.635-9.98-.636-9.98-.636-9.979-.495-7.781-.636-9.98-.102-1.606-.098-1.534-.192-3.014-.291-4.574-.451-7.086-.56-8.794-.299-4.7-.189-2.957-.083-1.306-.635-9.979-.636-9.98-.275-4.324-.258-4.047-.636-9.98-.635-9.98-.133-2.089" style="stroke:#000;stroke-opacity:.67048711"/><path d="m482.717 147.862.616 9.981.617 9.981.133 2.146.617 9.981.617 9.981.599 9.694.182 2.959.617 9.981.218 3.522.617 9.981.29 4.703.617 9.981.195 3.148.617 9.981.617 9.981.616 9.981.617 9.981.483 7.809.617 9.981.616 9.981.589 9.53.617 9.981.617 9.981.617 9.981.617 9.981.407 6.589.412 6.674.617 9.981.617 9.981.054.876.444 7.183.617 9.981.617 9.981.617 9.981.616 9.981.236 3.813.617 9.981.617 9.981.418 6.769.617 9.981.359 5.809.617 9.981.617 9.981.609 9.869.598 9.672.617 9.981.617 9.981.442 7.159.617 9.981.617 9.981.617 9.981.617 9.981.616 9.981.617 9.981.617 9.981.617 9.981.617 9.981.617 9.981.616 9.981.617 9.981.617 9.981.432 6.983.616 9.981.617 9.981.413 6.684.617 9.981.617 9.981.617 9.981.147 2.386.144 2.317M530.593 752.51l-9.976.7-.487.034.184 4.665M564.732 145.376l-9.266.243.473 9.988.248 5.227.518 6.792.308 4.029.762 9.971.761 9.971.324 4.232.099 1.3.225 2.943.357 4.679.669 8.754.539 7.053.347 4.553.23 3 .116 1.528.762 9.971.119 1.561.762 9.971.761 9.971.762 9.971.761 9.971.581 7.594.521 6.828.762 9.971.44 5.771.517 6.763.762 9.971.761 9.971.762 9.971.761 9.971.487 6.374.507 6.637.434 5.675.037.48.178 2.34.762 9.971.172 2.256.08 1.049.466 6.094.761 9.971.762 9.971.762 9.971.761 9.971.276 3.607.427 5.597.762 9.971.418 5.471.423 5.539.761 9.971.438 5.729.525 6.868.761 9.971.442 5.779.537 7.04.735 9.616.762 9.971.237 3.111.069.897.761 9.971.23 3.013.762 9.971.762 9.97.761 9.971.762 9.971.761 9.971.762 9.971.762 9.971.761 9.971.762 9.971.761 9.971.762 9.971.762 9.971.761 9.971.481 6.292.761 9.971.209 2.732.091 1.19.762 9.971.2 2.618.761 9.971.762 9.971.762 9.971.169 2.215.529 6.932 9.976-.702.336-.024.18-4.663-.18-2.301-.781-9.97-.781-9.969-.781-9.969-.172-2.193-.781-9.969-.204-2.61-.093-1.189-.781-9.969-.214-2.723-.781-9.97-.781-9.969-.781-9.97-.781-9.969-.781-9.97-.781-9.969-.781-9.97-.781-9.969-.781-9.969-.781-9.97-.781-9.969-.781-9.97-.781-9.969-.486-6.202-.781-9.969-.235-3.004-.07-.896-.781-9.97-.243-3.102-.753-9.609-.551-7.034-.781-9.969-.452-5.769-.538-6.863-.781-9.969-.448-5.718-.433-5.535-.781-9.969-.428-5.461-.438-5.593-.781-9.97-.781-9.969-.781-9.97-.781-9.969-.281-3.58-.477-6.089-.082-1.049-.781-9.969-.176-2.248-.183-2.338-.038-.48-.444-5.671-.52-6.632-.781-9.97-.781-9.969-.781-9.97-.781-9.969-.497-6.346-.529-6.758-.781-9.969-.452-5.761-.534-6.824-.781-9.969-.781-9.97-.781-9.969-.781-9.969-.593-7.566-.781-9.97-.122-1.554-.119-1.527-.235-2.998-.357-4.549-.552-7.049-.685-8.748-.366-4.675-.231-2.942-.102-1.298-.781-9.97-.781-9.969-.33-4.219-.315-4.026-.781-9.969-.781-9.97-.157-1.996" style="stroke:#000;stroke-opacity:.67048711"/><path d="m555.466 145.619.763 9.971.762 9.97.157 2.052.762 9.971.763 9.97.731 9.56.225 2.943.763 9.971.264 3.462.763 9.971.354 4.635.763 9.971.236 3.088.762 9.971.763 9.971.762 9.971.763 9.971.581 7.593.762 9.971.762 9.97.719 9.391.762 9.97.763 9.971.762 9.971.763 9.971.487 6.373.507 6.637.763 9.971.762 9.971.06.779.546 7.143.763 9.971.762 9.971.763 9.971.762 9.971.276 3.605.762 9.971.763 9.971.507 6.636.763 9.971.438 5.728.762 9.971.763 9.97.743 9.716.735 9.616.763 9.971.762 9.971.537 7.019.762 9.971.763 9.971.762 9.971.763 9.971.762 9.971.763 9.971.762 9.971.763 9.97.762 9.971.763 9.971.762 9.971.763 9.971.762 9.971.481 6.288.763 9.971.762 9.971.5 6.539.763 9.971.762 9.971.763 9.971.169 2.214.176 2.302M611.849 746.815l-9.975.699-.378.026-.139 4.664M104.66 215.7l-.14 9.999-.055 3.874M129.664 576.865l-.085 9.999-.085 10-.085 9.999-.085 10-.085 10-.085 9.999-.085 10-.085 10-.085 9.999-.085 10-.085 10-.085 9.999-.085 10-.091 10.736M131.062 412.344l-.085 9.999-.085 10-.085 9.999-.085 10-.085 10-.085 9.999-.085 10-.085 10-.085 9.999-.085 10-.085 10-.085 9.999-.085 10-.056 6.632M132.381 257.103l-.051 5.996-.085 10-.085 10-.085 9.999-.085 10-.025 2.974-.02 2.338-.085 10-.085 9.999-.008.951-.02 2.316-.085 10-.085 10-.084 9.999-.085 10-.085 10-.021 2.415M155.663 575.376l-.037 10-.037 10-.037 10-.037 10-.037 10-.036 10-.021 5.652-.037 10-.037 10-.037 10-.037 10-.036 10-.037 10-.037 10-.018 4.804M156.268 411.163l-.028 7.364-.036 10-.037 10-.033 8.776-.036 10-.037 10-.037 10-.037 10-.037 10-.025 6.737-.036 10-.037 10-.037 9.999-.038 10.403-.012 3.095M156.839 256.197l-.037 10-.037 10-.037 10-.037 10-.033 8.884-.036 10-.037 10-.036 9.66-.002.554-.037 9.999-.037 10-.036 10-.037 10-.028 7.666M160.465 382.776l.029-10 .029-10 .029-10 .007-2.492.029-10 .015-5.16.02-6.965.004-1.344.029-10 .014-4.865.02-7.031.029-10 .029-10 .029-10 .029-10 .024-8.062M159.988 547.302l.005-1.727.029-10 .007-2.49.029-10 .029-10 .008-2.866.029-10 .029-10 .029-10 .02-6.647.029-10 .029-10 .018-6.472.029-10 .029-10 .026-8.768.018-6.28.003-1.082M159.5 715.544l.029-10 .029-10 .029-10 .029-10 .029-10 .008-2.626.029-10 .029-10 .029-10 .02-6.913.029-10 .029-10 .029-10 .029-10 .029-10 .002-.872M131.745 257.127l.585 5.972M185.111 368.985l-9.029.4M176.64 410.208l.359 3.802.332 3.519.939 9.956.939 9.956.939 9.956.94 9.955.448 4.75.939 9.955.939 9.956.691 7.326.939 9.955.313 3.32M162.094 256.002l.94 9.956.939 9.956.939 9.956.939 9.955.835 8.853.939 9.956.939 9.956.959 10.159.939 9.956.939 9.955.939 9.956.463 4.914.94 9.956.252 2.68M162.756 227.518l-.843-8.974-.45-4.797M177.269 382.018l-.935-9.956-.252-2.677-.935-9.956-.935-9.957-.935-9.956-.461-4.906-.651-6.931-.935-9.956-.581-6.179-.657-6.998-.935-9.957-.601-6.395-.935-9.956-.936-9.956-.935-9.956-.23-2.447M185.292 467.429l-.516-5.49-.935-9.956-.935-9.956-.756-8.052-.936-9.956-.624-6.644-.586-6.244-.101-1.076" style="stroke:#000;stroke-opacity:.67048711"/><path d="m165.816 605.037-2.775 9.607-2.775 9.608-.506 1.753M197.754 494.461l-.62 2.145M197.115 491.986l.639 2.475M185.045 333.182l-1.434-5.979-2.332-9.724-1.512-6.305-1.668-6.954-2.332-9.724-2.332-9.724-2.332-9.725-2.332-9.724-2.274-9.484M203.474 410.03l-.256-1.067M220.673 481.751l-.367-1.53-2.332-9.725-1.059-4.418-1.363-5.683-2.332-9.724-2.332-9.724-2.332-9.725-2.332-9.724-1.265-5.276M185.088 356.538l-2.365-9.716-2.364-9.717-.678-2.783-2.364-9.717-2.365-9.716-2.364-9.717-.177-.724-2.364-9.716-1.591-6.538M220.867 503.562l-2.364-9.717-1.512-6.213-1.741-7.151-2.364-9.717-2.365-9.716-.096-.395-2.365-9.717-2.364-9.716-2.365-9.717-2.364-9.716-1.294-5.315-1.767-7.26M185.608 639.13l-2.5 9.683-2.5 9.682-2.501 9.683-2.5 9.682-2.501 9.682-2.5 9.683-2.5 9.682-2.12 8.208M202.769 572.68l-2.501 9.683-2.5 9.682-.243.94" style="stroke:#000;stroke-opacity:.67048711"/><path d="m224.837 487.225-2.111 8.174-2.111 8.176-2.185 8.461-2.501 9.683-2.5 9.682-.798 3.092-2.501 9.682-.09.351M197.669 628.398l2.412-9.704 2.412-9.705 2.412-9.705 2.412-9.705 2.413-9.704 1.914-7.703M176.285 714.434l2.412-9.704 2.412-9.705 2.412-9.705 2.157-8.677M185.858 774.298l-9.976.698-9.976.698-4.933.345M270.737 768.361l-9.975.698-9.976.698-9.976.697-9.975.698-9.976.698-9.976.698-9.975.697-2.65.186M354.709 762.488l-9.976.697-9.975.698-9.976.698-9.976.698-9.975.697-9.976.698-9.975.698-2.282.159M437.787 756.676l-9.975.698-9.976.698-9.976.698-9.975.697-9.976.698-9.975.698-9.976.698-1.917.134M519.883 750.934l-9.975.698-9.976.698-9.976.697-9.975.698-9.976.698-9.976.698-9.975.697-1.453.102M600.828 745.272l-9.976.698-9.976.698-9.975.698-9.976.697-9.975.698-9.976.698-10.529.736M620.615 743.888l-8.946.626M608.169 699.834l9.977-.669 6.696-.449M527.582 705.235l9.977-.669 9.978-.669 9.978-.668 9.977-.669 9.978-.669 9.977-.668 9.965-.668M446.386 710.677l9.978-.669 9.977-.669 9.978-.668 9.978-.669 9.977-.669 9.978-.669 9.977-.668.874-.059M364.488 716.166l9.977-.669 9.978-.669 9.977-.668 9.978-.669 9.978-.669 9.977-.668 9.978-.669 1.328-.089M281.72 721.713l9.978-.669 9.977-.668 9.978-.669 9.978-.669 9.977-.668 9.978-.669 9.978-.669 1.683-.113M198.07 727.32l9.978-.669 9.978-.669 9.977-.669 9.978-.668 9.978-.669 9.977-.669 9.978-.669 2.042-.136M269.714 708.257l-9.978.66-9.979.66-9.978.66-9.978.659-9.978.66-9.978.66-9.979.659-1.854.123M352.793 702.765l-9.978.659-9.978.66-9.979.66-9.978.66-9.978.659-9.978.66-9.978.66-1.498.099M434.998 697.33l-9.978.66-9.979.659-9.978.66-9.978.66-9.978.659-9.979.66-9.978.66-1.145.075M516.24 691.959l-9.979.659-9.978.66-9.978.66-9.978.659-9.978.66-9.979.66-10.672.705M596.351 686.662l-9.978.66-9.979.659-9.978.66-9.978.66-9.978.66-9.978.659-9.79.647M634.455 684.143l-9.978.66-9.979.659-7.417.491M636.404 710.564l9.647-.654M609.154 712.413l6.965-.473M528.388 717.893l9.977-.677 9.977-.677 9.977-.677 9.977-.677 9.977-.677 9.977-.677 10.124-.687M447.01 723.414l9.977-.677 9.977-.677 9.977-.677 9.977-.677 9.977-.677 9.977-.677 9.977-.677 1.037-.07M364.925 728.983l9.977-.677 9.977-.677 9.977-.677 9.977-.677 9.977-.677 9.977-.677 9.977-.676 1.494-.102M281.967 734.611l9.977-.677 9.977-.677 9.977-.677 9.977-.676 9.978-.677 9.977-.677 9.977-.677 1.852-.126M198.123 740.3l9.977-.677 9.977-.677 9.977-.677 9.977-.677 9.977-.677 9.978-.677 9.977-.677 2.213-.15M662.983 687.989l-2.156-1.167-6.543-3.54M675.206 697.974l6.112-3.59.77-1.188 5.437-8.393 5.437-8.392 5.437-8.393 5.438-8.393 5.437-8.392 5.437-8.393 5.437-8.392 5.438-8.393 5.437-8.393 5.437-8.392 5.437-8.393 5.438-8.393 5.437-8.392 5.437-8.393 5.437-8.393 4.314-6.658M740.257 523.747l5.448-8.386.372-.572 1.766-2.719M672.82 531.915l9.985-.562 9.984-.562 9.984-.563 9.984-.562 9.984-.563 9.985-.562 4.537-.256M595.356 536.279l9.984-.563 9.984-.562 9.984-.562 9.984-.563 9.985-.562 9.984-.563 6.846-.385M517.102 540.687l9.985-.563 9.984-.562 9.984-.562 9.984-.563 9.984-.562 9.984-.563 7.902-.445M438.283 545.127l9.984-.563 9.984-.562 9.984-.562 9.984-.563 9.985-.562 9.984-.563 8.741-.492M358.806 549.604l9.984-.563 9.984-.562 9.984-.563 9.984-.562 9.984-.562 9.985-.563 9.16-.516M278.511 554.127l9.984-.563 9.984-.562 9.984-.563 9.985-.562 9.984-.562 9.984-.563 9.484-.534M197.386 558.696l9.984-.562 7.873-.444 9.985-.562 9.984-.562 9.984-.563 9.984-.562 9.984-.563 1.937-.109" style="stroke:#000;stroke-opacity:.67048711"/><path d="m266.872 541.373-9.984.554-9.985.554-9.984.554-9.985.554-8.3.46-8.594.477-9.985.554-2.724.151M347.472 536.902l-9.984.553-9.985.554-9.985.554-9.984.554-9.985.554-9.985.554-9.309.516M427.249 532.476l-9.985.554-9.984.554-9.985.554-9.985.554-9.984.553-9.985.554-8.989.499M506.116 528.101l-9.984.554-9.985.553-9.985.554-9.984.554-9.985.554-9.985.554-8.573.476M583.91 523.785l-9.985.554-9.984.554-9.985.554-9.985.554-9.984.554-9.985.553-7.737.43M660.925 519.513l-9.985.553-9.984.554-9.985.554-9.985.554-9.984.554-9.985.554-6.685.371M737.173 515.283l-9.985.554-9.985.553-9.984.554-9.985.554-9.984.554-9.985.554-5.651.314M747.194 541.52l9.984-.572 1.863-.106 1.502-.086M674.101 545.703l9.984-.571 9.983-.572 9.984-.571 9.984-.571 9.983-.572 3.782-.216M596.442 550.148l9.984-.571 9.984-.572 9.983-.571 9.984-.572 9.984-.571 9.983-.571 7.016-.402M517.991 554.638l9.984-.571 9.983-.571 9.984-.572 9.984-.571 9.983-.572 9.984-.571 8.076-.462M438.97 559.161l9.983-.571 9.984-.572 9.984-.571 9.983-.572 9.984-.571 9.984-.571 8.92-.511M359.287 563.722l9.984-.572 9.983-.571 9.984-.571 9.984-.572 9.983-.571 9.984-.572 9.342-.534M278.783 568.33l9.984-.572 9.983-.571 9.984-.572 9.983-.571 9.984-.572 9.984-.571 9.668-.553M197.444 572.985l5.325-.305 8.875-.508 9.984-.571 9.983-.572 9.984-.571 9.984-.571 9.983-.572 5.781-.331M806.287 365.835l9.989-.458 9.99-.459 9.989-.458 9.356-.429M732.518 369.219l9.989-.458 9.99-.459 9.989-.458 9.99-.458 9.989-.458 9.99-.459 2.918-.133M658.028 372.636l9.989-.458 9.99-.458 9.989-.459 9.99-.458 9.989-.458 9.99-.458 3.891-.179M582.806 376.087l9.99-.458 9.989-.459 9.99-.458 9.989-.458 9.99-.458 9.989-.459 4.88-.224M506.842 379.572l9.989-.459 9.99-.458 9.989-.458 9.99-.458 9.989-.459 9.99-.458 5.885-.27M430.351 383.081l9.989-.459 9.99-.458 9.989-.458 9.99-.459 9.989-.458 9.99-.458 6.68-.306M353.246 386.618l9.989-.459 9.99-.458 9.989-.458 9.99-.458 9.989-.459 9.99-.458 7.066-.324M275.371 390.19l9.99-.458 9.989-.459 9.99-.458 9.989-.458 9.99-.458 9.989-.459 7.359-.337M196.717 393.798l2.833-.13 9.99-.458 9.989-.458 9.99-.459 9.989-.458 9.99-.458 9.989-.458 4.82-.221M264.093 378.105l-9.99.45-9.99.451-9.99.45-9.99.45-9.99.45-9.99.451-7.488.337M342.265 374.582l-9.99.45-9.99.45-9.989.451-9.99.45-9.99.45-9.99.45-7.196.325M419.663 371.093l-9.989.451-9.99.45-9.99.45-9.99.45-9.99.451-9.99.45-6.905.311M496.203 367.644l-9.99.45-9.99.45-9.99.45-9.99.451-9.989.45-9.99.45-6.522.294M571.723 364.24l-9.989.45-9.99.45-9.99.451-9.99.45-9.99.45-9.99.45-5.73.259M646.51 360.869l-9.989.45-9.99.451-9.99.45-9.99.45-9.99.45-9.99.451-4.729.213M720.575 357.531l-9.99.45-9.99.45-9.99.451-9.99.45-9.99.45-9.99.45-3.743.169M793.926 354.225l-9.99.45-9.99.45-9.989.451-9.99.45-9.99.45-9.99.45-2.774.125M853.861 351.523l-9.99.451-9.989.45-9.99.45-9.99.45-9.086.41M863.744 363.696l-.003-.003M854.057 378.468l9.989-.468 1.339-.063 6.944-.325M808.084 380.622l9.989-.468 9.989-.468 7.453-.349M734.113 384.088l9.989-.468 9.989-.468 9.989-.468 9.989-.468 9.989-.468 9.989-.468 3.094-.145M659.417 387.588l9.989-.468 9.989-.468 9.989-.468 9.989-.468 9.989-.468 9.989-.468 4.071-.191M583.984 391.122l9.989-.468 9.989-.468 9.989-.468 9.989-.468 9.989-.468 9.989-.468 5.064-.237M507.805 394.691l9.989-.468 9.989-.468 9.989-.468 9.989-.468 9.989-.468 9.989-.468 6.074-.284M431.095 398.286l9.989-.468 9.989-.468 9.989-.468 9.989-.468 9.989-.469 9.989-.468 6.874-.322M353.767 401.909l9.989-.468 9.989-.468 9.989-.468 9.989-.468 9.989-.468 9.989-.468 7.263-.341M275.666 405.568l9.989-.468 9.989-.468 9.989-.468 9.989-.468 9.989-.468 9.989-.468 7.558-.354M196.78 409.264l1.126-.052 5.312-.249 9.989-.468 9.989-.468 9.989-.468 9.989-.468 9.989-.468 9.989-.468 1.417-.067M929.634 211.839l9.994-.36 6.772-.243M859.241 214.374l9.993-.359 9.994-.36 9.993-.36 9.994-.36 9.993-.36 9.333-.336M788.185 216.933l9.993-.36 9.994-.359 9.993-.36 9.994-.36 9.993-.36 10.233-.369M716.458 219.516l9.993-.36 9.994-.359 9.993-.36 9.994-.36 9.993-.36 9.994-.36 1.153-.042M644.05 222.124l9.993-.36 9.994-.36 9.993-.36 9.994-.36 9.993-.36 9.994-.359 2.081-.075M570.951 224.756l9.993-.36 9.994-.36 9.993-.359 9.994-.36 9.993-.36 9.994-.36 3.025-.109M497.151 227.414l9.994-.36 9.994-.36 9.993-.36 9.994-.36 9.993-.359 9.994-.36 3.983-.144M422.862 230.089l9.994-.36 9.993-.36 9.994-.359 9.993-.36 9.994-.36 9.993-.36 4.737-.171M347.998 232.785l9.993-.36 9.994-.36 9.993-.359 9.994-.36 9.993-.36 9.994-.36 5.093-.183M272.409 235.507l9.994-.36 9.993-.359 9.994-.36 9.993-.36 9.994-.36 9.993-.36 5.358-.193M196.086 238.256l9.993-.36 9.994-.36 9.993-.36 9.994-.36 9.993-.36 9.994-.359 5.624-.203M261.469 224.038l-9.993.352-9.994.352-9.994.353-9.994.352-9.994.352-9.993.353-5.47.192M337.35 221.362l-9.994.353-9.994.352-9.993.352-9.994.353-9.994.352-9.994.352-5.205.184M412.501 218.713l-9.994.352-9.994.352-9.993.353-9.994.352-9.994.352-9.994.353-4.942.174M486.84 216.092l-9.994.352-9.994.352-9.994.353-9.994.352-9.993.352-9.994.353-4.589.162M560.21 213.505l-9.994.352-9.994.353-9.994.352-9.993.352-9.994.353-9.994.352-3.838.135M632.888 210.943l-9.994.352-9.994.352-9.993.353-9.994.352-9.994.352-9.994.353-2.883.101M704.884 208.404l-9.994.353-9.994.352-9.994.352-9.993.353-9.994.352-9.994.352-1.943.069M776.207 205.89l-9.994.352-9.994.352-9.993.353-9.994.352-9.994.352-9.994.353-1.018.036M846.867 203.398l-9.994.353-9.994.352-9.994.352-9.993.353-9.994.352-10.101.356M916.872 200.93l-9.993.352-9.994.353-9.994.352-9.994.353-9.994.352-9.204.324M954.062 199.619l-9.994.352-9.993.353-6.133.216M973.093 220.031l-2.87-2.691-4.144-3.884-2.4-2.249M953.542 226.674l9.993-.371.858-.032 9.993-.37 4.286-.159M931.976 227.473l3.806-.141M861.374 230.089l9.993-.37 9.993-.371 9.993-.37 9.993-.37 9.993-.371 9.511-.352M790.105 232.73l9.993-.37 9.993-.371 9.994-.37 9.993-.37 9.993-.371 10.415-.386M718.161 235.396l9.993-.37 9.994-.371 9.993-.37 9.993-.37 9.993-.371 9.993-.37 1.34-.05M645.532 238.087l9.993-.37 9.993-.37 9.994-.37 9.993-.371 9.993-.37 9.993-.37 2.273-.085M572.208 240.805l9.993-.371 9.993-.37 9.994-.37 9.993-.371 9.993-.37 9.993-.37 3.221-.12M498.179 243.548l9.993-.37 9.993-.371 9.993-.37 9.994-.37 9.993-.371 9.993-.37 4.185-.155M423.656 246.31l9.993-.371 9.993-.37 9.993-.37 9.994-.371 9.993-.37 9.993-.37 4.943-.184M348.554 249.093l9.993-.371 9.993-.37 9.994-.37 9.993-.371 9.993-.37 9.993-.37 5.302-.197M272.723 251.903l9.993-.371 9.993-.37 9.994-.37 9.993-.371 9.993-.37 9.993-.37 5.57-.207M196.152 254.74l9.994-.37 9.993-.37 9.993-.371 9.993-.37 9.993-.37 9.993-.371 5.84-.216M985.825 275.19l-.01 3.265-.031 10-.016 5.364-.02 6.601-.031 10-.031 10-.03 10-.031 10-.031 10-.005 1.648-.018 6.012-.031 10-.016 5.254-.018 5.952-.031 10-.031 10-.03 10-.031 10-.008 2.499-.016 5.47-.031 10-.012 3.942M986.101 185.393l-.014 4.562-.01 3.099M916.722 383.181l4.518 8.921 4.518 8.922 4.518 8.921 4.518 8.921 2.695 5.32 2.709 5.351 4.518 8.921 2.954 5.832 2.678 5.289 4.519 8.921 3.069 6.061 3.317 6.551 4.518 8.921 3.085 6.09 2.704 5.341M759.041 540.842l-5.467 8.373-5.466 8.374-5.467 8.374-5.466 8.374-5.466 8.373-5.467 8.374-5.466 8.374-5.466 8.373-5.467 8.374-5.466 8.374-5.466 8.373-5.467 8.374-5.466 8.374-5.467 8.374-5.466 8.373-5.466 8.374-5.467 8.374-3.121 4.781" style="stroke:#000;stroke-opacity:.67048711"/><path d="m865.385 377.937-.696 1.067-4.042 6.191-5.466 8.373-5.467 8.374-5.466 8.374-5.466 8.374-5.467 8.373-1.584 2.428-3.731 5.714-5.466 8.374-4.837 7.409-3.699 5.666-5.466 8.374-5.03 7.704-4.597 7.043-5.466 8.373-5.087 7.793-4.722 7.233-5.466 8.374-5.12 7.843M964.393 226.271l-5.467 8.374-5.466 8.374-5.467 8.374-5.466 8.373-5.466 8.374-3.761 5.761-4.483 6.868-5.467 8.373-4.881 7.478-4.45 6.817-5.467 8.374-5.466 8.373-5.466 8.374-5.467 8.374-5.466 8.373-5.466 8.374-2.004 3.07M988.146 189.884l-2.069 3.17-5.466 8.373-2.555 3.914M980.47 185.587l5.631-.194 5.091-.175.919-.032.795-.027 2.597-.089 1.132-.039M925.983 187.46l9.994-.343 9.994-.344 9.994-.344 6.955-.239M855.914 189.869l9.994-.343 9.994-.344 9.995-.344 9.994-.343 9.994-.344 9.056-.311M785.19 192.301l9.994-.344 9.994-.343 9.995-.344 9.994-.344 9.994-.343 9.948-.342M713.801 194.756l9.994-.344 9.994-.344 9.995-.343 9.994-.344 9.994-.344 9.994-.343.861-.03M641.738 197.233l9.994-.343 9.994-.344 9.994-.344 9.994-.343 9.994-.344 9.995-.343 1.782-.062M568.991 199.735l9.994-.344 9.994-.344 9.994-.343 9.994-.344 9.994-.344 9.994-.343 2.719-.094M495.55 202.26l9.994-.344 9.994-.344 9.994-.343 9.994-.344 9.994-.343 9.994-.344 3.67-.126M421.624 204.801l9.994-.343 9.994-.344 9.995-.343 9.994-.344 9.994-.344 9.994-.343 4.416-.152M347.131 207.363l9.994-.344 9.994-.344 9.994-.343 9.994-.344 9.994-.343 9.994-.344 4.768-.164M271.92 209.949l9.994-.344 9.994-.344 9.994-.343 9.994-.344 9.994-.343 9.994-.344 5.028-.173M195.981 212.56l9.994-.344 9.994-.344 9.995-.343 9.994-.344 9.994-.344 9.994-.343 5.29-.182M921.837 159.785l9.995-.325 9.995-.325 9.994-.325 9.995-.325 9.995-.325 9.81-.32M852.138 162.053l9.995-.325 9.995-.325 9.995-.326 9.994-.325 9.995-.325 8.741-.284M781.791 164.342l9.995-.325 9.995-.326 9.994-.325 9.995-.325 9.995-.325 9.626-.313M710.786 166.652l9.995-.325 9.995-.326 9.994-.325 9.995-.325 9.995-.325 10.525-.342M639.114 168.984l9.995-.326 9.995-.325 9.994-.325 9.995-.325 9.995-.325 9.995-.325 1.443-.047M566.766 171.337l9.995-.325 9.994-.325 9.995-.325 9.995-.325 9.995-.325 9.994-.326 2.371-.077M493.732 173.714l9.994-.326 9.995-.325 9.995-.325 9.994-.325 9.995-.325 9.995-.325 3.313-.108M420.22 176.105l9.994-.325 9.995-.325 9.995-.325 9.994-.325 9.995-.326 9.995-.325 4.052-.132M346.146 178.515l9.995-.325 9.995-.325 9.995-.325 9.994-.326 9.995-.325 9.995-.325 4.398-.143M271.364 180.948l9.995-.325 9.995-.325 9.994-.325 9.995-.326 9.995-.325 9.995-.325 4.653-.151M195.863 183.405l9.995-.326 9.994-.325 9.995-.325 9.995-.325 9.994-.325 9.995-.326 4.911-.159M765.92 555.176l-5.445 8.388-5.445 8.388-5.444 8.388-5.445 8.387-5.445 8.388-5.444 8.388-5.445 8.388-5.445 8.388-5.445 8.387-5.444 8.388-5.445 8.388-5.445 8.388-5.445 8.388-5.444 8.387-5.445 8.388-5.445 8.388-4.121 6.349M876.642 384.605l-5.445 8.387-5.444 8.388-5.445 8.388-5.445 8.388-5.445 8.388-1.382 2.129-5.445 8.388-5.444 8.387-5.445 8.388-1.276 1.966-5.444 8.387-4.979 7.67-5.445 8.388-5.445 8.388-5.444 8.388-3.401 5.239-5.445 8.387-5.444 8.388-5.462 8.413M979.328 226.414l-5.445 8.387-5.445 8.388-5.445 8.388-5.444 8.388-5.445 8.387-3.195 4.922-5.444 8.388-5.445 8.387-5.445 8.388-2.815 4.338-5.445 8.388-5.445 8.387-5.445 8.388-5.444 8.388-5.445 8.388-5.445 8.388-2.002 3.084-5.444 8.388-.417.641M995.503 185.07l1.359.169M1008.967 235.712l.058-9.999.058-10 .022-3.815.057-9.999.031-5.335M1007.172 546.07l.024-4.092.054-9.474.034-5.834.058-9.999.058-10 .058-10 .033-5.775.026-4.439.058-10 .057-10 .027-4.527.025-4.418.058-10 .005-.911.058-10 .058-10 .034-5.946.058-10 .058-10 .058-10 .058-9.999.014-2.441.058-10 .057-9.999.042-7.182.058-10 .058-9.999.057-10 .058-10 .058-10 .009-1.576.058-10 .058-10 .05-8.588.057-10 .025-4.238M879.261 388.85l-5.438 8.393-5.437 8.392-5.437 8.393-5.437 8.393-3.869 5.971-5.437 8.392-5.437 8.393-5.437 8.393-1.256 1.939-5.438 8.392-4.961 7.658-5.437 8.393-5.438 8.392-5.437 8.393-3.376 5.211-5.437 8.392-5.437 8.393-5.437 8.393-3.623 5.591M982.435 229.595l-5.437 8.393-5.437 8.392-5.437 8.393-5.437 8.393-5.438 8.392-.972 1.5-5.437 8.393-5.437 8.393-5.437 8.392-2.793 4.311-5.437 8.393-5.438 8.392-5.437 8.393-5.437 8.393-5.437 8.392-5.438 8.393-1.964 3.033-5.438 8.392-3.238 4.999M1005.834 193.479l-.8 1.235-5.438 8.393-1.191 1.838-4.87 7.517-3.168 4.891M999.424 156.667l9.682-2.503 4.999-1.292.032-.009M260.672 177.18l-9.995.322-9.995.323-9.995.322-9.995.323-9.994.322-9.995.323-4.857.157M335.855 174.753l-9.995.323-9.995.322-9.995.323-9.994.323-9.995.322-9.995.323-4.6.148M410.322 172.35l-9.995.323-9.995.322-9.995.323-9.994.322-9.995.323-9.995.322-4.346.141M483.99 169.973l-9.995.322-9.994.323-9.995.322-9.995.323-9.995.322-9.994.323-4.002.129M556.705 167.626l-9.994.322-9.995.323-9.995.323-9.995.322-9.995.323-9.994.322-3.263.106M628.741 165.301l-9.995.323-9.995.322-9.994.323-9.995.322-9.995.323-9.995.323-2.321.074M700.106 162.998l-9.994.323-9.995.322-9.995.323-9.995.322-9.995.323-9.994.322-1.396.045M770.811 160.716l-9.995.323-9.995.322-9.995.323-9.994.322-9.995.323-10.478.338M840.864 158.455l-9.995.323-9.995.323-9.995.322-9.995.323-9.994.322-9.581.309M910.274 156.215l-9.995.323-9.995.323-9.995.322-9.995.323-9.994.322-8.697.281M984.268 153.827l-9.995.323-9.995.323-9.995.322-9.994.323-9.995.322-9.995.323-3.05.098M939.441 347.677l5.39-8.423 5.39-8.424 5.39-8.423 5.39-8.423 5.39-8.423 2.845-4.446 4.344-6.789 5.39-8.423 4.711-7.361 2.144-3.352 2.232-3.488 5.39-8.423 5.39-8.423 2.251-3.517 1.023-1.6M908.908 395.393l5.39-8.423 2.424-3.789.422-.66 3.945-6.164 5.104-7.976 3.67-5.736M799.632 566.164l5.39-8.423 5.39-8.423 5.39-8.423 5.39-8.424 5.39-8.423 5.39-8.423 5.39-8.423 4.625-7.229 4.608-7.2 5.39-8.423 4.908-7.67 4.485-7.01 5.39-8.423 4.852-7.583 3.61-5.641 5.39-8.423 4.664-7.289 3.641-5.689 5.39-8.423 1.552-2.427M717.898 693.895l5.39-8.423 5.389-8.423 5.033-7.864 5.39-8.423 5.39-8.423 5.389-8.423 5.39-8.424 5.39-8.423 5.39-8.423 5.39-8.423 5.39-8.423 4.092-6.394M1023.964 250.515l.022-2.894.057-7.65.076-10 .057-7.464.075-9.999.009-1.158.007-.942M1060.062 309.066l-3.328 9.431-3.327 9.43-3.328 9.43-3.327 9.43-.895 2.538-2.148 6.086-3.327 9.43-2.123 6.018-2.129 6.032-3.327 9.43-3.327 9.43-3.328 9.431-3.428 9.716M1073.848 323.18l-3.314 9.435-3.315 9.435-2.25 6.406-3.314 9.434-3.314 9.435-3.042 8.659-3.314 9.435-3.314 9.434-3.315 9.435-3.314 9.435-1.866 5.313-3.314 9.435-3.315 9.435-2.632 7.492-3.314 9.435-2.162 6.156-3.135 8.924M1090.989 316.672l.919-2.624 1.912-5.463M1021.972 513.841l3.303-9.439 3.304-9.438 1.865-5.327 2.449-6.996 3.304-9.439 2.172-6.205 2.387-6.818 3.303-9.439 2.148-6.135 1.922-5.491 3.304-9.438 2.052-5.862 1.94-5.543 3.304-9.438 3.304-9.439 3.304-9.438 3.303-9.439 1.839-5.251 2.106-6.018 3.304-9.438 2.09-5.972 2.125-6.071 3.304-9.439 1.382-3.946M131.767 329.36l-.645.027M185.034 327.144l-1.423.059M263.17 323.892l-9.992.416-9.991.415-9.992.416-9.991.416-9.991.416-9.992.416-6.777.282M340.536 320.672l-9.992.416-9.991.416-9.991.415-9.992.416-9.991.416-9.991.416-6.495.27M417.144 317.484l-9.992.416-9.991.415-9.991.416-9.992.416-9.991.416-9.991.416-6.215.258M492.909 314.331l-9.991.415-9.992.416-9.991.416-9.991.416-9.992.416-9.991.416-5.841.243M567.673 311.219l-9.991.416-9.991.416-9.992.416-9.991.415-9.991.416-9.992.416-5.064.211M641.719 308.138l-9.991.415-9.992.416-9.991.416-9.991.416-9.992.416-9.991.415-4.079.17M715.056 305.085l-9.991.416-9.991.416-9.992.416-9.991.416-9.991.415-9.992.416-3.11.13M787.695 302.062l-9.991.416-9.992.416-9.991.416-9.991.416-9.992.415-9.991.416-2.156.09M859.646 299.068l-9.992.416-9.991.416-9.992.415-9.991.416-9.991.416-9.992.416-1.218.051M889.276 297.835l-9.991.416-8.611.358" style="stroke:#000;stroke-opacity:.67048711"/><path d="m918.469 296.62-9.991.416-1.08.045M985.768 293.819l-9.991.416-2.197.091M1042.848 291.444l-9.991.415-9.209.384M1106.837 288.78l-.98.041M1112.1 295.106l.386-.016M1023.598 298.828l9.991-.42 9.992-.42 5.436-.229M969.236 301.115l9.991-.421 6.521-.274M902.926 303.903l9.991-.42 1.102-.046M871.572 305.222l9.991-.42 3.206-.135M799.288 308.262l9.991-.42 9.991-.42 9.991-.42 9.991-.421 9.991-.42 9.992-.42 1.295-.054M726.308 311.332l9.991-.421 9.991-.42 9.991-.42 9.991-.42 9.991-.42 9.992-.421 2.235-.094M652.622 314.431l9.991-.421 9.992-.42 9.991-.42 9.991-.42 9.991-.42 9.991-.421 3.191-.134M578.221 317.56l9.991-.42 9.991-.421 9.992-.42 9.991-.42 9.991-.42 9.991-.42 4.162-.175M503.094 320.72l9.991-.421 9.991-.42 9.991-.42 9.991-.42 9.992-.42 9.991-.421 5.149-.216M427.454 323.901l9.991-.42 9.991-.421 9.991-.42 9.992-.42 9.991-.42 9.991-.42 5.928-.25M351.215 327.107l9.992-.42 9.991-.42 9.991-.42 9.991-.421 9.991-.42 9.991-.42 6.303-.265M274.225 330.345l9.991-.42 9.992-.42 9.991-.42 9.991-.421 9.991-.42 9.991-.42 6.584-.277M196.473 333.615l9.991-.42 9.991-.42 9.991-.42 9.991-.42 9.991-.421 9.992-.42 6.867-.289M184.991 303.943l-6.892.277M262.777 300.82l-9.992.402-9.992.401-9.992.401-9.992.401-9.992.401-9.992.401-6.475.26M339.8 297.728l-9.992.401-9.992.402-9.992.401-9.992.401-9.992.401-9.992.401-6.196.249M416.071 294.666l-9.992.401-9.992.401-9.992.402-9.992.401-9.992.401-9.992.401-5.92.238M491.507 291.638l-9.992.401-9.992.401-9.992.401-9.992.401-9.992.401-9.992.401-5.552.223M565.95 288.649l-9.992.401-9.992.401-9.992.401-9.992.401-9.992.402-9.992.401-4.781.192M639.679 285.689l-9.991.401-9.992.401-9.992.401-9.992.401-9.992.402-9.992.401-3.803.152M712.707 282.757l-9.992.401-9.992.401-9.992.401-9.992.401-9.992.402-9.992.401-2.84.114M785.042 279.853l-9.992.401-9.992.401-9.992.401-9.992.401-9.992.402-9.992.401-1.893.076M856.695 276.976l-9.992.401-9.992.401-9.992.402-9.992.401-9.992.401-9.992.401-.962.039M904.296 275.065l-9.992.401-9.992.401-9.992.401-6.642.267M933.3 273.901l-9.992.401-1.008.04M1086.698 267.742l-1.712.069M264.587 407.162l-9.989.469-9.989.468-9.989.469-9.989.469-9.989.469-9.989.468-1.179.056M343.192 403.474l-9.989.468-9.989.469-9.989.469-9.989.468-9.989.469-9.989.469-7.572.355M421.014 399.822l-9.989.469-9.989.468-9.989.469-9.989.469-9.989.469-9.989.468-7.276.342M497.968 396.211l-9.989.469-9.989.469-9.989.468-9.989.469-9.989.469-9.989.468-6.887.324M573.893 392.648l-9.989.469-9.989.469-9.989.469-9.989.468-9.989.469-9.989.469-6.087.285M649.077 389.121l-9.989.468-9.989.469-9.989.469-9.989.468-9.989.469-9.989.469-5.077.238M723.531 385.627l-9.989.469-9.989.469-9.989.468-9.989.469-9.989.469-9.989.468-4.084.192M797.264 382.167l-9.989.469-9.989.469-9.989.468-9.989.469-9.989.469-9.989.469-3.106.145M834.81 380.406l-9.989.468-9.989.469-6.622.311M864.689 379.004l-9.989.468-1.342.063M985.524 373.334l-9.989.468-9.989.469-9.989.469-2.777.13M1038.259 370.859l-9.989.469-5.222.245M1116.819 367.173l-9.989.469-9.989.468-9.989.469-9.989.469-4.278.2M1070.479 375.266l9.989-.473 9.988-.473 9.989-.473 9.989-.472 9.989-.473 1.904-.09M1023.003 377.512l9.989-.473 3.138-.148M955.64 380.7l9.989-.473 9.989-.473 9.888-.468M849.297 385.732l9.988-.473 1.362-.064M808.938 387.642l9.989-.473 9.988-.473 1.801-.085M734.87 391.146l9.989-.472 9.989-.473 9.989-.473 9.989-.472 9.988-.473 9.989-.473 3.177-.15M660.076 394.686l9.989-.473 9.988-.473 9.989-.472 9.989-.473 9.989-.473 9.989-.472 4.156-.197M584.543 398.26l9.989-.473 9.989-.472 9.989-.473 9.989-.473 9.988-.472 9.989-.473 5.152-.244M508.262 401.87l9.989-.473 9.988-.473 9.989-.472 9.989-.473 9.989-.473 9.989-.472 6.164-.292M431.448 405.504l9.989-.472 9.989-.473 9.989-.473 9.989-.472 9.988-.473 9.989-.473 6.965-.329M354.015 409.169l9.989-.473 9.988-.473 9.989-.472 9.989-.473 9.989-.473 9.989-.472 7.355-.349M275.806 412.869l9.989-.472 9.988-.473 9.989-.473 9.989-.472 9.989-.473 9.989-.473 7.652-.362M204.959 416.222l9.989-.473 9.988-.472 9.989-.473 9.989-.473 9.989-.472 9.79-.464M1182.546 359.843l-2.275 3.889M985.589 352.068l-9.989.454-9.99.455-9.99.454-9.989.455-3.075.14M1045.857 349.325l-9.99.455-9.99.454-2.669.122M1097.108 346.993l-9.99.455-7.014.319M1165.279 343.891l-4.513.205M1185.962 369.461l.016-.029M1211.872 489.605l-.306 9.996-.307 9.995-.306 9.995-.306 9.996-.306 9.995-.306 9.995-.307 9.996-.306 9.995-.306 9.995-.306 9.995-.306 9.996-.306 9.995-.307 9.995-.306 9.996-.306 9.995-.306 9.995-.306 9.996-.307 9.995-.306 9.995-.306 9.996-.306 9.995-.306 9.995-.307 9.995-.306 9.996-.306 9.995-.306 9.995-.306 9.996-.306 9.995-.307 9.995-.306 9.996-.306 9.995-.12 3.909M858.063 781.508l-7.008 7.133-7.008 7.134-7.008 7.134-7.008 7.133-7.008 7.134-7.007 7.134-7.008 7.134-7.008 7.133-7.008 7.134-7.008 7.134-7.008 7.133-7.008 7.134-7.007 7.134-7.008 7.134-7.008 7.133-7.008 7.134-7.008 7.134-7.008 7.133-5.957 6.065M1022.872 613.738l-7.008 7.134-7.008 7.134-7.007 7.133-7.008 7.134-7.008 7.134-7.008 7.134-7.008 7.133-7.008 7.134-7.008 7.134-7.007 7.133-7.008 7.134-7.008 7.134-7.008 7.134-7.008 7.133-7.008 7.134-7.008 7.134-7.007 7.133-7.008 7.134-7.008 7.134-7.008 7.134-4.143 4.217M1191.035 442.555l-7.008 7.134-3.014 3.068-6.871 6.995-7.008 7.133-1.266 1.289-7.008 7.134-.499.508-7.065 7.192-7.008 7.134-3.681 3.747-7.008 7.134-7.008 7.134-2.742 2.791-7.008 7.134-7.008 7.133-7.008 7.134-6.177 6.288-7.008 7.134-7.008 7.134-7.008 7.133-7.007 7.134-7.008 7.134-7.008 7.134-7.008 7.133-7.008 7.134-.627.638M1214.03 419.147l-3.821 3.889-3.361 3.422-2.28 2.322M1213.009 437.112l.486-.495.717-.73 7.011-7.13 4.981-5.066M1046.536 606.431l7.011-7.131 7.011-7.131 7.01-7.131 7.011-7.13 7.011-7.131 7.011-7.131 7.011-7.131 7.011-7.13 7.011-7.131 7.011-7.131 7.011-7.131 4.704-4.785 7.011-7.131 7.011-7.13 7.011-7.131 7.011-7.131 7.011-7.131 5.414-5.506 7.011-7.131 7.011-7.131 7.011-7.131 6.595-6.708 2.081-2.116 1.011-1.028M883.351 772.405l7.011-7.131 7.011-7.131 7.011-7.13 7.011-7.131 7.011-7.131 7.011-7.131 7.011-7.13 7.01-7.131 7.011-7.131 7.011-7.131 7.011-7.13 7.011-7.131 7.011-7.131 7.011-7.131 7.011-7.13 7.011-7.131 7.01-7.131 7.011-7.131 7.011-7.13 7.011-7.131 8.018-8.155M729.071 929.323l5.947-6.049 7.011-7.131 7.011-7.131 7.011-7.131 7.011-7.13 7.011-7.131 7.011-7.131 7.011-7.131 7.01-7.13 7.011-7.131 7.011-7.131 7.011-7.131 7.011-7.13 7.011-7.131 7.011-7.131 7.011-7.131 7.011-7.13 7.01-7.131 7.011-7.131 5.756-5.854" style="stroke:#000;stroke-opacity:.67048711"/><path d="m1202.26 803.369-7.429-6.694-7.43-6.693-7.43-6.693-7.43-6.693-7.43-6.693-7.429-6.693-7.43-6.694-7.43-6.693-7.43-6.693-7.429-6.693-7.43-6.693-7.43-6.693-7.43-6.694-7.429-6.693-7.43-6.693-7.43-6.693-7.43-6.693-7.43-6.693-7.429-6.694-7.43-6.693-7.43-6.693-2.7-2.433M1074.171 296.701l-.819-.8-7.149-6.992-7.15-6.992-7.149-6.992-5.683-5.558-7.149-6.992-7.15-6.992-7.149-6.992-.787-.77M1206.848 426.458l-7.149-6.992-7.149-6.992-1.051-1.028-7.149-6.992-7.15-6.992-7.149-6.991-7.149-6.992-7.15-6.992-5.126-5.014-7.15-6.992-7.149-6.992-7.149-6.992-4.85-4.743-7.149-6.991-7.149-6.992-7.15-6.992-7.149-6.992-3.823-3.739M266.188 501.164l-9.986.528-9.986.528-9.986.529-7.428.393M346.19 496.93l-9.986.529-9.986.528-9.986.529-9.986.528-9.986.528-9.986.529-8.789.465M425.381 492.74l-9.986.528-9.986.529-9.986.528-9.986.529-9.986.528-9.986.528-8.476.449M503.676 488.597l-9.986.529-9.987.528-9.986.528-9.986.529-9.986.528-9.986.529-8.067.427M580.91 484.511l-9.986.528-9.986.528-9.986.529-9.986.528-9.986.529-9.986.528-7.243.383M657.377 480.464l-9.986.529-9.986.528-9.986.529-9.986.528-9.986.528-9.986.529-6.204.328M733.088 476.458l-9.986.529-9.986.528-9.986.529-9.986.528-9.986.528-9.986.529-5.182.274M772.838 474.355l-9.986.528-9.986.529-8.905.471M803.502 472.732l-9.986.529-1.642.087M926.973 466.199l-9.986.529-9.986.528-9.986.528-9.986.529-9.986.528-9.986.529-5.679.3M957.936 464.561l-3.789.2M1181.013 452.757l-9.986.529-9.986.528-9.986.528-9.986.529-9.986.528-9.986.529-9.986.528-9.986.528-9.986.529-9.986.528-9.986.529-9.986.528-9.986.528-10.439.553M265.818 479.425l-9.987.514-9.987.515-9.987.514-8.988.464-6.196.319M345.497 475.319l-9.987.515-9.987.514-9.986.515-9.987.514-9.987.515-9.987.515-8.507.438M424.371 471.255l-9.986.514-9.987.515-9.987.515-9.987.514-9.986.515-9.987.514-8.198.423M502.356 467.236l-9.987.515-9.987.515-9.986.514-9.987.515-9.987.514-9.987.515-7.794.402M579.288 463.272l-9.987.515-9.987.514-9.986.515-9.987.515-9.987.514-9.987.515-6.975.359M655.458 459.347l-9.987.515-9.986.515-9.987.514-9.987.515-9.987.514-9.986.515-5.943.306M730.878 455.461l-9.986.515-9.987.514-9.987.515-9.986.515-9.987.514-9.987.515-4.928.254M787.215 452.558l-9.986.515-9.987.514-9.987.515-9.987.515-5.558.286M817.697 450.988l-9.986.514-1.573.081M914.512 445.999l-9.986.515-9.987.514-9.987.515-9.322.48M947.67 444.29l-6.65.343M1180.443 432.296l-9.986.515-9.987.514-9.987.515-9.986.515-9.987.514-9.987.515-9.987.514-9.986.515-9.987.514-9.987.515-9.987.515-9.986.514-9.987.515-2.487.128M1024.043 239.971l7.131 7.011 7.13 7.012 7.13 7.011 7.13 7.012 1.071 1.052 7.13 7.012 7.13 7.011 7.13 7.012 6.399 6.292.846.831 7.13 7.012 4.42 4.346 7.13 7.012 7.13 7.011 7.13 7.012 7.13 7.011 7.131 7.011 1.825 1.795 7.13 7.012 7.13 7.011 7.131 7.012 4.757 4.678 7.131 7.012 7.13 7.011 7.13 7.012 7.13 7.011 7.13 7.012 4.992 4.908 7.13 7.011 4.992 4.909M1046.207 444.605l9.987-.518 9.986-.518 9.987-.519 9.986-.518 9.987-.518 9.986-.518 9.987-.518 9.986-.519 9.987-.518 9.987-.518 9.986-.518 9.987-.518 9.986-.518 9.648-.501M944.445 449.885l5.903-.306M871.62 453.664l9.987-.518 9.987-.518 9.986-.518 9.987-.519 6.197-.321M802.421 457.255l9.987-.518 1.59-.083M742.297 460.375l9.987-.519 9.986-.518 9.987-.518 9.986-.518 1.226-.064M666.541 464.305l9.987-.518 9.987-.518 9.986-.518 9.987-.518 9.986-.519 9.987-.518 4.994-.259M590.028 468.276l9.987-.519 9.986-.518 9.987-.518 9.987-.518 9.986-.518 9.987-.518 6.011-.312M512.746 472.286l9.987-.518 9.986-.519 9.987-.518 9.987-.518 9.986-.518 9.987-.518 7.045-.366M434.915 476.324l9.986-.518 9.987-.518 9.987-.518 9.986-.518 9.987-.519 9.986-.518 7.866-.408M356.445 480.396l9.986-.518 9.987-.518 9.986-.519 9.987-.518 9.986-.518 9.987-.518 8.271-.429M277.178 484.509l9.986-.518 9.987-.518 9.986-.518 9.987-.519 9.986-.518 9.987-.518 8.581-.445M222.021 487.371l2.816-.146 2.536-.132 9.986-.518 9.987-.518 9.986-.518 8.582-.445M1030.444 489.637l9.985-.548 9.985-.547 9.985-.548 9.985-.548 9.985-.547 9.985-.548 9.985-.548 9.985-.547 9.985-.548 9.985-.548 1.366-.075M841.987 499.973l9.985-.547 9.985-.548 9.985-.548 9.985-.547 9.985-.548 9.985-.548 9.985-.547 9.985-.548 9.985-.548 9.985-.547 2.506-.138M771.904 503.817l9.985-.547 1.741-.096M747.104 505.178l5.605-.308M670.726 509.367l9.985-.548 9.985-.548 9.985-.547 9.985-.548 9.985-.548 9.985-.547 5.537-.304M593.579 513.598l9.985-.547 9.985-.548 9.985-.548 9.985-.547 9.985-.548 9.985-.548 6.567-.36M515.649 517.872l9.985-.547 9.985-.548 9.985-.548 9.985-.547 9.985-.548 9.985-.548 7.616-.417M437.159 522.177l9.985-.547 9.985-.548 9.985-.547 9.985-.548 9.985-.548 9.985-.547 8.45-.464M358.018 526.518l9.985-.547 9.985-.548 9.985-.548 9.985-.547 9.985-.548 9.985-.548 8.864-.486M278.066 530.904l9.985-.548 9.985-.548 9.985-.548 9.985-.547 9.985-.548 9.985-.547 9.182-.504M221.125 534.027l9.985-.548 9.985-.548 9.985-.547 9.985-.548 5.64-.309M266.308 508.195l-9.986.533-9.986.532-9.986.533-9.325.498M346.414 503.92l-9.986.533-9.985.533-9.986.533-9.986.533-9.986.532-9.985.533-8.88.474M425.708 499.689l-9.986.533-9.986.533-9.985.532-9.986.533-9.986.533-9.986.533-8.566.457M504.102 495.506l-9.985.533-9.986.532-9.986.533-9.986.533-9.986.533-9.985.533-8.156.435M581.435 491.379l-9.986.533-9.986.533-9.986.533-9.986.533-9.985.532-9.986.533-7.329.391M657.997 487.294l-9.985.532-9.986.533-9.986.533-9.986.533-9.986.533-9.985.533-6.288.335M733.802 483.249l-9.986.532-9.985.533-9.986.533-9.986.533-9.986.533-9.986.533-5.263.281M768.181 481.414l-9.986.533-9.985.533-3.521.188M798.905 479.775l-9.986.532-1.665.089M930.999 472.726l-9.986.533-9.986.533-9.986.533-9.986.532-9.985.533-9.986.533-9.986.533-4.205.224M961.253 471.112l-2.865.152M1174.142 459.752l-9.986.532-9.985.533-9.986.533-9.986.533-9.986.533-9.986.533-9.986.533-9.985.532-9.986.533-9.986.533-9.986.533-9.986.533-9.985.533-5.958.318" style="stroke:#000;stroke-opacity:.67048711"/><path d="m770.444 937.423 7.02-7.122 7.02-7.122 4.263-4.324 7.02-7.122 7.021-7.122 7.02-7.121 7.02-7.122 7.02-7.122 7.02-7.122 7.02-7.121 7.02-7.122 7.02-7.122 7.02-7.121 7.02-7.122 7.02-7.122 7.02-7.121 7.02-7.122 7.021-7.122 7.02-7.121 7.02-7.122 7.02-7.122 7.02-7.122 7.02-7.121 7.02-7.122 7.02-7.122 7.02-7.121 7.02-7.122 7.02-7.122 7.02-7.121 7.02-7.122 7.021-7.122 7.02-7.122 7.02-7.121 7.02-7.122 7.803-7.916 2.799-2.84 7.02-7.121 7.02-7.122 7.02-7.122 3.029-3.072 2.474-2.51 7.02-7.121 7.02-7.122 7.02-7.122 7.02-7.122 7.02-7.121 7.02-7.122 7.02-7.122 7.02-7.121 7.02-7.122 7.02-7.122 7.02-7.121 7.021-7.122 7.02-7.122 7.02-7.122 7.02-7.121 7.02-7.122 7.02-7.122 7.02-7.121 7.02-7.122 7.02-7.122 7.02-7.121 7.02-7.122 7.02-7.122 6.876-6.975 7.02-7.121 3.316-3.365M646.06 709.954l-9.067 4.217-4.248 1.976M797.387 639.566l-9.067 4.218-9.067 4.217-9.067 4.218-9.067 4.217-9.068 4.218-9.067 4.217-9.274 4.314M981.18 554.078l-9.067 4.218-9.067 4.217-9.067 4.218-9.068 4.217-9.067 4.218-9.067 4.217-9.067 4.217-9.067 4.218-9.067 4.217-9.068 4.218-9.067 4.217-9.067 4.218-9.067 4.217-9.067 4.217-9.067 4.218-9.068 4.217-9.067 4.218-2.698 1.255M1165.868 468.174l-9.067 4.217-8.545 3.975-9.067 4.217-7.529 3.502-9.067 4.218-9.067 4.217-9.068 4.218-9.067 4.217-9.067 4.217-9.067 4.218-9.067 4.217-9.067 4.218-9.068 4.217-9.067 4.218-9.067 4.217-10.111 4.703M1214.667 398.357l-7.048-7.094-7.047-7.095-7.048-7.094-7.047-7.095-.515-.518-5.691-5.729-7.048-7.095-6.813-6.859-5.644-5.682-7.048-7.094-7.047-7.095-7.048-7.094-7.047-7.095-7.048-7.094-7.047-7.095-6.381-6.423-6.243-6.285-7.047-7.094-7.048-7.095-.456-.459-6.32-6.362-7.048-7.095-7.047-7.094-4.485-4.515M265.451 457.893l-9.987.501-9.988.501-9.987.5-9.988.501-9.949.499M344.81 453.912l-9.987.501-9.988.501-9.987.501-9.988.501-9.987.501-9.988.501-8.228.413M423.371 449.972l-9.987.501-9.988.501-9.987.501-9.988.501-9.987.501-9.988.501-7.923.397M501.049 446.076l-9.988.501-9.987.501-9.988.501-9.987.501-9.988.501-9.987.501-7.524.377M577.681 442.233l-9.988.501-9.987.5-9.988.501-9.987.501-9.988.501-9.987.501-6.711.337M653.557 438.427l-9.987.501-9.988.501-9.987.501-9.987.501-9.988.501-9.987.501-5.685.285M728.69 434.659l-9.988.501-9.987.501-9.988.5-9.987.501-9.987.501-9.988.501-4.676.235M801.429 431.01l-9.987.501-9.988.501-9.987.501-9.988.501-9.987.501-9.988.501-2.024.101M831.731 429.491l-9.988.501-1.503.075M902.151 425.959l-9.988.501-3.238.162M937.489 424.186l-9.493.476M985.375 421.785l-9.352.469M1161.533 412.949l-9.988.501-9.987.501-9.988.501-9.987.501-9.988.501-9.987.501-9.987.501-9.988.501-9.987.501-9.988.501-6.233.312M1025.045 573.477l8.992-4.375 8.992-4.375 8.992-4.376 8.993-4.375 8.992-4.375 8.992-4.376 8.992-4.375 8.658-4.213M839.29 663.86l8.992-4.375 8.992-4.376 8.992-4.375 8.992-4.375 8.992-4.375 8.992-4.376 8.992-4.375 8.992-4.375 8.992-4.376 8.993-4.375 8.992-4.375 8.992-4.375 8.992-4.376 8.992-4.375 8.992-4.375 8.992-4.375 8.992-4.376 8.355-4.065M684.768 739.045l8.992-4.375 8.992-4.375 8.992-4.376 8.992-4.375 8.993-4.375 8.992-4.375 8.992-4.376 8.992-4.375 8.992-4.375 8.992-4.375 8.992-4.376 8.992-4.375 8.992-4.375 9.825-4.78M802.686 653.777l-9.039 4.277-9.039 4.277-9.04 4.277-9.039 4.277-9.039 4.277-9.039 4.277-9.04 4.277-9.039 4.277-9.039 4.277-3.435 1.625-9.04 4.277-9.039 4.277-9.039 4.277-9.039 4.277-3.154 1.492M988.459 565.878l-9.04 4.277-9.039 4.277-9.039 4.277-9.039 4.277-9.039 4.277-9.04 4.277-9.039 4.277-9.039 4.277-9.039 4.277-9.04 4.277-9.039 4.277-9.039 4.277-9.039 4.277-9.04 4.277-9.039 4.277-9.039 4.277-9.039 4.276-4.833 2.287M1140.607 493.889l-9.039 4.277-9.04 4.277-9.039 4.277-9.039 4.277-9.039 4.277-9.04 4.277-9.039 4.277-9.039 4.277-9.039 4.277-9.04 4.277-9.039 4.276-9.039 4.277-9.039 4.277-9.04 4.277-1.426.675M1215.705 389.91l-7.348-6.783-7.347-6.783-7.348-6.783-5.105-4.712-5.252-4.848-7.348-6.783-7.348-6.783-2.783-2.569-7.348-6.783-7.348-6.783-7.347-6.783-7.348-6.783-7.348-6.782-7.348-6.783-7.348-6.783-1.426-1.316-6.376-5.886M1214.743 395.882l-7.316-6.818-7.316-6.818-7.315-6.817-6.686-6.231-5.296-4.935M1260.662 478.34l7.161 6.981 7.161 6.98 7.16 6.98 7.161 6.981 7.161 6.98 7.16 6.98 7.161 6.981 7.161 6.98 7.16 6.98 7.161 6.98 7.161 6.981 7.16 6.98 7.161 6.98 7.161 6.981 7.16 6.98 7.161 6.98 7.161 6.981 7.16 6.98 7.161 6.98 7.161 6.981 7.16 6.98 7.161 6.98 7.161 6.98 7.161 6.981 7.16 6.98 7.161 6.98 7.161 6.981 7.16 6.98 7.161 6.98 7.161 6.981 7.16 6.98 7.161 6.98 7.161 6.98 7.16 6.981 7.161 6.98 7.161 6.98 7.16 6.981 7.161 6.98 7.161 6.98 7.16 6.981 7.161 6.98 7.161 6.98 7.161 6.981 7.16 6.98 7.161 6.98 7.161 6.98 7.16 6.981 7.161 6.98 7.161 6.98 7.16 6.981 7.161 6.98 7.161 6.98 7.663 7.471 7.161 6.98 7.161 6.98.88.859M1703.222 859.659l-7.123-7.019-1.076-1.061-6.8-6.702-3.479-3.429-7.123-7.019-7.122-7.02-7.122-7.019-7.123-7.02-7.122-7.019-1.133-1.116-7.122-7.02-7.122-7.019-7.123-7.02-7.122-7.019-7.122-7.02-7.123-7.019-7.122-7.019-7.122-7.02-7.123-7.019-7.122-7.02-7.122-7.019-7.123-7.019-7.122-7.02-.975-.961-7.122-7.019-3.621-3.569-7.123-7.019-7.122-7.019-7.122-7.02-7.123-7.019-7.122-7.02-7.122-7.019-7.123-7.02-7.122-7.019-7.122-7.019-7.123-7.02-7.122-7.019-7.122-7.02-7.123-7.019-7.122-7.02-7.122-7.019-7.123-7.019-7.122-7.02-7.122-7.019-7.123-7.02-7.122-7.019-2.622-2.584-7.122-7.02-4.08-4.02-7.122-7.019-7.122-7.02-7.123-7.019-7.122-7.02-7.122-7.019-7.123-7.019-7.122-7.02-7.122-7.019-7.123-7.02-7.122-7.019-7.122-7.02-7.123-7.019-7.122-7.019-7.122-7.02-7.123-7.019-4.917-4.847-5.689-5.607-4.771-4.702-2.613-2.574M1441.516 666.743l7.102 7.039 7.103 7.039 7.103 7.04 7.102 7.039 7.103 7.04 7.102 7.039 7.103 7.04 7.103 7.039 7.102 7.039 7.103 7.04 7.102 7.039 7.103 7.04 7.102 7.039 7.103 7.039 7.103 7.04 7.102 7.039 7.103 7.04 7.102 7.039 7.103 7.04 7.102 7.039 7.103 7.039 7.103 7.04 7.102 7.039 7.103 7.04 7.102 7.039 7.3 7.235M1260.339 487.177l7.103 7.04 7.103 7.039 7.102 7.04 7.103 7.039 7.102 7.039 7.103 7.04 7.103 7.039 7.102 7.04 7.103 7.039 7.102 7.04 7.103 7.039 7.102 7.039 7.103 7.04 7.103 7.039 7.102 7.04 7.103 7.039 7.102 7.039 7.103 7.04 7.102 7.039 7.103 7.04 5.316 5.269" style="stroke:#000;stroke-opacity:.67048711"/><path d="m1199.758 885.051-9.966.82-9.967.819-9.966.82-9.966.82-9.967.819-9.966.82-9.966.82-9.967.819-9.966.82-9.966.82-9.967.819-9.966.82-9.966.82-9.967.819-9.966.82-9.966.82-9.967.82-9.966.819-9.966.82-9.967.82-9.966.819-9.966.82-9.967.82-9.966.819-9.967.82-9.966.82-9.966.819-9.967.82-9.966.82-9.966.819-9.967.82-9.966.82-9.966.82-9.967.819-9.966.82-9.966.82-9.967.819-9.966.82-9.966.82-9.967.819-12.357 1.017M1640.681 848.787l-9.966.82-4.335.356-9.966.82-9.966.819-9.967.82-9.966.82-9.967.819-9.966.82-9.966.82-9.967.82-9.966.819-9.966.82-9.967.82-9.966.819-9.966.82-9.967.82-9.966.819-9.966.82-9.967.82-9.966.819-9.966.82-9.967.82-9.966.82-9.966.819-9.967.82-9.966.82-9.966.819-9.967.82-9.966.82-9.966.819-9.967.82-9.966.82-9.967.819-9.966.82-9.966.82-9.967.819-9.966.82-9.966.82-9.967.82-11.675.96M1703.6 859.627l-.378.032-9.966.831-9.965.831-9.966.83-9.965.831-7.477.624-9.966.83-4.551.38-9.965.831-9.966.83-9.965.831-9.965.831-9.966.831-9.965.831-9.966.83-9.965.831-9.966.831-9.965.831-9.966.831-9.965.83-9.965.831-9.966.831-9.965.831-9.966.831-9.965.83-9.965.831-9.966.831-9.965.831-9.966.831-9.965.83-9.966.831-9.965.831-9.966.831-9.965.831-9.965.83-9.966.831-9.965.831-9.966.831-9.965.831-9.966.83-9.965.831-9.965.831-9.966.831-9.965.831-9.966.83-9.965.831-9.966.831-9.965.831-9.965.83-9.966.831-9.965.831-9.966.831-9.965.831-9.966.83-9.965.831-9.965.831-9.966.831-9.965.831-9.966.83-9.965.831-9.966.831-9.965.831-9.965.831-9.966.83-9.965.831-9.966.831-9.965.831-9.966.831-9.965.83-9.965.831-9.966.831-9.965.831-9.966.831-9.965.83-9.966.831-9.965.831-9.965.831-9.966.831-9.965.83-9.966.831-9.965.831-9.966.831-9.965.831-9.965.83-9.966.831-9.965.831-9.966.831-9.965.831-9.966.83-9.965.831-9.965.831-9.966.831-9.965.831-9.966.83-13.895 1.159-9.965.831-9.966.83-9.965.831-9.164.764" style="stroke:#000;stroke-opacity:.67048711"/></g><path d="m170.306 168.375-.648-21.818 410.751-12.191.507 17.075" style="opacity:.669;fill:none;stroke:#4133aa;stroke-width:1.99937;stroke-linejoin:round;stroke-opacity:1"/><text xml:space="preserve" x="333.467" y="130.229" style="font-style:normal;font-variant:normal;font-weight:400;font-stretch:normal;font-size:26.6667px;font-family:Calibri;-inkscape-font-specification:Calibri;text-align:start;writing-mode:lr-tb;direction:ltr;text-anchor:start;clip-rule:evenodd;opacity:.66855;fill:#000;fill-opacity:1;fill-rule:evenodd;stroke:none;stroke-width:1.88976;stroke-miterlimit:10;stroke-dasharray:none;stroke-opacity:1"><tspan x="333.467" y="130.229" style="stroke-width:1.88976">Chevrons</tspan></text><path d="m596.74 153.745-.648-21.818 336.262-8.164 1.178 17.075" style="opacity:.669;fill:none;stroke:#4133aa;stroke-width:1.99937;stroke-linejoin:round;stroke-opacity:1"/><text xml:space="preserve" x="724.334" y="115.599" style="font-style:normal;font-variant:normal;font-weight:400;font-stretch:normal;font-size:26.6667px;font-family:Calibri;-inkscape-font-specification:Calibri;text-align:start;writing-mode:lr-tb;direction:ltr;text-anchor:start;clip-rule:evenodd;opacity:.66855;fill:#000;fill-opacity:1;fill-rule:evenodd;stroke:none;stroke-width:1.88976;stroke-miterlimit:10;stroke-dasharray:none;stroke-opacity:1"><tspan x="724.334" y="115.599" style="stroke-width:1.88976">Empanons</tspan></text><text xml:space="preserve" x="932.76" y="57.849" style="font-style:normal;font-variant:normal;font-weight:400;font-stretch:normal;font-size:26.6667px;font-family:Calibri;-inkscape-font-specification:Calibri;text-align:start;writing-mode:lr-tb;direction:ltr;text-anchor:start;clip-rule:evenodd;opacity:.66855;fill:#000;fill-opacity:1;fill-rule:evenodd;stroke:none;stroke-width:1.88976;stroke-miterlimit:10;stroke-dasharray:none;stroke-opacity:1"><tspan x="932.76" y="57.849" style="stroke-width:1.88976">Chevron de noue</tspan></text><text xml:space="preserve" x="1167.117" y="196.3" style="font-style:normal;font-variant:normal;font-weight:400;font-stretch:normal;font-size:26.6667px;font-family:Calibri;-inkscape-font-specification:Calibri;text-align:start;writing-mode:lr-tb;direction:ltr;text-anchor:start;clip-rule:evenodd;opacity:.66855;fill:#000;fill-opacity:1;fill-rule:evenodd;stroke:none;stroke-width:1.88976;stroke-miterlimit:10;stroke-dasharray:none;stroke-opacity:1"><tspan x="1167.117" y="196.3" style="stroke-width:1.88976">Demi-ferme de noue</tspan><tspan x="1167.117" y="229.633" style="stroke-width:1.88976"><tspan style="font-size:21.3333px">dont </tspan>Arbalêtrier de noue</tspan></text><path d="M1001.233 141.595V69.791" style="opacity:.669;fill:none;stroke:#4133aa;stroke-width:1.99937;stroke-linejoin:round;stroke-opacity:1;marker-start:url(#a)"/><path d="m945.384 313.84 216.755-125.143L965.663 427.79" style="opacity:.669;fill:none;stroke:#4133aa;stroke-width:1.999;stroke-linejoin:round;stroke-opacity:1;stroke-dasharray:none;marker-start:url(#a);marker-end:url(#a)"/></svg>