<svg xmlns="http://www.w3.org/2000/svg" xml:space="preserve" width="1001.255" height="699.318" viewBox="0 0 264.916 185.028"><defs><marker id="b" markerHeight="1" markerWidth="1" orient="auto" preserveAspectRatio="xMidYMid" refX="0" refY="0" style="overflow:visible" viewBox="0 0 1 1"><path d="M5 0c0 2.76-2.24 5-5 5s-5-2.24-5-5 2.3-5 5-5c2.76 0 5 2.24 5 5" style="fill:context-stroke;fill-rule:evenodd;stroke:none" transform="scale(.5)"/></marker><marker id="c" markerHeight="1" markerWidth="1" orient="auto" preserveAspectRatio="xMidYMid" refX="0" refY="0" style="overflow:visible" viewBox="0 0 1 1"><path d="M5 0c0 2.76-2.24 5-5 5s-5-2.24-5-5 2.3-5 5-5c2.76 0 5 2.24 5 5" style="fill:context-stroke;fill-rule:evenodd;stroke:none" transform="scale(.5)"/></marker><marker id="e" markerHeight="1" markerWidth="1" orient="auto" preserveAspectRatio="xMidYMid" refX="0" refY="0" style="overflow:visible" viewBox="0 0 1 1"><path d="M5 0c0 2.76-2.24 5-5 5s-5-2.24-5-5 2.3-5 5-5c2.76 0 5 2.24 5 5" style="fill:context-stroke;fill-rule:evenodd;stroke:none" transform="scale(.5)"/></marker><marker id="a" markerHeight="1" markerWidth="1" orient="auto" preserveAspectRatio="xMidYMid" refX="0" refY="0" style="overflow:visible" viewBox="0 0 1 1"><path d="M5 0c0 2.76-2.24 5-5 5s-5-2.24-5-5 2.3-5 5-5c2.76 0 5 2.24 5 5" style="fill:context-stroke;fill-rule:evenodd;stroke:none" transform="scale(.5)"/></marker><marker id="d" markerHeight="1" markerWidth="1" orient="auto" preserveAspectRatio="xMidYMid" refX="0" refY="0" style="overflow:visible" viewBox="0 0 1 1"><path d="M5 0c0 2.76-2.24 5-5 5s-5-2.24-5-5 2.3-5 5-5c2.76 0 5 2.24 5 5" style="fill:context-stroke;fill-rule:evenodd;stroke:none" transform="scale(.5)"/></marker></defs><path d="m220.988 154.698-11.026 2.936-10.179-4.045-14.81 3.85-15.92-6.72-34.19 7.894-9.656-5.48-98.842 21.499-.713-31.795" style="opacity:.66855;fill:none;fill-opacity:1;stroke:#000;stroke-width:.5;stroke-dasharray:none" transform="translate(-8.736 -2.35)"/><path d="m127.243 128.166-6.736-5.906-94.117 14.21" style="opacity:.66855;fill:none;fill-opacity:1;stroke:#000;stroke-width:.499999;stroke-dasharray:none" transform="translate(-8.736 -2.35)"/><path d="m120.6 122.26-12.088-20.576L9.135 113.31l17.44 31.557M134.901 158.43l-.092-28.327 2.122 3.322 10.335-1.845-1.938-3.322.092-12.734 2.03.83 7.29-7.75 8.397 5.536-2.953-.092.092 12.088 2.307 2.86 6.459-1.015 16.055 5.352 23.806-26.298 20.854 17.255-4.43-.923-.091-1.291-16.517-13.564" style="opacity:.66855;fill:none;fill-opacity:1;stroke:#000;stroke-width:.499999;stroke-dasharray:none" transform="translate(-8.736 -2.35)"/><path d="m200.322 128.72 10.335 13.748 11.81-2.768-10.519-13.472zM210.472 142.468l-.184 14.948M221.176 154.555v-14.394M199.86 153.54l.278-24.636M185.097 157.231l.185-23.806M169.134 150.495v-22.422M125.213 153.171v-24.636" style="opacity:.66855;fill:none;fill-opacity:1;stroke:#000;stroke-width:.499999;stroke-dasharray:none" transform="translate(-8.736 -2.35)"/><path d="m134.623 129.825-14.76-24.957-.277-13.234" style="opacity:.66855;fill:none;fill-opacity:1;stroke:#000;stroke-width:.506036;stroke-dasharray:none" transform="translate(-8.736 -2.35)"/><path d="m173.287 99.285 35.524 7.381m-39.769 21.223 4.245-28.604-53.518 5.813" style="opacity:.66855;fill:none;fill-opacity:1;stroke:#000;stroke-width:.499999;stroke-dasharray:none" transform="translate(-8.736 -2.35)"/><path d="m86.92 103.79.092-19.454" style="opacity:.66855;fill:none;fill-opacity:1;stroke:#000;stroke-width:.510482;stroke-dasharray:none" transform="translate(-8.736 -2.35)"/><path d="m83.23 83.506 35.432 8.489 77.6-6.92-51.487-26.667-12.826.461-13.287 32.85M82.86 83.137l49.089-24.268M145.238 128.143l-10.113-15.659 3.523-8.482 16.18 4.633M145.238 115.55l-9.722-3.262M191.925 85.905l-.092 17.07M210.103 65.79l-1.107 40.969" style="opacity:.66855;fill:none;fill-opacity:1;stroke:#000;stroke-width:.499999;stroke-dasharray:none" transform="translate(-8.736 -2.35)"/><path d="m210.103 65.974-.185-1.384-55.27-4.152m70.31 69.48 41.339-8.95 3.137-58.039 3.875-.184v-1.2L250.703 42.63l-33.772-8.397-6.551.092L175.778 43 154.74 60.346v1.107l55.363 4.245 59.239-2.953 4.06-.185v-.922l-63.484 2.952.185 1.384.37-23.252-34.695.184" style="opacity:.66855;fill:none;fill-opacity:1;stroke:#000;stroke-width:.499999;stroke-dasharray:none" transform="translate(-8.736 -2.35)"/><path d="m225.143 123.552-.83 23.99-3.045.739M250.795 42.722l-40.323.092-.092-8.489M158.062 65.19l.046-3.506" style="opacity:.66855;fill:none;fill-opacity:1;stroke:#000;stroke-width:.499999;stroke-dasharray:none" transform="translate(-8.736 -2.35)"/><path d="M207.058 127.52v45.213" style="opacity:.66855;fill:none;fill-opacity:1;stroke:#4133aa;stroke-width:.499999;stroke-dasharray:none;stroke-opacity:1;marker-start:url(#a)" transform="translate(-8.736 -2.35)"/><path d="m96.885 129.55.37 43.183" style="opacity:.66855;fill:none;fill-opacity:1;stroke:#4133aa;stroke-width:.499999;stroke-dasharray:none;stroke-opacity:1;marker-start:url(#b)" transform="translate(-8.736 -2.35)"/><path d="M92.272 78.431v-17.9" style="opacity:.66855;fill:none;fill-opacity:1;stroke:#4133aa;stroke-width:.499999;stroke-dasharray:none;stroke-opacity:1;marker-start:url(#c)" transform="translate(-8.736 -2.35)"/><path d="M62.938 156.752v17.9" style="opacity:.66855;fill:none;fill-opacity:1;stroke:#4133aa;stroke-width:.499999;stroke-dasharray:none;stroke-opacity:1;marker-start:url(#d)" transform="translate(-8.736 -2.35)"/><path d="M117.185 75.478V52.226" style="opacity:.66855;fill:none;fill-opacity:1;stroke:#4133aa;stroke-width:.499999;stroke-dasharray:none;stroke-opacity:1;marker-start:url(#e)" transform="translate(-8.736 -2.35)"/><path d="M137.485 59.054V40.6" style="opacity:.66855;fill:none;fill-opacity:1;stroke:#4133aa;stroke-width:.499999;stroke-dasharray:none;stroke-opacity:1;marker-start:url(#b)" transform="translate(-8.736 -2.35)"/><path d="M143.206 68.281V20.3" style="opacity:.66855;fill:none;fill-opacity:1;stroke:#4133aa;stroke-width:.499999;stroke-dasharray:none;stroke-opacity:1;marker-start:url(#b)" transform="translate(-8.736 -2.35)"/><path d="M198.754 43.183V9.043" style="opacity:.66855;fill:none;fill-opacity:1;stroke:#4133aa;stroke-width:.499999;stroke-dasharray:none;stroke-opacity:1;marker-start:url(#b)" transform="translate(-8.736 -2.35)"/><path d="M230.68 40.046V20.484" style="opacity:.66855;fill:none;fill-opacity:1;stroke:#4133aa;stroke-width:.499999;stroke-dasharray:none;stroke-opacity:1;marker-start:url(#b)" transform="translate(-8.736 -2.35)"/><path d="M257.254 56.655V34.51" style="opacity:.66855;fill:none;fill-opacity:1;stroke:#4133aa;stroke-width:.499999;stroke-dasharray:none;stroke-opacity:1;marker-start:url(#b)" transform="translate(-8.736 -2.35)"/><path d="M127.335 117.427v62.319" style="opacity:.66855;fill:none;fill-opacity:1;stroke:#4133aa;stroke-width:.473843;stroke-dasharray:none;stroke-opacity:1;marker-start:url(#b)" transform="translate(-8.736 -2.35)"/><path d="M142.837 120.394v47.172" style="opacity:.66855;fill:none;fill-opacity:1;stroke:#4133aa;stroke-width:.476877;stroke-dasharray:none;stroke-opacity:1;marker-start:url(#b)" transform="translate(-8.736 -2.35)"/><path d="M171.995 111.833v60.9" style="opacity:.66855;fill:none;fill-opacity:1;stroke:#4133aa;stroke-width:.499999;stroke-dasharray:none;stroke-opacity:1;marker-start:url(#b)" transform="translate(-8.736 -2.35)"/><path d="m218.684 123.644 26.851 26.851v9.689" style="opacity:.66855;fill:none;fill-opacity:1;stroke:#4133aa;stroke-width:.499999;stroke-dasharray:none;stroke-opacity:1;marker-start:url(#b)" transform="translate(-8.736 -2.35)"/><text xml:space="preserve" x="74.371" y="59.792" style="font-size:7.05556px;text-align:start;writing-mode:lr-tb;direction:ltr;text-anchor:start;opacity:.66855;fill:#000;fill-opacity:1;stroke:none;stroke-width:.499999;stroke-dasharray:none;stroke-opacity:1" transform="translate(-8.736 -2.35)"><tspan x="74.371" y="59.792" style="font-style:normal;font-variant:normal;font-weight:400;font-stretch:normal;font-size:7.05556px;font-family:Calibri;-inkscape-font-specification:Calibri;fill:#000;fill-opacity:1;stroke:none;stroke-width:.5">Arêtier</tspan></text><text xml:space="preserve" x="39.916" y="180.322" style="font-size:7.05556px;text-align:start;writing-mode:lr-tb;direction:ltr;text-anchor:start;opacity:.66855;fill:#000;fill-opacity:1;stroke:none;stroke-width:.499999;stroke-dasharray:none;stroke-opacity:1" transform="translate(-8.736 -2.35)"><tspan x="39.916" y="180.322" style="font-style:normal;font-variant:normal;font-weight:400;font-stretch:normal;font-size:7.05556px;font-family:Calibri;-inkscape-font-specification:Calibri;fill:#000;fill-opacity:1;stroke:none;stroke-width:.5">Mur gouttereau</tspan></text><text xml:space="preserve" x="99.1" y="51.488" style="font-style:normal;font-variant:normal;font-weight:400;font-stretch:normal;font-size:7.05556px;font-family:Calibri;-inkscape-font-specification:Calibri;text-align:start;writing-mode:lr-tb;direction:ltr;text-anchor:start;opacity:.66855;fill:#000;fill-opacity:1;stroke:none;stroke-width:.499999;stroke-dasharray:none;stroke-opacity:1" transform="translate(-8.736 -2.35)"><tspan x="99.1" y="51.488" style="stroke-width:.5">Croupe</tspan></text><text xml:space="preserve" x="118.477" y="39.123" style="font-style:normal;font-variant:normal;font-weight:400;font-stretch:normal;font-size:7.05556px;font-family:Calibri;-inkscape-font-specification:Calibri;text-align:start;writing-mode:lr-tb;direction:ltr;text-anchor:start;opacity:.66855;fill:#000;fill-opacity:1;stroke:none;stroke-width:.499999;stroke-dasharray:none;stroke-opacity:1" transform="translate(-8.736 -2.35)"><tspan x="118.477" y="39.123" style="stroke-width:.5">Faitage</tspan></text><text xml:space="preserve" x="132.687" y="18.454" style="font-style:normal;font-variant:normal;font-weight:400;font-stretch:normal;font-size:7.05556px;font-family:Calibri;-inkscape-font-specification:Calibri;text-align:start;writing-mode:lr-tb;direction:ltr;text-anchor:start;opacity:.66855;fill:#000;fill-opacity:1;stroke:none;stroke-width:.499999;stroke-dasharray:none;stroke-opacity:1" transform="translate(-8.736 -2.35)"><tspan x="132.687" y="18.454" style="stroke-width:.5">Versant</tspan></text><text xml:space="preserve" x="181.776" y="7.566" style="font-style:normal;font-variant:normal;font-weight:400;font-stretch:normal;font-size:7.05556px;font-family:Calibri;-inkscape-font-specification:Calibri;text-align:start;writing-mode:lr-tb;direction:ltr;text-anchor:start;opacity:.66855;fill:#000;fill-opacity:1;stroke:none;stroke-width:.499999;stroke-dasharray:none;stroke-opacity:1" transform="translate(-8.736 -2.35)"><tspan x="181.776" y="7.566" style="stroke-width:.5">Ligne de</tspan><tspan x="181.776" y="16.386" style="stroke-width:.5">brisis</tspan></text><text xml:space="preserve" x="228.65" y="18.823" style="font-style:normal;font-variant:normal;font-weight:400;font-stretch:normal;font-size:7.05556px;font-family:Calibri;-inkscape-font-specification:Calibri;text-align:start;writing-mode:lr-tb;direction:ltr;text-anchor:start;opacity:.66855;fill:#000;fill-opacity:1;stroke:none;stroke-width:.499999;stroke-dasharray:none;stroke-opacity:1" transform="translate(-8.736 -2.35)"><tspan x="228.65" y="18.823" style="stroke-width:.5">Terrasson</tspan></text><text xml:space="preserve" x="249.319" y="32.295" style="font-style:normal;font-variant:normal;font-weight:400;font-stretch:normal;font-size:7.05556px;font-family:Calibri;-inkscape-font-specification:Calibri;text-align:start;writing-mode:lr-tb;direction:ltr;text-anchor:start;opacity:.66855;fill:#000;fill-opacity:1;stroke:none;stroke-width:.499999;stroke-dasharray:none;stroke-opacity:1" transform="translate(-8.736 -2.35)"><tspan x="249.319" y="32.295" style="stroke-width:.5">Brisis</tspan></text><text xml:space="preserve" x="232.71" y="164.613" style="font-style:normal;font-variant:normal;font-weight:400;font-stretch:normal;font-size:7.05556px;font-family:Calibri;-inkscape-font-specification:Calibri;text-align:start;writing-mode:lr-tb;direction:ltr;text-anchor:start;opacity:.66855;fill:#000;fill-opacity:1;stroke:none;stroke-width:.499999;stroke-dasharray:none;stroke-opacity:1" transform="translate(-8.736 -2.35)"><tspan x="232.71" y="164.613" style="stroke-width:.5">Mur pignon</tspan></text><text xml:space="preserve" x="205.397" y="178.823" style="font-style:normal;font-variant:normal;font-weight:400;font-stretch:normal;font-size:7.05556px;font-family:Calibri;-inkscape-font-specification:Calibri;text-align:start;writing-mode:lr-tb;direction:ltr;text-anchor:start;opacity:.66855;fill:#000;fill-opacity:1;stroke:none;stroke-width:.499999;stroke-dasharray:none;stroke-opacity:1" transform="translate(-8.736 -2.35)"><tspan x="205.397" y="178.823" style="stroke-width:.5">Rive de tête</tspan></text><text xml:space="preserve" x="169.78" y="177.9" style="font-style:normal;font-variant:normal;font-weight:400;font-stretch:normal;font-size:7.05556px;font-family:Calibri;-inkscape-font-specification:Calibri;text-align:start;writing-mode:lr-tb;direction:ltr;text-anchor:start;opacity:.66855;fill:#000;fill-opacity:1;stroke:none;stroke-width:.499999;stroke-dasharray:none;stroke-opacity:1" transform="translate(-8.736 -2.35)"><tspan x="169.78" y="177.9" style="stroke-width:.5">Noue</tspan></text><text xml:space="preserve" x="139.33" y="173.471" style="font-style:normal;font-variant:normal;font-weight:400;font-stretch:normal;font-size:7.05556px;font-family:Calibri;-inkscape-font-specification:Calibri;text-align:start;writing-mode:lr-tb;direction:ltr;text-anchor:start;opacity:.66855;fill:#000;fill-opacity:1;stroke:none;stroke-width:.499999;stroke-dasharray:none;stroke-opacity:1" transform="translate(-8.736 -2.35)"><tspan x="139.33" y="173.471" style="stroke-width:.5">Jouée</tspan></text><text xml:space="preserve" x="113.31" y="187.312" style="font-style:normal;font-variant:normal;font-weight:400;font-stretch:normal;font-size:7.05556px;font-family:Calibri;-inkscape-font-specification:Calibri;text-align:start;writing-mode:lr-tb;direction:ltr;text-anchor:start;opacity:.66855;fill:#000;fill-opacity:1;stroke:none;stroke-width:.499999;stroke-dasharray:none;stroke-opacity:1" transform="translate(-8.736 -2.35)"><tspan x="113.31" y="187.312" style="stroke-width:.5">Rive latérale</tspan></text><text xml:space="preserve" x="92.825" y="178.085" style="font-style:normal;font-variant:normal;font-weight:400;font-stretch:normal;font-size:7.05556px;font-family:Calibri;-inkscape-font-specification:Calibri;text-align:start;writing-mode:lr-tb;direction:ltr;text-anchor:start;opacity:.66855;fill:#000;fill-opacity:1;stroke:none;stroke-width:.499999;stroke-dasharray:none;stroke-opacity:1" transform="translate(-8.736 -2.35)"><tspan x="92.825" y="178.085" style="stroke-width:.5">Coyau</tspan></text><path d="M127.15 128.258 26.537 144.956l-4.28-7.862 4.687-.716" style="opacity:.66855;fill:none;fill-opacity:1;stroke:#000;stroke-width:.5;stroke-dasharray:none" transform="translate(-8.736 -2.35)"/></svg>