<svg xmlns="http://www.w3.org/2000/svg" xml:space="preserve" width="1658.801" height="1022.876"><defs><marker id="a" markerHeight="1" markerWidth="1" orient="auto" preserveAspectRatio="xMidYMid" refX="0" refY="0" style="overflow:visible" viewBox="0 0 1 1"><path d="M5 0c0 2.76-2.24 5-5 5s-5-2.24-5-5 2.3-5 5-5c2.76 0 5 2.24 5 5" style="fill:context-stroke;fill-rule:evenodd;stroke:none" transform="scale(.5)"/></marker><marker id="b" markerHeight="1" markerWidth="1" orient="auto" preserveAspectRatio="xMidYMid" refX="0" refY="0" style="overflow:visible" viewBox="0 0 1 1"><path d="M5 0c0 2.76-2.24 5-5 5s-5-2.24-5-5 2.3-5 5-5c2.76 0 5 2.24 5 5" style="fill:context-stroke;fill-rule:evenodd;stroke:none" transform="scale(.5)"/></marker><marker id="f" markerHeight="1" markerWidth="1" orient="auto" preserveAspectRatio="xMidYMid" refX="0" refY="0" style="overflow:visible" viewBox="0 0 1 1"><path d="M5 0c0 2.76-2.24 5-5 5s-5-2.24-5-5 2.3-5 5-5c2.76 0 5 2.24 5 5" style="fill:context-stroke;fill-rule:evenodd;stroke:none" transform="scale(.5)"/></marker><marker id="e" markerHeight="1" markerWidth="1" orient="auto" preserveAspectRatio="xMidYMid" refX="0" refY="0" style="overflow:visible" viewBox="0 0 1 1"><path d="M5 0c0 2.76-2.24 5-5 5s-5-2.24-5-5 2.3-5 5-5c2.76 0 5 2.24 5 5" style="fill:context-stroke;fill-rule:evenodd;stroke:none" transform="scale(.5)"/></marker><marker id="d" markerHeight="1" markerWidth="1" orient="auto" preserveAspectRatio="xMidYMid" refX="0" refY="0" style="overflow:visible" viewBox="0 0 1 1"><path d="M5 0c0 2.76-2.24 5-5 5s-5-2.24-5-5 2.3-5 5-5c2.76 0 5 2.24 5 5" style="fill:context-stroke;fill-rule:evenodd;stroke:none" transform="scale(.5)"/></marker><marker id="c" markerHeight="1" markerWidth="1" orient="auto" preserveAspectRatio="xMidYMid" refX="0" refY="0" style="overflow:visible" viewBox="0 0 1 1"><path d="M5 0c0 2.76-2.24 5-5 5s-5-2.24-5-5 2.3-5 5-5c2.76 0 5 2.24 5 5" style="fill:context-stroke;fill-rule:evenodd;stroke:none" transform="scale(.5)"/></marker></defs><path d="m960.954 939.309 46.619 47.895 248.242-217.55-34.802-35.962" style="opacity:.669;fill:none;stroke:#4133aa;stroke-width:1.99937;stroke-linejoin:round;stroke-opacity:1"/><text xml:space="preserve" x="135.753" y="1455.507" style="font-style:normal;font-variant:normal;font-weight:400;font-stretch:normal;font-size:26.6667px;font-family:Calibri;-inkscape-font-specification:Calibri;text-align:start;writing-mode:lr-tb;direction:ltr;text-anchor:start;clip-rule:evenodd;opacity:.66855;fill:#000;fill-opacity:1;fill-rule:evenodd;stroke:none;stroke-width:1.88976;stroke-miterlimit:10;stroke-dasharray:none;stroke-opacity:1" transform="rotate(-45)"><tspan x="135.753" y="1455.507" style="stroke-width:1.88976">Empanons</tspan></text><text xml:space="preserve" x="633.081" y="31.652" style="font-style:normal;font-variant:normal;font-weight:400;font-stretch:normal;font-size:26.6667px;font-family:Calibri;-inkscape-font-specification:Calibri;text-align:start;writing-mode:lr-tb;direction:ltr;text-anchor:start;clip-rule:evenodd;opacity:.66855;fill:#000;fill-opacity:1;fill-rule:evenodd;stroke:none;stroke-width:1.88976;stroke-miterlimit:10;stroke-dasharray:none;stroke-opacity:1"><tspan x="633.081" y="31.652" style="stroke-width:1.88976">Chevron d&apos;arêtier</tspan></text><text xml:space="preserve" x="610.454" y="991.887" style="font-style:normal;font-variant:normal;font-weight:400;font-stretch:normal;font-size:26.6667px;font-family:Calibri;-inkscape-font-specification:Calibri;text-align:start;writing-mode:lr-tb;direction:ltr;text-anchor:start;clip-rule:evenodd;opacity:.66855;fill:#000;fill-opacity:1;fill-rule:evenodd;stroke:none;stroke-width:1.88976;stroke-miterlimit:10;stroke-dasharray:none;stroke-opacity:1"><tspan x="610.454" y="991.887" style="font-style:normal;font-variant:normal;font-weight:700;font-stretch:normal;font-family:Calibri;-inkscape-font-specification:&quot;Calibri Bold&quot;;stroke-width:1.88976">Gousset</tspan></text><text xml:space="preserve" x="490.815" y="141.083" style="font-style:normal;font-variant:normal;font-weight:400;font-stretch:normal;font-size:26.6667px;font-family:Calibri;-inkscape-font-specification:Calibri;text-align:start;writing-mode:lr-tb;direction:ltr;text-anchor:start;clip-rule:evenodd;opacity:.66855;fill:#000;fill-opacity:1;fill-rule:evenodd;stroke:none;stroke-width:1.88976;stroke-miterlimit:10;stroke-dasharray:none;stroke-opacity:1"><tspan x="490.815" y="141.083" style="stroke-width:1.88976">Gousset</tspan></text><text xml:space="preserve" x="369.649" y="307.249" style="font-style:normal;font-variant:normal;font-weight:400;font-stretch:normal;font-size:26.6667px;font-family:Calibri;-inkscape-font-specification:Calibri;text-align:start;writing-mode:lr-tb;direction:ltr;text-anchor:start;clip-rule:evenodd;opacity:.66855;fill:#000;fill-opacity:1;fill-rule:evenodd;stroke:none;stroke-width:1.88976;stroke-miterlimit:10;stroke-dasharray:none;stroke-opacity:1"><tspan x="369.649" y="307.249" style="stroke-width:1.88976">Arbalétrier</tspan></text><text xml:space="preserve" x="320.793" y="369.087" style="font-style:normal;font-variant:normal;font-weight:400;font-stretch:normal;font-size:26.6667px;font-family:Calibri;-inkscape-font-specification:Calibri;text-align:start;writing-mode:lr-tb;direction:ltr;text-anchor:start;clip-rule:evenodd;opacity:.66855;fill:#000;fill-opacity:1;fill-rule:evenodd;stroke:none;stroke-width:1.88976;stroke-miterlimit:10;stroke-dasharray:none;stroke-opacity:1"><tspan x="320.793" y="369.087" style="stroke-width:1.88976">Entrait</tspan></text><path d="M734.95 118.697V46.893" style="opacity:.669;fill:none;stroke:#4133aa;stroke-width:1.99937;stroke-linejoin:round;stroke-opacity:1;marker-start:url(#a)"/><g fill="none" stroke="#000" stroke-linejoin="round" stroke-width="3"><path stroke-width="2.9963699999999998" d="m851.81 619.977-9.418-1.98-.803-.17-9.774-2.055-6.503-1.367-2.826-.594-9.774-2.055-3.674-.773-9.774-2.054-9.774-2.056-9.775-2.055-9.774-2.055-9.774-2.056-4.688-.985-6.213-1.307-3.805-.8-7.72-1.623-6.724-1.414-3.78-.794-3.686-.775-4.01-.844-9.775-2.056-.477-.1-4.02-.845-9.774-2.055-9.774-2.055-9.774-2.055-9.774-2.056-9.774-2.055-9.775-2.055-9.774-2.055-9.774-2.056-9.774-2.054-9.775-2.056-9.774-2.055-9.774-2.055-4.64-.976-9.774-2.055-9.774-2.055-2.532-.532-2.032-.428-9.775-2.055-9.774-2.056-2.715-.57-9.775-2.055-9.774-2.056-6.962-1.463-9.775-2.056-9.774-2.055-3.117-.655-9.774-2.056-9.775-2.054-1.383-.292-9.774-2.055-9.774-2.055-3.428-.721-5.375-1.13-7.863-1.654-8.509-1.789-8.083-1.699-9.84-2.07-8.158-1.715-9.775-2.055-9.774-2.055-4.937-1.038-8.747-1.84-8.778-1.845-5.157-1.084-5.108-1.075L334 511.1l-9.775-2.056-9.774-2.055-3.47-.73-3.169-.666-7.493-1.576-4.879-1.026-4.67-.981-9.774-2.056-9.775-2.055-9.774-2.055-9.774-2.055-.631-.133-9.775-2.055-1.811-.381-1.58-.333-7.914 6.095-7.912 6.095-.474.365 8.064 4.73 8.615 5.052 8.616 5.054 8.614 5.053 2.982 1.749 1.018.222.246.053.141.031 4.633 1.01 9.759 2.128 2.513.548 9.759 2.127 9.758 2.129 9.76 2.127 6.04 1.318.355.077 5.065 1.104 3.42.746 1.696.37 9.76 2.128 9.758 2.128 5.26 1.146 9.313 2.032 7.158 1.56 7.916 1.726.258.057 7.293 1.59 1.442.315 9.758 2.127 3.5.763 9.758 2.128 2.027.442 7.736 1.687 3.722.811 9.758 2.128 9.758 2.128 1.664.362 9.759 2.129 9.759 2.127 3.424.746 9.758 2.129 9.76 2.127 9.757 2.129 9.76 2.127 9.758 2.129 9.759 2.127 3.203.698 9.758 2.129 9.76 2.127 2.773.605 2.036.444 9.759 2.128 9.758 2.128 2.592.565 9.76 2.127 9.758 2.129 9.759 2.127 9.758 2.128 9.758 2.128 9.76 2.127 9.758 2.129 9.759 2.127 9.758 2.129 9.76 2.127 9.758 2.128 9.758 2.128 9.759 2.128 9.758 2.128 3.005.654 9.663 2.108 9.758 2.127 8.92 1.945 9.549 2.082 9.758 2.129 9.758 2.127 9.76 2.127 9.758 2.129 9.759 2.127 9.758 2.129 9.76 2.127 2.238.489 9.758 2.127 3.85.839 2.859.624 9.759 2.128 6.713 1.464.735.16.07.016.01-.007 4.44-5.325 2.49-2.986M22.634 655.18c13.346 6.966 26.27 14.98 39.86 21.337L431.065 776.53M915.433 873.82 39.283 642.73l-.304.227M431.237 346.45l-.157.12 8.456 5.316 8.455 5.316 8.456 5.317 8.455 5.318 1.75 1.1M794.073 389.614l-346.485-55.569-.562.427-.036.027M945.803 976.212l8.332 4.587 5.385-5.953"/><path stroke-width="2.9963699999999998" d="m959.52 974.846-2.47-9.677-.755-2.953-.87-3.413-2.472-9.677-2.47-9.677L739.506 113.15l-1.9-7.443-5.511-.076-5.405.423-1.525 8.608 206.812 825.146.078.31 1.688 6.738.76 3.035 2.429 9.688 2.428 9.689.561 2.238.867 3.458 2.107 8.409 6.834-.685 6.826-.683 2.97-7.16"/><path stroke-width="2.9963699999999998" d="M942.89 983.373c6.344-12.099-3.658-25.34-4.843-37.964L726.685 106.054M949.724 982.688l4.41-1.89M60.778 676.019l-1.961 1.484 9.777 2.04 1.674.349 5.606 1.17 2.704-.18M722.826 185.791l-1.657-.367-1.907-.423-2.726-.604-2.064-.457-2.559-.568-1.87 1.417-7.966 6.025-7.965 6.027-3.63 2.747M891.093 901.36l2.027 3.13 6.848 1.9 6.95 1.928 1.444.4 6.64 1.841 3.284-2.735 4.69-3.905M893.12 904.49l-.673-2.762"/><path stroke-width="2.9963699999999998" d="m739.773 191.457-1.003-1.309-2.62-3.42-1.172-1.53-3.764-.29-2.368-.182-.128-.01-.537-.018-3.93-.132-.862-.03-.138.309-.425.946-2.406 5.366-.412.919-.004 1.185M915.001 910.56l-.766-3.086M894.465 969.81l-.242 9.985-.242 9.985-.243 9.985-.233 9.56"/><path stroke-width="2.9963699999999998" d="m36.608 718.524-7.882 3.288-.014.006.775 9.958.439 5.631.775 9.958.567 7.28.002.027 9.578 2.83 852.657 251.823.209-.17"/><path stroke-width="2.9963699999999998" d="M900.918 964.68c-8.142 10.223-20.548-.994-30.898-1.872L28.712 721.818"/><path stroke-width="2.9963699999999998" d="m505.6 796.756-8.736 4.84-8.738 4.84-8.736 4.84-8.736 4.84-8.737 4.84-5.417 3.002-8.738 4.84-8.736 4.84-6.691 3.707-.309-9.983-.31-9.983-.012-.399-.309-9.983-.186-5.978M461.486 784.784l-8.803 4.72-8.802 4.72-5.285 2.834-7.387 3.96-9.624-2.67-9.625-2.67-9.624-2.67-1.954-.542"/><path stroke-width="2.9963699999999998" d="m430.876 776.478-8.847 4.639-8.846 4.637-8.845 4.639-3.956 2.073.345 9.982.204 5.873.344 9.982.346 9.982.009.265M719.44 678.287l8.737-4.84 8.736-4.84.255-.141v-.158l.052-9.987.019-3.754.05-9.987.04-7.704-9.755-2.145-9.755-2.143-8.808-1.936-190.404 99.829-8.847 4.638-8.757 4.592M737.33 636.876 499.857 764.21M907.205 933.04l-.258 9.985-.196 7.631-.252 9.776-.256 9.985-.067 2.604"/><path stroke-width="2.9963699999999998" d="m854.793 891.51 5.326 8.45 5.327 8.45 5.326 8.448 5.326 8.449 5.327 8.45 5.326 8.448 2.163 3.431 5.325 8.45 5.327 8.449 1.352 2.145.08.127 5.178 8.214 8.698 2.453 9.613 2.713 5.41 1.526 3.705 1.045M931.972 939.808l-9.635-2.633-9.635-2.632-5.497-1.503-5.453-8.369-5.451-8.368-5.453-8.37-5.254-8.065M850.784 785.299l-68.06-98.96-34.52 2.63M949.404 935.223l.191-6.25-1.246-1.814-1.597-2.32M566.645 599.25l9.759 2.127 4.943 1.077 4.78 8.77 4.78 8.77 1.127 2.068 4.78 8.77 3.49 6.401 4.778 8.77 4.78 8.77 4.78 8.77 4.78 8.77 2.251 4.13.037.069-8.863 4.605-5.343 2.776-8.63 4.504-5.777 3.015"/><path stroke-width="2.9963699999999998" d="m569.1 643.72 4.49 8.923 4.489 8.922 4.488 8.922 4.49 8.922 4.49 8.923 1.55 3.08v.014M914.586 708.036l.257-9.984.097-3.705.258-9.984.22-8.5-9.755-2.144-9.755-2.144-2.23-.49-8.4-1.816"/><path stroke-width="2.9963699999999998" d="m915.419 675.863-9.958.782-9.957.78-3.832.302M823.214 670.177l-173.078 13.526a2734 2734 0 0 0-28.372 15.205l.279 33.405Q685.022 727.205 748 722.1M52.437 671.99l-9.962.719-9.962.719-9.962.72-2.591.187-9.27 3.72-9.132 3.663M528.263 681.378l9.96-.753 9.96-.752 9.959-.752 9.96-.753 2.702-.204-.001-.099-.143-9.987-.142-9.987-.143-9.987-.026-1.808-1.25-2.575-1.51-3.117-2.728-5.625-.154.011-9.962.72-4.432.32-.887.064"/><path stroke-width="2.9963699999999998" d="m570.35 646.296-9.962.729-4.553.333-9.961.728-2.125.155M18.893 686.619l.783 9.957.783 9.958.103 1.295.783 9.957.148 1.88"/><path stroke-width="2.9963699999999998" d="m4.212 714.623 9.587 2.799 7.694 2.245 9.96-.753 5.109-.386.046-.004 9.96-.752 8.713-.658 9.959-.753 7.006-.53 9.96-.752.516-.039 9.959-.752 9.96-.753 9.959-.752 9.96-.753 9.268-.7 9.96-.752 9.959-.752 9.96-.753 9.958-.752 6.283-.475M1.558 681.718l9.61 2.717 7.725 2.184 9.96-.728 9.962-.728 9.962-.73 9.96-.728 9.963-.728 9.96-.728 3.905-.286M724.932 211.507l-5.202-19.257c-5.636 4.385-11.725 8.4-17.086 13.012L627.69 362.93M673.64 370.3c17.05-36.478 34.095-72.957 51.144-109.435l.005-1.686M664.57 173.844l6.084 7.92 6.086 7.92 6.084 7.921 2.615 3.403"/><path stroke-width="2.9963699999999998" d="m692.822 166.394-9.657 2.547-9.658 2.546-8.938 2.357-6.78 7.334-3.104 3.358 6.078 7.926 6.078 7.926 6.077 7.926 2.214 2.887.324.423 2.18-2.318 6.842-7.276.961-1.022 5.042-1.42M952.927 206.708l6.672-2.226 7.986-5.999 4.353-3.271M971.255 194.348l-8.137-5.792-8.137-5.792-7.756-5.52-9.53 2.99-4.538 1.423M447.796 333.893l.398.25M559.12 298.976l-9.53 2.988-9.53 2.99-9.53 2.989-9.53 2.99-9.53 2.988-9.531 2.99-9.53 2.988-9.53 2.99-9.53 2.99-9.53 2.988-9.53 2.989-6.493 2.037-.205.153v.001l-.6.452-7.978 6.01-7.838 5.902.062.04M259.108 525.586l.377-.285M229.64 508.17l8.598 5.082 8.599 5.082 8.598 5.082 3.673 2.17.623-.232M646.244 439.159l3.726-1.506 7.99-5.994 4.62-3.47-8.418-5.373-3.9-2.49M38.371 642.62l.608.337M174.494 589.982l-9.316 3.602-9.315 3.603-9.316 3.602-9.316 3.603-93.156 36.024-5.704 2.205-7.976 6.012-7.975 6.011-.607.457 8.747 4.824 8.745 4.822 8.747 4.823 4.385 2.42 7.204 3.972.594-.24M59.64 675.962l.435-.327M28.725 721.797l-9.601-2.75-9.603-2.751-5.654-1.62"/><path stroke-width="2.9963699999999998" d="m4.205 714.538-.338.138.803 9.956.803 9.956.804 9.955.225 2.788 9.578 2.83 9.58 2.828 5.608 1.657M745.395 195.395l-1.307 1.362-2.057 2.146-2.26 2.356-.048.05-.593.618-4.242 4.425-.52.54.514.665 4.397 5.698.38.493.048.06 3.139 4.068.358.463 1.38 1.79 2.604-.785 3.913-1.182M744.585 220.129l5.566-5.756M802.039 421.397l-7.582 3.261 5.059-8.613.828-1.41M851.543 655.14l5.005-5.952 1.99-2.368M759.88 192.962l4.08 5.268.8 1.033 6.118 7.896 3.16 4.079 403.287 520.58 1.476 1.906 4.894 6.317 6.116 7.896 3.852 4.97 3.592 4.64 1.505 1.94 1.647 2.127 1.709 2.207 5.493 7.09 8.112-5.826 1.877-1.348 4.684-3.909-6.125-7.89-1.55-1.994-1.632-2.101-4.818-6.206-6.125-7.89-1.2-1.546-2.779-3.576-5.093-6.562-406.995-524.165-3.806-4.902-.058-.075-6.126-7.89-1.362-1.754-2.696-3.471-2.008-2.586-6.125-7.89-5.675-7.308-3.347-4.31-2.382-3.067-2.548-3.283-.855-1.102M789.55 309.166l6.093 7.914 2.26 2.934 1.499 1.948 1.38 1.792 356.389 462.893 3.26 4.235 1.69 2.194 6.094 7.914 1.292 1.679 8.117-5.82 2.046-1.466 4.963-4.142-6.103-7.906-1.767-2.29-1.674-2.17C1054.97 623.211 934.823 467.566 814.705 311.9l-6.102-7.907-6.102-7.907-6.103-7.907-6.102-7.908-6.102-7.906-5.731-7.426-.308-.399M855.645 568.023l6.042 7.954 6.041 7.954 6.042 7.953 6.042 7.954 5.184 6.826 3.797 4.998 6.042 7.954 1.89 2.489 3.493 4.598 6.042 7.954 6.041 7.953 6.042 7.953 6.042 7.954 4.878 6.423 6.042 7.953 6.041 7.954.642.844 6.041 7.953 6.042 7.954 5.042 6.638 6.042 7.953 6.04 7.953 1.195 1.572 6.042 7.954 6.04 7.953 6.042 7.954 6.042 7.954 6.041 7.953 6.042 7.954 6.042 7.953 6.04 7.954 6.042 7.953 1.513 1.992.042.056 6.042 7.953 5.705 7.51.279.367 6.042 7.955 6.041 7.953 6.042 7.954 2.164 2.85 6.042 7.953 6.04 7.953 4.187 5.51 1.779 2.343 6.041 7.953 1.738 2.287 8.13-5.802 2.387-1.705 5.6-4.672-6.051-7.947-2.24-2.939-1.762-2.315-6.05-7.947-6.053-7.946-4.013-5.27-6.05-7.946-6.052-7.946-6.05-7.947-1.947-2.555-.276-.362-6.052-7.947-5.586-7.336-.042-.055-6.052-7.946-6.05-7.947-6.052-7.945-6.05-7.946-6.052-7.947-6.051-7.946-5.305-6.965-6.051-7.946-6.051-7.947-1.304-1.712-6.051-7.946-6.051-7.946-5.19-6.814-6.05-7.947-6.052-7.945-.745-.979-6.05-7.946-6.053-7.947-6.051-7.946-6.051-7.946-6.052-7.946-6.05-7.946-5.423-7.12-3.462-4.546-6.05-7.947-1.81-2.376-3.763-4.94-6.051-7.946-6.051-7.947-6.052-7.946-6.05-7.946-6.052-7.946-6.05-7.946-6.052-7.947-6.051-7.946-6.052-7.946-4.79-6.289M932.947 870.77l5.982 7.997 4.499 6.014.294.393 5.983 7.997 5.983 7.999 5.983 7.997 3.47 4.64 5.983 7.999 5.983 7.997 5.214 6.97 1.879 2.512 5.982 7.998 2.235 2.986 8.143-5.783 2.737-1.943 6.367-5.313-5.994-7.99-2.764-3.684-1.861-2.483-5.993-7.989-5.994-7.99-5.033-6.71-5.993-7.99-5.993-7.99-5.993-7.99-3.242-4.322-.292-.389-5.993-7.99-5.993-7.99-.298-.398-.045-.059-5.993-7.99-5.993-7.99-5.993-7.99-5.994-7.99-5.075-6.766v.125M919.135 816.54l1.671 6.684M892.724 713.24l6.013 7.976 6.014 7.975 6.012 7.975 6.014 7.975 6.013 7.976 6.014 7.974 6.012 7.975 6.013 7.976 6.014 7.974 6.012 7.975 6.013 7.975 6.014 7.975 6.013 7.975 6.013 7.975 4.271 5.665.044.058 6.013 7.975 6.052 8.026.286.38 6.013 7.975 6.013 7.975 6.014 7.974 2.8 3.714 6.013 7.975 6.013 7.976 4.685 6.213 1.828 2.425 6.014 7.975 1.978 2.624 8.136-5.793 2.562-1.824 5.965-4.977-6.023-7.968-2.494-3.299-1.812-2.396-6.022-7.967-6.024-7.968-4.509-5.965-6.023-7.967-6.023-7.967-6.024-7.968-2.576-3.408-.283-.375-6.023-7.967-5.93-7.844-.043-.057-6.024-7.967-6.022-7.968-6.024-7.967-6.023-7.967-6.023-7.969-6.023-7.967-6.024-7.968-6.023-7.967-6.023-7.967-6.023-7.968-6.023-7.967-6.024-7.968-6.022-7.967-4.407-5.829-.505-.67-6.024-7.966-6.023-7.968-.482-.638-6.024-7.967-4.36-5.77-6.024-7.967-.37-.49-.035-.046-5.676-7.508M821.355 433.728l6.068 7.932 6.069 7.934 6.067 7.933 3.93 5.137 2.815 3.682 6.069 7.932 6.067 7.934 6.07 7.933.206.27 2.562 3.35 6.067 7.933 6.07 7.933 6.067 7.934 6.068 7.933 6.068 7.933 6.069 7.933 6.068 7.934 6.068 7.933 6.068 7.933 6.069 7.934 4.927 6.441 3.702 4.84 6.068 7.934 1.667 2.179 3.406 4.453 6.068 7.933 6.068 7.933 6.069 7.934 6.067 7.932 6.069 7.934 6.068 7.933 6.068 7.934 6.068 7.933 6.069 7.933 6.067 7.933 3.492 4.564 6.068 7.934 6.069 7.933.93 1.216 6.067 7.933 6.069 7.934 5.45 7.124 6.068 7.933 6.068 7.934 1.499 1.96 6.067 7.933 6.07 7.932 4.224 5.524.04.054 6.07 7.933 5.376 7.03.272.355 6.068 7.934 6.068 7.933 6.069 7.932 1.56 2.042 6.069 7.933 6.068 7.934 3.71 4.85 1.735 2.267 6.067 7.934 1.51 1.973 8.123-5.812 2.216-1.585 5.267-4.395-6.078-7.925-1.997-2.605-1.717-2.24-6.077-7.926-6.078-7.926-3.544-4.62-6.077-7.927-6.077-7.925-6.077-7.927-1.349-1.759-.269-.35-6.077-7.926-5.262-6.861-.04-.054-2.304-3.005-6.078-7.925-6.077-7.927-1.608-2.096-6.077-7.926-6.078-7.927-5.595-7.297-6.078-7.925-6.077-7.927-1.033-1.347-6.078-7.926-6.077-7.926-6.078-7.927-6.078-7.925-6.077-7.926-6.077-7.927-6.078-7.925-6.077-7.927-6.078-7.926-6.078-7.926-6.077-7.926-6.078-7.926-3.74-4.878-3.375-4.402-6.077-7.926-1.588-2.07-3.669-4.785-6.077-7.926-6.078-7.926-6.078-7.927-6.076-7.925-6.078-7.927-6.078-7.926-6.077-7.925-6.078-7.927-6.078-7.926-6.077-7.926-6.077-7.926-1.382-1.802-2.58-3.363-6.076-7.926-6.078-7.927-6.077-7.925-.295-.385-2.833-3.695-6.078-7.927-6.078-7.926-6.077-7.926-6.078-7.926-5.83-7.603-6.078-7.926-.895-1.168-3.77-4.918-6.078-7.926-1.172-1.53v-.003M782.052 121.118l26.644-6.69M743.977 130.678l20.027-5.029M782.032 279.719l397.638 515.664"/><path stroke-width="2.9963699999999998" d="m1164.666 765.37 9.74 2.212 9.74 2.211 1.59.36M1114.904 754.072l9.74 2.212 9.74 2.211 1.348.306M1085.817 747.467l4.846 1.101M1002.741 728.606l53.45 12.135M915.091 708.705l9.74 2.211 9.74 2.212 9.74 2.211 9.74 2.211 9.74 2.212 8.599 1.952M737.169 668.308q14.077 3.197 28.154 6.393M600.303 637.233q33.549 7.619 67.098 15.235M1193.663 752.908l-.588 9.97-.519 8.824M520.208 589.017l-9.755-2.144-9.756-2.143-9.755-2.144-9.755-2.143-9.755-2.143-9.756-2.144-9.755-2.143-.914-.201-9.755-2.143-9.755-2.144-9.755-2.143-9.756-2.144-3.746-.823-9.755-2.143-9.756-2.144-5.25-1.153-9.754-2.144-7.112-1.563-5.177-1.137M709.215 630.545q-71.28-15.66-142.557-31.323M819.527 654.784c-27.332-6.004-54.663-12.012-81.996-18.016M941.988 681.69l-9.756-2.143-9.755-2.143-9.755-2.144-9.755-2.143-9.756-2.143-7.967-1.751M1024.97 699.924l-52.927-11.63M1103.724 717.228q-24.71-5.43-49.42-10.86M1178.8 733.724l-9.754-2.143-7.69-1.69-9.754-2.143-1.807-.397M1186.817 86.61l9.562-2.886 3.937-1.19M1158.603 95.129l9.562-2.888 4.807-1.451M1129.157 104.02l9.561-2.887 5.74-1.733M1098.395 113.307l9.561-2.888 6.742-2.035M1066.228 123.018l9.562-2.886 7.82-2.362M1032.557 133.184l9.563-2.887 8.98-2.711M997.276 143.837l9.561-2.888 9.562-2.886.673-.203M960.264 155.012l9.561-2.887 9.561-2.888 2.028-.61M921.39 166.748l9.562-2.887 9.561-2.887 3.494-1.054M880.513 179.09l9.561-2.887 9.563-2.887 5.082-1.535M837.472 192.085l9.561-2.887 9.562-2.887 6.81-2.056M792.09 205.786l9.562-2.886 9.561-2.887 8.691-2.624M765.225 213.897l8.39-2.533.422-.126M929.263 664.94l-51.734-11.208M1011.903 682.841q-26.354-5.707-52.707-11.417M1090.33 699.83q-24.607-5.328-49.214-10.66M1165.09 716.026l-.396-.086M800.001 171.846l-9.61 2.723-9.609 2.724-8.865 2.513M843.928 159.395l-9.61 2.724-9.609 2.724-6.97 1.975M885.65 147.57l-9.609 2.723-9.61 2.724-5.227 1.481M925.33 136.323l-9.609 2.724-9.61 2.723-3.623 1.027M963.115 125.613l-9.61 2.724-9.609 2.723-2.145.609M999.136 115.404l-9.61 2.724-9.61 2.723-.778.22M1033.514 105.66l-9.61 2.724-9.123 2.586M1066.36 96.35l-9.61 2.724-7.952 2.254M1097.772 87.447l-9.61 2.724-6.864 1.945M1127.843 78.923l-2.424.688-9.61 2.723-.999.284-2.428.688M1156.658 70.756l-9.609 2.724-4.911 1.392M1184.294 62.924l-9.61 2.723-4.032 1.143M1210.821 55.405l-9.61 2.723-3.213.911M752.585 164.395q232.507 299.67 465.013 599.342M1210.812 74.698l7.98-6.006 1.805-1.36M1206.06 68.892l9.585-2.806 3.17-.928M1178.86 76.855l9.586-2.806 3.984-1.166M1150.499 85.159l14.443-4.23M1120.9 93.824l15.38-4.503M1089.98 102.876l16.387-4.797M1057.649 112.342l17.47-5.115M1023.807 122.25q9.318-2.73 18.637-5.456M988.348 132.63q9.947-2.91 19.895-5.823M951.15 143.521l21.256-6.223M912.086 154.958q11.364-3.326 22.727-6.654M871.008 166.984q12.162-3.56 24.324-7.121M827.758 179.647l26.059-7.63M782.159 192.996q13.973-4.09 27.947-8.181M1314.231 201.072l11.818-5.083M1289.023 211.916q6.288-2.707 12.577-5.41M1262.725 223.228l13.394-5.762M1235.267 235.039l14.27-6.138M1206.57 247.384l15.21-6.543M1176.546 260.298q8.113-3.488 16.225-6.98M1145.103 273.824l17.318-7.45M1112.14 288.004l18.497-7.957M1077.539 302.888q9.887-4.253 19.774-8.507M1041.178 318.528l21.157-9.1M1002.919 334.986l22.659-9.747M962.609 352.326q12.145-5.224 24.29-10.45M920.078 370.621l26.07-11.214M874.99 390.016l28.16-12.114M827.422 410.478c10.048-4.324 20.098-8.643 30.146-12.968M839.842 374.487q-15.207 6.262-30.413 12.523M885.833 355.55l-28.412 11.698M929.221 337.683c-8.769 3.612-17.539 7.22-26.307 10.833M970.346 320.748l-24.514 10.095M1009.381 304.675q-11.433 4.71-22.868 9.416M1046.482 289.397l-21.355 8.795M1081.79 274.859q-9.981 4.11-19.961 8.22M1115.43 261.008l-18.673 7.688M1147.518 247.794l-17.483 7.199M1178.16 235.177l-16.382 6.745M1207.451 223.115l-15.36 6.325M1235.477 211.574l-14.408 5.934M1262.32 200.522l-13.525 5.569M1288.055 189.924l-12.703 5.231M1312.745 179.758l-11.935 4.915M1309.033 194.72l11.862-5.018M1283.727 205.423l12.626-5.34M1257.329 216.59q6.722-2.845 13.445-5.688M1229.766 228.247q7.163-3.029 14.324-6.059M1200.961 240.432l15.268-6.458M1170.825 253.179l16.286-6.889M1139.265 266.529l17.382-7.353M1106.18 280.524l18.565-7.854M1071.452 295.212l19.847-8.395M1034.96 310.649l21.234-8.982M996.563 326.89l22.74-9.618M956.109 344.002q12.187-5.156 24.377-10.311M913.427 362.056q13.081-5.534 26.162-11.067M868.183 381.193q14.129-5.975 28.258-11.952M820.45 401.384q15.124-6.398 30.249-12.795M1415.963 325.384q5.459-3.188 10.916-6.377M1392.673 338.991l11.622-6.79M1368.364 353.193q6.191-3.615 12.382-7.234M1342.973 368.028l13.197-7.71M1316.422 383.54q7.036-4.111 14.075-8.222M1288.631 399.777l15.02-8.775M1259.511 416.79l16.04-9.372M1228.966 434.635q8.572-5.007 17.142-10.015M1196.887 453.377l18.336-10.712M1163.156 473.085l19.63-11.47M1127.641 493.834q10.519-6.146 21.036-12.29M1090.199 515.71l22.566-13.185M1050.666 538.805l24.236-14.159M1008.727 563.308q13.1-7.653 26.197-15.306M964.445 589.18l28.068-16.399M917.466 616.626l30.264-17.681M874.47 641.747l25.748-15.044M884.996 606.664l-17.023 9.643M932.887 579.539q-15.252 8.64-30.506 17.278M978.03 553.97l-28.294 16.026M1020.786 529.752q-13.204 7.48-26.41 14.96M1061.093 506.924l-24.436 13.839M1099.27 485.3l-22.754 12.887M1135.482 464.79l-21.211 12.013M1169.878 445.307l-19.796 11.213M1202.591 426.778q-9.245 5.238-18.492 10.475M1233.74 409.136l-17.289 9.792M1263.438 392.315l-16.179 9.164M1291.78 376.261l-15.15 8.582M1318.86 360.924l-14.198 8.041M1344.758 346.255l-13.313 7.54M1369.552 332.212l-12.491 7.075M1393.31 318.756l-11.726 6.64M1416.095 305.85l-11.012 6.238M1413.467 322.334l8.64-5.012 2.298-1.333M1390.129 335.873l8.64-5.012 3.006-1.744M1365.771 350.003l8.64-5.012 3.767-2.185M1340.328 364.763l8.64-5.012 4.584-2.66M1313.724 380.197l14.103-8.181M1285.877 396.351l15.05-8.731M1256.7 413.277l16.072-9.324M1226.096 431.031l8.638-5.012 8.537-4.952M1193.953 449.678l8.64-5.012 8.64-5.012 1.092-.634M1160.156 469.284l8.64-5.012 8.64-5.012 2.388-1.386M1124.573 489.926l8.64-5.012 8.64-5.012 3.797-2.203M1087.06 511.689l8.639-5.012 8.64-5.012 5.33-3.092M1047.452 534.665l8.64-5.012 8.638-5.012 7.003-4.062M1005.434 559.04l8.64-5.011 8.64-5.012 8.598-4.988.368-.214M961.07 584.777l8.64-5.012 8.639-5.012 8.64-5.011 2.2-1.278M914.004 612.08l8.64-5.011 8.64-5.012 8.64-5.012 4.4-2.553M872.972 635.884l8.64-5.012 8.639-5.012 6.474-3.755M965.142 913.808l-7.818 6.216-7.818 6.216-1.157.92M1014.413 874.633l-7.817 6.216-7.819 6.216-7.818 6.216-7.818 6.216-1.116.887M1060.633 837.885l-7.818 6.216-7.818 6.215-7.818 6.217-6.455 5.131M1104.076 803.344l-7.818 6.216-7.818 6.216-7.818 6.216-4.214 3.35M1144.985 770.818l-7.818 6.217-7.819 6.215-7.817 6.217-2.182 1.734M1220.152 711.055l-7.819 6.216-7.817 6.216-1.068.848M1254.653 683.623l-7.817 6.217-7.819 6.215-4.923 3.915M1287.353 657.625q-9.575 7.614-19.151 15.226M1318.388 632.95q-8.929 7.098-17.858 14.198M1347.884 609.499q-8.336 6.626-16.671 13.254M1375.95 587.184l-15.575 12.383M1402.688 565.924l-14.565 11.58M1428.192 545.647l-13.63 10.838M1452.543 526.285l-12.765 10.15M1475.82 507.779q-5.982 4.755-11.963 9.512M1498.091 490.071l-11.218 8.92M1519.42 473.114l-10.526 8.368M1539.866 456.857l-9.88 7.856M981.18 830.556q-16.498 12.356-32.997 24.71M1028.276 795.288q-15.24 11.41-30.477 22.823M1072.552 762.13l-28.199 21.118M1114.253 730.902l-26.133 19.57M1153.719 701.347l-24.375 18.254M1190.895 673.508q-11.267 8.437-22.535 16.875M1226.083 647.157l-20.969 15.702M1259.437 622.179q-9.767 7.314-19.535 14.629M1291.098 598.468l-18.219 13.645M1321.193 575.932l-17.01 12.738M1349.832 554.485q-7.945 5.952-15.894 11.902M1377.121 534.049l-14.865 11.132M1403.153 514.555l-13.913 10.419M1428.01 495.939l-13.03 9.76M1451.774 478.143q-6.106 4.576-12.214 9.147M1474.514 461.115l-11.455 8.579M1496.292 444.806l-10.748 8.049M1517.172 429.17l-10.09 7.555M1515.63 447.17q5.006-3.832 10.012-7.667M1494.259 463.538l10.665-8.168M1471.946 480.627l11.366-8.705M1448.627 498.486l12.121-9.283M1424.233 517.168q6.466-4.951 12.933-9.905M1398.688 536.733l13.808-10.576M1371.909 557.242l14.753-11.298M1343.803 578.768l15.775-12.082M1314.268 601.387l16.883-12.93M1283.196 625.184q9.042-6.926 18.085-13.85M1250.46 650.255q9.697-7.425 19.392-14.852M1215.925 676.704l20.817-15.943M1179.437 704.648l22.372-17.133M1140.7 734.315l24.2-18.533M1099.77 765.663l25.946-19.872M1056.309 798.948l28-21.445M1010.078 834.354q15.134-11.59 30.266-23.18M960.804 872.092l32.77-25.098M937.786 889.72l5.936-4.546M984.2 939.285l-27.905 22.931M1032.953 899.222l-32.047 26.334M1078.68 861.645l-29.589 24.315M1121.657 826.328l-27.37 22.492M1162.122 793.076l-25.357 20.837M1189.09 770.915l-12.327 10.13M1236.461 731.986l-21.853 17.958M1270.579 703.95l-20.33 16.707M1302.912 677.38l-7.717 6.341-7.716 6.342-3.503 2.877M1333.597 652.164l-7.718 6.342-7.717 6.341-2.222 1.827M1362.756 628.202l-7.717 6.342-7.717 6.341-1.046.86M1390.5 605.403l-7.717 6.341-7.68 6.31M1416.931 583.682l-7.716 6.341-6.68 5.49M1442.14 562.967l-7.717 6.341-5.756 4.73M1466.209 543.188l-12.618 10.368M1489.213 524.284l-7.717 6.341-4.107 3.375M1511.222 506.198l-7.716 6.34-3.37 2.77M1532.3 488.877l-7.717 6.342-2.684 2.206M1552.504 472.275l-7.717 6.34-2.048 1.683M966.718 105.483l20.135-5.457M929.075 115.685l21.51-5.83M889.546 126.4l22.997-6.234M847.985 137.662l24.61-6.67M804.232 149.521q13.18-3.573 26.362-7.144M758.109 162.022l28.267-7.662M1169.243 23.905l8.18-2.055M1141.378 30.9l13.902-3.49M1112.326 38.195l14.794-3.715M1082.01 45.806l15.753-3.955M803.418 107.69l-9.697 2.39-9.699 2.389-7.317 1.803M845.985 97.205l-9.698 2.39-9.698 2.389-5.545 1.365M886.477 87.23l-9.699 2.39-9.698 2.389-3.914.963M925.04 77.73l-9.698 2.39-9.698 2.389-2.41.593M961.81 68.673l-9.697 2.389-9.698 2.389-1.019.25M996.911 60.026l-9.698 2.39-9.43 2.321M1030.452 51.763l-9.698 2.39-8.237 2.029M1062.535 43.86l-9.698 2.389-7.128 1.756M1093.253 36.293l-9.698 2.389-6.097 1.502M1122.691 29.042l-9.698 2.388-5.137 1.266M871.446 361.473l-102.334-132.35M1007.415 537.327 888.89 384.036"/><path stroke-width="2.9963699999999998" d="M1141.379 710.589q-59.859-77.418-119.719-154.837M885.435 355.713l-111.82-144.349M1020.416 529.963q-58.83-75.946-117.661-151.89M1153.377 701.604q-59.41-76.694-118.82-153.387M1159.577 53.213l13.74-3.724M1130.86 60.996q7.311-1.982 14.624-3.963M1100.89 69.118l15.573-4.22M1069.589 77.602l16.589-4.496M1036.86 86.472l17.684-4.792M1002.606 95.756l18.864-5.112M1050.349 53.756l16.78-4.213M1017.248 62.067l17.885-4.49M982.607 70.764l19.076-4.79M946.315 79.875q10.18-2.555 20.36-5.112M908.254 89.432l21.75-5.46M868.29 99.466l23.25-5.837M826.276 110.014l24.878-6.246M1079.595 90.006l9.615-2.708 6.877-1.936M1047.062 99.168l9.614-2.707 7.966-2.243M1013.01 108.757l9.614-2.706 9.14-2.574M977.332 118.805l9.614-2.708 9.615-2.706.789-.223M939.908 129.344l9.614-2.706 9.614-2.708 2.157-.607M900.607 140.413l9.613-2.708 9.614-2.707 3.638-1.024M859.282 152.05l9.614-2.707 9.614-2.707 5.242-1.477M815.776 164.302l9.613-2.706 9.615-2.708 6.985-1.968M921.125 896.53 22.635 655.18M786.707 227.592l-.42.132M832.296 213.293l-9.53 2.989-9.53 2.989-8.585 2.693M875.53 199.732 866 202.72l-9.53 2.99-6.713 2.105M916.59 186.854l-9.53 2.988-9.53 2.99-4.997 1.567M948.105 930.139l1.49-1.166M912.732 220.124l9.474-3.162 9.474-3.162 4.855-1.62M870.401 234.253l9.475-3.162 9.474-3.163 6.557-2.189M825.762 249.152l9.473-3.162 9.475-3.162 8.412-2.808M807.587 255.218l.414-.138M949.594 202.484l9.484-3.132 9.485-3.133 3.308-1.093M909.326 215.787l9.485-3.133 9.483-3.133 4.878-1.611M866.92 229.795l9.485-3.133 9.483-3.133 6.584-2.175M822.202 244.567l9.484-3.133 9.484-3.132 8.44-2.789M803.995 250.582l.416-.138M924.382 837.226l78.915 105.317M884.446 680.82l167.197 221.384M847.636 536.656l249.341 327.722M769.91 177.22l9.613-2.708 9.614-2.708 8.882-2.5M813.599 403.35l325.974 425.488M758.612 118.728l-9.698 2.39-6.942 1.71M1110.71 81.244l9.615-2.708 5.864-1.651M1125.42 79.61l1.855-1.388M785.365 388.217q-21.082-84.939-42.161-169.878M842.392 617.997 794.28 424.143M905.215 871.126l-53.798-216.764M748.204 688.985l-126.44 9.923M826.251 682.86q-35.585 2.794-71.17 5.586M400.93 808.32 72.247 715.833M888.914 945.636 456.5 823.958M881.502 481.007l23.868-21.41M842.386 516.093l7.435-6.67 7.435-6.668 7.435-6.67 2.587-2.32M914.235 907.474l8.151-5.909M843.488 462.664q-5.974 5.47-11.952 10.937M881.177 428.175q-11.808 10.805-23.614 21.61M722.914 204.038l-2.906-11.962M766.95 385.265 724.93 212.33M822.486 613.81l-46.85-192.805M883.628 865.433q-26.176-107.728-52.354-215.456M795.142 552.955q-24.841 22.33-49.681 44.66M864.716 490.416q-11.748 10.56-23.495 21.118M902.764 456.213l-23.841 21.431M748 722.101l81.326 129.008M858.914 858.914 748.204 688.97M455.577 783.181q218.435 59.273 436.87 118.547M804.186 717.546l29.794-2.416M739.13 201.927l-4.152-16.729M612.319 393.977l.742-.277M550.606 416.971l20.403-7.602M419.436 465.846l49.035-18.27M798.437 407.025Q614.759 376.797 431.08 346.57M792.802 321.9l5.1-1.886M676.09 365.06q16.82-6.22 33.64-12.44M558.88 408.403l8.94-3.306M434.643 454.345q21.089-7.8 42.178-15.597M856.787 639.834q-317.606-68.198-635.21-136.393M817.667 647.01q25.692 107.29 51.386 214.579"/><path stroke-width="2.9963699999999998" d="M763.035 418.886q23.003 96.048 46.003 192.097M724.789 259.179q14.857 62.044 29.717 124.089M786.097 515.183 737.93 559.26M737.531 636.768l8.803-4.72.784-.42M755.887 542.826l.9-124.992M755.479 599.722l.04-5.712M762.172 201.94l2.3-2.378.289-.299M362.758 447.542q-61.651 21.839-123.302 43.677M521.78 391.213l-6.908 2.447M632.967 351.829l-9.415 3.335-9.415 3.335-4.387 1.554M709.783 324.619l-17.729 6.28M637.199 397.712q69.217 11.648 138.436 23.293M471.453 369.823l141.63 23.831M793.927 326.308l6.855-2.554M675.196 370.548l9.358-3.486 9.36-3.488 9.36-3.487 6.447-2.403M610.684 505.016l24.02-10.35M510.452 548.2l9.172-3.951 9.173-3.953 9.173-3.952 9.153-3.943M257.518 657.177l148.612-64.03M101.968 724.195l9.173-3.952 9.172-3.952 9.173-3.952 2.342-1.009M454.41 516.599l9.261-3.738 9.262-3.74 9.262-3.738 9.261-3.739 9.262-3.74 9.262-3.738 9.262-3.738 9.262-3.74 9.262-3.738 9.261-3.739 9.262-3.74 9.262-3.738 9.262-3.74 3.624-1.463M235.51 604.966l136.04-54.917M643.698 435.768l18.882-7.578M462.082 508.654l119.042-47.774M250.678 593.492q56.601-22.714 113.201-45.429M431.16 776.328l-.095.202M523.166 582.795 443.934 749.46M613.083 393.654q-38.06 80.06-76.12 160.121"/><path stroke-width="2.9963699999999998" d="M709.624 409.899q-.167 90.056-.335 180.11M709.842 292.837l-.155 83.244M710.065 172.43l-.018 9.988-.004 2.37M259.872 525.385 87.848 655.538M466.651 368.936 290.77 502.01M675.132 211.2q-86.882 65.736-173.765 131.471M622.905 478.865q41.183 55.149 82.364 110.3M371.795 549.789l-.245.26-4.937 5.22M531.014 381.451Q463.53 452.798 396.05 524.145M568.129 353.378l100.093-75.71M354.04 515.312l178.71-135.175M147.757 671.34 322.63 539.07M76.764 680.39l-.89.672M276.777 529.071 103.985 659.795M484.394 372 307.812 505.593M701.439 207.798 519.351 345.555M583.34 563.526l75.767-162.128M490.684 761.79q39.46-84.434 78.918-168.87M651.767 366.79l73.165-155.283M561.26 558.884l75.939-161.172M468.422 755.918l79.07-167.818M605.146 410.35l-5.99-7.993-2.036-2.717-5.989-7.993-1.447-1.93M709.365 549.428l-73.56-98.165M570.11 386.423 430.64 531.418M661.872 291.027l-64.487 67.042M543.547 775.733q39.247-21.744 78.496-43.487M734.99 168.287l3.714.414M739.822 191.445l.01-1.685.05-9.988.033-6.245M738.848 380.757c.104-20.516.212-41.032.316-61.549M737.741 595.992q.465-90.603.932-181.206M612.692 394.475l-.373-.498-.389-.517M709.413 523.286q-33.058-44.027-66.117-88.054M606.126 359.472l45.715-47.345M438.503 533.072l126.81-131.331M337.356 563.852l.409 9.98.157 3.83 9.74 2.21 159.66 36.25M709.228 623.365c-3.456 13.304 20.433 8.742 28.303 13.403M737.531 636.768l.037-7.223M752.44 596.771l43.789-39.277M570.251 386.447c-18.964 10.36 4.275 23.352 9.964 35.249q5.968 7.993 11.937 15.986M1176.83 33.174c1.118-9.533 2.209-13.409-9.06-11.07M1151.298 22.537c-4.87.03-9.547 2.083-14.31 2.982"/><path stroke-width="2.9963699999999998" d="M728.065 126.253c-11.319 6.56-38.911.37-35.243 18.67-1.324 15.487-2.756 31.072 17.243 27.507 9.704 2.21 18.882-3.357 28.305-5.058M692.821 134.936l24.142 2.524"/><path stroke-width="2.9963699999999998" d="M730.05 134.174c-20.974-1.328-10.863 21.654-13.17 34.926l-.006 2.698-.004 1.4M28.726 721.812c2.589-1.108 5.224-2.189 7.836-3.284M495.993 639.953q-169.56 12.245-339.12 24.494M490.191 652.157l-325.05 23.769M262.065 701.49l212.3-16.04M564.707 634.99l-7.655-15.215M570.803 678.065q4.861 9.975 9.724 19.951M549.876 635.132l.437.898M337.922 577.661l-144.87 59.42M571.067 482.034l-127.19 52.168M425.635 492.866q-31.41 12.145-62.818 24.291M586.816 430.537q-39.345 15.213-78.689 30.43M361.448 583.003 168.164 663.63M563.046 498.906l-96.192 40.127M997.66 37.692c-12.975 7.442.08 25.826 8.76 34.188l416.648 519.452c20.953-7.205 2.559-19.875-5.21-30.744zM993.232 38.668l438.714 546.224M887.466 63.22l-5.095 1.127-.168 9.987-.123 7.342 4.397 5.554 5.063 6.399 6.199 7.831c140.172 177.199 280.452 354.311 420.65 531.49l6.198 7.831 6.198 7.832 1.312 1.657 1.5 1.894 6.197 7.832.355.447 8.094-5.85 1.238-.894 3.775-3.15-6.205-7.827-.775-.977-1.486-1.872-6.205-7.826-6.207-7.826-1.165-1.468L915.269 98.276l-6.207-7.826-.808-1.018-5.02-6.33-6.206-7.825-6.206-7.826-3.356-4.23M882.37 64.347l467.11 589.352M925.943 54.306l-4.857 1.074-.209 9.986-.146 6.946 4.31 5.419 4.962 6.24 413.58 520.12 4.3 5.408 6.216 7.817 6.217 7.818.973 1.225 1.467 1.843 6.216 7.818.19.24 8.092-5.855 1.086-.786 3.59-2.996-6.223-7.811-.603-.757-1.452-1.822-6.224-7.812-6.223-7.811-.83-1.043-6.225-7.812L946.823 80.512l-.508-.637-4.919-6.173-6.224-7.812-6.224-7.811-3.005-3.773"/><path stroke-width="2.9963699999999998" d="m921.086 55.38 6.221 7.813 6.222 7.813 3.084 3.873 6.222 7.814 409.712 514.534 4.176 5.243 6.221 7.814 6.222 7.814 6.221 7.813 2.953 3.708M804.606 82.416l-5.629 1.248-.078 9.988-.064 8.19 4.583 5.849 5.278 6.738 6.161 7.861 6.16 7.863 1.583 2.021 2.463 3.142 2.298 2.935 3.233 4.126 6.16 7.861 5.235 6.682 1.939 2.475 392.567 501.052.247.314 6.16 7.863 6.159 7.862 5.592 7.137 6.16 7.863 6.16 7.861 2.036 2.6 1.57 2.003 6.16 7.862.702.896 8.103-5.84 1.55-1.116 4.194-3.5-6.169-7.855-1.143-1.457-1.555-1.98-6.168-7.856-6.168-7.855-1.883-2.398-6.168-7.855-408.92-520.801-5.129-6.533-3.204-4.08-2.28-2.903-2.44-3.11-6.169-7.855-6.167-7.855-1.449-1.845-5.232-6.665-6.169-7.856-6.168-7.855-4.1-5.222"/><path stroke-width="2.9963699999999998" d="m798.977 83.664 6.165 7.857 6.165 7.858 4.188 5.337 6.166 7.858 6.165 7.857 6.166 7.859.572.729 6.166 7.857 1.78 2.27 6.166 7.858L1252.31 661.42l6.166 7.858 5.464 6.964 6.166 7.858 6.165 7.857 6.166 7.859 4.658 5.937M847.07 72.579l-5.353 1.185-.123 9.987-.096 7.756 4.487 5.698 5.17 6.563 6.179 7.847 6.18 7.846 1.254 1.594 2.41 3.06 2.252 2.86 412.782 524.122 5.14 6.528 6.181 7.846 6.18 7.847 1.665 2.114 1.534 1.948 6.18 7.846.524.666 8.098-5.845 1.392-1.005 3.977-3.318-6.188-7.84-.955-1.21-1.519-1.925-6.189-7.84-6.187-7.84-1.515-1.92-418.743-530.582-6.188-7.84-6.188-7.84-1.12-1.421-5.125-6.494-6.188-7.84-6.187-7.84-3.72-4.713"/><path stroke-width="2.9963699999999998" d="m841.717 73.764 6.185 7.842 6.186 7.843 3.804 4.823 6.186 7.842 6.184 7.843 6.3 7.987 419.925 532.419 6.185 7.842 6.185 7.843 6.185 7.842 4.064 5.152M759.913 92.77l-5.928 1.315-.03 9.988-.024 8.648 4.681 6.007 5.392 6.921 6.139 7.878 450.009 577.528 6.138 7.879 6.14 7.878 2.423 3.11 1.608 2.064 6.14 7.879.889 1.141 8.107-5.833 1.712-1.232 4.428-3.695-6.147-7.872-1.342-1.717-1.593-2.04-452.52-579.465-6.148-7.872-6.147-7.871-1.788-2.29-5.347-6.847-6.147-7.873-6.148-7.871-4.497-5.758M753.985 94.085l499.324 639.856M932.333 1020.761l.29-9.984.29-9.983.29-9.984.286-9.853"/><path stroke-width="2.9963699999999998" d="m940.783 974.964-7.294 5.993-9.602-2.75-9.017-2.583-9.601-2.75-9.602-2.75-.997-.286"/><path stroke-width="2.9963699999999998" d="M900.998 964.807c-13.052 8.537-3.883 28.13-7.214 41.505 6.278 9.54 26.939 8.591 38.348 14.389 232.757-196.47 400.197-338.968 632.884-535.77M1208.157 741.637l.604-9.97.368-6.101-5.681-1.23-9.761-2.115-.727-.158"/><path stroke-width="2.9963699999999998" d="m1209.13 725.566-7.801 6.237-.498.398M1151.384 2.08c-12.657 9.275 3.872 25.937 11.811 35.02q187.326 229.284 374.652 458.566c20.741-7.21-1.185-19.974-7.485-30.493z"/><path stroke-width="2.9963699999999998" d="M1147.81 2.863q199.117 243.414 398.235 486.829M1093.812 15.418c-12.77 8.395 1.968 25.744 10.244 34.189l390.926 481.786c21.225-7.383-.466-20.458-7.229-31.319q-196.97-242.327-393.94-484.656ZM1089.928 16.27l413.514 508.969M1123.197 8.61c-12.913 9.231 3.714 26.434 11.823 35.573l381.858 468.96c20.978-7.294-.833-20.211-7.36-30.897zM1119.472 9.427l405.734 497.653M1031.133 29.938c-13.336 8.314 1.676 26.714 10.265 35.417l406.75 505.073c20.704-7.1 2.13-19.594-5.36-30.26zM1026.898 30.87l429.986 533.215M1063.152 22.52c-13.043 8.36 1.826 26.218 10.256 34.79l398.687 493.16c21.482-7.477-.082-20.72-7.091-31.762zM1059.1 23.411l421.59 520.81M962.634 45.806c-13.31 7.39-.075 26.355 8.767 34.874L1396.77 613.25c21.216-7.314 3.006-20.17-5.05-31.253Q1177.176 313.903 962.634 45.806ZM957.998 46.83l447.798 559.881M1189.09 770.915l3.466.787 7.707-6.353 1.853-1.528"/></g><path d="M654.677 714.868v253.13" style="opacity:.669;fill:none;stroke:#4232a9;stroke-width:1.99937;stroke-linejoin:round;stroke-opacity:.501961;marker-start:url(#a)"/><text xml:space="preserve" x="278.049" y="950.72" style="font-style:normal;font-variant:normal;font-weight:400;font-stretch:normal;font-size:26.6667px;font-family:Calibri;-inkscape-font-specification:Calibri;text-align:start;writing-mode:lr-tb;direction:ltr;text-anchor:start;clip-rule:evenodd;opacity:.66855;fill:#000;fill-opacity:1;fill-rule:evenodd;stroke:none;stroke-width:1.88976;stroke-miterlimit:10;stroke-dasharray:none;stroke-opacity:1"><tspan x="278.049" y="950.72" style="font-style:normal;font-variant:normal;font-weight:700;font-stretch:normal;font-family:Calibri;-inkscape-font-specification:&quot;Calibri Bold&quot;;stroke-width:1.88976">Coyer</tspan></text><path d="M318.774 676.032v253.131" style="opacity:.669;fill:none;stroke:#4232a9;stroke-width:1.99937;stroke-linejoin:round;stroke-opacity:.501961;marker-start:url(#b)"/><text xml:space="preserve" x="420.903" y="974.419" style="font-style:normal;font-variant:normal;font-weight:400;font-stretch:normal;font-size:26.6667px;font-family:Calibri;-inkscape-font-specification:Calibri;text-align:start;writing-mode:lr-tb;direction:ltr;text-anchor:start;clip-rule:evenodd;opacity:.66855;fill:#000;fill-opacity:1;fill-rule:evenodd;stroke:none;stroke-width:1.88976;stroke-miterlimit:10;stroke-dasharray:none;stroke-opacity:1"><tspan x="420.903" y="974.419" style="stroke-width:1.88976">Demi-entrait</tspan></text><path d="M524.595 738.212v219.315" style="opacity:.669;fill:none;stroke:#4232a9;stroke-width:1.99937;stroke-linejoin:round;stroke-opacity:.501961;marker-start:url(#c)"/><text xml:space="preserve" x="15.134" y="930.578" style="font-style:normal;font-variant:normal;font-weight:400;font-stretch:normal;font-size:26.6667px;font-family:Calibri;-inkscape-font-specification:Calibri;text-align:start;writing-mode:lr-tb;direction:ltr;text-anchor:start;clip-rule:evenodd;opacity:.66855;fill:#000;fill-opacity:1;fill-rule:evenodd;stroke:none;stroke-width:1.88976;stroke-miterlimit:10;stroke-dasharray:none;stroke-opacity:1"><tspan x="15.134" y="930.578" style="stroke-width:1.88976">Panne sablière</tspan></text><path d="M55.859 655.89v253.131" style="opacity:.669;fill:none;stroke:#4232a9;stroke-width:1.99937;stroke-linejoin:round;stroke-opacity:.501961;marker-start:url(#d)"/><path d="M426.779 511.901V318.335" style="opacity:.669;fill:none;stroke:#4232a9;stroke-width:1.999;stroke-linejoin:round;stroke-dasharray:none;stroke-opacity:.501961;marker-start:url(#a)"/><text xml:space="preserve" x="152.316" y="388.262" style="font-style:normal;font-variant:normal;font-weight:400;font-stretch:normal;font-size:26.6667px;font-family:Calibri;-inkscape-font-specification:Calibri;text-align:start;writing-mode:lr-tb;direction:ltr;text-anchor:start;clip-rule:evenodd;opacity:.66855;fill:#000;fill-opacity:1;fill-rule:evenodd;stroke:none;stroke-width:1.88976;stroke-miterlimit:10;stroke-dasharray:none;stroke-opacity:1"><tspan x="152.316" y="388.262" style="text-align:center;text-anchor:middle;stroke-width:1.88976">Arbalétrier de la </tspan><tspan x="152.316" y="421.596" style="text-align:center;text-anchor:middle;stroke-width:1.88976">demi-ferme d&apos;arêtier</tspan></text><path d="M153.157 638.39V444.825" style="opacity:.669;fill:none;stroke:#4232a9;stroke-width:1.999;stroke-linejoin:round;stroke-dasharray:none;stroke-opacity:.501961;marker-start:url(#e)"/><path d="M370.12 572.035V378.47" style="opacity:.669;fill:none;stroke:#4232a9;stroke-width:1.999;stroke-linejoin:round;stroke-dasharray:none;stroke-opacity:.501961;marker-start:url(#f)"/><path d="M720.626 325.331 554.462 159.167" style="opacity:.669;fill:none;stroke:#4232a9;stroke-width:1.999;stroke-linejoin:round;stroke-dasharray:none;stroke-opacity:.501961;marker-start:url(#a)"/></svg>