<svg xmlns="http://www.w3.org/2000/svg" xml:space="preserve" width="987.832" height="315.017"><defs><marker id="a" markerHeight="1" markerWidth="1" orient="auto" preserveAspectRatio="xMidYMid" refX="0" refY="0" style="overflow:visible" viewBox="0 0 1 1"><path d="M5 0c0 2.76-2.24 5-5 5s-5-2.24-5-5 2.3-5 5-5c2.76 0 5 2.24 5 5" style="fill:context-stroke;fill-rule:evenodd;stroke:none" transform="scale(.5)"/></marker><marker id="b" markerHeight="1" markerWidth="1" orient="auto" preserveAspectRatio="xMidYMid" refX="0" refY="0" style="overflow:visible" viewBox="0 0 1 1"><path d="M5 0c0 2.76-2.24 5-5 5s-5-2.24-5-5 2.3-5 5-5c2.76 0 5 2.24 5 5" style="fill:context-stroke;fill-rule:evenodd;stroke:none" transform="scale(.5)"/></marker></defs><text xml:space="preserve" x="779.655" y="169.697" style="font-style:normal;font-variant:normal;font-weight:400;font-stretch:normal;font-size:26.6667px;font-family:Calibri;-inkscape-font-specification:Calibri;text-align:start;writing-mode:lr-tb;direction:ltr;text-anchor:start;clip-rule:evenodd;opacity:.66855;fill:#000;fill-opacity:1;fill-rule:evenodd;stroke:none;stroke-width:1.88976;stroke-miterlimit:10;stroke-dasharray:none;stroke-opacity:1"><tspan x="779.655" y="169.697" style="text-align:center;text-anchor:middle">Tenon</tspan></text><path d="m591.422 176.922 148.146-15.572" style="opacity:.669;fill:none;stroke:#4232a9;stroke-width:1.999;stroke-linejoin:round;stroke-dasharray:none;stroke-opacity:.501961;marker-start:url(#a)"/><text xml:space="preserve" x="656.221" y="36.386" style="font-style:normal;font-variant:normal;font-weight:400;font-stretch:normal;font-size:26.6667px;font-family:Calibri;-inkscape-font-specification:Calibri;text-align:start;writing-mode:lr-tb;direction:ltr;text-anchor:start;clip-rule:evenodd;opacity:.66855;fill:#000;fill-opacity:1;fill-rule:evenodd;stroke:none;stroke-width:1.88976;stroke-miterlimit:10;stroke-dasharray:none;stroke-opacity:1"><tspan x="656.221" y="36.386" style="text-align:center;text-anchor:middle">About</tspan></text><path d="m632.876 140.993-.15-96.677" style="opacity:.669;fill:none;stroke:#4232a9;stroke-width:1.999;stroke-linejoin:round;stroke-dasharray:none;stroke-opacity:.501961;marker-start:url(#b)"/><g fill="none" stroke="#000" stroke-linejoin="round" stroke-width="3"><path stroke-width=".78789" d="m534.35 159.967-205.71-23.523M960.349 208.68l-306.24-35.019c-4.603 8.96-10.001 17.69-14.126 26.79l-1.22 17.3M10.357 177.118l777.73 137.511M529.815 167.44l6.314-5.482M315.063 141.904h-.001l-2.436.98-2.437.98-2.437.98-2.436.98-2.437.98-2.255.906M223.9 145.972c96.756 12.742 193.7 24.544 290.34 37.876l124.523 33.903M511.705 183.158l9.384-8.145"/><path stroke-width=".78789" d="m639.549 206.606-118.46-31.593 8.726-7.574M987.781 244.67l-347.747-44.931"/><path stroke-width=".78789" d="m529.544 177.268.27-9.829 14.633 3.828M211.056 1.043l12.844 144.93q30.669 3.961 61.338 7.924M285.238 153.897 275.165.28M241.859 188.597l2.086-.729 2.269 1.412 1.114 2.726-.694 2.434-2.09.716-2.258-1.413-1.111-2.712.684-2.434 17.847-7.76M246.634 194.44l13.64-6.137M243.945 187.868l.495-.215M494.16 1.11l128.612 144.92-1.076 18.784M622.772 146.03l1.624-2.064 1.624-2.064 1.625-2.063 1.624-2.064 1.624-2.064 1.625-2.063 1.624-2.064 1.624-2.064 1.624-2.064 1.45-1.84"/><path stroke-width=".78789" d="m611.564 199.142 13.704 1.977c4.506-7.41.005-.207 4.77-7.772.645-12.521 2.135-31.452 2.782-43.973 5.718-6.44 1.049-1.264 5.545-6.519.425-3.785.053-12.67.395-17.073C601.582 84.16 564.046 41.883 526.867.262"/><path stroke-width=".78789" d="m380.555 1.712 114.174 131.576 126.967 31.526 5.778-8.02M625.268 201.12l2.206-44.327M223.9 145.972.05 117.049M221.974 124.247 56.917 105.373M285.239 153.897l2.436-.98 2.437-.98 2.436-.98 2.437-.98 2.437-.979 2.436-.98.766-.308M328.64 136.444 321.99.041M315.063 141.904l2.436-.98 2.437-.98 2.436-.98 2.437-.98 2.437-.979 1.394-.56M515.008 138.324l41.143 46.04M629.771 193.584l2.541.665 2.54.665 2.542.664 2.54.665 1.741.455M646.264 188.196l-2.544-.653-2.543-.654-2.544-.653-2.544-.653-2.543-.653-2.528-.65"/></g></svg>