<svg xmlns="http://www.w3.org/2000/svg" xml:space="preserve" width="587.302" height="819.335"><defs><marker id="a" markerHeight="1" markerWidth="1" orient="auto" preserveAspectRatio="xMidYMid" refX="0" refY="0" style="overflow:visible" viewBox="0 0 1 1"><path d="M5 0c0 2.76-2.24 5-5 5s-5-2.24-5-5 2.3-5 5-5c2.76 0 5 2.24 5 5" style="fill:context-stroke;fill-rule:evenodd;stroke:none" transform="scale(.5)"/></marker><marker id="b" markerHeight="1" markerWidth="1" orient="auto" preserveAspectRatio="xMidYMid" refX="0" refY="0" style="overflow:visible" viewBox="0 0 1 1"><path d="M5 0c0 2.76-2.24 5-5 5s-5-2.24-5-5 2.3-5 5-5c2.76 0 5 2.24 5 5" style="fill:context-stroke;fill-rule:evenodd;stroke:none" transform="scale(.5)"/></marker></defs><text xml:space="preserve" x="67.061" y="559.765" style="font-style:normal;font-variant:normal;font-weight:400;font-stretch:normal;font-size:26.6667px;font-family:Calibri;-inkscape-font-specification:Calibri;text-align:start;writing-mode:lr-tb;direction:ltr;text-anchor:start;clip-rule:evenodd;opacity:.66855;fill:#000;fill-opacity:1;fill-rule:evenodd;stroke:none;stroke-width:1.88976;stroke-miterlimit:10;stroke-dasharray:none;stroke-opacity:1"><tspan x="67.061" y="559.765" style="text-align:center;text-anchor:middle">Mortaise</tspan></text><path d="m292.853 555.857-172.07-1.187" style="opacity:.669;fill:none;stroke:#4232a9;stroke-width:1.999;stroke-linejoin:round;stroke-dasharray:none;stroke-opacity:.501961;marker-start:url(#a)"/><text xml:space="preserve" x="97.439" y="375.279" style="font-style:normal;font-variant:normal;font-weight:400;font-stretch:normal;font-size:26.6667px;font-family:Calibri;-inkscape-font-specification:Calibri;text-align:start;writing-mode:lr-tb;direction:ltr;text-anchor:start;clip-rule:evenodd;opacity:.66855;fill:#000;fill-opacity:1;fill-rule:evenodd;stroke:none;stroke-width:1.88976;stroke-miterlimit:10;stroke-dasharray:none;stroke-opacity:1"><tspan x="97.439" y="375.279" style="text-align:center;text-anchor:middle">Tenon</tspan></text><path d="m267.231 370.371-101.07-1.188" style="opacity:.669;fill:none;stroke:#4232a9;stroke-width:1.999;stroke-linejoin:round;stroke-dasharray:none;stroke-opacity:.501961;marker-start:url(#b)"/><g fill="none" stroke="#000" stroke-linejoin="round" stroke-width="3"><path stroke-width="2.17443" d="m289.061 816.34 297.154-631.795M380.755 818.93 579.86 323.278l6.355-138.733-140.713-10.588M274.478 415.348.898 815.226M373.496 482.624l-56.977 105.2q-37.252-4.502-74.503-9.003M242.016 578.821l63.492-103.596"/><path stroke-width="2.17443" d="m308.706 586.879-3.198-111.654 67.988 7.4M308.015 265.708l82.715 7.134 54.617-82.637L447.16.01"/><path stroke-width="2.17443" d="M389.474 2.912q.627 134.964 1.256 269.93M130.07 6.371l16.822 245.44 79.856 6.888 7.273 152.493 78.046 8.018 59.904-93.309-.533-54.724M308.015 265.708l4.052 153.502M373.02 271.314l-1.559 2.278"/></g></svg>