<svg xmlns="http://www.w3.org/2000/svg" xml:space="preserve" width="710.034" height="537.731"><defs><marker id="a" markerHeight="1" markerWidth="1" orient="auto" preserveAspectRatio="xMidYMid" refX="0" refY="0" style="overflow:visible" viewBox="0 0 1 1"><path d="M5 0c0 2.76-2.24 5-5 5s-5-2.24-5-5 2.3-5 5-5c2.76 0 5 2.24 5 5" style="fill:context-stroke;fill-rule:evenodd;stroke:none" transform="scale(.5)"/></marker></defs><text xml:space="preserve" x="121.197" y="504.601" style="font-style:normal;font-variant:normal;font-weight:400;font-stretch:normal;font-size:26.6667px;font-family:Calibri;-inkscape-font-specification:Calibri;text-align:start;writing-mode:lr-tb;direction:ltr;text-anchor:start;clip-rule:evenodd;opacity:.66855;fill:#000;fill-opacity:1;fill-rule:evenodd;stroke:none;stroke-width:1.88976;stroke-miterlimit:10;stroke-dasharray:none;stroke-opacity:1"><tspan x="121.197" y="504.601" style="text-align:center;text-anchor:middle">Paume droite</tspan></text><path d="m96.715 280.44.367 191.589" style="opacity:.669;fill:none;stroke:#4232a9;stroke-width:1.999;stroke-linejoin:round;stroke-dasharray:none;stroke-opacity:.501961;marker-start:url(#a)"/><g fill="none" stroke="#000" stroke-linejoin="round" stroke-width="3"><path stroke-width="1.01829" d="m448.324 106.694 49.663-37.064 3.995-63.24M24.99 422.625q47.925-35.765 95.847-71.53M113.26 295.674l-8.06-58.948-51.182-12.961M.256 297.648 105.2 236.726M441.823.458 5.756 211.544"/><path stroke-width="1.01829" d="m187.44 188.985-47.952-10.341-85.47 45.121M309.372 165.24l-1.336-46.262-42.225-7.022M314.892 129.014l-1.086-42.396M353.768 125.294l-.207-32.743c-13.608-1.468-27.607-5.238-40.973-5.29l-46.777 24.695M308.439 132.924c7.904-7.402 18.524-.513 27.885-.248l15.919 2.72"/><path stroke-width="1.01829" d="m707.36 301.113-567.872-122.47-85.47 45.122M54.018 223.765l654.39 165.714M113.26 295.674l7.577 55.421 589.043 186.15M707.661 145.397 394.97 98.73l-42.791 27.589.336 47.116 45.098 8.567-.721 45.767 312.091 66.327M352.178 126.32l355.115 59.06M352.252 136.72l-42.88 28.52M304.29 214.185l53.308-39.783"/></g><path d="m188.951 188.474 119.05-68.47" style="opacity:.669;fill:none;stroke:#553131;stroke-width:1.99937;stroke-linejoin:round"/><path d="M353.806 93.044 502.2 6.92" style="opacity:.669;fill:none;stroke:#000;stroke-width:1.99937;stroke-linejoin:round;stroke-opacity:1"/></svg>