<svg xmlns="http://www.w3.org/2000/svg" xml:space="preserve" width="1025.49" height="675.058"><defs><marker id="a" markerHeight="1" markerWidth="1" orient="auto" preserveAspectRatio="xMidYMid" refX="0" refY="0" style="overflow:visible" viewBox="0 0 1 1"><path d="M5 0c0 2.76-2.24 5-5 5s-5-2.24-5-5 2.3-5 5-5c2.76 0 5 2.24 5 5" style="fill:context-stroke;fill-rule:evenodd;stroke:none" transform="scale(.5)"/></marker><marker id="b" markerHeight="1" markerWidth="1" orient="auto" preserveAspectRatio="xMidYMid" refX="0" refY="0" style="overflow:visible" viewBox="0 0 1 1"><path d="M5 0c0 2.76-2.24 5-5 5s-5-2.24-5-5 2.3-5 5-5c2.76 0 5 2.24 5 5" style="fill:context-stroke;fill-rule:evenodd;stroke:none" transform="scale(.5)"/></marker><marker id="c" markerHeight="1" markerWidth="1" orient="auto" preserveAspectRatio="xMidYMid" refX="0" refY="0" style="overflow:visible" viewBox="0 0 1 1"><path d="M5 0c0 2.76-2.24 5-5 5s-5-2.24-5-5 2.3-5 5-5c2.76 0 5 2.24 5 5" style="fill:context-stroke;fill-rule:evenodd;stroke:none" transform="scale(.5)"/></marker><marker id="d" markerHeight="1" markerWidth="1" orient="auto" preserveAspectRatio="xMidYMid" refX="0" refY="0" style="overflow:visible" viewBox="0 0 1 1"><path d="M5 0c0 2.76-2.24 5-5 5s-5-2.24-5-5 2.3-5 5-5c2.76 0 5 2.24 5 5" style="fill:context-stroke;fill-rule:evenodd;stroke:none" transform="scale(.5)"/></marker></defs><text xml:space="preserve" x="400.592" y="532.047" style="font-style:normal;font-variant:normal;font-weight:400;font-stretch:normal;font-size:26.6667px;font-family:Calibri;-inkscape-font-specification:Calibri;text-align:start;writing-mode:lr-tb;direction:ltr;text-anchor:start;clip-rule:evenodd;opacity:.66855;fill:#000;fill-opacity:1;fill-rule:evenodd;stroke:none;stroke-width:1.88976;stroke-miterlimit:10;stroke-dasharray:none;stroke-opacity:1" transform="rotate(1.866)"><tspan x="400.592" y="532.047">Queue d&apos;aronde</tspan></text><text xml:space="preserve" x="415.565" y="291.354" style="font-style:normal;font-variant:normal;font-weight:400;font-stretch:normal;font-size:26.6667px;font-family:Calibri;-inkscape-font-specification:Calibri;text-align:start;writing-mode:lr-tb;direction:ltr;text-anchor:start;clip-rule:evenodd;opacity:.66855;fill:#000;fill-opacity:1;fill-rule:evenodd;stroke:none;stroke-width:1.88976;stroke-miterlimit:10;stroke-dasharray:none;stroke-opacity:1" transform="rotate(.945)"><tspan x="415.565" y="291.354">Queue d&apos;aronde</tspan><tspan x="415.565" y="324.688">traversante</tspan></text><text xml:space="preserve" x="836.299" y="321.84" style="font-style:normal;font-variant:normal;font-weight:400;font-stretch:normal;font-size:26.6667px;font-family:Calibri;-inkscape-font-specification:Calibri;text-align:start;writing-mode:lr-tb;direction:ltr;text-anchor:start;clip-rule:evenodd;opacity:.66855;fill:#000;fill-opacity:1;fill-rule:evenodd;stroke:none;stroke-width:1.88976;stroke-miterlimit:10;stroke-dasharray:none;stroke-opacity:1" transform="rotate(.945)"><tspan x="836.299" y="321.84">Mi-bois à </tspan><tspan x="836.299" y="355.174">queue d&apos;aronde</tspan></text><path d="m218.656 307.689 126 227.653" style="opacity:.669;fill:none;stroke:#4232a9;stroke-width:1.999;stroke-linejoin:round;stroke-dasharray:none;stroke-opacity:.501961;marker-start:url(#a)"/><path d="m726.204 291.166-136.44 254.21" style="opacity:.669;fill:none;stroke:#4232a9;stroke-width:1.999;stroke-linejoin:round;stroke-dasharray:none;stroke-opacity:.501961;marker-start:url(#b)"/><path d="m719.512 168.052 173.558 109.65v34.706" style="opacity:.669;fill:none;stroke:#4232a9;stroke-width:1.999;stroke-linejoin:round;stroke-dasharray:none;stroke-opacity:.501961;marker-start:url(#c)"/><path d="M252.588 160.458 377.96 299.02h21.986" style="opacity:.669;fill:none;stroke:#4232a9;stroke-width:1.999;stroke-linejoin:round;stroke-dasharray:none;stroke-opacity:.501961;marker-start:url(#d)"/><g fill="none" stroke="#000" stroke-linejoin="round" stroke-width="3" style="stroke-width:4.57195;stroke-dasharray:none"><path d="m309.198 470.813-85.099-123.884M202.221 178.797l21.878 168.132-410.39-15.623" style="stroke-width:4.57195;stroke-dasharray:none" transform="translate(81.531 -1.846)scale(.43745)"/><path d="m-53.967 456.778 363.165 14.035-21.001-151.392M2157.783 89.789-124.732 6.504M560.539 192.148q-30.972 82.615-61.942 165.23 26.709 61.41 53.419 122.82l1598.806 61.79" style="stroke-width:4.57195;stroke-dasharray:none" transform="translate(81.531 -1.846)scale(.43745)"/><path d="m1564.125 462.363-260.263-9.988c7.535-21.16 15.066-42.322 22.601-63.483L1280.9 218.989M288.197 319.421l-85.976-140.624 358.318 13.351M1601.614 304.257l41.341-71.777" style="stroke-width:4.57195;stroke-dasharray:none" transform="translate(81.531 -1.846)scale(.43745)"/><path d="m1300.731 292.94 300.883 11.317-37.489 158.106c13.228-21.295 27.184-42.285 39.96-63.768q19.436-83.058 38.87-166.115L1280.9 218.989M288.197 319.421q110.74 4.199 221.48 8.399M501.385 804.787l-71.224 737.636M497.761 1545.536q29.68-333.1 59.357-666.201l-55.733-74.548q-24.195-.974-48.389-1.946" style="stroke-width:4.57195;stroke-dasharray:none" transform="translate(81.531 -1.846)scale(.43745)"/><path d="m527.741 840.041 44.111-126.08-52.5-95.257-377.931-14.86 21.712 187.339q-24.116-.97-48.232-1.94L7.284 1541.585M519.352 618.704l-66.356 184.137M1698.948 1537.637q-16.646-388.012-33.293-776.026-24.204-.962-48.409-1.926 20.254-91.13 40.508-182.261l-378.086-14.711c-6.09 18.666-15.64 37.141-19.593 55.926l32.352 128.122" style="stroke-width:4.57195;stroke-dasharray:none" transform="translate(81.531 -1.846)scale(.43745)"/><path d="m1327.262 748.147-48.252-1.919c-12.613 27.647-27.07 54.87-38.541 82.779q-2.925 359.18-5.852 718.359M1276.145 1545.287l2.865-799.059M1279.668 562.713l47.594 185.434" style="stroke-width:4.57195;stroke-dasharray:none" transform="translate(81.531 -1.846)scale(.43745)"/></g><path d="m300.693 154.464 360.32 13.345M782.925 172.676l242.083 8.886" style="opacity:1;fill:none;stroke:#000;stroke-width:2;stroke-linejoin:round;stroke-dasharray:none;stroke-opacity:1"/></svg>