<svg xmlns="http://www.w3.org/2000/svg" xml:space="preserve" width="660" height="350"><defs><marker id="a" markerHeight="1" markerWidth="1" orient="auto" preserveAspectRatio="xMidYMid" refX="0" refY="0" style="overflow:visible" viewBox="0 0 1 1"><path d="M5 0c0 2.76-2.24 5-5 5s-5-2.24-5-5 2.3-5 5-5c2.76 0 5 2.24 5 5" style="fill:context-stroke;fill-rule:evenodd;stroke:none" transform="scale(.5)"/></marker><marker id="b" markerHeight="1" markerWidth="1" orient="auto" preserveAspectRatio="xMidYMid" refX="0" refY="0" style="overflow:visible" viewBox="0 0 1 1"><path d="M5 0c0 2.76-2.24 5-5 5s-5-2.24-5-5 2.3-5 5-5c2.76 0 5 2.24 5 5" style="fill:context-stroke;fill-rule:evenodd;stroke:none" transform="scale(.5)"/></marker><marker id="c" markerHeight="1" markerWidth="1" orient="auto" preserveAspectRatio="xMidYMid" refX="0" refY="0" style="overflow:visible" viewBox="0 0 1 1"><path d="M5 0c0 2.76-2.24 5-5 5s-5-2.24-5-5 2.3-5 5-5c2.76 0 5 2.24 5 5" style="fill:context-stroke;fill-rule:evenodd;stroke:none" transform="scale(.5)"/></marker></defs><text xml:space="preserve" x="178.274" y="20.138" style="font-style:normal;font-variant:normal;font-weight:400;font-stretch:normal;font-size:26.6667px;font-family:Calibri;-inkscape-font-specification:Calibri;text-align:start;writing-mode:lr-tb;direction:ltr;text-anchor:start;clip-rule:evenodd;opacity:.66855;fill:#000;fill-opacity:1;fill-rule:evenodd;stroke:none;stroke-width:1.88976;stroke-miterlimit:10;stroke-dasharray:none;stroke-opacity:1"><tspan x="178.274" y="20.138" style="text-align:center;text-anchor:middle">Fond de la mortaise</tspan></text><text xml:space="preserve" x="181.905" y="344.159" style="font-style:normal;font-variant:normal;font-weight:400;font-stretch:normal;font-size:26.6667px;font-family:Calibri;-inkscape-font-specification:Calibri;text-align:start;writing-mode:lr-tb;direction:ltr;text-anchor:start;clip-rule:evenodd;opacity:.66855;fill:#000;fill-opacity:1;fill-rule:evenodd;stroke:none;stroke-width:1.88976;stroke-miterlimit:10;stroke-dasharray:none;stroke-opacity:1"><tspan x="181.905" y="344.159" style="text-align:center;text-anchor:middle">Parement de la mortaise</tspan></text><text xml:space="preserve" x="526.957" y="196.6" style="font-style:normal;font-variant:normal;font-weight:400;font-stretch:normal;font-size:26.6667px;font-family:Calibri;-inkscape-font-specification:Calibri;text-align:start;writing-mode:lr-tb;direction:ltr;text-anchor:start;clip-rule:evenodd;opacity:.66855;fill:#000;fill-opacity:1;fill-rule:evenodd;stroke:none;stroke-width:1.88976;stroke-miterlimit:10;stroke-dasharray:none;stroke-opacity:1"><tspan x="526.957" y="196.6" style="text-align:center;text-anchor:middle">About de la mortaise</tspan></text><path d="M173.051 199.725V35.955" style="opacity:.669;fill:none;stroke:#4232a9;stroke-width:1.999;stroke-linejoin:round;stroke-dasharray:none;stroke-opacity:.501961;marker-start:url(#a)"/><path d="m212.844 199.725 175.544-12.693" style="opacity:.669;fill:none;stroke:#4232a9;stroke-width:1.999;stroke-linejoin:round;stroke-dasharray:none;stroke-opacity:.501961;marker-start:url(#b)"/><g fill="none" stroke="#000" stroke-linejoin="round" stroke-width="3"><path stroke-width="1.47594" d="M.079 274.678c231.746-24.952 259.692-27.996 491.438-52.949M.079 169.264c233.078-17.552 262.035-19.895 495.113-37.447M403.872 127.725C202.094 142.145 201.857 142.062.079 156.482M144.597 225.709l-1.05-33.53 92.296-7.954.66 32.572"/><path stroke-width="1.47594" d="m196.922 203.912 39.581 12.885q-45.953 4.454-91.906 8.912M196.515 187.614l.407 16.298-52.856 4.836"/></g><path d="M173.051 213.185v105.119" style="opacity:.669;fill:none;stroke:#4232a9;stroke-width:1.999;stroke-linejoin:round;stroke-dasharray:none;stroke-opacity:.501961;marker-start:url(#c)"/></svg>