<svg xmlns="http://www.w3.org/2000/svg" xml:space="preserve" width="774.517" height="476.487"><defs><marker id="a" markerHeight="1" markerWidth="1" orient="auto" preserveAspectRatio="xMidYMid" refX="0" refY="0" style="overflow:visible" viewBox="0 0 1 1"><path d="M5 0c0 2.76-2.24 5-5 5s-5-2.24-5-5 2.3-5 5-5c2.76 0 5 2.24 5 5" style="fill:context-stroke;fill-rule:evenodd;stroke:none" transform="scale(.5)"/></marker></defs><text xml:space="preserve" x="164.484" y="305.617" style="font-style:normal;font-variant:normal;font-weight:400;font-stretch:normal;font-size:26.6667px;font-family:Calibri;-inkscape-font-specification:Calibri;text-align:start;writing-mode:lr-tb;direction:ltr;text-anchor:start;clip-rule:evenodd;opacity:.66855;fill:#000;fill-opacity:1;fill-rule:evenodd;stroke:none;stroke-width:1.88976;stroke-miterlimit:10;stroke-dasharray:none;stroke-opacity:1"><tspan x="164.484" y="305.617" style="text-align:center;text-anchor:middle">About</tspan></text><path d="m335.738 353.002-131.214-53.36" style="opacity:.669;fill:none;stroke:#4232a9;stroke-width:1.999;stroke-linejoin:round;stroke-dasharray:none;stroke-opacity:.501961;marker-start:url(#a)"/><g fill="none" stroke="#000" stroke-linejoin="round" stroke-width="3" style="stroke-width:4;stroke-dasharray:none"><path d="M2934.391 158.448 1781.376 264.396M640.592 772.692q-2.923-105.32-5.848-210.64L285.592 401.84q-653.713 60.068-1307.426 120.137M634.744 562.052l-1792.627 237.435M2937.146 257.098c-405.24 54.892-811.558 105.047-1216.121 162.92Q1180.809 596.355 640.592 772.692M1926.363-1510.366Q1177.277-637.515 428.195 235.338l8.191 158.606q192.398 75.607 384.797 151.215c343.685-101.569 689.898-199.587 1032.012-303.36 360.984-508.168 778.016-1102.285 1139-1610.453" style="stroke-width:10.7079;stroke-dasharray:none" transform="matrix(.18678 0 0 .18678 216.398 282.754)"/><path d="M2311.054-1509.112 817.234 336.189l3.949 208.97M817.234 336.189 428.195 235.338M633.593 471.441q-62.134 16.531-124.268 33.061M1448.641 361.689q140.945 27.611 281.89 55.226" style="stroke-width:10.7079;stroke-dasharray:none" transform="matrix(.18678 0 0 .18678 216.398 282.754)"/></g><path d="m774.33 409.2-346.88 66.304" style="opacity:.669;fill:none;stroke:#000;stroke-width:2;stroke-linejoin:round;stroke-dasharray:none;stroke-opacity:1"/></svg>