<svg xmlns="http://www.w3.org/2000/svg" xml:space="preserve" width="540" height="641.79"><defs><marker id="a" markerHeight="1" markerWidth="1" orient="auto" preserveAspectRatio="xMidYMid" refX="0" refY="0" style="overflow:visible" viewBox="0 0 1 1"><path d="M5 0c0 2.76-2.24 5-5 5s-5-2.24-5-5 2.3-5 5-5c2.76 0 5 2.24 5 5" style="fill:context-stroke;fill-rule:evenodd;stroke:none" transform="scale(.5)"/></marker><marker id="c" markerHeight="1" markerWidth="1" orient="auto" preserveAspectRatio="xMidYMid" refX="0" refY="0" style="overflow:visible" viewBox="0 0 1 1"><path d="M5 0c0 2.76-2.24 5-5 5s-5-2.24-5-5 2.3-5 5-5c2.76 0 5 2.24 5 5" style="fill:context-stroke;fill-rule:evenodd;stroke:none" transform="scale(.5)"/></marker><marker id="b" markerHeight="1" markerWidth="1" orient="auto" preserveAspectRatio="xMidYMid" refX="0" refY="0" style="overflow:visible" viewBox="0 0 1 1"><path d="M5 0c0 2.76-2.24 5-5 5s-5-2.24-5-5 2.3-5 5-5c2.76 0 5 2.24 5 5" style="fill:context-stroke;fill-rule:evenodd;stroke:none" transform="scale(.5)"/></marker></defs><text xml:space="preserve" x="449.709" y="517.688" style="font-style:normal;font-variant:normal;font-weight:400;font-stretch:normal;font-size:26.6667px;font-family:Calibri;-inkscape-font-specification:Calibri;text-align:start;writing-mode:lr-tb;direction:ltr;text-anchor:start;clip-rule:evenodd;opacity:.66855;fill:#000;fill-opacity:1;fill-rule:evenodd;stroke:none;stroke-width:1.88976;stroke-miterlimit:10;stroke-dasharray:none;stroke-opacity:1"><tspan x="449.709" y="517.688" style="text-align:center;text-anchor:middle">arasement</tspan></text><path d="m127.422 363.781 255.07 145.812" style="opacity:.669;fill:none;stroke:#4232a9;stroke-width:1.999;stroke-linejoin:round;stroke-dasharray:none;stroke-opacity:.501961;marker-start:url(#a)"/><text xml:space="preserve" x="452.541" y="386.384" style="font-style:normal;font-variant:normal;font-weight:400;font-stretch:normal;font-size:26.6667px;font-family:Calibri;-inkscape-font-specification:Calibri;text-align:start;writing-mode:lr-tb;direction:ltr;text-anchor:start;clip-rule:evenodd;opacity:.66855;fill:#000;fill-opacity:1;fill-rule:evenodd;stroke:none;stroke-width:1.88976;stroke-miterlimit:10;stroke-dasharray:none;stroke-opacity:1"><tspan x="452.541" y="386.384" style="text-align:center;text-anchor:middle">joue</tspan></text><path d="m159.246 231.77 255.07 145.812" style="opacity:.669;fill:none;stroke:#4232a9;stroke-width:1.999;stroke-linejoin:round;stroke-dasharray:none;stroke-opacity:.501961;marker-start:url(#b)"/><text xml:space="preserve" x="492.431" y="456.287" style="font-style:normal;font-variant:normal;font-weight:400;font-stretch:normal;font-size:26.6667px;font-family:Calibri;-inkscape-font-specification:Calibri;text-align:start;writing-mode:lr-tb;direction:ltr;text-anchor:start;clip-rule:evenodd;opacity:.66855;fill:#000;fill-opacity:1;fill-rule:evenodd;stroke:none;stroke-width:1.88976;stroke-miterlimit:10;stroke-dasharray:none;stroke-opacity:1"><tspan x="492.431" y="456.287" style="text-align:center;text-anchor:middle">épaule</tspan></text><g fill="none" stroke="#000" stroke-linejoin="round" stroke-width="3"><path stroke-width="1.40709" d="m271.645 390.54 52.57-66.868 26.885-203.34L101.477.704 32.204 61.048l29.551 206.743M351.1 120.332l-63.355 72.1"/><path stroke-width="1.40709" d="m32.204 61.048 255.54 131.384-16.1 198.109Q166.702 329.165 61.756 267.79M61.751 267.76.704 330.084 68.919 641.64M324.124 638.64l72.935-364.132q-31.028-16.215-62.055-32.432M232.419 640.674l8.105-161.464"/><path stroke-width="1.40709" d="M397.059 274.508 240.524 479.21.704 330.083"/></g><path d="m306.464 370.858 137.12 77.873" style="opacity:.669;fill:none;stroke:#4232a9;stroke-width:1.999;stroke-linejoin:round;stroke-dasharray:none;stroke-opacity:.501961;marker-start:url(#c)"/></svg>