<svg xmlns="http://www.w3.org/2000/svg" xml:space="preserve" width="1200" height="646.807"><defs><marker id="a" markerHeight="1" markerWidth="1" orient="auto" preserveAspectRatio="xMidYMid" refX="0" refY="0" style="overflow:visible" viewBox="0 0 1 1"><path d="M5 0c0 2.76-2.24 5-5 5s-5-2.24-5-5 2.3-5 5-5c2.76 0 5 2.24 5 5" style="fill:context-stroke;fill-rule:evenodd;stroke:none" transform="scale(.5)"/></marker><marker id="b" markerHeight="1" markerWidth="1" orient="auto" preserveAspectRatio="xMidYMid" refX="0" refY="0" style="overflow:visible" viewBox="0 0 1 1"><path d="M5 0c0 2.76-2.24 5-5 5s-5-2.24-5-5 2.3-5 5-5c2.76 0 5 2.24 5 5" style="fill:context-stroke;fill-rule:evenodd;stroke:none" transform="scale(.5)"/></marker><marker id="e" markerHeight="1" markerWidth="1" orient="auto" preserveAspectRatio="xMidYMid" refX="0" refY="0" style="overflow:visible" viewBox="0 0 1 1"><path d="M5 0c0 2.76-2.24 5-5 5s-5-2.24-5-5 2.3-5 5-5c2.76 0 5 2.24 5 5" style="fill:context-stroke;fill-rule:evenodd;stroke:none" transform="scale(.5)"/></marker><marker id="c" markerHeight="1" markerWidth="1" orient="auto" preserveAspectRatio="xMidYMid" refX="0" refY="0" style="overflow:visible" viewBox="0 0 1 1"><path d="M5 0c0 2.76-2.24 5-5 5s-5-2.24-5-5 2.3-5 5-5c2.76 0 5 2.24 5 5" style="fill:context-stroke;fill-rule:evenodd;stroke:none" transform="scale(.5)"/></marker><marker id="d" markerHeight="1" markerWidth="1" orient="auto" preserveAspectRatio="xMidYMid" refX="0" refY="0" style="overflow:visible" viewBox="0 0 1 1"><path d="M5 0c0 2.76-2.24 5-5 5s-5-2.24-5-5 2.3-5 5-5c2.76 0 5 2.24 5 5" style="fill:context-stroke;fill-rule:evenodd;stroke:none" transform="scale(.5)"/></marker></defs><text xml:space="preserve" x="13.055" y="147.076" style="font-style:normal;font-variant:normal;font-weight:400;font-stretch:normal;font-size:26.6667px;font-family:Calibri;-inkscape-font-specification:Calibri;text-align:start;writing-mode:lr-tb;direction:ltr;text-anchor:start;clip-rule:evenodd;opacity:.66855;fill:#000;fill-opacity:1;fill-rule:evenodd;stroke:none;stroke-width:1.88976;stroke-miterlimit:10;stroke-dasharray:none;stroke-opacity:1" transform="rotate(-1.076)"><tspan x="13.055" y="147.076">Tenon en demi-queue </tspan><tspan x="13.055" y="180.409">d&apos;aronde</tspan></text><text xml:space="preserve" x="366.053" y="288.968" style="font-style:normal;font-variant:normal;font-weight:400;font-stretch:normal;font-size:26.6667px;font-family:Calibri;-inkscape-font-specification:Calibri;text-align:start;writing-mode:lr-tb;direction:ltr;text-anchor:start;clip-rule:evenodd;opacity:.66855;fill:#000;fill-opacity:1;fill-rule:evenodd;stroke:none;stroke-width:1.88976;stroke-miterlimit:10;stroke-dasharray:none;stroke-opacity:1" transform="rotate(.945)"><tspan x="366.053" y="288.968">Mortaise en</tspan><tspan x="366.053" y="322.301">demi-queue</tspan><tspan x="366.053" y="355.634">d&apos;aronde</tspan></text><text xml:space="preserve" x="762.89" y="166.298" style="font-style:normal;font-variant:normal;font-weight:400;font-stretch:normal;font-size:20.4046px;font-family:Calibri;-inkscape-font-specification:Calibri;text-align:start;writing-mode:lr-tb;direction:ltr;text-anchor:start;clip-rule:evenodd;opacity:.66855;fill:#000;fill-opacity:1;fill-rule:evenodd;stroke:none;stroke-width:1.8075;stroke-miterlimit:10;stroke-dasharray:none;stroke-opacity:1" transform="rotate(13.752)"><tspan x="762.89" y="166.298" style="font-size:20.4046px;stroke-width:1.8075">Tenon inséré </tspan><tspan x="762.89" y="191.804" style="font-size:20.4046px;stroke-width:1.8075">mais &quot;l&apos;aile&quot; de</tspan><tspan x="762.89" y="217.31" style="font-size:20.4046px;stroke-width:1.8075">la queue d&apos;aronde</tspan><tspan x="762.89" y="242.815" style="font-size:20.4046px;stroke-width:1.8075">n&apos;est pas plaquée à</tspan><tspan x="762.89" y="268.321" style="font-size:20.4046px;stroke-width:1.8075"> gauche</tspan></text><path d="M252.28 275.8 133.956 167.133" style="opacity:.669;fill:none;stroke:#4232a9;stroke-width:1.999;stroke-linejoin:round;stroke-dasharray:none;stroke-opacity:.501961;marker-start:url(#a)"/><path d="m716.538 138.14 51.89 175.926" style="opacity:.669;fill:none;stroke:#4232a9;stroke-width:1.999;stroke-linejoin:round;stroke-dasharray:none;stroke-opacity:.501961;marker-start:url(#b)"/><path d="m983.28 344.532 51.89 175.926" style="opacity:.669;fill:none;stroke:#4232a9;stroke-width:1.999;stroke-linejoin:round;stroke-dasharray:none;stroke-opacity:.501961;marker-start:url(#c)"/><text xml:space="preserve" x="1140.483" y="266.818" style="font-style:normal;font-variant:normal;font-weight:400;font-stretch:normal;font-size:21.3333px;font-family:Calibri;-inkscape-font-specification:Calibri;text-align:start;writing-mode:lr-tb;direction:ltr;text-anchor:start;clip-rule:evenodd;opacity:.66855;fill:#000;fill-opacity:1;fill-rule:evenodd;stroke:none;stroke-width:1.88976;stroke-miterlimit:10;stroke-dasharray:none;stroke-opacity:1" transform="rotate(13.752)"><tspan x="1140.483" y="266.818" style="font-size:21.3333px">Tenon plaqué à</tspan><tspan x="1140.483" y="293.485" style="font-size:21.3333px"> gauche avec </tspan><tspan x="1140.483" y="320.151" style="font-size:21.3333px">l&apos;ajout d&apos;une cale </tspan><tspan x="1140.483" y="346.818" style="font-size:21.3333px">pour qu&apos;il le reste</tspan></text><path d="m1069.24 307.713 18.259 90.857" style="opacity:.669;fill:none;stroke:#4232a9;stroke-width:1.999;stroke-linejoin:round;stroke-dasharray:none;stroke-opacity:.501961;marker-start:url(#d)"/><text xml:space="preserve" x="1143.745" y="159.883" style="font-style:normal;font-variant:normal;font-weight:400;font-stretch:normal;font-size:21.3333px;font-family:Calibri;-inkscape-font-specification:Calibri;text-align:start;writing-mode:lr-tb;direction:ltr;text-anchor:start;clip-rule:evenodd;opacity:.66855;fill:#000;fill-opacity:1;fill-rule:evenodd;stroke:none;stroke-width:1.88976;stroke-miterlimit:10;stroke-dasharray:none;stroke-opacity:1" transform="rotate(13.752)"><tspan x="1143.745" y="159.883" style="font-size:21.3333px">Cale</tspan></text><path d="m322.813 104.828 125.372 138.563-.765 27.697" style="opacity:.669;fill:none;stroke:#4232a9;stroke-width:1.999;stroke-linejoin:round;stroke-dasharray:none;stroke-opacity:.501961;marker-start:url(#e)"/><g fill="none" stroke-linejoin="round" stroke-width="3" style="stroke:#000;stroke-width:3.57433;stroke-dasharray:none;stroke-opacity:1"><path d="m-103.829 161.268 500.616 120.566M600.229 293.1l-707.086-170.06M622.791 324.476l-243.627-58.649-18.761-17.041 251.472 60.51" style="stroke:#000;stroke-width:3.57433;stroke-dasharray:none;stroke-opacity:1" transform="matrix(.55955 0 0 .55955 59.988 -51.548)"/><path d="m340.389 230.606-4.336-136.982 297.427 71.183q-16.625 64.147-33.251 128.293" style="stroke:#000;stroke-width:3.57433;stroke-dasharray:3.57433,3.57433;stroke-dashoffset:0;stroke-opacity:1" transform="matrix(.55955 0 0 .55955 59.988 -51.548)"/><path d="m633.043 338.733 287.974 69.354M932.9 373.11 600.229 293.1M611.875 309.296l10.916 15.18" style="stroke:#000;stroke-width:3.57433;stroke-dasharray:none;stroke-opacity:1" transform="matrix(.55955 0 0 .55955 59.988 -51.548)"/><path d="m1857.941 595.591-266.51-64.098c-3.54-46.654-7.084-93.308-10.624-139.962 101.626 24.324 203.254 48.644 304.88 72.968z" style="stroke:#000;stroke-width:3.57433;stroke-dasharray:3.57433,3.57433;stroke-dashoffset:0;stroke-opacity:1" transform="matrix(.55955 0 0 .55955 59.988 -51.548)"/><path d="m396.787 281.834 236.256 56.899" style="stroke:#000;stroke-width:3.57433;stroke-dasharray:none;stroke-opacity:1" transform="matrix(.55955 0 0 .55955 59.988 -51.548)"/><path d="M1196.405 436.486q15.328-64.809 30.655-129.617c-100.487-24.048-200.973-48.1-301.46-72.148l7.298 138.389" style="stroke:#000;stroke-width:3.57433;stroke-dasharray:3.57433,3.57433;stroke-dashoffset:0;stroke-opacity:1" transform="matrix(.55955 0 0 .55955 59.988 -51.548)"/><path d="M1196.405 436.486 932.9 373.11M1828.568 602.062l-2.643-.636M1196.405 436.486q197.513 47.503 395.026 95.007M341.155 1245.176l146.189-563.119-14.978-3.657" style="stroke:#000;stroke-width:3.57433;stroke-dasharray:none;stroke-opacity:1" transform="matrix(.55955 0 0 .55955 59.988 -51.548)"/><path d="M487.344 682.057c-4.94-1.252-10.292-2.253-14.978-3.657l32.098-123.372c-7.63-3.842-14.859-8.75-23.51-9.882l-223.642-54.331 5.987 136.814M456.341 674.752l-17.078-4.023M176.27 606.529l262.993 64.2-149.22 570.818M472.335 678.521l-15.994-3.769" style="stroke:#000;stroke-width:3.57433;stroke-dasharray:none;stroke-opacity:1" transform="matrix(.55955 0 0 .55955 59.988 -51.548)"/><path d="M263.288 627.362c-28.974-7.078-58.014-13.88-87.018-20.833Q89.847 925.011 3.422 1243.493M489.592 547.245c-11.085 42.502-22.166 85.005-33.251 127.507l-193.042-47.123M1000.562 1245.757l191.055-807.24q-131.265-31.576-262.531-63.148l-213.996 867.7M1655.579 1244.478q70.634-330.191 141.267-660.382l-265.269-63.806q-26.259 12.548-52.519 25.095-79.202 351.18-158.406 702.359M1531.577 520.29l-162.505 725.91" style="stroke:#000;stroke-width:3.57433;stroke-dasharray:none;stroke-opacity:1" transform="matrix(.55955 0 0 .55955 59.988 -51.548)"/><path d="M1765.65 729.929c3.17.664 6.286 2.005 9.567 1.293 7.825-.598 15.65-1.192 23.475-1.791l27.233-128.005M1798.692 729.431l-31.316-7.571M378.748 253.2l.416 12.627M1483.097 543.456l-299.259-72.072M1825.653 602.704l2.915-.642M1801.075 595.446l-6.331-1.523" style="stroke:#000;stroke-width:3.57433;stroke-dasharray:none;stroke-opacity:1" transform="matrix(.55955 0 0 .55955 59.988 -51.548)"/></g><path d="m611.45.96 590.632 139.927M948.563 245.116l251.415 60.805M1082.77 285.976l-16.643-4.076M1078.524 299.222l120.935 29.804" style="opacity:1;fill:none;stroke:#000;stroke-width:2;stroke-linejoin:round;stroke-dasharray:none;stroke-opacity:1"/></svg>