<svg xmlns="http://www.w3.org/2000/svg" xml:space="preserve" width="1049.323" height="570.986"><defs><marker id="a" markerHeight="1" markerWidth="1" orient="auto" preserveAspectRatio="xMidYMid" refX="0" refY="0" style="overflow:visible" viewBox="0 0 1 1"><path d="M5 0c0 2.76-2.24 5-5 5s-5-2.24-5-5 2.3-5 5-5c2.76 0 5 2.24 5 5" style="fill:context-stroke;fill-rule:evenodd;stroke:none" transform="scale(.5)"/></marker><marker id="b" markerHeight="1" markerWidth="1" orient="auto" preserveAspectRatio="xMidYMid" refX="0" refY="0" style="overflow:visible" viewBox="0 0 1 1"><path d="M5 0c0 2.76-2.24 5-5 5s-5-2.24-5-5 2.3-5 5-5c2.76 0 5 2.24 5 5" style="fill:context-stroke;fill-rule:evenodd;stroke:none" transform="scale(.5)"/></marker></defs><text xml:space="preserve" x="73.999" y="48.94" style="font-style:normal;font-variant:normal;font-weight:400;font-stretch:normal;font-size:26.6667px;font-family:Calibri;-inkscape-font-specification:Calibri;text-align:start;writing-mode:lr-tb;direction:ltr;text-anchor:start;clip-rule:evenodd;opacity:.66855;fill:#000;fill-opacity:1;fill-rule:evenodd;stroke:none;stroke-width:1.88976;stroke-miterlimit:10;stroke-dasharray:none;stroke-opacity:1"><tspan x="73.999" y="48.94">Enfouchement simple</tspan></text><path d="m583.51 209.173.784 111.609" style="opacity:.669;fill:none;stroke:#4232a9;stroke-width:1.999;stroke-linejoin:round;stroke-dasharray:none;stroke-opacity:.501961;marker-start:url(#a)"/><path d="M614.644 122.53 327.916 40.591" style="opacity:.669;fill:none;stroke:#4232a9;stroke-width:1.999;stroke-linejoin:round;stroke-dasharray:none;stroke-opacity:.501961;marker-start:url(#b)"/><text xml:space="preserve" x="418.619" y="427.976" style="font-style:normal;font-variant:normal;font-weight:400;font-stretch:normal;font-size:26.6667px;font-family:Calibri;-inkscape-font-specification:Calibri;text-align:start;writing-mode:lr-tb;direction:ltr;text-anchor:start;clip-rule:evenodd;opacity:.66855;fill:#000;fill-opacity:1;fill-rule:evenodd;stroke:none;stroke-width:1.88976;stroke-miterlimit:10;stroke-dasharray:none;stroke-opacity:1" transform="translate(239.682 -64.25)"><tspan x="418.619" y="427.976" style="text-align:center;text-anchor:middle">Enture par enfourchement simple</tspan></text><g fill="none" stroke="#000" stroke-linejoin="round" stroke-width="3"><path stroke-width="1.2474" d="m375.727 219.395-4.095-86.486-104.049-34.666Q137.248 111.196 6.911 124.148"/><path stroke-width="1.2474" d="m6.399 483.244 377.017-101.44-3.765-79.518 204.808-45.64q.185-36.912.373-73.822l-121.386-37.497-90.625 12.641M3.207 178.993l368.425-46.084M375.727 219.395l209.103-36.57M675.47 94.904 546.176 70.558M1049.027 20.585l-502.85 49.973.283 63.667 127.044 33.634 146.843-25.744"/><path stroke-width="1.2474" d="m673.504 167.86 1.965-72.956 371.836-46.51M563.59 261.296l106.225 43.45L1049.454 202.6M669.815 304.746l1.839-68.24M816.455 204.307l-144.801 32.198-86.947-29.298"/><path stroke-width="1.2474" d="m820.347 142.115-3.892 62.192-131.174-34.562-100.475 17.886M685.28 169.745l.12-3.971"/></g></svg>