<svg xmlns="http://www.w3.org/2000/svg" xml:space="preserve" width="1049.323" height="570.986"><defs><marker id="a" markerHeight="1" markerWidth="1" orient="auto" preserveAspectRatio="xMidYMid" refX="0" refY="0" style="overflow:visible" viewBox="0 0 1 1"><path d="M5 0c0 2.76-2.24 5-5 5s-5-2.24-5-5 2.3-5 5-5c2.76 0 5 2.24 5 5" style="fill:context-stroke;fill-rule:evenodd;stroke:none" transform="scale(.5)"/></marker><marker id="b" markerHeight="1" markerWidth="1" orient="auto" preserveAspectRatio="xMidYMid" refX="0" refY="0" style="overflow:visible" viewBox="0 0 1 1"><path d="M5 0c0 2.76-2.24 5-5 5s-5-2.24-5-5 2.3-5 5-5c2.76 0 5 2.24 5 5" style="fill:context-stroke;fill-rule:evenodd;stroke:none" transform="scale(.5)"/></marker><marker id="c" markerHeight="1" markerWidth="1" orient="auto" preserveAspectRatio="xMidYMid" refX="0" refY="0" style="overflow:visible" viewBox="0 0 1 1"><path d="M5 0c0 2.76-2.24 5-5 5s-5-2.24-5-5 2.3-5 5-5c2.76 0 5 2.24 5 5" style="fill:context-stroke;fill-rule:evenodd;stroke:none" transform="scale(.5)"/></marker></defs><text xml:space="preserve" x="14.97" y="153.761" style="font-style:normal;font-variant:normal;font-weight:400;font-stretch:normal;font-size:26.6667px;font-family:Calibri;-inkscape-font-specification:Calibri;text-align:start;writing-mode:lr-tb;direction:ltr;text-anchor:start;clip-rule:evenodd;opacity:.66855;fill:#000;fill-opacity:1;fill-rule:evenodd;stroke:none;stroke-width:1.88976;stroke-miterlimit:10;stroke-dasharray:none;stroke-opacity:1" transform="rotate(-10.853)"><tspan x="14.97" y="153.761">Coupe à sifflet</tspan></text><text xml:space="preserve" x="71.994" y="249.113" style="font-style:normal;font-variant:normal;font-weight:400;font-stretch:normal;font-size:26.6667px;font-family:Calibri;-inkscape-font-specification:Calibri;text-align:start;writing-mode:lr-tb;direction:ltr;text-anchor:start;clip-rule:evenodd;opacity:.66855;fill:#000;fill-opacity:1;fill-rule:evenodd;stroke:none;stroke-width:1.88976;stroke-miterlimit:10;stroke-dasharray:none;stroke-opacity:1" transform="rotate(-12.617)"><tspan x="71.994" y="249.113">Coupe à sifflet désabouté</tspan></text><text xml:space="preserve" x="137.12" y="360.554" style="font-style:normal;font-variant:normal;font-weight:400;font-stretch:normal;font-size:26.6667px;font-family:Calibri;-inkscape-font-specification:Calibri;text-align:start;writing-mode:lr-tb;direction:ltr;text-anchor:start;clip-rule:evenodd;opacity:.66855;fill:#000;fill-opacity:1;fill-rule:evenodd;stroke:none;stroke-width:1.88976;stroke-miterlimit:10;stroke-dasharray:none;stroke-opacity:1" transform="rotate(-13.707)"><tspan x="137.12" y="360.554">Coupe à sifflet désabouté en biais</tspan></text><text xml:space="preserve" x="204.294" y="514.11" style="font-style:normal;font-variant:normal;font-weight:400;font-stretch:normal;font-size:26.6667px;font-family:Calibri;-inkscape-font-specification:Calibri;text-align:start;writing-mode:lr-tb;direction:ltr;text-anchor:start;clip-rule:evenodd;opacity:.66855;fill:#000;fill-opacity:1;fill-rule:evenodd;stroke:none;stroke-width:1.88976;stroke-miterlimit:10;stroke-dasharray:none;stroke-opacity:1" transform="rotate(-16.16)"><tspan x="204.294" y="514.11">Coupe à sifflet désabouté avec crochets</tspan></text><path d="m410.655 59.888-96.392 17.646" style="opacity:.669;fill:none;stroke:#4232a9;stroke-width:1.999;stroke-linejoin:round;stroke-dasharray:none;stroke-opacity:.501961;marker-start:url(#a)"/><path d="m884.596 437.525.784-75.514" style="opacity:.669;fill:none;stroke:#4232a9;stroke-width:1.999;stroke-linejoin:round;stroke-dasharray:none;stroke-opacity:.501961;marker-start:url(#b)"/><g fill="none" stroke="#000" stroke-linejoin="round" stroke-width="3"><path stroke-width="1.51026" d="M328.203 31.281c-6.85-1.36-13.684 1.584-20.527 2.193L26.508 80.731M344.059 49.166l-19.677-18.5M25.626 104.823 344.06 49.166q71.56 11.054 143.117 22.106"/><path stroke-width="1.51026" d="m499.313 1.265-172.25 28.95 19.75 18.47 142.835 22.117M346.813 48.685 617.828 1.316M862.19.04 390.586 89.62l.107 2.072"/><path stroke-width="1.51026" d="M390.587 89.619q12.17 11.382 24.342 22.763M415.435 124.254c.686-4.882-3.57-13.647 4.357-12.837Q658.794 63.96 897.795 16.506"/><path stroke-width="1.51026" d="m890.227 68 7.568-51.494L862.19.04M582.109 133.35c2.944 2.602 7.254-.835 10.783-.816Q741.559 100.268 890.227 68M413.552 122.46c1.276 2.115 3.481 1.892 5.643 1.778l164.735-.686"/><path stroke-width="1.51026" d="M583.93 123.552q-.142 5.494-.283 10.989M413.645 124.616c-.835-5.364 1.534-12.2-4.187-15.321q-10.309-9.673-20.619-19.344L27.798 158.529M27.733 255.196 582.07 134.883c-.197-3.679.781-8.01-.155-11.323M27.941 189.221 413.13 112.74M582.347 123.89l-168.702.726M976.242 52.782 482.197 160.661l-.639.789-.361.446M482.197 160.66l31.146 28.513M500.37 205.112c4.814-5.166 8.583-12.013 14.02-16.18l505.2-116.104M1019.59 72.828q-21.676-10.022-43.348-20.046"/><path stroke-width="1.51026" d="M680.596 209.622c15.421-1.871 30.566-7.385 45.887-10.643l282.068-70.605 10.228-55.685M499.475 204.26c1.636 1.797 4.522.231 6.702.565l187.396-9.25M693.573 195.575l-12.155 14.684M498.408 205.57l12.98-15.948-31.086-28.547Q254.06 210.476 27.817 259.879"/><path stroke-width="1.51026" d="m27.89 373.845 651.826-163.16c3.672-4.945 9.33-10.222 11.742-15.006M26.812 300.986l484.576-111.364M691.876 195.993l-193.468 9.578M1018.572 142.495l-434.38 111.534M584.191 254.03l40.524 37.096M806.424 292.907l-83.52-1.788-7.8 15.37q-45.515-.625-91.031-1.252c.6-4.59-.283-10.367 1.188-14.26l392.84-107.15M804.812 305.82l212.884-62.935M806.424 292.907l-1.612 12.913M69.394 463.912l-15.666-73.678c5.973 17.434 12.12 34.82 17.985 52.283l15.783 75.365zM625.261 290.977l-40.541-37.083-.529.135"/><path stroke-width="1.51026" d="m87.496 517.882 717.783-212.2 1.615-12.912M71.603 441.992 625.26 290.977l-.645 14.11M806.894 292.77l-83.487-1.793M723.33 291.128l-7.722 15.218-90.992-1.259M1017.652 283.98l-283.68 88.386-.385.458-.283.337"/><path stroke-width="1.51026" d="M733.973 372.366q27.71 24.844 55.422 49.688M771.728 442.86c6.112-6.912 11.793-14.46 18.174-20.976l229.314-76.92M951.597 434.692c.686.722 1.651-.292 2.47-.392l64.257-23.196"/><path stroke-width="1.51026" d="M771.247 442.412c2.158.967 5.051-.09 7.5.074l74.308-3.959c2.847-5.844 5.638-11.775 8.52-17.566l106.75-4.822M968.325 416.14l-16.292 18.894M770.526 443.261l17.672-20.814-55.385-49.727L122.42 562.933"/><path stroke-width="1.51026" d="m598.594 562.624 352.404-127.238 16.297-18.901-.37-.282M371.11 562.377q208.546-69.964 417.088-139.93"/><path stroke-width="1.51026" d="m967.295 416.485-72.315 3.207-.49.994M865.318 447.848q3.889-8.617 7.776-17.236M905.185 429.389l-32.09 1.223-11.52-9.651"/><path stroke-width="1.51026" d="M853.47 437.67q5.925 5.088 11.848 10.178l32.06-1.515 7.807-16.944-12.105-9.852M584.191 254.03l-4.876 1.251-4.876 1.252-4.876 1.252-4.876 1.252-4.876 1.252-4.876 1.252-4.876 1.252-4.876 1.252-4.876 1.252-4.876 1.252-4.876 1.252-4.876 1.252-4.876 1.252-4.876 1.252-4.877 1.252-4.875 1.252-4.876 1.252-4.876 1.253-4.877 1.252-4.876 1.252-4.875 1.252-4.876 1.252-4.877 1.252-4.876 1.252-4.876 1.252-4.875 1.252-4.877 1.252-4.876 1.252-4.876 1.252-4.876 1.252-4.876 1.252-4.876 1.252-4.876 1.252-4.876 1.252-4.876 1.252-4.876 1.252-4.876 1.252-4.876 1.252-4.876 1.252-4.876 1.252-4.876 1.252-4.876 1.252-4.876 1.252-4.876 1.252-4.876 1.252-4.877 1.252-4.875 1.252-4.876 1.252-4.876 1.252-4.877 1.252-4.876 1.252-4.875 1.252-4.876 1.252-4.877 1.251-4.876 1.252-4.876 1.252-4.875 1.252-4.877 1.252-4.876 1.252-4.876 1.252-4.876 1.252-4.876 1.252-4.876 1.252-4.876 1.252-4.876 1.252-4.876 1.252-4.876 1.252-4.876 1.252-4.876 1.252-4.876 1.252-4.876 1.252-4.876 1.252-4.876 1.252-4.876 1.252-4.876 1.252-4.876 1.252-4.877 1.252-4.875 1.252-4.876 1.252-4.876 1.252-4.877 1.252-4.876 1.252-4.875 1.252-4.876 1.252-4.877 1.252-4.876 1.252-4.876 1.252-4.875 1.252-4.877 1.252-4.876 1.252-4.876 1.252-4.876 1.252-4.876 1.252-4.876 1.252-4.876 1.252-4.876 1.252-4.876 1.253-4.876 1.252-4.876 1.252-4.876 1.252-4.876 1.252-4.876 1.252-4.876 1.252-4.876 1.252-4.876 1.252-4.876 1.252-4.876 1.252-8.728 2.24M792.583 13.262l1.06-10.013"/><path stroke-width="1.51026" d="M854.65 438.683q-42.062 2.29-84.124 4.578"/></g><text xml:space="preserve" x="317.966" y="678.21" style="font-style:normal;font-variant:normal;font-weight:400;font-stretch:normal;font-size:26.6667px;font-family:Calibri;-inkscape-font-specification:Calibri;text-align:start;writing-mode:lr-tb;direction:ltr;text-anchor:start;clip-rule:evenodd;opacity:.66855;fill:#000;fill-opacity:1;fill-rule:evenodd;stroke:none;stroke-width:1.88976;stroke-miterlimit:10;stroke-dasharray:none;stroke-opacity:1" transform="rotate(-16.16)"><tspan x="317.966" y="678.21">Trait de jupiter</tspan></text><text xml:space="preserve" x="633.658" y="618.771" style="font-style:normal;font-variant:normal;font-weight:400;font-stretch:normal;font-size:21.3333px;font-family:Calibri;-inkscape-font-specification:Calibri;text-align:start;writing-mode:lr-tb;direction:ltr;text-anchor:start;clip-rule:evenodd;opacity:.66855;fill:#000;fill-opacity:1;fill-rule:evenodd;stroke:none;stroke-width:1.88976;stroke-miterlimit:10;stroke-dasharray:none;stroke-opacity:1" transform="rotate(-18.46)"><tspan x="633.658" y="618.771" style="font-size:21.3333px">Cale en forme de coin</tspan></text><path d="m720.641 296.662.784-46.603" style="opacity:.669;fill:none;stroke:#4232a9;stroke-width:1.999;stroke-linejoin:round;stroke-dasharray:none;stroke-opacity:.501961;marker-start:url(#c)"/><text xml:space="preserve" x="574.892" y="421.858" style="font-style:normal;font-variant:normal;font-weight:400;font-stretch:normal;font-size:21.3333px;font-family:Calibri;-inkscape-font-specification:Calibri;text-align:start;writing-mode:lr-tb;direction:ltr;text-anchor:start;clip-rule:evenodd;opacity:.66855;fill:#000;fill-opacity:1;fill-rule:evenodd;stroke:none;stroke-width:1.88976;stroke-miterlimit:10;stroke-dasharray:none;stroke-opacity:1" transform="rotate(-14.887)"><tspan x="574.892" y="421.858" style="font-size:21.3333px">Crochet</tspan></text></svg>