<svg xmlns="http://www.w3.org/2000/svg" xml:space="preserve" width="441.782" height="251.094"><defs><marker id="a" markerHeight="1" markerWidth="1" orient="auto" preserveAspectRatio="xMidYMid" refX="0" refY="0" style="overflow:visible" viewBox="0 0 1 1"><path d="M5 0c0 2.76-2.24 5-5 5s-5-2.24-5-5 2.3-5 5-5c2.76 0 5 2.24 5 5" style="fill:context-stroke;fill-rule:evenodd;stroke:none" transform="scale(.5)"/></marker><marker id="c" markerHeight="1" markerWidth="1" orient="auto" preserveAspectRatio="xMidYMid" refX="0" refY="0" style="overflow:visible" viewBox="0 0 1 1"><path d="M5 0c0 2.76-2.24 5-5 5s-5-2.24-5-5 2.3-5 5-5c2.76 0 5 2.24 5 5" style="fill:context-stroke;fill-rule:evenodd;stroke:none" transform="scale(.5)"/></marker><marker id="b" markerHeight="1" markerWidth="1" orient="auto" preserveAspectRatio="xMidYMid" refX="0" refY="0" style="overflow:visible" viewBox="0 0 1 1"><path d="M5 0c0 2.76-2.24 5-5 5s-5-2.24-5-5 2.3-5 5-5c2.76 0 5 2.24 5 5" style="fill:context-stroke;fill-rule:evenodd;stroke:none" transform="scale(.5)"/></marker><marker id="d" markerHeight="1" markerWidth="1" orient="auto" preserveAspectRatio="xMidYMid" refX="0" refY="0" style="overflow:visible" viewBox="0 0 1 1"><path d="M5 0c0 2.76-2.24 5-5 5s-5-2.24-5-5 2.3-5 5-5c2.76 0 5 2.24 5 5" style="fill:context-stroke;fill-rule:evenodd;stroke:none" transform="scale(.5)"/></marker></defs><text xml:space="preserve" x="97.873" y="57.643" style="font-style:normal;font-variant:normal;font-weight:400;font-stretch:normal;font-size:26.6667px;font-family:Calibri;-inkscape-font-specification:Calibri;text-align:start;writing-mode:lr-tb;direction:ltr;text-anchor:start;clip-rule:evenodd;opacity:.66855;fill:#000;fill-opacity:1;fill-rule:evenodd;stroke:none;stroke-width:1.88976;stroke-miterlimit:10;stroke-dasharray:none;stroke-opacity:1"><tspan x="97.873" y="57.643" style="text-align:center;text-anchor:middle">Moise</tspan></text><path d="M91.848 195.064V66.326" style="opacity:.669;fill:none;stroke:#4232a9;stroke-width:1.999;stroke-linejoin:round;stroke-dasharray:none;stroke-opacity:.501961;marker-start:url(#a)"/><text xml:space="preserve" x="403.571" y="26.628" style="font-style:normal;font-variant:normal;font-weight:400;font-stretch:normal;font-size:26.6667px;font-family:Calibri;-inkscape-font-specification:Calibri;text-align:start;writing-mode:lr-tb;direction:ltr;text-anchor:start;clip-rule:evenodd;opacity:.66855;fill:#000;fill-opacity:1;fill-rule:evenodd;stroke:none;stroke-width:1.88976;stroke-miterlimit:10;stroke-dasharray:none;stroke-opacity:1"><tspan x="403.571" y="26.628" style="text-align:center;text-anchor:middle">Moise</tspan></text><path d="M294.4 21.914 360.532 21" style="opacity:.669;fill:none;stroke:#4232a9;stroke-width:1.999;stroke-linejoin:round;stroke-dasharray:none;stroke-opacity:.501961;marker-start:url(#b)"/><text xml:space="preserve" x="358.795" y="202.9" style="font-style:normal;font-variant:normal;font-weight:400;font-stretch:normal;font-size:21.3333px;font-family:Calibri;-inkscape-font-specification:Calibri;text-align:start;writing-mode:lr-tb;direction:ltr;text-anchor:start;clip-rule:evenodd;opacity:.66855;fill:#000;fill-opacity:1;fill-rule:evenodd;stroke:none;stroke-width:1.88976;stroke-miterlimit:10;stroke-dasharray:none;stroke-opacity:1"><tspan x="358.795" y="202.9" style="font-size:21.3333px;text-align:center;text-anchor:middle">Entaille</tspan></text><path d="m233.446 110.158 86.571 87.275" style="opacity:.669;fill:none;stroke:#4232a9;stroke-width:1.999;stroke-linejoin:round;stroke-dasharray:none;stroke-opacity:.501961;marker-start:url(#c)"/><text xml:space="preserve" x="358.303" y="77.813" style="font-style:normal;font-variant:normal;font-weight:400;font-stretch:normal;font-size:21.3333px;font-family:Calibri;-inkscape-font-specification:Calibri;text-align:start;writing-mode:lr-tb;direction:ltr;text-anchor:start;clip-rule:evenodd;opacity:.66855;fill:#000;fill-opacity:1;fill-rule:evenodd;stroke:none;stroke-width:1.88976;stroke-miterlimit:10;stroke-dasharray:none;stroke-opacity:1"><tspan x="346.501" y="77.813" style="font-size:21.3333px;text-align:start;text-anchor:start"><tspan x="346.501" y="77.813" style="font-size:21.3333px;text-align:start;text-anchor:start">Entaille sur</tspan></tspan><tspan x="346.501" y="104.479" style="font-size:21.3333px;text-align:start;text-anchor:start">la moise</tspan></text><path d="m257.179 83.282 86.077-.079" style="opacity:.669;fill:none;stroke:#4232a9;stroke-width:1.999;stroke-linejoin:round;stroke-dasharray:none;stroke-opacity:.501961;marker-start:url(#d)"/><g fill="none" stroke="#000" stroke-linejoin="round" stroke-width="3"><path stroke-width=".5895900000000001" d="M229.935 100.874c5.187-.036.797.124 6.516-.035 4.417-10.965 11.966-26.466 15.85-37.538l-.199-62.082M185.922 98.489c.135.007.408.04.408.05M169.922 250.977l25.386-58.708-5.495-93.541M189.813 98.728l-96.097 151.7M178.694 47.678.221 250.873M279.476 250.337 315.403 2.462c-1.68 28.779-1.814 57.683-5.861 86.27l-18.561 162.05M283.399 1.486c-8.076 21.249-16.925 42.35-24.515 63.69l-.02 8.504M244.34 101.685c-17.717 45.45-39.876 102.253-57.593 147.704"/><path stroke-width=".5895900000000001" d="M258.886 64.37c3.398.595.003.107 3.287.616-3.534 9.5-10.277 27.418-13.811 36.917l-4.029-.288M175.574.138l6.441 98.136 7.79.59M189.124 206.572l2.065 31.466M185.904 98.516l.018-.027M230.762 136.519l-.827-35.645M234.8.005l1.754 101.226M247.03 101.83l-.2-24.82"/></g></svg>