<svg xmlns="http://www.w3.org/2000/svg" xml:space="preserve" width="510.989" height="334.836"><defs><marker id="a" markerHeight="1" markerWidth="1" orient="auto" preserveAspectRatio="xMidYMid" refX="0" refY="0" style="overflow:visible" viewBox="0 0 1 1"><path d="M5 0c0 2.76-2.24 5-5 5s-5-2.24-5-5 2.3-5 5-5c2.76 0 5 2.24 5 5" style="fill:context-stroke;fill-rule:evenodd;stroke:none" transform="scale(.5)"/></marker></defs><text xml:space="preserve" x="103.824" y="276.002" style="font-style:normal;font-variant:normal;font-weight:400;font-stretch:normal;font-size:26.6667px;font-family:Calibri;-inkscape-font-specification:Calibri;text-align:start;writing-mode:lr-tb;direction:ltr;text-anchor:start;clip-rule:evenodd;opacity:.66855;fill:#000;fill-opacity:1;fill-rule:evenodd;stroke:none;stroke-width:1.88976;stroke-miterlimit:10;stroke-dasharray:none;stroke-opacity:1"><tspan x="103.824" y="276.002" style="text-align:center;text-anchor:middle">Paume simple</tspan></text><path d="m79.566 160.414-.308 95.094" style="opacity:.669;fill:none;stroke:#4232a9;stroke-width:1.999;stroke-linejoin:round;stroke-dasharray:none;stroke-opacity:.501961;marker-start:url(#a)"/><g fill="none" stroke="#000" stroke-linejoin="round" stroke-width="3"><path stroke-width=".56334" d="m248.027 59.026 22.574-16.847M13.826 233.81l53.025-39.573M62.659 163.576 58.2 130.965l-28.316-7.171M58.2 130.965.141 164.668M169.89 66.36c-19.353 11.234-45.386 27.24-64.739 38.475m163.292-98.45c-19.353 11.235-53.736 32.728-73.089 43.963M244.43.254 3.185 117.033"/><path stroke-width=".56334" d="m195.752 75.056-24.598 16.36-.739-25.593-23.36-3.886M103.698 104.553 77.169 98.83l-47.285 24.963M195.726 70.975q.014 2.04.026 4.081L173.607 47.92l21.994 3.282.115 18.115M173.607 47.92l-26.552 14.017"/><path stroke-width=".56334" d="M510.65 192.317 77.17 98.831l-47.286 24.963M29.884 123.794l480.353 121.641M62.659 163.576l4.192 30.66 444.053 140.332M510.365 98.177 218.509 54.621l-23.673 15.263 25.136 30.806-.4 25.32 290.214 61.677M194.836 69.884l315.013 52.39M168.343 118.494l41.118-30.686"/></g></svg>