<svg xmlns="http://www.w3.org/2000/svg" xml:space="preserve" width="618.054" height="473.933"><defs><marker id="a" markerHeight="1" markerWidth="1" orient="auto" preserveAspectRatio="xMidYMid" refX="0" refY="0" style="overflow:visible" viewBox="0 0 1 1"><path d="M5 0c0 2.76-2.24 5-5 5s-5-2.24-5-5 2.3-5 5-5c2.76 0 5 2.24 5 5" style="fill:context-stroke;fill-rule:evenodd;stroke:none" transform="scale(.5)"/></marker></defs><text xml:space="preserve" x="536.878" y="71.84" style="font-style:normal;font-variant:normal;font-weight:400;font-stretch:normal;font-size:26.6667px;font-family:Calibri;-inkscape-font-specification:Calibri;text-align:start;writing-mode:lr-tb;direction:ltr;text-anchor:start;clip-rule:evenodd;opacity:.66855;fill:#000;fill-opacity:1;fill-rule:evenodd;stroke:none;stroke-width:1.88976;stroke-miterlimit:10;stroke-dasharray:none;stroke-opacity:1"><tspan x="536.878" y="71.84" style="text-align:center;text-anchor:middle">About</tspan></text><path d="M373.67 119.932 495.6 63.744" style="opacity:.669;fill:none;stroke:#4232a9;stroke-width:1.999;stroke-linejoin:round;stroke-dasharray:none;stroke-opacity:.501961;marker-start:url(#a)"/><path d="m617.785 436.396-189.88 36.555M352.185 216.29.521 285.121M615.024 165.598l-127.377 24.635" style="opacity:.669;fill:none;stroke:#000;stroke-width:2;stroke-linejoin:round;stroke-dasharray:none;stroke-opacity:1"/><g fill="none" stroke="#000" stroke-linejoin="round" stroke-width="3"><path d="M-1149.561 521.977 186.74 400.403M1368.748 447.678l-2474.103 320.634M3581.67 96.47c-484.955 43.689-1361.218 121.906-1846.172 165.594M3578.074 170.026c-678.948 87.41-1273.495 159.478-1952.442 246.888-44.864 59.61-89.52 127.321-134.512 181.996l-122.372-151.232" style="stroke-width:15.3455;stroke-dasharray:none" transform="translate(151.744 373.274)scale(.13033)"/><path d="M1491.896 599.869c295.67-409.943 591.289-820.061 886.932-1230.064M1830.901-1494.719C1283.576-863.154 730.413-230.448 186.74 400.403q156.765 79.413 313.529 158.827M500.269 559.23l1686.887-2049.242" style="stroke-width:15.3455;stroke-dasharray:none" transform="translate(151.744 373.274)scale(.13033)"/><path stroke-width=".39099" d="m329.566 431.562.1.12.226.271M329.566 431.562l-.386-.094M329.566 431.562 216.945 446.16M329.395 431.44l.383.094M346.084 451.331l.105.127M363.413 427.57l.202.041M362.942 427.049l.012.002"/></g><g fill="none" stroke="#000" stroke-linejoin="round" stroke-width="3"><path d="M-1200.22 532.109c702.556-63.963 1404.613-133.267 2107.168-197.23q230.9 56.399 461.8 112.799c-850.922 110.486-1699.17 240.541-2550.09 351.03M3190.36 130.997 1735.499 262.064M3247.074 195.208c-678.947 87.41-942.495 134.296-1621.442 221.706q-66.671 91.72-133.344 183.44l-123.54-152.676" style="stroke-width:14.3284;stroke-dasharray:none" transform="matrix(.13958 0 0 .13958 166.15 83.11)"/><path stroke-width=".41874" d="m324.407 127.256 1.368.28 1.367.28 1.368.28 1.367.28 1.368.279 1.367.28 1.368.28 1.367.28 1.368.28 1.367.279 1.368.28 1.367.28 1.368.28 1.367.28 1.368.279 1.367.28 1.368.28 1.367.28 1.368.28 1.367.28 1.368.279 1.367.28 1.368.28 1.367.28 1.368.28 1.367.28 1.368.279 1.367.28 1.368.28 1.367.28 1.368.28 1.367.279 1.368.28 1.367.28 1.368.28 1.367.28 1.368.28 1.367.279 1.368.28 1.367.28 1.368.28 1.367.28 1.368.28 1.367.279 1.368.28 1.367.28 1.368.28 1.367.28 1.368.279 1.645.337"/><path stroke-width=".41874" d="m346.175 125.295-1.39.125-1.39.125-1.39.126-1.391.125-1.39.125-1.39.125-1.39.125-1.39.126-1.391.125-1.39.125-1.39.125-1.39.126-1.39.125-1.391.125-1.39.125-.915.083-.862 1.097-.862 1.098-.863 1.097-.862 1.098-.863 1.097-.862 1.098-.863 1.097-.774.985"/><path d="M1127.667 239.486c13.821 12.478 22.476 33.94 39.712 40.48l490.835 89.287 685.203-950.334M1037.212-580.894l-664.93 765.576q183.866 41.651 367.733 83.304" style="stroke-width:14.3284;stroke-dasharray:none" transform="matrix(.13958 0 0 .13958 166.15 83.11)"/><path d="M740.015 267.986q349.253-424.277 698.508-848.553M1541.847 209.035l116.367 160.218" style="stroke-width:14.3284;stroke-dasharray:none" transform="matrix(.13958 0 0 .13958 166.15 83.11)"/><path stroke-width=".41874" d="m381.366 112.287-.79-.095"/><path d="m1541.847 209.035-801.834 58.951" style="stroke-width:14.3284;stroke-dasharray:none" transform="matrix(.13958 0 0 .13958 166.15 83.11)"/><path stroke-width=".41874" d="m414.007 109.688.042.004"/></g></svg>