<svg xmlns="http://www.w3.org/2000/svg" xml:space="preserve" width="618.054" height="473.933"><defs><marker id="a" markerHeight="1" markerWidth="1" orient="auto" preserveAspectRatio="xMidYMid" refX="0" refY="0" style="overflow:visible" viewBox="0 0 1 1"><path d="M5 0c0 2.76-2.24 5-5 5s-5-2.24-5-5 2.3-5 5-5c2.76 0 5 2.24 5 5" style="fill:context-stroke;fill-rule:evenodd;stroke:none" transform="scale(.5)"/></marker></defs><text xml:space="preserve" x="246.964" y="274.779" style="font-style:normal;font-variant:normal;font-weight:400;font-stretch:normal;font-size:26.6667px;font-family:Calibri;-inkscape-font-specification:Calibri;text-align:start;writing-mode:lr-tb;direction:ltr;text-anchor:start;clip-rule:evenodd;opacity:.66855;fill:#000;fill-opacity:1;fill-rule:evenodd;stroke:none;stroke-width:1.88976;stroke-miterlimit:10;stroke-dasharray:none;stroke-opacity:1"><tspan x="246.964" y="274.779" style="text-align:center;text-anchor:middle">About</tspan></text><path d="m256.29 132.66 1.015 119.175" style="opacity:.669;fill:none;stroke:#4232a9;stroke-width:1.999;stroke-linejoin:round;stroke-dasharray:none;stroke-opacity:.501961;marker-start:url(#a)"/><path d="m617.785 436.396-189.88 36.555" style="opacity:.669;fill:none;stroke:#000;stroke-width:2;stroke-linejoin:round;stroke-dasharray:none;stroke-opacity:1"/><g fill="none" stroke="#000" stroke-linejoin="round" stroke-width="3"><path d="M1841.038 258.914c490.726-45.794 683.57-61.98 1174.115-109.593M640.592 772.692q-2.923-105.32-5.848-210.64L285.592 401.84c-435.809 40.046-968.742 87.197-1404.55 127.244" style="stroke-width:13.4004;stroke-dasharray:none" transform="matrix(.14925 0 0 .14925 167.296 328.188)"/><path d="M634.744 562.052C37.202 641.197-520.07 722.71-1117.612 801.856M1480.858 447.678q59.158 76.337 118.315 152.676l131.358-183.439c780.825-102.714 507.662-79.39 1288.787-179.802" style="stroke-width:13.4004;stroke-dasharray:none" transform="matrix(.14925 0 0 .14925 167.296 328.188)"/><path stroke-width=".44775" d="m388.313 395.003-1.392.538-1.392.539-1.392.538-1.392.539-1.392.538-1.392.539-1.392.538-1.392.538-1.392.539-1.392.538-1.392.539-1.392.538-1.392.539-1.392.538-1.392.538-1.392.539-1.392.538-1.392.539-1.06.41-.274.106-1.392.538-1.392.538-1.392.539-1.392.538-1.392.539-1.392.538-1.392.539-1.392.538-1.392.538-1.392.539-1.392.538-1.392.539-1.392.538-1.392.539-1.392.538-1.392.538-1.392.539-1.392.538-1.392.539-1.392.538-1.392.538-1.392.539-1.392.538-1.392.539-1.391.538-1.392.538-1.393.539-1.391.538-1.392.539-1.392.538-1.392.539-1.392.538-1.392.538-1.392.539-1.392.538-1.392.539-1.392.538-1.392.539-1.392.538-1.392.538-1.392.539-1.392.538-1.392.539-1.392.538-1.392.538-1.392.539-1.392.538-1.392.539-1.392.538-1.392.539-1.392.538-1.392.538-1.392.539-1.392.538-1.392.539-1.392.538-1.392.539-1.392.538-1.392.538-1.392.539-1.392.538-1.392.539-1.392.538-1.392.539-1.392.538-1.392.538-1.392.539-1.392.538-1.392.539-1.392.538-1.58.611"/><path d="M1481.68-992.21 287.77 398.964l.257 3.994M644.87 767.726l-7.312-209.585c418.985-517.57 837.974-1035.139 1256.959-1552.71" style="stroke-width:13.4004;stroke-dasharray:none" transform="matrix(.14925 0 0 .14925 167.296 328.188)"/><path stroke-width=".44775" d="M262.451 411.49q-26.102-11.88-52.205-23.757"/><path d="M640.379 765.01c9.281 5.573 20.016-5.375 29.94-7.11l806.953-311.558.495.619" style="stroke-width:13.4004;stroke-dasharray:none" transform="matrix(.14925 0 0 .14925 167.296 328.188)"/><path stroke-width=".44775" d="m399.861 409.905 6.15 7.686"/><path d="m1730.531 416.915-1.519-.298 604.167-853.856M1399.58-1291.007l-1.52-.298 604.167-853.857" style="stroke-width:13.4004;stroke-dasharray:none" transform="matrix(.14925 0 0 .14925 167.296 328.188)"/></g><g fill="none" stroke="#000" stroke-linejoin="round" stroke-width="3"><path d="M3742.43 64.263c-484.954 43.69-1521.977 154.112-2006.931 197.801M506.61 772.692l-8.302-210.64L183.969 401.84c-444.51 40.046-1292.262 114.41-1736.771 154.455" style="stroke-width:17.1592;stroke-dasharray:none" transform="matrix(.11656 0 0 .11656 182.457 93.002)"/><path d="M498.308 562.052c-614.74 79.145-1447.88 206.823-2062.62 285.969M3747.408 154.681c-678.948 87.41-1442.828 174.823-2121.776 262.233q-66.671 91.72-133.344 183.44l-123.54-152.676-310.977-75.959" style="stroke-width:17.1592;stroke-dasharray:none" transform="matrix(.11656 0 0 .11656 182.457 93.002)"/><path d="M1368.748 447.678Q937.678 610.184 506.61 772.692M534.304 394.715c-204.265 75.627 2.22 3.794-212.77 78.35" style="stroke-width:17.1592;stroke-dasharray:none" transform="matrix(.11656 0 0 .11656 182.457 93.002)"/><path d="M1220.818-792.291 372.282 184.682l8.895 158.462L745.304 476.73l796.543-267.695" style="stroke-width:17.1592;stroke-dasharray:none" transform="matrix(.11656 0 0 .11656 182.457 93.002)"/><path d="m745.304 476.73-5.289-208.744q435.347-528.865 870.696-1057.728M740.015 267.986q-183.866-41.653-367.733-83.304M1541.847 209.035l116.367 160.218" style="stroke-width:17.1592;stroke-dasharray:none" transform="matrix(.11656 0 0 .11656 182.457 93.002)"/><path stroke-width=".34968" d="m310.884 134.6-.72.917-.72.916-.526.67"/><path d="m1189.088 327.587 9.797 2.005 9.797 2.005 9.797 2.004 9.797 2.005 9.797 2.005 9.797 2.004 9.797 2.005 9.797 2.005 9.797 2.005 9.797 2.004 9.797 2.005 9.797 2.005 9.797 2.004 9.797 2.005 9.797 2.005 9.797 2.004 9.797 2.005 9.797 2.005 9.797 2.005 9.797 2.004 9.797 2.005 9.797 2.005 9.797 2.004 9.797 2.005 9.797 2.005 9.797 2.004 9.797 2.005 9.797 2.005 9.797 2.004 9.797 2.005 9.797 2.005 9.797 2.005 9.797 2.004 9.797 2.005 9.797 2.005 9.797 2.004 9.797 2.005 9.797 2.005 9.797 2.004 9.797 2.005 9.797 2.005 9.797 2.004 9.797 2.005 9.797 2.005 5.476 1.12" style="stroke-width:17.1592;stroke-dasharray:none" transform="matrix(.11656 0 0 .11656 182.457 93.002)"/><path stroke-width=".34968" d="m332.782 128.227-1.16.105-1.162.104-1.16.105-.526.047"/></g><path d="M352.185 216.29.521 285.121M615.024 165.598l-127.377 24.635" style="opacity:.669;fill:none;stroke:#000;stroke-width:2;stroke-linejoin:round;stroke-dasharray:none;stroke-opacity:1"/></svg>