<svg xmlns="http://www.w3.org/2000/svg" xml:space="preserve" width="529.766" height="324.292"><defs><marker id="a" markerHeight="1" markerWidth="1" orient="auto" preserveAspectRatio="xMidYMid" refX="0" refY="0" style="overflow:visible" viewBox="0 0 1 1"><path d="M5 0c0 2.76-2.24 5-5 5s-5-2.24-5-5 2.3-5 5-5c2.76 0 5 2.24 5 5" style="fill:context-stroke;fill-rule:evenodd;stroke:none" transform="scale(.5)"/></marker><marker id="c" markerHeight="1" markerWidth="1" orient="auto" preserveAspectRatio="xMidYMid" refX="0" refY="0" style="overflow:visible" viewBox="0 0 1 1"><path d="M5 0c0 2.76-2.24 5-5 5s-5-2.24-5-5 2.3-5 5-5c2.76 0 5 2.24 5 5" style="fill:context-stroke;fill-rule:evenodd;stroke:none" transform="scale(.5)"/></marker><marker id="b" markerHeight="1" markerWidth="1" orient="auto" preserveAspectRatio="xMidYMid" refX="0" refY="0" style="overflow:visible" viewBox="0 0 1 1"><path d="M5 0c0 2.76-2.24 5-5 5s-5-2.24-5-5 2.3-5 5-5c2.76 0 5 2.24 5 5" style="fill:context-stroke;fill-rule:evenodd;stroke:none" transform="scale(.5)"/></marker></defs><text xml:space="preserve" x="156.223" y="53.931" style="font-style:normal;font-variant:normal;font-weight:400;font-stretch:normal;font-size:26.6667px;font-family:Calibri;-inkscape-font-specification:Calibri;text-align:start;writing-mode:lr-tb;direction:ltr;text-anchor:start;clip-rule:evenodd;opacity:.66855;fill:#000;fill-opacity:1;fill-rule:evenodd;stroke:none;stroke-width:1.88976;stroke-miterlimit:10;stroke-dasharray:none;stroke-opacity:1"><tspan x="156.223" y="53.931" style="text-align:center;text-anchor:middle">Moise</tspan></text><path d="M156.614 189.87V61.134" style="opacity:.669;fill:none;stroke:#4232a9;stroke-width:1.999;stroke-linejoin:round;stroke-dasharray:none;stroke-opacity:.501961;marker-start:url(#a)"/><text xml:space="preserve" x="445.635" y="44.137" style="font-style:normal;font-variant:normal;font-weight:400;font-stretch:normal;font-size:26.6667px;font-family:Calibri;-inkscape-font-specification:Calibri;text-align:start;writing-mode:lr-tb;direction:ltr;text-anchor:start;clip-rule:evenodd;opacity:.66855;fill:#000;fill-opacity:1;fill-rule:evenodd;stroke:none;stroke-width:1.88976;stroke-miterlimit:10;stroke-dasharray:none;stroke-opacity:1"><tspan x="445.635" y="44.137" style="text-align:center;text-anchor:middle">Moise</tspan></text><path d="m353.738 145.037 68.6-94.684" style="opacity:.669;fill:none;stroke:#4232a9;stroke-width:1.999;stroke-linejoin:round;stroke-dasharray:none;stroke-opacity:.501961;marker-start:url(#b)"/><text xml:space="preserve" x="466.991" y="227.318" style="font-style:normal;font-variant:normal;font-weight:400;font-stretch:normal;font-size:26.6667px;font-family:Calibri;-inkscape-font-specification:Calibri;text-align:start;writing-mode:lr-tb;direction:ltr;text-anchor:start;clip-rule:evenodd;opacity:.66855;fill:#000;fill-opacity:1;fill-rule:evenodd;stroke:none;stroke-width:1.88976;stroke-miterlimit:10;stroke-dasharray:none;stroke-opacity:1"><tspan x="466.991" y="227.318" style="font-size:26.6667px;text-align:center;text-anchor:middle">Entaille</tspan></text><path d="m295.745 151.357 125.065 65.066" style="opacity:.669;fill:none;stroke:#4232a9;stroke-width:1.999;stroke-linejoin:round;stroke-dasharray:none;stroke-opacity:.501961;marker-start:url(#c)"/><g fill="none" stroke="#000" stroke-linejoin="round" stroke-width="3"><path stroke-width=".59148" d="M356.313 17.526c-22.48 82.29-60.68 223.323-83.16 305.612M369.36 323.15c2.787-98.453 16.49-206.185 19.276-304.639M384.413 324.284c2.786-98.454 4.646-176.081 7.432-274.535M310.138 163.352c-4.679 16.6-10.245 33.08-14.408 49.75l.427 24.639M287.428 116.82c8.135 1.464 6.705.411 8.912-5.083 3.58-9.79 10.252-23.475 13.524-33.774l-.248-76.894M243.178 114.422c1.801 10.216 1.557 22.492 2.572 33.499l3.749 60.634-.621-.047M289.627 211.62q3.043.236 6.086.47"/><path stroke-width=".59148" d="m310.212 186.289-.074-22.937c-7.35.465 1.477-.136-5.3.256-.153-19.098-.307-51.631-.46-70.73"/><path stroke-width=".59148" d="m304.94 163.014-15.313 48.607-2.2-94.8M197.835 323.415l51.585-116.127M107.514 322.624l135.664-208.202M231.858.02l7.495 114.191 4.029.133M245.972 215.05l3.006 45.804M235.801 60.097.221 322.884M292.309 15.625l1.76 101.553"/></g></svg>