<svg xmlns="http://www.w3.org/2000/svg" xml:space="preserve" width="1049.745" height="699.344"><defs><marker id="a" markerHeight="1" markerWidth="1" orient="auto" preserveAspectRatio="xMidYMid" refX="0" refY="0" style="overflow:visible" viewBox="0 0 1 1"><path d="M5 0c0 2.76-2.24 5-5 5s-5-2.24-5-5 2.3-5 5-5c2.76 0 5 2.24 5 5" style="fill:context-stroke;fill-rule:evenodd;stroke:none" transform="scale(.5)"/></marker><marker id="c" markerHeight="1" markerWidth="1" orient="auto" preserveAspectRatio="xMidYMid" refX="0" refY="0" style="overflow:visible" viewBox="0 0 1 1"><path d="M5 0c0 2.76-2.24 5-5 5s-5-2.24-5-5 2.3-5 5-5c2.76 0 5 2.24 5 5" style="fill:context-stroke;fill-rule:evenodd;stroke:none" transform="scale(.5)"/></marker><marker id="b" markerHeight="1" markerWidth="1" orient="auto" preserveAspectRatio="xMidYMid" refX="0" refY="0" style="overflow:visible" viewBox="0 0 1 1"><path d="M5 0c0 2.76-2.24 5-5 5s-5-2.24-5-5 2.3-5 5-5c2.76 0 5 2.24 5 5" style="fill:context-stroke;fill-rule:evenodd;stroke:none" transform="scale(.5)"/></marker></defs><text xml:space="preserve" x="185.463" y="106.474" style="font-style:normal;font-variant:normal;font-weight:400;font-stretch:normal;font-size:26.6667px;font-family:Calibri;-inkscape-font-specification:Calibri;text-align:start;writing-mode:lr-tb;direction:ltr;text-anchor:start;clip-rule:evenodd;opacity:.66855;fill:#000;fill-opacity:1;fill-rule:evenodd;stroke:none;stroke-width:1.88976;stroke-miterlimit:10;stroke-dasharray:none;stroke-opacity:1"><tspan x="185.463" y="106.474" style="text-align:center;text-anchor:middle">Tenon traversant bloqué par clef</tspan></text><path d="m136.12 207.125-.903-86.119" style="opacity:.669;fill:none;stroke:#4232a9;stroke-width:1.999;stroke-linejoin:round;stroke-dasharray:none;stroke-opacity:.501961;marker-start:url(#a)"/><text xml:space="preserve" x="760.345" y="114.47" style="font-style:normal;font-variant:normal;font-weight:400;font-stretch:normal;font-size:26.6667px;font-family:Calibri;-inkscape-font-specification:Calibri;text-align:start;writing-mode:lr-tb;direction:ltr;text-anchor:start;clip-rule:evenodd;opacity:.66855;fill:#000;fill-opacity:1;fill-rule:evenodd;stroke:none;stroke-width:1.88976;stroke-miterlimit:10;stroke-dasharray:none;stroke-opacity:1"><tspan x="760.345" y="114.47" style="text-align:center;text-anchor:middle">Tenon traversant chevillé</tspan></text><path d="m739.992 215.12 1.219-91.775" style="opacity:.669;fill:none;stroke:#4232a9;stroke-width:1.999;stroke-linejoin:round;stroke-dasharray:none;stroke-opacity:.501961;marker-start:url(#b)"/><text xml:space="preserve" x="591.638" y="50.73" style="font-style:normal;font-variant:normal;font-weight:400;font-stretch:normal;font-size:26.6667px;font-family:Calibri;-inkscape-font-specification:Calibri;text-align:start;writing-mode:lr-tb;direction:ltr;text-anchor:start;clip-rule:evenodd;opacity:.66855;fill:#000;fill-opacity:1;fill-rule:evenodd;stroke:none;stroke-width:1.88976;stroke-miterlimit:10;stroke-dasharray:none;stroke-opacity:1"><tspan x="591.638" y="50.73" style="text-align:center;text-anchor:middle">Mortaise traversante</tspan></text><path d="m441.734 318.854 39.539-261.539" style="opacity:.669;fill:none;stroke:#4232a9;stroke-width:1.999;stroke-linejoin:round;stroke-dasharray:none;stroke-opacity:.501961;marker-start:url(#c)"/><g fill="none" stroke="#000" stroke-linejoin="round" stroke-width="3"><path stroke-width="1.47594" d="m541.062 698.969-.527-4.892-.527-4.892-.526-4.89-.527-4.893-.526-4.89-.527-4.893-.527-4.89-.527-4.893-.527-4.891-.526-4.892-.527-4.891-.526-4.892-.527-4.891-.527-4.892-.527-4.891-.526-4.892-.527-4.892-.527-4.89-.526-4.893-.527-4.89-.527-4.893-.527-4.89-.526-4.893-.527-4.891-.526-4.892-.527-4.891-.527-4.892-.527-4.891-.526-4.892-.527-4.891-.527-4.892-.526-4.891-.527-4.892-.527-4.892-.526-4.89-.527-4.893-.527-4.891-.526-4.892-.527-4.891-.527-4.892-.526-4.891-.527-4.892-.527-4.891-.527-4.892-.526-4.891-.527-4.892-.527-4.891-.526-4.892-.527-4.891-.527-4.892-.527-4.892-.526-4.891-.527-4.892-.526-4.891-.527-4.892-.527-4.891-.527-4.892-.526-4.891-.527-4.892-.527-4.891-.526-4.892-.527-4.891-.527-4.892-.526-4.891-.527-4.892-.527-4.892-.526-4.891-.527-4.892-.527-4.891-.526-4.892-.75-6.951-.526-4.892-.527-4.891-.526-4.892-.527-4.892-.526-4.89-.527-4.893-.527-4.89-.527-4.893-.526-4.89-.527-4.893-.527-4.89-.526-4.893-.527-4.89-.527-4.893-.526-4.891-.527-4.892-.527-4.891-.526-4.892-.374-3.472-.527-4.892-.526-4.892-.527-4.891-.527-4.892-.527-4.891-.527-4.892-.526-4.891-.527-4.892-.526-4.891-.527-4.892-.527-4.891-.527-4.892-.526-4.891-.527-4.892-.527-4.891-.526-4.892-.527-4.892-.527-4.891-.527-4.892-.526-4.891-.527-4.892-.526-4.891-.527-4.892-.527-4.891-.526-4.892-.527-4.891-.527-4.892-.527-4.891-.526-4.892-.527-4.891-.526-4.892-.527-4.891-.527-4.892-.527-4.892-.527-4.891-.526-4.892-.527-4.891-.526-4.892-.527-4.891-.527-4.892-.527-4.891-.526-4.892-.527-4.891-.527-4.892-.526-4.891-.527-4.892-.527-4.891-.527-4.892-.526-4.891-.527-4.892-.526-4.891-.527-4.892M428.947 699.289l-.37-4.906-.369-4.906-.37-4.906-.369-4.906-.37-4.905-.369-4.906-.37-4.907-.369-4.906-.37-4.905-.368-4.906-.37-4.906-.37-4.906-.369-4.906-.37-4.906-.369-4.906-.37-4.906-.369-4.906-.369-4.905-.37-4.906-.369-4.906-.37-4.906-.369-4.906-.37-4.906-.369-4.906-.369-4.906-.37-4.906-.369-4.906-.37-4.906-.369-4.906-.37-4.906-.369-4.905-.37-4.906-.369-4.906-.37-4.906-.369-4.906-.37-4.906-.369-4.906-.37-4.906-.368-4.906-.37-4.906-.369-4.906-.37-4.906-.369-4.905-.37-4.906-.369-4.906-.37-4.906-.369-4.906-.37-4.906-.369-4.906-.37-4.906-.369-4.906-.37-4.905-.369-4.907-.369-4.906-.37-4.906-.369-4.905-.37-4.906-.369-4.906-.37-4.906-.369-4.906-.37-4.906-.369-4.906-.369-4.906-.37-4.906-.369-4.905-.37-4.906-.369-4.906-.37-4.907-.368-4.905-.605-8.023-.369-4.906-.37-4.906-.369-4.906-.37-4.906-.369-4.906-.37-4.906-.369-4.906-.37-4.906-.369-4.906-.37-4.906-.369-4.906-.37-4.906-.369-4.905-.37-4.906-.369-4.906-.369-4.906-.37-4.906-.369-4.906-.33-4.382-.37-4.906-.369-4.906-.37-4.906-.369-4.906-.37-4.906-.369-4.906-.37-4.906-.369-4.906-.369-4.906-.37-4.905-.369-4.906-.369-4.906-.37-4.906-.369-4.906-.37-4.906-.369-4.906-.37-4.906-.369-4.906-.37-4.906-.369-4.906-.37-4.906-.369-4.906-.37-4.905-.368-4.906-.37-4.906-.37-4.906-.369-4.906-.37-4.906-.369-4.906-.37-4.906-.369-4.905-.37-4.906-.369-4.906-.369-4.907-.37-4.906-.369-4.905-.37-4.906-.368-4.906-.37-4.906-.37-4.906-.369-4.906-.37-4.906-.369-4.906-.37-4.905-.369-4.906-.37-4.906-.369-4.906-.37-4.906-.369-4.906-.37-4.906-.369-4.906-.37-4.906-.368-4.906M372.199 91.375l.35 4.907.351 4.908.35 4.907.351 4.907.351 4.908.35 4.907.352 4.907.35 4.907.351 4.908.35 4.907.351 4.907.351 4.908.35 4.907.352 4.907.35 4.907.351 4.908.35 4.907.351 4.908.351 4.907.35 4.907.352 4.908.35 4.907.35 4.907.351 4.907.351 4.908.351 4.907.35 4.907.352 4.908.35 4.907.35 4.907.351 4.907.351 4.908.35 4.907.352 4.907.35 4.907.351 4.908.35 4.907.351 4.907.351 4.908.35 4.907.352 4.907.52 7.281.35 4.907.351 4.908.351 4.907.35 4.907.352 4.907.35 4.908.35 4.907.351 4.907.351 4.908.351 4.907.35 4.907.351 4.907.35 4.908.352 4.907.35 4.907.351 4.907.351 4.908.305 4.27.35 4.908.352 4.907.35 4.908.35 4.907.351 4.907.351 4.908.351 4.907.35 4.907.352 4.907.35 4.908.35 4.907.351 4.907.351 4.907.351 4.908.35 4.907.352 4.907.35 4.908.35 4.907.351 4.907.351 4.907.351 4.908.35 4.907.352 4.907.35 4.908.35 4.907.351 4.907.351 4.907.351 4.908.35 4.907.351 4.907.35 4.908.352 4.907.35 4.907.351 4.907.351 4.908.35 4.907.351 4.907.35 4.908.352 4.907.35 4.908.351 4.907.351 4.907.35 4.907.351 4.908.35 4.907.352 4.907.35 4.907.351 4.908.351 4.907.35 4.907.351 4.908.35 4.907.352 4.907.35 4.907.351 4.908.35 4.907.351 4.907.351 4.908.35 4.907.352 4.907.35 4.907.351 4.908.35 4.907M470.182 350.65l-4.917.155-4.918.154-4.917.153-2.208.07-4.917.153-4.918.154-4.917.154-1.818.057-.422-4.902-.423-4.901-.422-4.902-.422-4.902-.423-4.902-.422-4.901-.423-4.902-.422-4.901-.423-4.902-.422-4.902-.34-3.95-.423-4.902-.422-4.902-.422-4.902-.423-4.902-.422-4.901-.423-4.902-.422-4.901-.432-5.017 4.918-.1 4.92-.1 4.918-.1 4.918-.099 4.92-.1 4.918-.099 3.06-.062"/><path stroke-width="1.47594" d="m448.385 298.325 1.523-4.678 1.523-4.678 1.523-4.678 1.523-4.678 1.523-4.678 1.523-4.678 1.523-4.679 1.523-4.678.702-2.156.474 4.897.475 4.897.475 4.897.475 4.896.475 4.898.475 4.896.475 4.897.474 4.897.475 4.897.475 4.896.475 4.898.474 4.896.475 4.897.475 4.897.475 4.897.475 4.897.475 4.896.474 4.897.365 3.764M432.087 298.732l4.919-.123 4.918-.122 4.918-.123 1.543-.039.449 4.9.448 4.9.448 4.898.449 4.9.448 4.9.448 4.898.449 4.9.448 4.9.448 4.898.449 4.9.353 3.862M207.493 253.355l-.145-4.918-.145-4.917-.145-4.918-.145-4.918-.135-4.588-4.92.08-4.919.08-4.918.08-4.92.08-4.92.079-4.918.08-4.92.08-4.919.08-4.919.08-.937.014M89.313 285.695l-2.994 3.904-1.139 1.486-2.994 3.904-2.994 3.904-2.994 3.904-2.993 3.904-2.994 3.904-2.994 3.904-2.993 3.905-2.994 3.903-2.994 3.905-2.993 3.904-2.995 3.904-2.993 3.904-2.994 3.904-2.994 3.904-2.993 3.904-2.994 3.904-2.994 3.904-2.994 3.905-2.993 3.903-2.994 3.905-2.994 3.904-2.994 3.904-2.994 3.904-2.993 3.904-2.994 3.904-2.994 3.904-2.993 3.904-3.611 4.71.273 4.911.273 4.912.273 4.913.272 4.912.273 4.912.273 4.913.273 4.912.273 4.912.272 4.912.273 4.912.274 4.913.272 4.912.273 4.912.273 4.912.273 4.912.273 4.913.272 4.912.273 4.912.273 4.912.273 4.913.273 4.912.273 4.912.273 4.912.273 4.913.272 4.912.273 4.912.273 4.912.273 4.913.273 4.912.273 4.912.273 4.912.222 4 4.913-.261 4.912-.261 4.913-.262 4.913-.26 4.913-.262 4.913-.26 4.913-.262 4.913-.26 4.913-.262 4.913-.261 4.913-.262 4.912-.26 4.913-.261 4.913-.262 4.913-.261 4.913-.26 4.913-.262 3.895-.207 4.913-.261 4.913-.262 1.65-.087 4.913-.261 4.913-.261 4.913-.261 4.913-.262 4.913-.26 4.913-.262 4.912-.26 4.913-.262 4.913-.261 4.913-.261 4.913-.261 4.913-.262 4.913-.26.768-.042.707-4.868.708-4.869.707-4.869.708-4.868.707-4.869.708-4.868.707-4.87.708-4.868.707-4.868.708-4.87.707-4.868.708-4.868.707-4.87.708-4.868.707-4.869.707-4.868.708-4.869.707-4.869.708-4.868.708-4.869.707-4.869.708-4.868.707-4.869.708-4.869.707-4.868.708-4.869.707-4.868.708-4.87.707-4.868.707-4.869.708-4.868.707-4.87.342-2.351.02-.141.708-4.869.707-4.869.708-4.868.707-4.869.263-1.804.019-.13.707-4.87.708-4.868.707-4.868.708-4.87.707-4.868.708-4.869.707-4.868.708-4.87.707-4.868.707-4.868.708-4.869.707-4.869.708-4.868.652-4.49-.145-4.918-.145-4.918-.145-4.918-.104-3.536"/><path stroke-width="1.47594" d="m193.986 283.342-1.13 4.789-.11.47-1.13 4.789-1.128 4.788-1.13 4.789-1.13 4.788-1.128 4.789-1.13 4.788-1.128 4.789-1.13 4.788-1.13 4.789-1.128 4.788-1.13 4.789-1.128 4.788-1.13 4.789-1.13 4.788-1.128 4.789-1.13 4.788-1.14 4.833-1.128 4.789-1.13 4.788-1.129 4.789-1.129 4.788-1.129 4.789-.31 1.311M.738 401.204l4.917-.174 4.916-.174 4.917-.173 4.917-.175 4.917-.173 4.916-.174 4.917-.174 4.917-.174 4.917-.174 4.916-.174 4.917-.173 4.917-.174 4.917-.174 4.916-.174 4.917-.174 4.917-.174 4.917-.174 5.619-.199 4.917-.173 4.916-.174 4.917-.174 4.917-.174 4.917-.174 4.916-.174 4.917-.174 4.917-.173 4.917-.174 4.916-.174 4.917-.174 4.917-.174 4.917-.174 4.916-.173 4.917-.175 3.89-.137.173 4.917.171 4.916.172 4.917.172 4.917.171 4.917.172 4.917.172 4.917.172 4.917.172 4.916.171 4.917.172 4.917.172 4.916.171 4.917.172 4.917.172 4.917.172 4.917.171 4.917.172 4.917.172 4.916.171 4.917.173 4.917.171 4.917.172 4.916.172 4.917.171 4.917.172 4.917.172 4.917.171 4.917.172 4.917.172 4.916.209 5.983M159.375 284.12l-.102.247-.058.141-1.877 4.548-.152.367-4.918.113-4.919.113-4.918.114-4.919.114-3.43.079-3.607.083-4.918.114-4.225.097"/><path stroke-width="1.47594" d="m162.318 251.276-.173-4.916-.007-.226-.172-4.917-.172-4.916-.172-4.917-.054-1.555-.172-4.916-.172-4.917-.172-4.917-.172-4.917-.172-4.917-.171-4.917-.172-4.916-.172-4.917-.172-4.917-.172-4.917-.103-2.957-4.92.05-4.92.05-4.919.05-4.92.05-4.919.05-4.92.05-4.12.043-3.882 3.022-3.882 3.023-1.232.96.197 4.915.198 4.916.197 4.916.197 4.916.197 4.916.197 4.916.198 4.915.197 4.916.197 4.916.197 4.916.197 4.915.197 4.916.089 2.2.123 3.073.153 3.797.196 4.916.043 1.046.197 4.916.197 4.916.197 4.915.197 4.916.078 1.942.173 4.302.197 4.916.02.499"/><path stroke-width="1.47594" d="m159.746 177.704-3.306 3.644-2.999 3.304M117.112 185.051l4.92-.054 4.92-.054 4.918-.053 4.92-.055 4.92-.054 4.92-.054 4.919-.053 1.892-.022.176 4.917.176 4.917.175 4.916.176 4.917.176 4.917.176 4.917.175 4.916.176 4.917.176 4.917.037 1.032.176 4.917.175 4.916.176 4.917.176 4.916.017.493.032.883.176 4.917.088 2.477.176 4.917.176 4.916.175 4.917.176 4.917.176 4.917.043 1.219.014.384.174 4.865M159.273 284.367l-.008-.244-.152-4.284-.004-.095-.165-4.67-.174-4.916-.175-4.917-.174-4.917-.174-4.916-.02-.549-.028-.774 1.453-2.932.565-1.142M205.526 695.462l-.154-4.918-.155-4.917-.154-4.917-.155-4.918-.154-4.917-.155-4.917-.154-4.918-.154-4.917-.155-4.918-.154-4.917-.155-4.918-.154-4.917-.155-4.917-.154-4.918-.155-4.917-.154-4.917-.155-4.918-.154-4.917-.155-4.917-.154-4.918-.155-4.917-.154-4.918-.155-4.917-.154-4.918-.155-4.917-.154-4.917-.155-4.918-.154-4.917-.155-4.917-.154-4.918-.155-4.917-.154-4.917-.154-4.918-.155-4.917-.154-4.918-.154-4.917-.155-4.918-.154-4.917-.155-4.917-.154-4.918-.155-4.917-.154-4.917-.155-4.918-.154-4.917-.155-4.917-.154-4.918-.155-4.917-.154-4.918-.155-4.917-.154-4.917-.155-4.918-.154-4.917-.155-4.918-.154-4.917-.155-4.917-.154-4.918-.155-4.917-.154-4.917-.155-4.918-.154-4.917-.155-4.917-.152-4.861h-.025M209.239 698.074l-.152-4.917-.153-4.918-.152-4.918-.152-4.917-.152-4.917-.152-4.918-.152-4.917-.153-4.918-.152-4.917-.152-4.917-.152-4.918-.152-4.918-.152-4.917-.153-4.917-.152-4.918-.152-4.917-.152-4.918-.152-4.917-.153-4.918-.152-4.917-.152-4.918-.152-4.917-.153-4.917-.152-4.918-.152-4.917-.152-4.918-.152-4.917-.152-4.918-.153-4.917-.152-4.917-.152-4.918-.152-4.918-.152-4.917-.152-4.917-.153-4.918-.152-4.917-.152-4.918-.152-4.917-.152-4.917-.152-4.918-.153-4.918-.152-4.917-.152-4.917-.152-4.918-.153-4.917-.152-4.918-.152-4.917-.152-4.918-.152-4.917-.152-4.918-.153-4.917-.152-4.917-.152-4.918-.152-4.918-.152-4.917-.152-4.917-.153-4.918-.152-4.917-.152-4.918-.152-4.917-.152-4.918-.152-4.917-.153-4.918-.152-4.917-.152-4.917-.152-4.918-.133-4.3h-.023M160.217 250.011l.042 1.17M692.126 242.981c-20.807-6.785-41.456-14.584-62.361-20.74q-33.32.54-66.64 1.08l-.94 69.295 345.004 217.15 132.122-7.022 9.328-140.705"/><path stroke-width="1.47594" d="m1049.508 364.118-4.66-1.58-4.659-1.579-4.66-1.58-4.658-1.579-4.66-1.58-4.66-1.578-4.659-1.58-4.66-1.579-4.659-1.58-4.66-1.579-4.658-1.58-4.66-1.579-4.66-1.579-4.659-1.579-4.659-1.58-4.66-1.579-4.659-1.58-4.66-1.579-4.659-1.579-4.66-1.58-4.659-1.578-4.66-1.58-4.658-1.579-4.66-1.58-4.66-1.579-4.659-1.58-4.66-1.578-4.659-1.58-4.66-1.579-4.659-1.58-4.659-1.579-4.66-1.58-4.659-1.578-4.659-1.58-4.66-1.579-4.659-1.58-4.66-1.579-4.659-1.58-4.66-1.578-4.659-1.58-4.66-1.579-4.658-1.58-4.66-1.578-4.66-1.58-4.659-1.58-4.659-1.579-4.66-1.579-4.66-1.58-4.659-1.579-4.659-1.579-4.66-1.58-4.659-1.579-4.66-1.579-4.658-1.58-4.66-1.579-6.949-2.355-4.66-1.58-4.659-1.579-4.66-1.579-4.658-1.58-4.66-1.578-4.66-1.58-2.457-.833M1049.508 364.118l-4.917.173-4.916.174-4.917.174-4.917.174-4.916.174-4.917.174-4.917.174-4.917.173-4.916.174-4.917.174-4.917.174-4.916.174-4.917.174-4.917.173-4.917.175-4.916.173-4.917.174-4.917.174-4.917.174-4.916.174-4.917.174-4.917.174-4.917.173-4.916.174-4.917.174-4.917.174-4.917.174-1.522.054"/><path stroke-width="1.47594" d="m563.124 223.32 4.547 1.88 4.547 1.88 4.547 1.879 4.546 1.879 4.547 1.88 4.546 1.879 4.547 1.88 4.547 1.879 4.546 1.879 4.547 1.88 4.547 1.879 4.547 1.879 4.547 1.88 4.546 1.879 4.547 1.88 4.546 1.879 4.547 1.88 4.547 1.879 4.546 1.879 4.547 1.88 4.547 1.879 3.63 1.5 4.546 1.88 4.547 1.879 4.546 1.879 4.547 1.88 4.547 1.879 4.546 1.879 1.64.678 1.956.808 4.546 1.88 4.547 1.879 4.546 1.88 4.547 1.879 4.547 1.88 4.547 1.878 4.546 1.88 4.547 1.88 4.547 1.879 4.547 1.879 4.546 1.88 4.547 1.879 4.546 1.879 2.26.934 4.547 1.88 4.547 1.879 4.547 1.88 4.392 1.815 4.547 1.88 4.547 1.879 4.547 1.88 2.879 1.19 4.547 1.879 4.546 1.88 4.547 1.879 4.547 1.88 4.546 1.879 4.547 1.88 4.546 1.879 4.547 1.879 4.547 1.88 4.547 1.879 4.546 1.879 4.547 1.88 4.547 1.879 4.547 1.88 4.546 1.878 4.547 1.88 4.546 1.88 4.547 1.879 4.547 1.879 4.546 1.88 4.547 1.879 4.547 1.88 4.547 1.878 4.546 1.88 4.547 1.88 4.547 1.879 4.546 1.879 3.445 1.424-.28 4.912-.281 4.912-.28 4.911-.281 4.912-.28 4.912-.281 4.912-.281 4.911-.28 4.912-.28 4.912-.281 4.912-.28 4.911-.281 4.912-.28 4.912-.281 4.912-.28 4.912-.28 4.912-.281 4.912-.28 4.911-.281 4.912-.28 4.912-.281 4.912-.28 4.911-.28 4.912-.281 4.912-.28 4.912-.281 4.912-.28 4.911-.281 4.912-.192 3.37M755.47 275.61l-4.92.114-4.918.114-4.918.113-4.92.114-4.917.113-4.919.114-1.549.036M755.47 275.61q1.806-48.802 3.613-97.605c-11.919-1.998-23.829-4.116-35.754-6.039q-14.568.15-29.137.297c-1.013 34.66-.775 57.07-1.788 91.729M769.154 695.197l.2-4.915.201-4.916.2-4.916.2-4.916.201-4.915.2-4.916.201-4.916.2-4.916.2-4.915.201-4.916.2-4.916.201-4.916.2-4.915.2-4.916.202-4.916.2-4.915.2-4.916.2-4.916.201-4.915.2-4.916.201-4.916.2-4.916.201-4.915.2-4.916.201-4.916.2-4.915.2-4.916.201-4.916.2-4.915.201-4.916.2-4.916.2-4.916.201-4.915.2-4.916.201-4.916.2-4.916.2-4.915.201-4.916.2-4.916.201-4.916.2-4.915.2-4.916.202-4.916.2-4.915.2-4.916.2-4.916.201-4.916.2-4.915.201-4.916.2-4.916.201-4.916.2-4.915.201-4.916.202-4.965M690.272 373.37l-.145 4.918-.145 4.918-.144 4.918-.145 4.917-.145 4.918-.145 4.918-.145 4.917-.145 4.918-.145 4.918-.144 4.917-.146 4.918-.144 4.918-.145 4.917-.145 4.918-.145 4.918-.145 4.917-.144 4.918-.146 4.918-.144 4.917-.145 4.918-.145 4.918-.145 4.917-.145 4.918-.144 4.918-.146 4.917-.144 4.918-.145 4.918-.145 4.917-.145 4.918-.145 4.918-.144 4.917-.146 4.918-.144 4.918-.145 4.917-.145 4.918-.145 4.918-.145 4.917-.144 4.918-.145 4.918-.145 4.917-.145 4.918-.145 4.918-.145 4.917-.145 4.918-.144 4.918-.145 4.917-.145 4.918-.145 4.918-.145 4.917-.145 4.918-.145 4.918-.144 4.917-.145 4.918-.145 4.918-.145 4.917-.145 4.918-.145 4.918-.145 4.918-.145 4.917-.144 4.918-.145 4.918-.145 4.917-.145 4.918-.145 4.918-.145 4.917-.145 4.918M660.115 354.254l-.19.007-.126 4.918-.126 4.918-.127 4.918-.126 4.919-.126 4.917-.126 4.919-.127 4.918-.125 4.918-.127 4.918-.126 4.919-.126 4.918-.127 4.918-.126 4.918-.126 4.918-.126 4.919-.126 4.918-.126 4.918-.127 4.918-.126 4.918-.126 4.918-.126 4.919-.127 4.918-.126 4.918-.126 4.918-.126 4.919-.126 4.917-.127 4.919-.126 4.918-.126 4.918-.126 4.918-.127 4.919-.126 4.918-.126 4.918-.126 4.918-.126 4.918-.127 4.918-.126 4.919-.126 4.918-.126 4.918-.127 4.918-.126 4.918-.126 4.919-.126 4.918-.126 4.918-.127 4.918-.126 4.918-.126 4.918-.126 4.919-.127 4.918-.126 4.918-.126 4.918-.126 4.919-.126 4.917-.127 4.919-.126 4.918-.126 4.918-.126 4.918-.127 4.919-.126 4.918-.126 4.918-.126 4.918-.126 4.918-.127 4.919-.126 4.918-.126 4.918-.126 4.918-.127 4.918-.126 4.918-.158 6.173"/><path stroke-width="1.47594" d="m690.475 373.363-.203.008-4.163-2.622-4.163-2.622-4.163-2.621-4.164-2.622-4.163-2.622-4.163-2.62-4.163-2.623-1.205-.758M727.668 178.35l4.92-.054 4.919-.054 4.92-.054 4.92-.054 4.918-.054 4.92-.054 1.898-.02"/><path stroke-width="1.47594" d="m694.192 172.263 4.84.88 4.84.88 4.841.88 4.84.88 4.841.88 4.84.88 4.434.807-.163 4.917-.164 4.917-.164 4.917-.163 4.917-.164 4.917-.163 4.917-.163 4.918-.164 4.916-.164 4.918-.163 4.917-.164 4.917-.164 4.917-.163 4.917-.163 4.917-.164 4.917-.069 2.068-.163 4.917-.164 4.917-.164 4.917-.163 4.917-.083 2.486M653.241 313.138l.997 1.926.346 3.54-.51 3.064-1.063.786-.991-1.937-.342-3.517.504-3.054 1.059-.808 4.918-.135 4.918-.135 4.918-.134 3.355-.092"/><path stroke-width="1.47594" d="m654.074 321.668 4.918-.14 4.917-.14 4.918-.14 4.918-.14 4.918-.14 4.918-.14 4.917-.14 1.359-.038M653.01 322.454l4.919-.14 4.917-.14 4.918-.14 4.918-.142 4.917-.14 4.918-.14 4.918-.14.953-.028M654.238 315.064l4.918-.136 4.917-.136 4.919-.136 4.918-.135 4.917-.137 4.918-.136 4.918-.135 1.386-.039M159.265 284.123l.11-.003.064-.001 4.024-.091 4.918-.11 4.919-.11 4.919-.112 4.918-.11 4.919-.11 4.918-.111 1.012-.023 4.918-.11 4.92-.111 4.544-.102 4.918-.11 4.92-.111 1.557-.035.44-4.267-.138-4.918-.138-4.917-.138-4.918-.138-4.918-.138-4.917-4.914-.226-4.915-.226-2.19-.101-4.916-.226-1.451-.067-4.915-.226-4.915-.226-4.915-.227-4.914-.225-4.915-.227-4.914-.226-4.915-.226-4.406-.203-2.06-.095-.606-.028M219.513 253.908l-.456 3.722"/><path stroke-width="1.47594" d="m158.227 254.86 4.223.192 4.914.224 4.915.224 4.915.223 4.915.224 4.914.224 4.915.224 4.915.224 4.914.224 4.915.224.922.042 4.914.224 4.915.224 1.624.073.138 4.918.138 4.918.138 4.918.138 4.918.139 4.918.015.543M119.69 249.314l-2.395-.11-4.915-.226-4.914-.226-4.915-.226-4.914-.227-4.915-.225-4.915-.227-4.915-.226-4.914-.226-4.914-.226-4.915-.226-3.063-.141-3.656 3.292-.377.339.232 4.914.232 4.914.232 4.915.232 4.914.232 4.915.232 4.914.232 4.914.07 1.46 4.918-.111 4.918-.11 4.919-.111 4.919-.111 4.918-.11 1.974-.045 4.919-.11 4.918-.111 4.919-.11 4.918-.11 4.919-.112 4.918-.11 2.297-.052M96.833 552.837l.219 4.915.219 4.915.218 4.915.22 4.914.218 4.915.22 4.916.218 4.915.219 4.914.218 4.915.22 4.915.218 4.915.219 4.915.219 4.915.219 4.915.218 4.915.219 4.915.219 4.915.219 4.915.219 4.915.218 4.915.22 4.915.218 4.914.22 4.915.218 4.915.218 4.916.22 4.914.218 4.915.219 4.915.219 4.915M119.567 246.241l-2.272 2.963M201.127 253.062l1.129-4.789 1.129-4.788 1.129-4.789 1.129-4.788 1.135-4.812"/><path stroke-width="1.47594" d="m119.843 253.111-4.915-.224-.442-.02-4.915-.224-4.914-.224-4.915-.224-4.915-.223-4.914-.224-4.915-.224-4.915-.224-4.914-.224-4.915-.224-4.915-.224-4.286-.195M724.41 276.328l-4.193-1.615-4.591-1.769-4.591-1.768-4.591-1.768-4.591-1.769-4.591-1.768-4.591-1.768-1.15-.443M689.945 317.61l-4.918.139-4.917.138-4.918.138-4.918.138-4.918.138-4.918.138-4.918.138-.936.026"/></g></svg>