<svg xmlns="http://www.w3.org/2000/svg" xml:space="preserve" width="928.415" height="616.274"><defs><marker id="a" markerHeight="1" markerWidth="1" orient="auto" preserveAspectRatio="xMidYMid" refX="0" refY="0" style="overflow:visible" viewBox="0 0 1 1"><path d="M5 0c0 2.76-2.24 5-5 5s-5-2.24-5-5 2.3-5 5-5c2.76 0 5 2.24 5 5" style="fill:context-stroke;fill-rule:evenodd;stroke:none" transform="scale(.5)"/></marker></defs><text xml:space="preserve" x="332.25" y="543.568" style="font-style:normal;font-variant:normal;font-weight:400;font-stretch:normal;font-size:26.6667px;font-family:Calibri;-inkscape-font-specification:Calibri;text-align:start;writing-mode:lr-tb;direction:ltr;text-anchor:start;clip-rule:evenodd;opacity:.66855;fill:#000;fill-opacity:1;fill-rule:evenodd;stroke:none;stroke-width:1.88976;stroke-miterlimit:10;stroke-dasharray:none;stroke-opacity:1"><tspan x="332.25" y="543.568" style="text-align:center;text-anchor:middle">Paume droite avec tasseau</tspan></text><path d="m276.276 326.088.367 191.588" style="opacity:.669;fill:none;stroke:#4232a9;stroke-width:1.999;stroke-linejoin:round;stroke-dasharray:none;stroke-opacity:.501961;marker-start:url(#a)"/><g fill="none" stroke="#000" stroke-linejoin="round" stroke-width="3"><path stroke-width="1.17618" d="m928.028 345.459-454.709-98.064M473.32 247.395l-134.968-29.107-94.991 55.143 9.309 68.087q30.547 8.73 61.094 17.457l.756 6.931M243.36 273.431l681.922 172.686M314.52 365.906l6.372 58.421L926.5 615.713M928.328 166.313l-288.642-43.076M639.686 123.237q-12.379-1.848-24.758-3.695l-46.863 32.922-.238 24.4M568.065 152.464l358.533 59.629M567.827 176.865l-.301 30.777 53.87 10.233-1.8 53.567 306.793 65.2"/><path stroke-width="1.17618" d="m699.323 44.451 2.342-37.07L122.145 343.8M632.178.53.256 306.42M678.702 129.06q26.734-22.063 53.47-44.123 1.418-18.214 2.839-36.427l-35.688-4.059M735.01 48.51l-100.369 73.974M202.463 441.006l11.957 71.182 106.472-87.861"/><path stroke-width="1.17618" d="m313.764 358.975-111.301 82.031-65.535-22.508 115.742-76.98M699.322 44.451 413.564 234.508M522.458 257.993l58.032-47.888M567.877 171.69q-50.436 37.171-100.871 74.344"/></g></svg>