<svg xmlns="http://www.w3.org/2000/svg" xml:space="preserve" width="1049.323" height="570.986"><defs><marker id="a" markerHeight="1" markerWidth="1" orient="auto" preserveAspectRatio="xMidYMid" refX="0" refY="0" style="overflow:visible" viewBox="0 0 1 1"><path d="M5 0c0 2.76-2.24 5-5 5s-5-2.24-5-5 2.3-5 5-5c2.76 0 5 2.24 5 5" style="fill:context-stroke;fill-rule:evenodd;stroke:none" transform="scale(.5)"/></marker><marker id="b" markerHeight="1" markerWidth="1" orient="auto" preserveAspectRatio="xMidYMid" refX="0" refY="0" style="overflow:visible" viewBox="0 0 1 1"><path d="M5 0c0 2.76-2.24 5-5 5s-5-2.24-5-5 2.3-5 5-5c2.76 0 5 2.24 5 5" style="fill:context-stroke;fill-rule:evenodd;stroke:none" transform="scale(.5)"/></marker><marker id="c" markerHeight="1" markerWidth="1" orient="auto" preserveAspectRatio="xMidYMid" refX="0" refY="0" style="overflow:visible" viewBox="0 0 1 1"><path d="M5 0c0 2.76-2.24 5-5 5s-5-2.24-5-5 2.3-5 5-5c2.76 0 5 2.24 5 5" style="fill:context-stroke;fill-rule:evenodd;stroke:none" transform="scale(.5)"/></marker></defs><text xml:space="preserve" x="116.541" y="118.899" style="font-style:normal;font-variant:normal;font-weight:400;font-stretch:normal;font-size:26.6667px;font-family:Calibri;-inkscape-font-specification:Calibri;text-align:start;writing-mode:lr-tb;direction:ltr;text-anchor:start;clip-rule:evenodd;opacity:.66855;fill:#000;fill-opacity:1;fill-rule:evenodd;stroke:none;stroke-width:1.88976;stroke-miterlimit:10;stroke-dasharray:none;stroke-opacity:1"><tspan x="116.541" y="118.899" style="text-align:center;text-anchor:middle">Enfourchement en T</tspan></text><text xml:space="preserve" x="73.999" y="48.94" style="font-style:normal;font-variant:normal;font-weight:400;font-stretch:normal;font-size:26.6667px;font-family:Calibri;-inkscape-font-specification:Calibri;text-align:start;writing-mode:lr-tb;direction:ltr;text-anchor:start;clip-rule:evenodd;opacity:.66855;fill:#000;fill-opacity:1;fill-rule:evenodd;stroke:none;stroke-width:1.88976;stroke-miterlimit:10;stroke-dasharray:none;stroke-opacity:1"><tspan x="73.999" y="48.94">Enfouchement double</tspan></text><path d="m275.922 389.872.783 111.609" style="opacity:.669;fill:none;stroke:#4232a9;stroke-width:1.999;stroke-linejoin:round;stroke-dasharray:none;stroke-opacity:.501961;marker-start:url(#a)"/><path d="M422.757 169.132 189.034 124.94" style="opacity:.669;fill:none;stroke:#4232a9;stroke-width:1.999;stroke-linejoin:round;stroke-dasharray:none;stroke-opacity:.501961;marker-start:url(#b)"/><path d="M699.773 98.437 327.916 40.591" style="opacity:.669;fill:none;stroke:#4232a9;stroke-width:1.999;stroke-linejoin:round;stroke-dasharray:none;stroke-opacity:.501961;marker-start:url(#c)"/><text xml:space="preserve" x="418.619" y="427.976" style="font-style:normal;font-variant:normal;font-weight:400;font-stretch:normal;font-size:26.6667px;font-family:Calibri;-inkscape-font-specification:Calibri;text-align:start;writing-mode:lr-tb;direction:ltr;text-anchor:start;clip-rule:evenodd;opacity:.66855;fill:#000;fill-opacity:1;fill-rule:evenodd;stroke:none;stroke-width:1.88976;stroke-miterlimit:10;stroke-dasharray:none;stroke-opacity:1" transform="translate(-165.083 106.812)"><tspan x="418.619" y="427.976" style="text-align:center;text-anchor:middle">Enfrouchement simple</tspan></text><g fill="none" stroke="#000" stroke-linejoin="round" stroke-width="3"><path stroke-width="2.09514" d="M1044.151 179.953 512.034 95.568l-62.204 41.123.352 44.828 129.957 23.714q-.444 22.013-.89 44.027M449.828 136.691l599.318 102.685"/><path stroke-width="2.09514" d="M496.608 189.99q-23.044 17.198-46.089 34.394l.34 43.289 579.115 118.167M450.519 224.384l128.73 24.876M388.542 169.935l-.927-43.903-119.408-20.46-169.111 90.802q1.997 23.856 3.995 47.71Q52.07 273.322 1.048 302.556q2.658 24.755 5.317 49.508l133.958 33.934 53.164-36.913M387.615 126.032l-157.987 96.995"/><path stroke-width="2.09514" d="M99.096 196.374q65.265 13.328 130.532 26.653l1.5 26.83M103.091 244.085q51.115 11.093 102.23 22.187M339.454 108.651l113.436 19.17M388.542 169.935l64.348-42.114-.3-41.68"/><path stroke-width="2.09514" d="M561.915 19.022 452.59 86.142 338.185 67.999"/><path stroke-width="2.09514" d="m561.52 44.327.395-25.305L456.5 4.472 338.185 67.998q.634 20.325 1.27 40.652l-12.265 7.028M407.7 200.355l45.775 8.663 29.366-21.54"/><path stroke-width="2.09514" d="M389.791 255.729c1.156-.71.234-2.445.485-3.602l-.825-39.102q30.323-21.053 60.647-42.108M607.229 34.658q.25-9.978.502-19.955L506.859 1.038M453.475 209.018l-.194-26.934M140.323 385.997l-3.98-51.006M168.64 313.853q-16.148 10.569-32.298 21.138L1.048 302.555M560.869 85.888l.324-20.69 46.036-30.54M564.17 103.836l42.067-29.76.494-19.628"/><path stroke-width="2.09514" d="m560.869 85.888 45.862-31.44q-12.035-1.746-24.07-3.492M506.86 1.038l-14.855 8.334M561.52 44.327l46.21-29.624M1042.912 46.856 728.085 6.043q-20.653 15.107-41.307 30.214c-.37 8.824-.736 17.648-1.106 26.472q58.68 8.467 117.36 16.933M686.778 36.257l360.204 49.72M684.794 83.758l116.798 17.438"/><path stroke-width="2.09514" d="m707.464 65.873-22.67 17.885-.87 20.844 116.257 17.936M1042.962 389.093 262.695 229.78l-95.691 60.865 3.736 52.986 148.799 35.678"/><path stroke-width="2.09514" d="M167.004 290.644q439.695 99.293 879.388 198.587M226.062 356.895q-25.88 18.595-51.764 37.19 1.79 25.372 3.579 50.744l469.499 125.144"/><path stroke-width="2.09514" d="m174.298 394.085 147.198 37.267-1.459-52.688M185.455 354.66q16.353 3.956 32.707 7.911M703.997 107.699l-18.358 15.4M799.765 123.088c-.273 4.1-.547 13.88-.82 17.98M802.73 79.49c-.273 4.1-.547 18.705-.82 22.805"/></g></svg>