<svg xmlns="http://www.w3.org/2000/svg" xml:space="preserve" width="650.201" height="396.297"><defs><marker id="a" markerHeight="1" markerWidth="1" orient="auto" preserveAspectRatio="xMidYMid" refX="0" refY="0" style="overflow:visible" viewBox="0 0 1 1"><path d="M5 0c0 2.76-2.24 5-5 5s-5-2.24-5-5 2.3-5 5-5c2.76 0 5 2.24 5 5" style="fill:context-stroke;fill-rule:evenodd;stroke:none" transform="scale(.5)"/></marker><marker id="b" markerHeight="1" markerWidth="1" orient="auto" preserveAspectRatio="xMidYMid" refX="0" refY="0" style="overflow:visible" viewBox="0 0 1 1"><path d="M5 0c0 2.76-2.24 5-5 5s-5-2.24-5-5 2.3-5 5-5c2.76 0 5 2.24 5 5" style="fill:context-stroke;fill-rule:evenodd;stroke:none" transform="scale(.5)"/></marker></defs><text xml:space="preserve" x="534.803" y="108.865" style="font-style:normal;font-variant:normal;font-weight:400;font-stretch:normal;font-size:26.6667px;font-family:Calibri;-inkscape-font-specification:Calibri;text-align:start;writing-mode:lr-tb;direction:ltr;text-anchor:start;clip-rule:evenodd;opacity:.66855;fill:#000;fill-opacity:1;fill-rule:evenodd;stroke:none;stroke-width:1.88976;stroke-miterlimit:10;stroke-dasharray:none;stroke-opacity:1"><tspan x="534.803" y="108.865" style="text-align:center;text-anchor:middle">Moise</tspan></text><path d="M544.571 251.714V122.976" style="opacity:.669;fill:none;stroke:#4232a9;stroke-width:1.999;stroke-linejoin:round;stroke-dasharray:none;stroke-opacity:.501961;marker-start:url(#a)"/><text xml:space="preserve" x="152.172" y="355.294" style="font-style:normal;font-variant:normal;font-weight:400;font-stretch:normal;font-size:21.3333px;font-family:Calibri;-inkscape-font-specification:Calibri;text-align:start;writing-mode:lr-tb;direction:ltr;text-anchor:start;clip-rule:evenodd;opacity:.66855;fill:#000;fill-opacity:1;fill-rule:evenodd;stroke:none;stroke-width:1.88976;stroke-miterlimit:10;stroke-dasharray:none;stroke-opacity:1"><tspan x="152.172" y="355.294" style="font-size:21.3333px;text-align:center;text-anchor:middle">Fixation par boulonage (tige filetée)</tspan></text><path d="M366.367 296.112 217.034 332.06" style="opacity:.669;fill:none;stroke:#4232a9;stroke-width:1.999;stroke-linejoin:round;stroke-dasharray:none;stroke-opacity:.501961;marker-start:url(#b)"/><g fill="none" stroke="#000" stroke-linejoin="round" stroke-width="3"><path d="M1826.003 635.074-343.808 275.388M1819.159 740.538 1786.69 884.97M-341.525 596.822Q707.53 807.853 1756.586 1018.883M1756.586 1018.883c20.286-99.579 48.729-197.983 63.868-298.303l5.22-80.44-2.999 46.215M836.236 876.489 699.62 848.437" transform="matrix(.2434 0 0 .28006 202.756 110.532)"/><path d="m566.598 821.123 269.638 55.366q10.199-19.32 20.396-38.643M1836.845 450.388 872.996 306.591M1831.264 535.501q-10.49 48.484-20.981 96.967M-339.856 194.994l854.71 134.048" transform="matrix(.2434 0 0 .28006 202.756 110.532)"/><path d="M1810.283 632.468c14.806-59.859 25.73-120.262 26.562-182.08l-2.722 41.504M562.127 778.603l4.471 42.52M438.771-394.51l85.574 813.81M834.791 833.453l1.445 43.036M793.66-391.516l28.885 860.248M876.494 477.675l-17.806-870.938M-343.5 361.512Q737.83 551.026 1819.159 740.538M874.609 385.464l956.655 150.037M506.748 251.95l-850.586-126.9" transform="matrix(.2434 0 0 .28006 202.756 110.532)"/></g></svg>