<svg xmlns="http://www.w3.org/2000/svg" xml:space="preserve" width="982.03" height="570.239"><defs><marker id="a" markerHeight="1" markerWidth="1" orient="auto" preserveAspectRatio="xMidYMid" refX="0" refY="0" style="overflow:visible" viewBox="0 0 1 1"><path d="M5 0c0 2.76-2.24 5-5 5s-5-2.24-5-5 2.3-5 5-5c2.76 0 5 2.24 5 5" style="fill:context-stroke;fill-rule:evenodd;stroke:none" transform="scale(.5)"/></marker><marker id="b" markerHeight="1" markerWidth="1" orient="auto" preserveAspectRatio="xMidYMid" refX="0" refY="0" style="overflow:visible" viewBox="0 0 1 1"><path d="M5 0c0 2.76-2.24 5-5 5s-5-2.24-5-5 2.3-5 5-5c2.76 0 5 2.24 5 5" style="fill:context-stroke;fill-rule:evenodd;stroke:none" transform="scale(.5)"/></marker><marker id="c" markerHeight="1" markerWidth="1" orient="auto" preserveAspectRatio="xMidYMid" refX="0" refY="0" style="overflow:visible" viewBox="0 0 1 1"><path d="M5 0c0 2.76-2.24 5-5 5s-5-2.24-5-5 2.3-5 5-5c2.76 0 5 2.24 5 5" style="fill:context-stroke;fill-rule:evenodd;stroke:none" transform="scale(.5)"/></marker></defs><text xml:space="preserve" x="773.592" y="388.624" style="font-style:normal;font-variant:normal;font-weight:400;font-stretch:normal;font-size:26.6667px;font-family:Calibri;-inkscape-font-specification:Calibri;text-align:start;writing-mode:lr-tb;direction:ltr;text-anchor:start;clip-rule:evenodd;opacity:.66855;fill:#000;fill-opacity:1;fill-rule:evenodd;stroke:none;stroke-width:1.88976;stroke-miterlimit:10;stroke-dasharray:none;stroke-opacity:1"><tspan x="773.592" y="388.624" style="text-align:center;text-anchor:middle">Mi-bois à bout</tspan></text><text xml:space="preserve" x="895.687" y="305.012" style="font-style:normal;font-variant:normal;font-weight:400;font-stretch:normal;font-size:26.6667px;font-family:Calibri;-inkscape-font-specification:Calibri;text-align:start;writing-mode:lr-tb;direction:ltr;text-anchor:start;clip-rule:evenodd;opacity:.66855;fill:#000;fill-opacity:1;fill-rule:evenodd;stroke:none;stroke-width:1.88976;stroke-miterlimit:10;stroke-dasharray:none;stroke-opacity:1"><tspan x="895.687" y="305.012"><tspan x="895.687" y="305.012" style="text-align:center;text-anchor:middle">Mi-bois en T</tspan></tspan></text><path d="m364.374 465.245 181.482.78" style="opacity:.669;fill:none;stroke:#4232a9;stroke-width:1.999;stroke-linejoin:round;stroke-dasharray:none;stroke-opacity:.501961;marker-start:url(#a)"/><path d="m403.594 280.645 283.476 91.532" style="opacity:.669;fill:none;stroke:#4232a9;stroke-width:1.999;stroke-linejoin:round;stroke-dasharray:none;stroke-opacity:.501961;marker-start:url(#b)"/><path d="m714.34 80.65 67.441 216.816h33.37" style="opacity:.669;fill:none;stroke:#4232a9;stroke-width:1.999;stroke-linejoin:round;stroke-dasharray:none;stroke-opacity:.501961;marker-start:url(#c)"/><g fill="none" stroke="#000" stroke-linejoin="round" stroke-width="3"><path stroke-width="1.6059299999999999" d="m3.252 203.589 358.59 123.794q26.425-14.468 52.85-28.938"/><path stroke-width="1.6059299999999999" d="m361.843 327.383-2.569-46.816 66.84 21.563M439.591 257.15 2.766 126.432M498.057 274.645c8.942-3.69.109-.299 8.598-3.628-.106-12.31-1.348-35.977-1.453-48.286Q253.02 153.529.84 84.329"/><path stroke-width="1.6059299999999999" d="m505.202 222.73-65.61 34.42 1.079 36.891M340.61 511.062l89.467-60.801-1.981-57.711M577.347 298.372 428.096 392.55l-99.36-36.303"/><path stroke-width="1.6059299999999999" d="m576.608 350.681.739-52.309-93.904-28.1-154.708 85.975c4.421 71.123 9.57 142.192 15.7 213.19l494.352-359.154 3.754-39.698"/><path stroke-width="1.6059299999999999" d="M344.436 569.436c-1.986-29.848-3.707-59.717-6.4-89.513l-5.62-67.993 97.661 38.33M748.74 122.84l-44.285 24.61q-.954 18.351-1.91 36.703M740.235 239.482l2.96-45.762-85.705-20.17-109.585 60.899q-.114 24.189-.226 48.378l-7.417 4.448M547.905 234.449l91.12 25.004"/><path stroke-width="1.6059299999999999" d="m637.36 309.394 1.664-49.941q52.086-32.866 104.171-65.733M576.608 350.681l60.752-41.287-89.681-26.567M784.17 209.625l-43.935 29.857M742.803 199.784l41.367 9.84 3.41-43.91M795.89 160.469l-8.31 5.244-83.125-18.263M66.888 2.388 660.11 131.026l47.377-24.352.7-13.383"/><path stroke-width="1.6059299999999999" d="m660.11 131.026 1.797-46.834 88.217 17.344-3.14 48.328L978.56 200.08M979.094 91.46 463.411.79M981.9 59.851 622.438 1M194.4 446.706l92.737-52.547-4.408-54.722L.276 236.237M282.73 339.437l-94.824 49.744"/><path stroke-width="1.6059299999999999" d="M2.969 313.217q92.468 37.981 184.937 75.964 6.375 56.462 12.748 112.925"/><path stroke-width="1.6059299999999999" d="m3.137 409.613 197.517 92.493 4.69-61.601"/></g><text xml:space="preserve" x="846.674" y="366.137" style="font-style:normal;font-variant:normal;font-weight:400;font-stretch:normal;font-size:26.6667px;font-family:Calibri;-inkscape-font-specification:Calibri;text-align:start;writing-mode:lr-tb;direction:ltr;text-anchor:start;clip-rule:evenodd;opacity:.66855;fill:#000;fill-opacity:1;fill-rule:evenodd;stroke:none;stroke-width:1.88976;stroke-miterlimit:10;stroke-dasharray:none;stroke-opacity:1" transform="translate(-201.915 110.709)"><tspan x="846.674" y="366.137" style="text-align:center;text-anchor:middle">Mi-bois d&apos;onglet</tspan></text></svg>