<svg xmlns="http://www.w3.org/2000/svg" xml:space="preserve" width="742.234" height="304.304"><defs><marker id="a" markerHeight="1" markerWidth="1" orient="auto" preserveAspectRatio="xMidYMid" refX="0" refY="0" style="overflow:visible" viewBox="0 0 1 1"><path d="M5 0c0 2.76-2.24 5-5 5s-5-2.24-5-5 2.3-5 5-5c2.76 0 5 2.24 5 5" style="fill:context-stroke;fill-rule:evenodd;stroke:none" transform="scale(.5)"/></marker><marker id="c" markerHeight="1" markerWidth="1" orient="auto" preserveAspectRatio="xMidYMid" refX="0" refY="0" style="overflow:visible" viewBox="0 0 1 1"><path d="M5 0c0 2.76-2.24 5-5 5s-5-2.24-5-5 2.3-5 5-5c2.76 0 5 2.24 5 5" style="fill:context-stroke;fill-rule:evenodd;stroke:none" transform="scale(.5)"/></marker><marker id="b" markerHeight="1" markerWidth="1" orient="auto" preserveAspectRatio="xMidYMid" refX="0" refY="0" style="overflow:visible" viewBox="0 0 1 1"><path d="M5 0c0 2.76-2.24 5-5 5s-5-2.24-5-5 2.3-5 5-5c2.76 0 5 2.24 5 5" style="fill:context-stroke;fill-rule:evenodd;stroke:none" transform="scale(.5)"/></marker></defs><text xml:space="preserve" x="131.755" y="80.597" style="font-style:normal;font-variant:normal;font-weight:400;font-stretch:normal;font-size:26.6667px;font-family:Calibri;-inkscape-font-specification:Calibri;text-align:start;writing-mode:lr-tb;direction:ltr;text-anchor:start;clip-rule:evenodd;opacity:.66855;fill:#000;fill-opacity:1;fill-rule:evenodd;stroke:none;stroke-width:1.88976;stroke-miterlimit:10;stroke-dasharray:none;stroke-opacity:1"><tspan x="131.755" y="80.597" style="text-align:center;text-anchor:middle">Cheville</tspan></text><path d="m31.377 132.5 52.188-57.49" style="opacity:.669;fill:none;stroke:#4232a9;stroke-width:1.999;stroke-linejoin:round;stroke-dasharray:none;stroke-opacity:.501961;marker-start:url(#a)"/><text xml:space="preserve" x="564.757" y="87.518" style="font-style:normal;font-variant:normal;font-weight:400;font-stretch:normal;font-size:26.6667px;font-family:Calibri;-inkscape-font-specification:Calibri;text-align:start;writing-mode:lr-tb;direction:ltr;text-anchor:start;clip-rule:evenodd;opacity:.66855;fill:#000;fill-opacity:1;fill-rule:evenodd;stroke:none;stroke-width:1.88976;stroke-miterlimit:10;stroke-dasharray:none;stroke-opacity:1"><tspan x="564.757" y="87.518" style="text-align:center;text-anchor:middle">Tenon-mortaise</tspan></text><path d="m705.573 148.965-52.19-57.49" style="opacity:.669;fill:none;stroke:#4232a9;stroke-width:1.999;stroke-linejoin:round;stroke-dasharray:none;stroke-opacity:.501961;marker-start:url(#b)"/><text xml:space="preserve" x="181.248" y="263.2" style="font-style:normal;font-variant:normal;font-weight:400;font-stretch:normal;font-size:26.6667px;font-family:Calibri;-inkscape-font-specification:Calibri;text-align:start;writing-mode:lr-tb;direction:ltr;text-anchor:start;clip-rule:evenodd;opacity:.66855;fill:#000;fill-opacity:1;fill-rule:evenodd;stroke:none;stroke-width:1.88976;stroke-miterlimit:10;stroke-dasharray:none;stroke-opacity:1"><tspan x="181.248" y="263.2" style="text-align:center;text-anchor:middle">Epaule ou about</tspan></text><path d="m43.815 166.75 67.805 76.038" style="opacity:.669;fill:none;stroke:#4232a9;stroke-width:1.999;stroke-linejoin:round;stroke-dasharray:none;stroke-opacity:.501961;marker-start:url(#c)"/><g fill="none" stroke="#000" stroke-linejoin="round" stroke-width="3"><path stroke-width="1.1856" d="M43.238.9c.94 40.7 2.05 81.41 2.882 122.1l-7.35 42.584.303-.08M46.177 122.675l.296-.047M.593 1.21 8.86 303.67M65.165 302.607l-3.152-136.974M47.213 165.634l-3.952-.023-3.951-.024-.54-.003M50.493 301.526l-3.28-135.892.264-.072.035-.01"/><path stroke-width="1.1856" d="M51.539 121.79c-8.148-1.322-5.235 8.568-7.245 13.466l-5.221 30.25 661.239 3.656M681.506 122.165c-206.844-.608-413.698-1.341-620.536-1.87l-4.505.714M700.312 169.162l-.035-.193-.225-1.259-.252-1.412-.23-1.292v-.002l-.45-2.517-.065-.365-.544-3.046-.13-.73-.043-.243-.09-.498-.287-1.612-.355-1.983-.102-.576-.695-3.89-.694-3.89-.695-3.892-.695-3.89-.609-3.414-.099-.553-.097-.546-.233-1.304-.144-.804-.225-1.263-.105-.59-.092-.511-.694-3.89-.057-.317-.003-.01-3.345-.771-.377-.087-3.248-.75-.371-.085-3.195-.737-.327-.075M46.48 122.592l645.888 2.078"/><path stroke-width="1.1856" d="m56.465 121.01-.505.08-3.904.618-.517.082M23.906 155.762l.71.003 1.246.006 1.42 1.413.051 1.987-1.347 1.398-1.247-.007-.709-.004-1.029-1.024-.39-.387-.052-1.987.37-.384.977-1.014.705-.164 3.58-.833M25.986 160.569l2.34-.575 1.678-.413M31.81 129.815l1.961.007 1.423 1.417.05 1.995-1.352 1.406-1.961-.007-1.423-1.416-.05-1.996 1.351-1.406M695.807.015c-1.03 41.58-2.068 83.162-3.095 124.743l7.945 44.49M692.71 124.758l-.34-.078M736.919 169.45 741.64 2.442M733.101 304.288l3.809-134.838M688.274 303.374l3.332-134.174 9.049.048-.218-.161-.16-.118M691.606 169.2l-.22-.088M684.722 1.887l-2.889 120.353M713.082 164.187l.275.002 1.829.01.004-.005 1.522-1.445.055-2.06-1.445-1.46-.004-.005-1.814-.6"/><path stroke-width="1.1856" d="m715.318 159.224-2.104-.01-1.527 1.45-.054 2.06 1.449 1.463M706.816 132.25l-2.107-.007-1.527 1.457-.053 2.068 1.452 1.467 2.106.008 1.527-1.456.054-2.068zM60.97 120.295 58.243 1.767M680.71 169.053q-1.613 67.165-3.225 134.329"/></g></svg>