<svg xmlns="http://www.w3.org/2000/svg" xml:space="preserve" width="919.05" height="661.981"><g fill="none" stroke="#000" stroke-linejoin="round" stroke-width="3"><path stroke-width="2.3172300000000003" d="m444.246 33.466 35.312-22.22q14.093 2.349 28.184 4.697M509.288 15.228c.368-9.535-7.957-9.205-15.077-10.24-8.08-.548-17.102-5.79-23.654 1.255L467.68 8.06M477.09 2.123l2.468 9.123M353.176 80.274 2.638 301.356c-2.736 7.542-1.915 14.059 4.885 18.858 4.797 3.758 11.515-5.895 17.078-7.482l247.422-151.25M490.316 28.037c6.986-2.085 13.855-8.775 20.924-7.608l23.427 9.382M539.466 28.47c10.19-5.674 3.66-8.186-4.117-10.462-7.671-1.705-15.519-9.958-22.99-4.2l-3.071 1.42M518.128 11.141l-9.248 8.342"/><path stroke-width="2.3172300000000003" d="M310.873 106.955c-67.482 31.718-135.848 61.747-202.765 94.545-16.161 10.345 5.617 21.917 14.9 9.859l72.403-31.583M525.042 32.5l16.048 14.067M548.044 49.28c3.377-2.557 15.637-3.577 13.326-7.116l-17.301-14.98q-9.514 2.658-19.027 5.316M512.774 61.026q5.248-6.998 10.493-13.995l3.339 17.003"/><path stroke-width="2.3172300000000003" d="M542.908 74.387c3.674-4.626 11.116-8.182 7.284-14.937-2.198-3.99.158-13.746-5.804-12.969l-21.121.55"/><path stroke-width="2.3172300000000003" d="M676.396 161.83c1.906-3.074-2.365-3.69-4.144-5.297L526.047 63.679l-22.749-4.547-12.645 17.509M490.282 77.154l22.926 4.679"/><path stroke-width="2.3172300000000003" d="m554.162 104.587-40.954-22.754 12.839-18.154M491.623 75.299q-10.708-5.014-21.414-10.028l-26.375 13.507"/><path stroke-width="2.3172300000000003" d="M443.83 78.78c17.014 11.605 36.746 17.973 55.303 26.604l330.722 144.073c.701-4.005 9.098-10.137 4.125-12.573-22.42-13.012-46.636-22.554-69.876-33.98Q645.298 147.265 526.49 91.628"/><path stroke-width="2.3172300000000003" d="m458.345 87.614 26.523-13.678 351.355 164.227M484.868 73.936l-14.66-8.665M452.114 74.537l-18.758-10.966-32.051 6.849M403.146 80.852l32.387-6.913q4.15 2.42 8.301 4.839"/><path stroke-width="2.3172300000000003" d="m435.533 73.94-.503-2.398-1.587-7.56-.087-.411M401.491 71.475c.087 6.398 2.13 11.408 8.599 13.284q249.571 140.45 499.142 280.9c3.946-5.27 13.107-9.91 5.833-16.534-3.958-9.707-15.823-11.777-23.646-17.751q-184.88-108.09-369.76-216.178M918.467 355.437 460.913 88.734M417.488 66.961l-14.115-12.404-28.486.15"/><path stroke-width="2.3172300000000003" d="M363.968 63.77h.266l3.47-.01 1.607-.005.375-.001 7.724-.022 2.005-.006 7.724-.023 5.495-.015 2.247 1.976 1.83 1.608 2.21 1.943 2.57 2.26M392.634 63.688l2.002-1.702 4.176-3.55 4.56-3.879"/><path stroke-width="2.3172300000000003" d="m373.744 55.656-3.349 2.779-.414.344-.928.77-4.907 4.073-.178.148.543.47 2.133 1.84.385.332 2.582 2.23.849.732.633.547 3.139 2.708 3.28 2.83.52.449.334.29.687.592 1.901 1.64L861.39 493.075l5.486 4.735 5.969-4.903 4.114-3.38 1.212-2.506 3.363-6.954 1.8-3.72-3.101-2.725-5.803-5.1L509.42 147.752l-3.056-2.686-2.228-1.958-5.803-5.099-3.872-3.403-4.842-4.255-2.642-2.322M876.959 489.528 428.175 94.937M396.552 54.594l-.719-1.223-.085-.145-1.914-3.255-1.932-3.283-1.912-3.251-1.276-2.168-.19-.325-7.461-2.001-1.797-.482-7.46-2-.592-.16M351.194 41.677l7.446 2.056 7.445 2.055 2.161.597.104.029 3.894 6.67.19.327 1.31 2.245"/><path stroke-width="2.3172300000000003" d="m368.35 46.414 7.454-2.022.858-.232 7.454-2.02 4.408-1.196M689.194 596.113l-7.17 6.06M364.51 64.24q158.758 268.966 317.514 537.933c9.39-4.817 19.99-7.732 27.5-15.503L441.116 130.353"/><path stroke-width="2.3172300000000003" d="M709.525 586.67c-6.992 1.498-16.618 11.404-21.759 6.997L393.211 89.01M369.084 36.874c-4.422 3.155-21.296 1.229-15.73 8.462l10.792 18.286M393.834 49.971c-1.264-9.889.156-20.443-3.718-29.787M366.676 20.775c2.023 5.19 2.139 10.609 2.408 16.099M368.496 27.195l23.777-.604M404.78 623.998l-.803 4.973M369.902 73.372l34.075 555.6q13.548-.562 27.097-1.12c1.991-13.904-1.294-28.158-1.48-42.206q-15.473-231.786-30.947-463.573"/><path stroke-width="2.3172300000000003" d="m432.08 622.873-7.718.318-7.717.318-7.718.319-4.146.17-.47-7.71-.468-7.71-.469-7.71-.469-7.71-.469-7.71-.468-7.709-.469-7.71-.25-4.124-.47-7.71-.468-7.71-.468-7.71-.47-7.71-.468-7.71-.469-7.71-.469-7.71-.469-7.71-.468-7.71-.47-7.71-.467-7.709-.47-7.71-.468-7.71-.469-7.71-.469-7.71-.469-7.71-.469-7.71-.468-7.71-.468-7.71-.47-7.709-.468-7.71-.47-7.71-.468-7.71-.469-7.71-.468-7.71-.469-7.71-.469-7.71-.468-7.71-.47-7.71-.468-7.71-.469-7.71-.469-7.709-.468-7.71-.469-7.71-.469-7.71-.468-7.71-.47-7.71-.468-7.71-.47-7.71-.467-7.71-.469-7.709-.469-7.71-.469-7.71-.469-7.71-.468-7.71-.47-7.71-.468-7.71-.468-7.71-.47-7.71-.468-7.71-.469-7.71-.469-7.71-.468-7.71-.47-7.71-.653-10.756-.469-7.71-.469-7.71-.019-.32-.367-6.03-.469-7.71-.349-5.74-.08-1.311-.15-2.474-.078-1.289-.469-7.71-.469-7.71-.257-4.235-.173-2.844M387.59 20.247c-6.048 1.852-19.356-2.956-20.753 3.159l.85 13.843M395.748 53.226q8.58-18.98 17.157-37.96l12.922-4.963"/><path stroke-width="2.3172300000000003" d="M423.543 9.861c-9.589-1.59-19.397-5.829-28.368.012-5.238.601-5.173 6.723-7.586 10.374M391.747 11.15l21.158 4.117M366.188 67.08l-224.06 490.288c6.278 9.16 18.495 8.865 27.892 13.06q101.546-222.35 203.092-444.7M170.02 570.428l-5.425-5.784"/><path stroke-width="2.3172300000000003" d="M371.901 105.985Q268.248 335.314 164.595 564.644l-22.466-7.276M410.143 44.346l34.538-34.62 24.486-.837M467.68 8.059c-6.889-4.444-13.906-8.354-22.358-6.374-8.404-.368-16.6-.253-21.372 7.768l-.407.408M431.274 2.126l13.407 7.6M366.04 67.402 1.35 432.332c5.91 6.823 11.928 13.538 18.998 19.192l309.757-305.489M811.434 284.61l-12.878-25.104q-64.45-37.108-128.9-74.217l-43.867-9.214M821.789 422.261l30.171-58.646-21.769-42.437M808.737 447.632c-7.615 13.067-11.012 30.544-28.077 33.726l-104.794 48.09M646.934 542.725c-15.778 8.273-31.904 15.129-50.1 13.514q-84.322 4.168-168.646 8.334M400.112 565.961c-27.054 4.342-51.82-10.283-77.65-16.074l-125.927-37.52"/><path stroke-width="2.3172300000000003" d="M167.357 502.162Q118.03 453 68.697 403.84M95.24 269.55c-9.112 9.639-25.927 15.255-23.461 30.937L65.47 368.17M254.973 178.543q-10.947 3.373-21.895 6.745M416.984 153.14l-16.224.581M618.036 157.181q-19.004-3.93-38.007-7.858M869.607 318.621c-12.886-21.98-23.437-46.263-37.774-66.811q-5.852-3.297-11.706-6.59M880.233 473.622l16.263-105.708-7.417-13.597M851.905 657.756q13.132-85.368 26.266-170.735"/><path stroke-width="2.3172300000000003" d="M896.496 367.914q-20.213 42.238-40.424 84.475M836.555 493.174 812.77 661.432M843.847 477.935c-3.177 12.684-12.213 19.477-24.263 23.236L694.037 560.34M641.892 584.914l-6.462 76.97M665.32 573.873c-14.155 8.019-28.929 13.564-45.445 12.151q-94.807 4.784-189.616 9.566M370.498 598.605l.108 60.246M402.017 597.015c-18.305 1.603-36.563 2.82-53.685-5.166q-82.556-25.163-165.111-50.327M134.484 526.668l9.818 130.943M153.509 532.466c-12.717-2.426-23.77-7.568-31.273-18.503L41.72 430.447M30.56 309.089c-3.567 33.833-9.876 67.641-11.743 101.49q.207 1.931.414 3.862M123.008 211.359l-74.453 61.037"/><path stroke-width="2.3172300000000003" d="M619.979 555.095q10.956 14.91 21.913 29.82M163.817 199.7l-7.042-3.071M851.96 363.615l44.536 4.3M794.701 474.915q20.928 9.128 41.854 18.259M796.57 275.92c-2.01-14.589 5.964-19.828 19.632-19.732l17.548-3.3M165.076 507.153l-30.592 19.515M504.135 143.107l1.365-4.655M78.728 354.903q-2.911-33.243-5.825-66.486l-7.364-.711M29.567 404.097c-4.973 2.212-16.738-.557-6.745 6.749M22.927 448.982c7.399 69.122 14.792 138.245 22.191 207.367M84.385 419.475l-2.508-28.632M176.195 257.373q-1.033-18.024-2.065-36.05M187.666 457.723l-9.28-162.06M325.128 156.927l-8.824 2.718M323.873 152.181l2.11 2.873M332.38 552.843q-2.249-164.041-4.495-328.083M373.918 138.862l-6.915.244M407.849 137.663q-4.071.142-8.142.288M374.886 154.648l-15.23.546M404.974 55.964l3.892-8.523M348.204 106.431 11.614 443.82M413.678 63.614q15.286-15.074 30.568-30.148M324.914 108.555Q162.766 210.586.617 312.616M497.224 289.083l-9.533 272.55M500.97 182.01q-.828 23.644-1.655 47.288M465.503 151.401q-5.88.21-11.76.422M447.945 136.247l-3.295.117M498.415 134.465l-3.955.14M288.693 120.943l-188.074 86.663M431.562 63.954l58.754-35.917M445.512 70.678q41.092-17.926 82.185-35.851M497.613 67.004l-12.92 5.05M529.689 65.992l21.763-.577M489.618 130.35l.518-.544M547.737 47.827q7.584-2.167 15.17-4.333M486.89 73.083l8.809-3.428M540.53 158.166q-12.655-2.658-25.309-5.317M668.365 200.967c1.862-6.628-2.376-16.717 6.526-19.018M661.726 281.598l4.346-52.782M645.562 477.93l13.155-159.775M639.964 545.923l1.084-13.17M782.987 388.162l10.6-87.584M771.183 485.707l7.724-63.82"/></g></svg>