<svg xmlns="http://www.w3.org/2000/svg" xml:space="preserve" width="1232.082" height="838.215"><defs><marker id="a" markerHeight="1" markerWidth="1" orient="auto" preserveAspectRatio="xMidYMid" refX="0" refY="0" style="overflow:visible" viewBox="0 0 1 1"><path d="M5 0c0 2.76-2.24 5-5 5s-5-2.24-5-5 2.3-5 5-5c2.76 0 5 2.24 5 5" style="fill:context-stroke;fill-rule:evenodd;stroke:none" transform="scale(.5)"/></marker></defs><text xml:space="preserve" x="151.943" y="258.308" style="font-style:normal;font-variant:normal;font-weight:400;font-stretch:normal;font-size:26.6667px;font-family:Calibri;-inkscape-font-specification:Calibri;text-align:start;writing-mode:lr-tb;direction:ltr;text-anchor:start;clip-rule:evenodd;opacity:.66855;fill:#000;fill-opacity:1;fill-rule:evenodd;stroke:none;stroke-width:1.88976;stroke-miterlimit:10;stroke-dasharray:none;stroke-opacity:1"><tspan x="151.943" y="258.308" style="text-align:center;text-anchor:middle">Chevron</tspan></text><path d="M161.711 401.158V272.42" style="opacity:.669;fill:none;stroke:#4232a9;stroke-width:1.999;stroke-linejoin:round;stroke-dasharray:none;stroke-opacity:.501961;marker-start:url(#a)"/><g fill="none" stroke="#000" stroke-linejoin="round" stroke-width="3"><path stroke-width="2.57547" d="M381.144 210.475Q594.08 475.433 807.016 740.392c13.989-1.615 6.081 10.931 13.63 16.981q14.221 17.765 28.445 35.53c9.8-5.421 17.455-13.259 24.312-21.995q-245.063-310.33-490.125-620.66c-6.881 3.941-20.802 3.29-16.318 14.642 1.267 10.154-.45 21.44 2.445 30.977l10.884 13.543M366.568 156.678l495.167 627.624M385.624 245.113l4.612-2.06 7.839-3.5 3.734-1.668"/><path stroke-width="2.57547" d="m355.968 253.466.418 8.575.351 7.232.411 8.43.418 8.575.33 6.772.377 7.769.417 8.574.425 8.73.34 6.963.416 8.575.221 4.532.318 6.53.417 8.575.27 5.556.285 5.846.418 8.575.15 3.088.006.123.081 1.686.346 7.09.157 3.23.418 8.575.183 3.776.418 8.574.182 3.74.417 8.575.417 8.575.417 8.575.418 8.574.417 8.575.417 8.574.418 8.575.417 8.575.418 8.575.417 8.574.417 8.575.417 8.575.417 8.574.418 8.576.418 8.574.417 8.575.417 8.574.417 8.575.418 8.575.417 8.575.417 8.575.417 8.574.418 8.575.418 8.574.417 8.576.417 8.574.417 8.575.302 6.189.417 8.574.299 6.145 8.323 2.105 8.323 2.105 8.323 2.105 3.455.874 6.928-5.07 6.928-5.07 1.056-.773.028-.021-.355-8.577-.355-8.577-.357-8.578-.355-8.578-.356-8.578-.356-8.577-.355-8.577-.356-8.578-.356-8.577-.355-8.578-.357-8.577-.355-8.577-.355-8.578-.357-8.578-.355-8.578-.355-8.577-.357-8.578-.355-8.577-.356-8.577-.356-8.578-.355-8.577-.357-8.578-.355-8.577-.355-8.578-.357-8.578-.355-8.577-.355-8.578-.357-8.577-.355-8.577-.356-8.578-.356-8.577-.292-7.048-.355-8.578-.143-3.434-.356-8.578-.143-3.468-.357-8.577-.052-1.267-.077-1.866-.135-3.246-.355-8.578-.182-4.357-.236-5.714-.356-8.577-.09-2.143-.248-6.007-.356-8.578-.297-7.17-.278-6.704-.356-8.578-.15-3.612-.296-7.156-.356-8.578-.356-8.578-.077-1.87-.33-7.977-.325-7.812-3.373-.522"/><path stroke-width="2.57547" d="m404.45 672.772-18.826-427.659-3.396-.533"/><path stroke-width="2.57547" d="m358.086 205.023-7.934 3.28-7.934 3.28-7.658 3.166.443 8.573.323 6.247.443 8.574.089 1.717.443 8.573.098 1.904 7.29 1.166 7.869 1.258 4.41.705 4.64.742 7.842-3.493 3.993-1.777 6.31-2.811 3.475-1.547 7.842-3.492 3.555-1.584 4.81-2.141 3.18-1.416"/><path stroke-width="2.57547" d="m360.608 254.208-.412-8.575-.347-7.24-.21-4.363-.41-8.576-.336-7.012M380.289 209.41l-7.91 3.339-7.909 3.339-5.577 2.354-2.702-.41-8.487-1.288-8.488-1.288-4.656-.707M753.457 79.264l3.688-1.642 7.842-3.492 5.03-2.24 7.842-3.493 1.3-.578 3.088-1.375.113-6.734M764.22 37.674l-1.054-.107-1.735.717M815.93 776.865l-.21 8.582-.211 8.583-.211 8.582-.172 6.997"/><path stroke-width="2.57547" d="m34.828 593.221.887 8.539.578 5.57 8.31 2.159 8.309 2.158 8.308 2.158 8.31 2.158 8.31 2.158 8.308 2.158 8.31 2.159 8.309 2.157 8.31 2.158 8.309 2.158 8.309 2.159 8.308 2.158 8.31 2.157 8.309 2.158 8.31 2.159 8.309 2.158 8.309 2.158 8.31 2.158 8.309 2.158 8.309 2.158 8.308 2.158 8.31 2.159 8.309 2.157 8.31 2.158 8.309 2.158 8.309 2.159 8.31 2.158 8.308 2.157 8.31 2.159 8.308 2.158 8.31 2.158 8.309 2.158 8.31 2.158 8.308 2.158 8.31 2.158 8.31 2.158 8.308 2.159 8.309 2.157 8.31 2.158 8.308 2.158 8.31 2.159 8.31 2.158 8.308 2.157 8.31 2.159 8.309 2.158 8.31 2.158 8.309 2.158 8.308 2.158 8.31 2.158 8.309 2.158 8.309 2.158 8.31 2.158 8.309 2.158 8.309 2.158 8.31 2.158 8.308 2.159 8.309 2.157 8.31 2.158 8.309 2.159 8.309 2.158 8.31 2.158 8.309 2.157 8.309 2.159 8.31 2.158 8.308 2.158 8.309 2.158 8.31 2.158 8.309 2.158 8.309 2.158 8.31 2.158 8.308 2.159 8.31 2.157 8.31 2.158 8.308 2.159 8.309 2.158 8.31 2.158 8.308 2.157 8.31 2.159 8.31 2.158 8.308 2.158 8.31 2.158 8.308 2.158 8.31 2.158 8.309 2.158 8.31 2.158 8.308 2.159 8.31 2.157 8.309 2.158 8.31 2.159 8.309 2.158 8.308 2.158 8.31 2.157 14.385 3.737 5.71-6.41 5.71-6.412.449-.504.227-8.581.228-8.583.226-8.581.113-4.242"/><path stroke-width="2.57547" d="M826.761 765.013c-4.044 3.275-7.36 10.159-11.924 11.576"/><path stroke-width="2.57547" d="M797.072 728.019c-10.02 12.731-29.252 21.642-24.753 40.395-5.246 17.337 5.976 22.132 21.288 23.81 12.612 2.222 18.88-16.892 28.758-23.864l3.774-4.125M799.212 793.666l.73-33.492"/><path stroke-width="2.57547" d="M816.37 742.692c-8.926 10.698-17.519 22.528-32.229 13.527l-11.562-2.894M1080.575 486.138c9.032-10.28 19.117-20.127 27.555-30.661M382.851 150.413c-23.483 4.341-34.345 29.431-50.926 44.718L1.288 567.42l8.203 10.532"/><path stroke-width="2.57547" d="M366.129 156.617c-1.671 16.626 8.86 37.395-8.043 48.406M367.837 194.507l.524-.214M37.145 551.144c-1.552.285-6.438-2.637-6.798-1.062M54.243 542.152l5.852-6.282 2.474-2.656 5.852-6.282 5.851-6.281 5.852-6.28 5.852-6.282 5.852-6.282 5.852-6.282 5.851-6.281 5.852-6.282 5.852-6.281 5.852-6.282 5.852-6.281 5.851-6.281 5.852-6.282 5.852-6.281 5.852-6.282 5.852-6.281 5.851-6.282 5.852-6.281 5.852-6.282 5.852-6.281 5.852-6.281 5.851-6.282 5.852-6.281 5.852-6.282 5.851-6.281 5.853-6.282 5.851-6.282 5.852-6.281 5.852-6.28 5.851-6.282 5.853-6.282 5.851-6.281 5.852-6.282 5.852-6.282 5.851-6.281 5.853-6.282 5.851-6.281 5.852-6.281 5.852-6.282 5.851-6.281 5.853-6.282 5.851-6.281 5.852-6.282 5.852-6.281 5.851-6.282 5.853-6.281 4.106-4.407"/><path stroke-width="2.57547" d="m31.14 549.668-.793.414-7.607 3.982-.564.296-7.606 3.981-6.808 3.565.217 2.005.92 8.535.592 5.507.92 8.535.47 4.365 8.315 2.138 8.313 2.14 2.607.67 4.712-2.58 7.53-4.122 7.53-4.122 1.91-1.046.399-.219 7.53-4.122 7.53-4.123 1.872-1.024 7.53-4.123 7.53-4.122 7.53-4.123 7.53-4.122 7.53-4.122 7.531-4.123 7.53-4.122 7.53-4.123 7.531-4.122 7.53-4.123 7.53-4.122 7.53-4.123 7.531-4.122 7.531-4.123 7.53-4.122 7.53-4.122 7.53-4.123 7.53-4.122 7.532-4.123 7.53-4.122 7.53-4.123 7.53-4.122 7.53-4.123 7.53-4.122 7.53-4.123 7.532-4.122 7.53-4.123 7.53-4.122 7.53-4.122 7.53-4.123 7.53-4.122 7.531-4.123 7.53-4.122 7.53-4.123 7.531-4.123 7.53-4.123 7.53-4.122 7.531-4.123 8.46-4.631"/><path stroke-width="2.57547" d="m30.116 595.801-.895-8.538-.893-8.539-.847-8.09-.408-3.896"/><path stroke-width="2.57547" d="m362.54 388.493-7.58 4.028-7.582 4.028-7.581 4.028-7.582 4.029-7.581 4.028-7.581 4.028-6.855 3.641-7.58 4.03-7.582 4.027-6.817 3.622-7.58 4.028-7.582 4.028-7.582 4.028-7.58 4.028-7.582 4.028-7.58 4.03-7.582 4.027-7.216 3.834-7.582 4.028-7.58 4.028-7.581 4.028-.733.39-7.58 4.027-7.581 4.028-7.582 4.03-7.581 4.027-7.581 4.028-7.582 4.028-7.58 4.028-7.581 4.028-6.922 3.678-7.58 4.028-7.581 4.028-7.582 4.028-2.43 1.291-7.581 4.028-7.582 4.03-7.581 4.027-7.581 4.028-7.58 4.028-7.582 4.028-7.581 4.028-7.582 4.028-7.581 4.03-7.908 4.2-7.58 4.029-.924.49-8.328-2.084-8.328-2.085-2.655-.663M408.071 388.888l77.399-42.372-.187-6.461M465.467 118.624c1.082 12.196-.536 25.397 2.173 36.988q205.72 254.439 411.438 508.879c13.543-1.798 5.438 10.455 12.987 16.082l26.526 32.923c8.827-5.163 16.12-12.042 22.344-20.116Q710.54 403.18 480.145 112.976zM465.467 118.624l465.247 586.49"/><path stroke-width="2.57547" d="M479.732 113.135c-9.896 2.04-18.81 7.882-24.824 16.54l-47.118 51.613"/><path stroke-width="2.57547" d="M465.047 118.571c-.425 12.14 2.316 25.49-.049 36.887l-8.416 8.848M466.11 154.29l.507-.209M140.154 496.968l-5.824-1.32-.832-.19.052.598M155.453 488.921l5.929-6.208 2.343-2.454 5.929-6.209 5.928-6.208 5.93-6.21 5.929-6.208 5.928-6.209 5.929-6.208 5.929-6.209 5.928-6.21 5.93-6.208 5.929-6.209 5.929-6.208 5.928-6.21 5.929-6.208 5.929-6.209 5.928-6.208 5.93-6.209 5.929-6.21 5.928-6.208 5.93-6.209 5.928-6.208 5.929-6.21 5.93-6.208 5.928-6.209 5.929-6.208 5.928-6.209 5.929-6.21 5.929-6.208 5.928-6.209 5.93-6.208 5.929-6.209 5.928-6.21 5.93-6.208 3.7-3.874M563.866 131.918l378.61 465.796c14.21-1.496 5.21 14.899 16.488 20.319q10.379 12.81 20.756 25.62c6.665-5.764 25.637-14.338 16.711-23.467L565.618 80.088c-13.33 1.142-14.733 10.309-12.672 21.804-1.394 11.49 1.074 21.565 10.24 29.19l.615.755"/><path stroke-width="2.57547" d="M552.624 85.088Q771.99 360.294 991.352 635.501M630.014 55.31c1.767 14.311-4.981 31.694 8.255 41.87l360.417 441.33c13.056.01 7.875 18.113 20.006 24.548 7.278 5.261 12.506 25.548 22.102 13.802 11.815-6.17 14.02-15.818 2.988-23.9L641.6 50.853zM630.014 55.31l415.063 518.516"/><path stroke-width="2.57547" d="M641.214 51c-19.142 5.118-29.373 25.815-44.107 38.403l-13.095 13.745"/><path stroke-width="2.57547" d="M629.627 55.269c-1.737 14.51 5.9 31.996-8.891 41.177M629.778 87.308l.473-.193M315.894 404.54c-1.47.31-5.782-2.102-6.228-.681M328.351 397.988l33.031-33.288M699.19 28.692c1.672 13.625-5.303 30.328 7.662 39.932l342.009 417.037c12.388-.068 7.616 17.261 19.193 23.447 6.908 5.306 12.02 24.12 21.193 12.384 13.664-6.385 9.974-16.126.28-24.219L709.585 24.693zM699.19 28.692l393.815 490.11M761.396 4.758c1.055 13.78-5.082 30.094 8.283 39.544l324.249 393.894c11.876-.281 7.215 16.303 18.223 22.176 6.943 6.973 12.694 23.124 22.217 10.24 15.047-7.473.586-16.865-5.29-25.287-119.594-147.867-238.874-296.9-358.664-444.037-3.005 1.157-6.01 2.311-9.016 3.47M761.396 4.758l374.632 464.654M772.789 72.19l9.125-4.076"/><path stroke-width="2.57547" d="m781.147 113.706.767-45.592-2.1-.225-.655-.07M744.696 354.387l-.1 8.585-.102 8.584-.1 8.584-.1 8.585-.074 6.266-.092 7.831 8.452 1.507 8.452 1.506 6.585 1.173 6.928-5.069 1.754-1.284.025-.018.121-7.188"/><path stroke-width="2.57547" d="m767.617 407.008.121-7.864.133-8.584.116-7.517M1099.792 466.231l-.589 8.565-.59 8.565-.592 8.614"/><path stroke-width="2.57547" d="m1083.063 489.233 8.444 1.548 6.514 1.194 5.71-6.411.932-1.047.598-8.564.597-8.564.59-8.44-.858-.152"/><path stroke-width="2.57547" d="m1106.447 458.949-5.791 6.337-.864.945-.863-.153M455.584 362.877c-4.433 14.882 10.883 12.735 20.893 15.162l46.127 8.456M565.22 80.241c-18.811 3.988-28.45 23.92-42.302 36.166l-21.651 23.175"/><path stroke-width="2.57547" d="M552.22 85.041c-.713 11.513 2.188 24.458-.726 35.099l-8.006 8.24M552.776 118.82l.49-.2M232.55 448.373c-1.634.18-5.862-2.165-6.412-.786M246.32 441.132l113.134-116.046M709.212 24.837c-17.047 4.34-26.22 22.756-39.408 33.766q-6.022 6.214-12.042 12.43"/><path stroke-width="2.57547" d="M698.818 28.655c-.948 10.398 1.638 22.276-1.477 31.767l-7.49 7.453M698.645 59.124l.456-.186M770.412 1.288c-16.408 4.716-25.626 22.444-38.61 33.17l-7.906 8.042"/><path stroke-width="2.57547" d="M761.037 4.723c-1.987 12.39 4.815 28.544-7.873 36.348l-1.11 1.09M760.603 33.769l.44-.182M460.266 328.61c-1.795.906-4.158-2.104-5.872-.516M470.607 323.171l.619-.606M335.326 229.57 37.145 551.143M343.688 251.503 108.414 509.214M356.737 269.273Q248.447 383.12 140.154 496.968M134.33 495.647l-71.76 37.567M226.904 447.186l-63.18 33.073M310.417 403.465q-27.955 14.637-55.912 29.27M361.956 376.486q-12.765 6.68-25.529 13.364"/><path stroke-width="2.57547" d="M455.112 327.718c-14.795 7.744-29.589 15.492-44.385 23.235M475.833 328.296l-68.76 36.534M357.895 293.05 201.45 460.51M406.067 241.486l-3.934 4.21M359.115 318.122 232.551 448.373M418.522 256.985l-15.27 15.715M467.456 206.626l-21.877 22.515M556.45 123.022l.101-.105M448.896 233.342q15.895-16.303 31.79-32.608M403.55 279.856q9.14-9.377 18.282-18.753M360.092 338.193l-74.63 78.337M427.186 267.765l-23.13 24.28M498.118 193.31l-44.198 46.394M361.097 358.854q-22.601 22.844-45.203 45.686M437.96 281.171l-32.974 33.327M510.16 208.202l-45.113 45.594M546.584 171.389l-11.133 11.252M632.303 91.665l.802-.809M538.376 186.325l20.055-20.212M467.875 257.376l45.207-45.56M405.235 320.505l35.546-35.823M454.64 301.926l-48.187 47.948M527.4 229.525q-22.825 22.71-45.649 45.423M591.422 165.819l-38.73 38.537M617.61 139.76l-2.45 2.437M361.95 376.363l-.248.255M445.312 290.318l-39.632 40.907M516.85 216.477q-22.387 23.11-44.776 46.217M571.119 160.463l-29.28 30.223M700.237 63.581l1.367-1.356M617.757 145.453l10.522-10.444M555.214 207.534l38.806-38.52M484.188 278.034q22.867-22.695 45.731-45.392"/><path stroke-width="2.57547" d="M406.665 354.986q25.204-25.017 50.406-50.035M746.16 229.294q-.444 38.01-.89 76.018M747.463 118.144l-.75 63.94M469.108 319.93l-8.842 8.68M542.355 248.022l-46.115 45.273M606.809 184.748q-19.58 19.223-39.162 38.445M663.962 128.641l-33.434 32.822M461.037 309.886l-29.836 30.35M533.103 236.58l-45.279 46.058M596.511 172.08l-38.418 39.08M636.597 131.304l-16.631 16.918M456.582 164.306l-46.894 19.386M543.488 128.38l-38.484 15.909M556.589 122.964l-.14.058M620.736 96.446q-15.818 6.54-31.637 13.08M633.396 91.213l-1.093.452M689.851 67.875l-26.006 10.75M702.089 62.816l-1.852.765M752.054 42.161l-21.336 8.82M761.431 38.284l1.823-1.785M688.643 109.586l2.731-2.675M632.79 164.3q16.748-16.408 33.497-32.813M569.844 225.96l39.228-38.427M498.362 295.983l46.188-45.245M770.017 71.89c6.412 2.478.553 23.873 2.3 30.832M770.63 211.943l.994-64.337M768.733 334.727l1.18-76.349M779.313 222.784q.543-32.24 1.085-64.48M777.252 345.408q.644-38.235 1.286-76.469M687.782 108.51l37.93-16.89M614.368 141.203c14.631-6.513 29.26-13.031 43.892-19.545M531.76 177.99l51.07-22.742M438.117 219.691l59.801-26.63M477.842 168.231l-60.272 25.442M563.866 131.918q-25.722 10.858-51.443 21.715M640.292 99.657l-44.186 18.652M708.64 70.806q-19.078 8.053-38.157 16.106M770.128 44.85l-33.105 13.974M772.363 765.847 52.197 583.712M375.31 650.864 69.129 574.443M775.156 750.662 419.362 661.86M869.74 652.94q-24.643 25.46-49.284 50.92M933.674 586.884l-42.46 43.869M990.36 528.317q-18.423 19.034-36.844 38.067M1040.964 476.033l-32.173 33.242M1086.416 429.074l-28.252 29.19M977.192 469.825l59.266 10.864M859.25 448.206l77.25 14.16M727.048 423.971l87.199 15.985M577.832 396.618l99.399 18.222M500.908 359.499l-29.537-5.264M654.638 386.897q-49.16-8.762-98.32-17.523M790.851 411.172q-43.077-7.678-86.155-15.354M912.38 432.83q-38.115-6.791-76.23-13.585M1021.48 452.275l-68.062-12.13M493.913 350.795l-12.294-2.17M647.354 377.888l-97.974-17.3M744.22 394.991l-46.73-8.251M783.309 401.893l-7.01-1.238M904.605 423.31l-75.904-13.402M1013.494 442.536q-33.87-5.98-67.741-11.961M1064.645 451.567l-13.827-2.441M1032.418 538.773q15.813-17.284 31.627-34.567M978.5 597.705q18.096-19.78 36.194-39.559M917.72 664.138q20.842-22.781 41.685-45.562M848.678 739.6l48.359-52.857M887.964 666.505l-52.712 56.093M950.936 599.494l-45.825 48.763M1006.754 540.094q-20.07 21.356-40.138 42.713M1056.572 487.08l-35.392 37.662M1101.308 439.473l-31.393 33.406"/></g></svg>