<svg xmlns="http://www.w3.org/2000/svg" xml:space="preserve" width="1219.336" height="896.631"><defs><marker id="a" markerHeight="1" markerWidth="1" orient="auto" preserveAspectRatio="xMidYMid" refX="0" refY="0" style="overflow:visible" viewBox="0 0 1 1"><path d="M5 0c0 2.76-2.24 5-5 5s-5-2.24-5-5 2.3-5 5-5c2.76 0 5 2.24 5 5" style="fill:context-stroke;fill-rule:evenodd;stroke:none" transform="scale(.5)"/></marker><marker id="c" markerHeight="1" markerWidth="1" orient="auto" preserveAspectRatio="xMidYMid" refX="0" refY="0" style="overflow:visible" viewBox="0 0 1 1"><path d="M5 0c0 2.76-2.24 5-5 5s-5-2.24-5-5 2.3-5 5-5c2.76 0 5 2.24 5 5" style="fill:context-stroke;fill-rule:evenodd;stroke:none" transform="scale(.5)"/></marker><marker id="d" markerHeight="1" markerWidth="1" orient="auto" preserveAspectRatio="xMidYMid" refX="0" refY="0" style="overflow:visible" viewBox="0 0 1 1"><path d="M5 0c0 2.76-2.24 5-5 5s-5-2.24-5-5 2.3-5 5-5c2.76 0 5 2.24 5 5" style="fill:context-stroke;fill-rule:evenodd;stroke:none" transform="scale(.5)"/></marker><marker id="b" markerHeight="1" markerWidth="1" orient="auto" preserveAspectRatio="xMidYMid" refX="0" refY="0" style="overflow:visible" viewBox="0 0 1 1"><path d="M5 0c0 2.76-2.24 5-5 5s-5-2.24-5-5 2.3-5 5-5c2.76 0 5 2.24 5 5" style="fill:context-stroke;fill-rule:evenodd;stroke:none" transform="scale(.5)"/></marker></defs><g fill="none" stroke="#000" stroke-linejoin="round" stroke-width="3"><path stroke-width="2.51778" d="M115.758 544.77 604.52 56.008c.027-12.435.19-25.191.133-37.428L77.937 545.295c14.133-.862 28.64 1.01 42.51-1.765q41.593-41.591 83.185-83.184M479.885 184.093l124.76-124.761.009-1.646"/><path stroke-width="2.51778" d="M604.645 59.332c-.02-.574-.104-2.79-.124-3.325M631.025 19.697c5.709 3.106 14.571 14.192 21.494 20.376l504.996 504.996c-12.677-.696-26.344.976-38.43-1.134L631.03 55.879q.017-18.632.032-37.264M1030.097 458.396c29.012 28.277 56.953 58.418 86.63 85.539l1.968.52 1.239.328M260.898 397.477h713.883"/><path stroke-width="2.51778" d="M631.025 371.106V1.908c-8.067 2.758-27.957-6.306-26.371 6.107v10.564M631.025 371.106h-26.371M604.654 28.775v342.33M631.025 344.752c9.657-5.483 19.315-18.63 28.972-27.14 38.573-38.871 77.783-77.189 115.96-116.403-7.2-3.666-14.401-21.743-21.602-15.676l-123.33 123.33M632.06 345.106l-.12.562"/><path stroke-width="2.51778" d="M775.957 201.21 632.06 345.105l-1.036-1.036M604.654 308.863 478.36 182.57c-5.451 8.634-27.452 17.486-11.374 26.346l136.751 136.752.916-.916M603.618 345.106l.12.562"/><path stroke-width="2.51778" d="M459.722 201.21q71.949 71.947 143.896 143.896l1.036-1.036M133.471 684.439c-13.046 1.595-27.689-3.29-39.683 2.569 1.68 11.038-6.494 31.932 11.785 26.372h1034.663c-2.07-9.695 6.86-30.804-9.355-28.941h-30.013M93.788 687.008h1046.68"/><path stroke-width="2.51778" d="M1140.724 896.631V571.548h26.373V896.56M1073.848 686.403l27.806.547q-36.253-115.797-72.508-231.592l-40.223-40.206c-5.661-1.598-1.893 3.794-1.322 6.817q40.996 130.935 81.988 261.87z"/><path stroke-width="2.51778" d="M988.923 415.152q42.463 135.626 84.925 271.25M1065.63 571.552l-8.168-26.372M1210.102 545.18h-152.64l-.214-.065"/><path stroke-width="2.51778" d="m1065.512 571.51.118.042h144.472V545.18l-5.531-1.245h-48.189M98.511 892.105V713.38M93.615 896.631V571.547c-8.79.004-17.592-.006-26.372.005V896.56M132.685 686.95c9.437-.426 19.147.1 28.416-.913 5.733-1.917 5.015-8.912 7.23-13.598 26.825-85.76 53.785-171.621 80.524-257.316-5.3-.932-7.608 5.273-11.385 7.973l-32.277 32.262zM245.416 415.152l-84.925 271.25M168.71 571.552l8.168-26.372"/><path stroke-width="2.51778" d="M24.237 545.18c50.949-.044 101.922.086 152.855-.065"/><path stroke-width="2.51778" d="M79.297 543.935H29.782l-5.545 1.245v26.372H168.71l.117-.041M98.511 684.529V571.552M177.46 543.935h-58.543M292.872 371.106 461.028 202.95M248.855 415.123l17.512-17.513M631.025 55.981l.004-.102M266.367 397.61h702.945M946.255 371.106H289.424M969.312 397.61l17.524 17.525M774.65 202.95q84.08 84.077 168.156 168.156M631.025 59.324l124.77 124.77M1070.585 684.439h-906.82M1135.841 713.38v178.725M1135.841 571.552v113.02M1116.727 543.935h-59.848"/></g><text xml:space="preserve" x="615.737" y="552.62" style="font-style:normal;font-variant:normal;font-weight:400;font-stretch:normal;font-size:26.6667px;font-family:Calibri;-inkscape-font-specification:Calibri;text-align:start;writing-mode:lr-tb;direction:ltr;text-anchor:start;clip-rule:evenodd;opacity:.66855;fill:#000;fill-opacity:1;fill-rule:evenodd;stroke:none;stroke-width:1.88976;stroke-miterlimit:10;stroke-dasharray:none;stroke-opacity:1"><tspan x="615.737" y="552.62" style="text-align:center;text-anchor:middle">Entrait retroussé</tspan></text><text xml:space="preserve" x="19.111" y="85.794" style="text-align:end;writing-mode:lr-tb;direction:ltr;text-anchor:end;opacity:.669;fill:none;stroke:#553131;stroke-width:1.99937;stroke-linejoin:round"><tspan x="19.111" y="85.794">sss</tspan></text><path d="M619.291 385.329v128.738" style="opacity:.669;fill:none;stroke:#4232a9;stroke-width:1.999;stroke-linejoin:round;stroke-dasharray:none;stroke-opacity:.501961;marker-start:url(#a)"/><text xml:space="preserve" x="133.465" y="804.439" style="font-style:normal;font-variant:normal;font-weight:400;font-stretch:normal;font-size:26.6667px;font-family:Calibri;-inkscape-font-specification:Calibri;text-align:start;writing-mode:lr-tb;direction:ltr;text-anchor:start;clip-rule:evenodd;opacity:.66855;fill:#000;fill-opacity:1;fill-rule:evenodd;stroke:none;stroke-width:1.88976;stroke-miterlimit:10;stroke-dasharray:none;stroke-opacity:1"><tspan x="133.465" y="804.439" style="text-align:start;text-anchor:start">La jambe de force prend appui soit sur une poutre</tspan><tspan x="133.465" y="837.772" style="text-align:start;text-anchor:start">ou directement dans le mur </tspan></text><path d="M149.73 700.705v71.536" style="opacity:.669;fill:none;stroke:#4232a9;stroke-width:1.999;stroke-linejoin:round;stroke-dasharray:none;stroke-opacity:.501961;marker-start:url(#b)"/><text xml:space="preserve" x="146.089" y="359.202" style="font-style:normal;font-variant:normal;font-weight:400;font-stretch:normal;font-size:26.6667px;font-family:Calibri;-inkscape-font-specification:Calibri;text-align:start;writing-mode:lr-tb;direction:ltr;text-anchor:start;clip-rule:evenodd;opacity:.66855;fill:#000;fill-opacity:1;fill-rule:evenodd;stroke:none;stroke-width:1.88976;stroke-miterlimit:10;stroke-dasharray:none;stroke-opacity:1"><tspan x="146.089" y="359.202" style="text-align:center;text-anchor:middle">Jambe de force</tspan></text><path d="M199.218 505.053V376.315" style="opacity:.669;fill:none;stroke:#4232a9;stroke-width:1.999;stroke-linejoin:round;stroke-dasharray:none;stroke-opacity:.501961;marker-start:url(#c)"/><text xml:space="preserve" x="1179.167" y="413.969" style="font-style:normal;font-variant:normal;font-weight:400;font-stretch:normal;font-size:26.6667px;font-family:Calibri;-inkscape-font-specification:Calibri;text-align:start;writing-mode:lr-tb;direction:ltr;text-anchor:start;clip-rule:evenodd;opacity:.66855;fill:#000;fill-opacity:1;fill-rule:evenodd;stroke:none;stroke-width:1.88976;stroke-miterlimit:10;stroke-dasharray:none;stroke-opacity:1"><tspan x="1179.167" y="413.969" style="text-align:center;text-anchor:middle">Blochet</tspan></text><path d="M1125.52 557.278V428.54" style="opacity:.669;fill:none;stroke:#4232a9;stroke-width:1.999;stroke-linejoin:round;stroke-dasharray:none;stroke-opacity:.501961;marker-start:url(#d)"/></svg>