<svg xmlns="http://www.w3.org/2000/svg" xml:space="preserve" width="1232.082" height="838.215"><defs><marker id="a" markerHeight="1" markerWidth="1" orient="auto" preserveAspectRatio="xMidYMid" refX="0" refY="0" style="overflow:visible" viewBox="0 0 1 1"><path d="M5 0c0 2.76-2.24 5-5 5s-5-2.24-5-5 2.3-5 5-5c2.76 0 5 2.24 5 5" style="fill:context-stroke;fill-rule:evenodd;stroke:none" transform="scale(.5)"/></marker><marker id="b" markerHeight="1" markerWidth="1" orient="auto" preserveAspectRatio="xMidYMid" refX="0" refY="0" style="overflow:visible" viewBox="0 0 1 1"><path d="M5 0c0 2.76-2.24 5-5 5s-5-2.24-5-5 2.3-5 5-5c2.76 0 5 2.24 5 5" style="fill:context-stroke;fill-rule:evenodd;stroke:none" transform="scale(.5)"/></marker><marker id="c" markerHeight="1" markerWidth="1" orient="auto" preserveAspectRatio="xMidYMid" refX="0" refY="0" style="overflow:visible" viewBox="0 0 1 1"><path d="M5 0c0 2.76-2.24 5-5 5s-5-2.24-5-5 2.3-5 5-5c2.76 0 5 2.24 5 5" style="fill:context-stroke;fill-rule:evenodd;stroke:none" transform="scale(.5)"/></marker></defs><g fill="none" stroke="#000" stroke-linejoin="round" stroke-width="3"><path d="M631.633 55.76q.001-19.18.002-38.36M1079.41 331.673c-7.293-6.828-21.796-15.506-31.856-23.042Q839.594 163.016 631.634 17.4l-.087 2.017-.011.264"/><path d="M1080.32 331.574c-18.701-.818-38.41 1.558-56.498-1.2L631.632 55.76l-.096 2.007M1025.476 331.532l-1.133.141"/><path d="M1077.625 363.274c17.359 5.014 8.114-16.37 10.369-26.236-.707-11.29-21.39-2.603-30.624-5.365H143.656c2.53 9.502-5.309 28.957 4.366 31.601h7.216M143.656 363.095h28.569"/><path d="M631.536 333.78V1.5h-31.422v332.28M631.536 333.78h-31.422M1094.536 517.753l98.256 313.829c8.296 8.195 21.363 2.923 31.914 4.755 12.587 2.952.89-12.31.68-18.956q-71.077-227.024-142.155-454.048l-33.037-.348M1050.194 362.985l148.037 472.831"/><path d="M1099.027 519.022c-7.628-16.706-7.43-39.169-20.105-52.16L929.117 363.065c-19.164.14-38.346-.197-57.5.241 75.377 51.454 149.655 105.238 225.718 155.238zM874.029 363.126l224.998 155.896M182.669 362.985c-13.552 2.535-36.375-7.412-36.893 12.667L1.5 836.468c14.372-2.607 39.663 7.235 41.548-14.429q47.633-152.143 95.268-304.286M182.669 362.985 34.632 835.816"/><path d="m149.16 470.175-15.324 48.847c42.775-25.308 82.68-56.694 124.36-84.323 33.95-23.739 69.955-48.037 102.612-71.425-19.642 1.118-41.103-2.913-59.754 1.656zM358.834 363.126 133.836 519.022M600.088 55.76q0-19.18-.002-38.36"/><path d="M600.114 18.043c-146.458 101.007-295.08 206.396-442.37 309.089.012.816-8.509 4.664-5.434 4.541"/><path d="M151.4 331.574c19.583-2.038 41.76 4.146 59.61-3.378L600.088 55.76l.026.541M206.245 331.532l1.133.141M154.334 466.59l32.347-103.316M436.789 173.258 600.114 58.896M210.548 331.673l197.394-138.217M408.4 193.135l191.714 110.686M407.942 193.456l192.172 110.95"/><path d="M600.114 267.554q-82.898-47.86-165.794-95.722M797.4 171.832q-82.931 47.882-165.864 95.763M631.536 304.447l192.242-110.991M823.32 193.136q-95.891 55.365-191.784 110.726M823.778 193.456q98.697 69.11 197.395 138.217M631.536 58.847l163.396 114.411M929.418 363.274h116.753M360.808 363.274h511.238M186.68 363.274h116.765M1060.638 363.095h27.356M929.16 363.095h118.579M331.158 363.095h570.554M185.118 363.095h118.585M1046.17 363.274l32.345 103.306"/></g><text xml:space="preserve" x="611.589" y="518.58" style="font-style:normal;font-variant:normal;font-weight:400;font-stretch:normal;font-size:26.6667px;font-family:Calibri;-inkscape-font-specification:Calibri;text-align:start;writing-mode:lr-tb;direction:ltr;text-anchor:start;clip-rule:evenodd;opacity:.66855;fill:#000;fill-opacity:1;fill-rule:evenodd;stroke:none;stroke-width:1.88976;stroke-miterlimit:10;stroke-dasharray:none;stroke-opacity:1"><tspan x="611.589" y="518.58" style="text-align:center;text-anchor:middle">Entrait retroussé</tspan></text><text xml:space="preserve" x="30.217" y="79.72" style="text-align:end;writing-mode:lr-tb;direction:ltr;text-anchor:end;opacity:.669;fill:none;stroke:#553131;stroke-width:1.99937;stroke-linejoin:round"><tspan x="30.217" y="79.72">sss</tspan></text><path d="M615.143 351.29v128.737" style="opacity:.669;fill:none;stroke:#4232a9;stroke-width:1.999;stroke-linejoin:round;stroke-dasharray:none;stroke-opacity:.501961;marker-start:url(#a)"/><text xml:space="preserve" x="129.23" y="257.792" style="font-style:normal;font-variant:normal;font-weight:400;font-stretch:normal;font-size:26.6667px;font-family:Calibri;-inkscape-font-specification:Calibri;text-align:start;writing-mode:lr-tb;direction:ltr;text-anchor:start;clip-rule:evenodd;opacity:.66855;fill:#000;fill-opacity:1;fill-rule:evenodd;stroke:none;stroke-width:1.88976;stroke-miterlimit:10;stroke-dasharray:none;stroke-opacity:1"><tspan x="129.23" y="257.792" style="text-align:center;text-anchor:middle">Jambe de force</tspan></text><path d="M155.665 398.558V269.82" style="opacity:.669;fill:none;stroke:#4232a9;stroke-width:1.999;stroke-linejoin:round;stroke-dasharray:none;stroke-opacity:.501961;marker-start:url(#b)"/><text xml:space="preserve" x="976.72" y="584.585" style="font-style:normal;font-variant:normal;font-weight:400;font-stretch:normal;font-size:26.6667px;font-family:Calibri;-inkscape-font-specification:Calibri;text-align:start;writing-mode:lr-tb;direction:ltr;text-anchor:start;clip-rule:evenodd;opacity:.66855;fill:#000;fill-opacity:1;fill-rule:evenodd;stroke:none;stroke-width:1.88976;stroke-miterlimit:10;stroke-dasharray:none;stroke-opacity:1"><tspan x="976.72" y="584.585" style="text-align:center;text-anchor:middle">aisselier</tspan></text><path d="M985.359 423.65v128.738" style="opacity:.669;fill:none;stroke:#4232a9;stroke-width:1.999;stroke-linejoin:round;stroke-dasharray:none;stroke-opacity:.501961;marker-start:url(#c)"/></svg>