<svg xmlns="http://www.w3.org/2000/svg" xml:space="preserve" width="884.073" height="419.112"><defs><marker id="a" markerHeight="1" markerWidth="1" orient="auto" preserveAspectRatio="xMidYMid" refX="0" refY="0" style="overflow:visible" viewBox="0 0 1 1"><path d="M5 0c0 2.76-2.24 5-5 5s-5-2.24-5-5 2.3-5 5-5c2.76 0 5 2.24 5 5" style="fill:context-stroke;fill-rule:evenodd;stroke:none" transform="scale(.5)"/></marker><marker id="b" markerHeight="1" markerWidth="1" orient="auto" preserveAspectRatio="xMidYMid" refX="0" refY="0" style="overflow:visible" viewBox="0 0 1 1"><path d="M5 0c0 2.76-2.24 5-5 5s-5-2.24-5-5 2.3-5 5-5c2.76 0 5 2.24 5 5" style="fill:context-stroke;fill-rule:evenodd;stroke:none" transform="scale(.5)"/></marker><marker id="c" markerHeight="1" markerWidth="1" orient="auto" preserveAspectRatio="xMidYMid" refX="0" refY="0" style="overflow:visible" viewBox="0 0 1 1"><path d="M5 0c0 2.76-2.24 5-5 5s-5-2.24-5-5 2.3-5 5-5c2.76 0 5 2.24 5 5" style="fill:context-stroke;fill-rule:evenodd;stroke:none" transform="scale(.5)"/></marker><marker id="d" markerHeight="1" markerWidth="1" orient="auto" preserveAspectRatio="xMidYMid" refX="0" refY="0" style="overflow:visible" viewBox="0 0 1 1"><path d="M5 0c0 2.76-2.24 5-5 5s-5-2.24-5-5 2.3-5 5-5c2.76 0 5 2.24 5 5" style="fill:context-stroke;fill-rule:evenodd;stroke:none" transform="scale(.5)"/></marker><marker id="e" markerHeight="1" markerWidth="1" orient="auto" preserveAspectRatio="xMidYMid" refX="0" refY="0" style="overflow:visible" viewBox="0 0 1 1"><path d="M5 0c0 2.76-2.24 5-5 5s-5-2.24-5-5 2.3-5 5-5c2.76 0 5 2.24 5 5" style="fill:context-stroke;fill-rule:evenodd;stroke:none" transform="scale(.5)"/></marker></defs><text xml:space="preserve" x="98.617" y="117.112" style="font-style:normal;font-variant:normal;font-weight:400;font-stretch:normal;font-size:26.6667px;font-family:Calibri;-inkscape-font-specification:Calibri;text-align:start;writing-mode:lr-tb;direction:ltr;text-anchor:start;clip-rule:evenodd;opacity:.66855;fill:#000;fill-opacity:1;fill-rule:evenodd;stroke:none;stroke-width:1.88976;stroke-miterlimit:10;stroke-dasharray:none;stroke-opacity:1"><tspan x="98.617" y="117.112" style="text-align:center;text-anchor:middle">Arbalètrier</tspan></text><path d="M108.385 259.961V131.223" style="opacity:.669;fill:none;stroke:#4232a9;stroke-width:1.999;stroke-linejoin:round;stroke-dasharray:none;stroke-opacity:.501961;marker-start:url(#a)"/><text xml:space="preserve" x="808.45" y="219.731" style="font-style:normal;font-variant:normal;font-weight:400;font-stretch:normal;font-size:26.6667px;font-family:Calibri;-inkscape-font-specification:Calibri;text-align:start;writing-mode:lr-tb;direction:ltr;text-anchor:start;clip-rule:evenodd;opacity:.66855;fill:#000;fill-opacity:1;fill-rule:evenodd;stroke:none;stroke-width:1.88976;stroke-miterlimit:10;stroke-dasharray:none;stroke-opacity:1"><tspan x="808.45" y="219.731" style="text-align:center;text-anchor:middle">Entrait</tspan></text><path d="M818.219 362.58V233.842" style="opacity:.669;fill:none;stroke:#4232a9;stroke-width:1.999;stroke-linejoin:round;stroke-dasharray:none;stroke-opacity:.501961;marker-start:url(#b)"/><text xml:space="preserve" x="236.438" y="88.931" style="font-style:normal;font-variant:normal;font-weight:400;font-stretch:normal;font-size:26.6667px;font-family:Calibri;-inkscape-font-specification:Calibri;text-align:start;writing-mode:lr-tb;direction:ltr;text-anchor:start;clip-rule:evenodd;opacity:.66855;fill:#000;fill-opacity:1;fill-rule:evenodd;stroke:none;stroke-width:1.88976;stroke-miterlimit:10;stroke-dasharray:none;stroke-opacity:1"><tspan x="236.438" y="88.931" style="text-align:center;text-anchor:middle">Contre-fiche</tspan></text><path d="M246.206 231.78V103.044" style="opacity:.669;fill:none;stroke:#4232a9;stroke-width:1.999;stroke-linejoin:round;stroke-dasharray:none;stroke-opacity:.501961;marker-start:url(#c)"/><text xml:space="preserve" x="421.703" y="18.242" style="font-style:normal;font-variant:normal;font-weight:400;font-stretch:normal;font-size:26.6667px;font-family:Calibri;-inkscape-font-specification:Calibri;text-align:start;writing-mode:lr-tb;direction:ltr;text-anchor:start;clip-rule:evenodd;opacity:.66855;fill:#000;fill-opacity:1;fill-rule:evenodd;stroke:none;stroke-width:1.88976;stroke-miterlimit:10;stroke-dasharray:none;stroke-opacity:1"><tspan x="421.703" y="18.242" style="text-align:center;text-anchor:middle">Contre-fiche</tspan></text><path d="M431.472 161.092V32.354" style="opacity:.669;fill:none;stroke:#4232a9;stroke-width:1.999;stroke-linejoin:round;stroke-dasharray:none;stroke-opacity:.501961;marker-start:url(#d)"/><text xml:space="preserve" x="374.386" y="412.41" style="font-style:normal;font-variant:normal;font-weight:400;font-stretch:normal;font-size:21.3333px;font-family:Calibri;-inkscape-font-specification:Calibri;text-align:start;writing-mode:lr-tb;direction:ltr;text-anchor:start;clip-rule:evenodd;opacity:.66855;fill:#000;fill-opacity:1;fill-rule:evenodd;stroke:none;stroke-width:1.88976;stroke-miterlimit:10;stroke-dasharray:none;stroke-opacity:1"><tspan x="374.386" y="412.41" style="font-size:21.3333px;text-align:center;text-anchor:middle">Assemblages effectués par plaques de gousset ou par connecteurs métalliques</tspan></text><path d="M509.565 327.856v67.845" style="opacity:.669;fill:none;stroke:#4232a9;stroke-width:1.999;stroke-linejoin:round;stroke-dasharray:none;stroke-opacity:.501961;marker-start:url(#e)"/><g fill="none" stroke="#000" stroke-linejoin="round" stroke-width="3"><path d="M85.716 682.877c-24.6 13.38-48.09 29.008-72.258 43.263l1902.707 111.01c-7.577-19.472-1.114-6.091-22.415-23.764-11.718-6.945-66.807-42.177-78.701-48.552M1815.771 764.872l.175.507" transform="matrix(.4639 0 0 .52458 -5.548 -57.662)"/><path d="m82.591 684.092 1737.75 93.973q47.912 29.543 95.824 59.085M680.571 673.542c-50.267-63.898-99.462-131.473-150.396-193.084-19.771 5.854-36.176 18.92-54.216 28.478L633.416 713.19" transform="matrix(.4639 0 0 .52458 -5.548 -57.662)"/><path d="M516.139 485.521q78.826 102.202 157.648 204.406l.561 24.854M673.787 689.927l.135-.087M885.977 268.785l-.291-60.807M896.122 206.401c-34.067 9.635-62.566 35.405-94.442 51.378L84.703 682.82c39.747-1.251 84.14 15.93 118.472-11.102l274.502-160.554" transform="matrix(.4639 0 0 .52458 -5.548 -57.662)"/><path d="M886.065 268.763C647.471 408.348 408.919 548.041 170.342 687.666" transform="matrix(.4639 0 0 .52458 -5.548 -57.662)"/><path d="M896.241 206.383c-21.203-.604-5.635 30.185-10.255 43.739-6.908 18.865 8.956 24.898 22.376 32.307l798.709 488.174 113.42 5.861c-6.228-22.018 6.383.072-9.453-14.183-290.937-176.83-623.86-379.068-914.797-555.898ZM885.808 207.995l934.683 568.469M890.757 358.419 727.003 708.233c-24.894 21.78 3.625-20.406 6.735-32.165L886.2 349.758c-.114-26.635.192-53.988-.178-80.188-21.365 7.09-32.88 23.298-39.394 44.133-57.304 125.431-116.735 250.442-172.707 376.137q.51 12.578 1.023 25.157" transform="matrix(.4639 0 0 .52458 -5.548 -57.662)"/><path d="M1329.897 540.133a51776 51776 0 0 0-46.446-28.279M1110.137 738.297c-3.344-19.319 4.116-34.536 18.714-47.045 51.559-59.84 103.141-119.662 154.685-179.515" transform="matrix(.4639 0 0 .52458 -5.548 -57.662)"/><path d="M1283.02 511.421c-57.35 67.165-115.93 133.331-172.515 201.12M1154.59 741.342c58.442-67.086 116.904-134.158 175.333-201.253M886.022 269.483l.001.087M886.181 287.804c1.796 30.157-5.886 62.46 13.036 88.737l167.837 359.5M1117.354 703.705c-61.276-136.825-126.672-272.877-189.519-409.374M1117.424 701.632l-7.006 9.008" transform="matrix(.4639 0 0 .52458 -5.548 -57.662)"/><path d="M1109.495 738.454c6.547-38.283-22.212-69.36-34.467-103.806q-81.482-174.962-162.963-349.925l-26.043-15.24M912.065 284.723l.034-.01M530.175 480.458q164.021-95.934 328.043-191.868M886.717 349.574l-.516.184M624.547 701.684l-433.309-22.985M1061.844 724.88q-167.166-8.866-334.333-17.734M1686.473 758.014q-261.135-13.854-522.271-27.704M1819.774 776.427l.567 1.638" transform="matrix(.4639 0 0 .52458 -5.548 -57.662)"/></g></svg>