<svg xmlns="http://www.w3.org/2000/svg" xml:space="preserve" width="1401.132" height="874.341"><defs><marker id="a" markerHeight="1" markerWidth="1" orient="auto" preserveAspectRatio="xMidYMid" refX="0" refY="0" style="overflow:visible" viewBox="0 0 1 1"><path d="M5 0c0 2.76-2.24 5-5 5s-5-2.24-5-5 2.3-5 5-5c2.76 0 5 2.24 5 5" style="fill:context-stroke;fill-rule:evenodd;stroke:none" transform="scale(.5)"/></marker><marker id="b" markerHeight="1" markerWidth="1" orient="auto" preserveAspectRatio="xMidYMid" refX="0" refY="0" style="overflow:visible" viewBox="0 0 1 1"><path d="M5 0c0 2.76-2.24 5-5 5s-5-2.24-5-5 2.3-5 5-5c2.76 0 5 2.24 5 5" style="fill:context-stroke;fill-rule:evenodd;stroke:none" transform="scale(.5)"/></marker></defs><path d="M702.4 680.405v128.737" style="opacity:.669;fill:none;stroke:#4232a9;stroke-width:1.999;stroke-linejoin:round;stroke-dasharray:none;stroke-opacity:.501961;marker-start:url(#a)"/><path d="M427.874 322.813V194.075" style="opacity:.669;fill:none;stroke:#4232a9;stroke-width:1.999;stroke-linejoin:round;stroke-dasharray:none;stroke-opacity:.501961;marker-start:url(#b)"/><text xml:space="preserve" x="724.269" y="836.255" style="font-style:normal;font-variant:normal;font-weight:400;font-stretch:normal;font-size:26.6667px;font-family:Calibri;-inkscape-font-specification:Calibri;text-align:start;writing-mode:lr-tb;direction:ltr;text-anchor:start;clip-rule:evenodd;opacity:.66855;fill:#000;fill-opacity:1;fill-rule:evenodd;stroke:none;stroke-width:1.88976;stroke-miterlimit:10;stroke-dasharray:none;stroke-opacity:1"><tspan x="724.269" y="836.255" style="text-align:center;text-anchor:middle">Le poids de l&apos;entrait est soutenue par </tspan><tspan x="724.269" y="869.588" style="text-align:center;text-anchor:middle">le poinçon qui &quot;renvoie&quot; la charge aux arbalètriers</tspan></text><g fill="none" stroke="#000" stroke-linejoin="round" stroke-width="3"><path stroke-width="2.5111499999999998" d="M60.988 647.746H15.562l-14.306 6.2v46.62h1398.621v-46.62c-15.853-8.7-30.282-6.2-47.79-6.2h-11.943M1399.877 653.946H1.256"/><path stroke-width="2.5111499999999998" d="M723.876 1.256h-46.62v652.69h46.62zM723.876 605.607c3.3 4.089 6.6-4.703 9.9-6.323Q856.706 476.358 979.632 353.43l-32.897-32.897c-6.387-.248-9.18 6.87-13.793 10.255L723.876 539.85M677.256 539.851l-218.82-218.82c-5.67-2.172-8.193 4.806-12.149 7.614q-12.392 12.392-24.785 24.785l253.965 253.966 1.789-1.788M677.256 31.478 54.788 653.946M677.256 543.39 454.399 320.534M458.082 320.988l219.174-219.174M131.324 647.746l292.247-292.247M677.256 97.272 126.782 647.746"/><path stroke-width="2.5111499999999998" d="M723.876 543.39q111.43-111.427 222.858-222.857M977.562 355.5l292.246 292.246M723.876 101.814 943.05 320.988M723.876 97.272l550.474 550.474M1346.344 653.946 723.876 31.478M677.256 647.746H131.324M1269.808 647.746H723.876"/></g><text xml:space="preserve" x="503.614" y="141.351" style="font-style:normal;font-variant:normal;font-weight:400;font-stretch:normal;font-size:26.6667px;font-family:Calibri;-inkscape-font-specification:Calibri;text-align:end;writing-mode:lr-tb;direction:ltr;text-anchor:end;clip-rule:evenodd;opacity:.66855;fill:#000;fill-opacity:1;fill-rule:evenodd;stroke:none;stroke-width:1.88976;stroke-miterlimit:10;stroke-dasharray:none;stroke-opacity:1"><tspan x="503.614" y="141.351" style="text-align:end;text-anchor:end">Les contrefiches réduisent la portée des </tspan><tspan x="503.614" y="174.685" style="text-align:end;text-anchor:end">arbalétriers et donc leur féchissement</tspan></text><text xml:space="preserve" x="135.27" y="30.033" style="text-align:end;writing-mode:lr-tb;direction:ltr;text-anchor:end;opacity:.669;fill:none;stroke:#553131;stroke-width:1.99937;stroke-linejoin:round"><tspan x="135.27" y="30.033">s</tspan></text></svg>