<svg xmlns="http://www.w3.org/2000/svg" xml:space="preserve" width="1423.768" height="741.394"><defs><marker id="a" markerHeight="1" markerWidth="1" orient="auto" preserveAspectRatio="xMidYMid" refX="0" refY="0" style="overflow:visible" viewBox="0 0 1 1"><path d="M5 0c0 2.76-2.24 5-5 5s-5-2.24-5-5 2.3-5 5-5c2.76 0 5 2.24 5 5" style="fill:context-stroke;fill-rule:evenodd;stroke:none" transform="scale(.5)"/></marker></defs><text xml:space="preserve" x="755.467" y="653.651" style="font-style:normal;font-variant:normal;font-weight:400;font-stretch:normal;font-size:26.6667px;font-family:Calibri;-inkscape-font-specification:Calibri;text-align:start;writing-mode:lr-tb;direction:ltr;text-anchor:start;clip-rule:evenodd;opacity:.66855;fill:#000;fill-opacity:1;fill-rule:evenodd;stroke:none;stroke-width:1.88976;stroke-miterlimit:10;stroke-dasharray:none;stroke-opacity:1"><tspan x="755.467" y="653.651" style="text-align:center;text-anchor:middle">Entrait retroussé</tspan></text><path d="M759.021 486.36v128.738" style="opacity:.669;fill:none;stroke:#4232a9;stroke-width:1.999;stroke-linejoin:round;stroke-dasharray:none;stroke-opacity:.501961;marker-start:url(#a)"/><g fill="none" stroke="#000" stroke-linejoin="round" stroke-width="3"><path stroke-width="2.40267" d="M25.05 740.192q334.901-334.9 669.801-669.802c.036-15.905.24-32.216.17-47.867L1.201 716.343c9.31 6.081 16.924 23.632 27.381 21.957 22.506-17.15 40.813-39.956 61.669-59.33q85.944-85.942 171.887-171.887M1398.718 740.192 728.752 70.226l.041-47.656"/><path stroke-width="2.40267" d="M1161.63 507.083c76.878 76.331 152.823 153.92 230.285 229.465 11.507 8.74 18.618-12.244 28.041-17.595 2.848-8.892-15.723-17.787-21.458-26.68Q1063.645 357.424 728.793 22.57l-.046.967M695.021 35.508v437.85h33.726V1.2H695.02v21.322"/><path stroke-width="2.40267" d="M728.747 438.712c6.054.102 12.108-11.238 18.163-15.52l167.157-167.157-23.834-23.834c-54.23 53.227-107.594 107.45-161.486 161.056M695.021 393.257c-53.895-53.61-107.254-107.825-161.485-161.056L509.7 256.035 693.7 440.033l1.103-1.103.218-.218M695.021 73.396l-.17-3.006M535.488 233.734 695.02 74.2M297.112 472.11l214.332-214.333M695.021 393.686 533.536 232.201M728.747 70.318l.005-.092M728.747 393.687l161.486-161.486M695.021 472.11h-397.91M1126.656 472.11h-397.91M258.159 507.083h907.45M1127.904 473.358h-832.04M912.324 257.777l214.332 214.333M728.747 74.2 888.28 233.735"/></g></svg>