<svg xmlns="http://www.w3.org/2000/svg" xml:space="preserve" width="1200" height="300"><defs><marker id="a" markerHeight="1" markerWidth="1" orient="auto" preserveAspectRatio="xMidYMid" refX="0" refY="0" style="overflow:visible" viewBox="0 0 1 1"><path d="M5 0c0 2.76-2.24 5-5 5s-5-2.24-5-5 2.3-5 5-5c2.76 0 5 2.24 5 5" style="fill:context-stroke;fill-rule:evenodd;stroke:none" transform="scale(.5)"/></marker><marker id="b" markerHeight="1" markerWidth="1" orient="auto" preserveAspectRatio="xMidYMid" refX="0" refY="0" style="overflow:visible" viewBox="0 0 1 1"><path d="M5 0c0 2.76-2.24 5-5 5s-5-2.24-5-5 2.3-5 5-5c2.76 0 5 2.24 5 5" style="fill:context-stroke;fill-rule:evenodd;stroke:none" transform="scale(.5)"/></marker><marker id="c" markerHeight="1" markerWidth="1" orient="auto" preserveAspectRatio="xMidYMid" refX="0" refY="0" style="overflow:visible" viewBox="0 0 1 1"><path d="M5 0c0 2.76-2.24 5-5 5s-5-2.24-5-5 2.3-5 5-5c2.76 0 5 2.24 5 5" style="fill:context-stroke;fill-rule:evenodd;stroke:none" transform="scale(.5)"/></marker><marker id="d" markerHeight="1" markerWidth="1" orient="auto" preserveAspectRatio="xMidYMid" refX="0" refY="0" style="overflow:visible" viewBox="0 0 1 1"><path d="M5 0c0 2.76-2.24 5-5 5s-5-2.24-5-5 2.3-5 5-5c2.76 0 5 2.24 5 5" style="fill:context-stroke;fill-rule:evenodd;stroke:none" transform="scale(.5)"/></marker><marker id="e" markerHeight="1" markerWidth="1" orient="auto" preserveAspectRatio="xMidYMid" refX="0" refY="0" style="overflow:visible" viewBox="0 0 1 1"><path d="M5 0c0 2.76-2.24 5-5 5s-5-2.24-5-5 2.3-5 5-5c2.76 0 5 2.24 5 5" style="fill:context-stroke;fill-rule:evenodd;stroke:none" transform="scale(.5)"/></marker></defs><path d="M623.607 241.848V27.203H416.733" style="opacity:.669;fill:none;stroke:#4232a9;stroke-width:1.999;stroke-linejoin:round;stroke-dasharray:none;stroke-opacity:.501961;marker-start:url(#a)"/><text xml:space="preserve" x="20.188" y="31.808" style="font-style:normal;font-variant:normal;font-weight:400;font-stretch:normal;font-size:21.3333px;line-height:1;font-family:Calibri;-inkscape-font-specification:Calibri;text-align:start;writing-mode:lr-tb;direction:ltr;text-anchor:start;clip-rule:evenodd;opacity:.66855;fill:#000;fill-opacity:1;fill-rule:evenodd;stroke:none;stroke-width:1.88976;stroke-miterlimit:10;stroke-dasharray:none;stroke-opacity:1"><tspan x="20.188" y="31.808" style="font-size:21.3333px"><tspan x="20.188" y="31.808" style="font-size:21.3333px;text-align:start;text-anchor:start">1. Vérifier que la profondeur du fond de mor- </tspan></tspan></text><text xml:space="preserve" x="855.233" y="31.552" style="font-style:normal;font-variant:normal;font-weight:400;font-stretch:normal;font-size:21.3333px;line-height:1;font-family:Calibri;-inkscape-font-specification:Calibri;text-align:start;writing-mode:lr-tb;direction:ltr;text-anchor:start;clip-rule:evenodd;opacity:.66855;fill:#000;fill-opacity:1;fill-rule:evenodd;stroke:none;stroke-width:1.88976;stroke-miterlimit:10;stroke-dasharray:none;stroke-opacity:1"><tspan x="855.233" y="31.552" style="font-size:21.3333px"><tspan x="855.233" y="31.552" style="font-size:21.3333px;text-align:start;text-anchor:start">3. Vérifier la verticalité/orthogonalité</tspan></tspan></text><text xml:space="preserve" x="816.306" y="53.958" style="font-style:normal;font-variant:normal;font-weight:400;font-stretch:normal;font-size:21.3333px;line-height:1;font-family:Calibri;-inkscape-font-specification:Calibri;text-align:start;writing-mode:lr-tb;direction:ltr;text-anchor:start;clip-rule:evenodd;opacity:.66855;fill:#000;fill-opacity:1;fill-rule:evenodd;stroke:none;stroke-width:1.88976;stroke-miterlimit:10;stroke-dasharray:none;stroke-opacity:1"><tspan x="816.306" y="53.958" style="font-size:21.3333px"> des abouts d’embrèvement et de mortaise. </tspan></text><text xml:space="preserve" x="854.733" y="95.059" style="font-style:normal;font-variant:normal;font-weight:400;font-stretch:normal;font-size:21.3333px;line-height:1;font-family:Calibri;-inkscape-font-specification:Calibri;text-align:start;writing-mode:lr-tb;direction:ltr;text-anchor:start;clip-rule:evenodd;opacity:.66855;fill:#000;fill-opacity:1;fill-rule:evenodd;stroke:none;stroke-width:1.88976;stroke-miterlimit:10;stroke-dasharray:none;stroke-opacity:1"><tspan x="854.733" y="95.059" style="font-size:21.3333px"><tspan x="854.733" y="95.059" style="font-size:21.3333px;text-align:start;text-anchor:start">4. Vérifier la verticalité/orthogonalité</tspan></tspan></text><text xml:space="preserve" x="829.806" y="117.466" style="font-style:normal;font-variant:normal;font-weight:400;font-stretch:normal;font-size:21.3333px;line-height:1;font-family:Calibri;-inkscape-font-specification:Calibri;text-align:start;writing-mode:lr-tb;direction:ltr;text-anchor:start;clip-rule:evenodd;opacity:.66855;fill:#000;fill-opacity:1;fill-rule:evenodd;stroke:none;stroke-width:1.88976;stroke-miterlimit:10;stroke-dasharray:none;stroke-opacity:1"><tspan x="829.806" y="117.466" style="font-size:21.3333px">du parement de la mortaise</tspan></text><text xml:space="preserve" x="854.733" y="174.01" style="font-style:normal;font-variant:normal;font-weight:400;font-stretch:normal;font-size:21.3333px;line-height:1;font-family:Calibri;-inkscape-font-specification:Calibri;text-align:start;writing-mode:lr-tb;direction:ltr;text-anchor:start;clip-rule:evenodd;opacity:.66855;fill:#000;fill-opacity:1;fill-rule:evenodd;stroke:none;stroke-width:1.88976;stroke-miterlimit:10;stroke-dasharray:none;stroke-opacity:1"><tspan x="854.733" y="174.01" style="font-size:21.3333px"><tspan x="854.733" y="174.01" style="font-size:21.3333px;text-align:start;text-anchor:start">5. Vérifier l&apos;orthogonalité</tspan></tspan></text><text xml:space="preserve" x="829.806" y="196.416" style="font-style:normal;font-variant:normal;font-weight:400;font-stretch:normal;font-size:21.3333px;line-height:1;font-family:Calibri;-inkscape-font-specification:Calibri;text-align:start;writing-mode:lr-tb;direction:ltr;text-anchor:start;clip-rule:evenodd;opacity:.66855;fill:#000;fill-opacity:1;fill-rule:evenodd;stroke:none;stroke-width:1.88976;stroke-miterlimit:10;stroke-dasharray:none;stroke-opacity:1"><tspan x="829.806" y="196.416" style="font-size:21.3333px">de l&apos;arasement de la mortaise</tspan><tspan x="829.806" y="217.75" style="font-size:21.3333px">ou fond de l&apos;embrèvement</tspan></text><text xml:space="preserve" x="39.235" y="52.11" style="font-style:normal;font-variant:normal;font-weight:400;font-stretch:normal;font-size:21.3333px;line-height:1;font-family:Calibri;-inkscape-font-specification:Calibri;text-align:start;writing-mode:lr-tb;direction:ltr;text-anchor:start;clip-rule:evenodd;opacity:.66855;fill:#000;fill-opacity:1;fill-rule:evenodd;stroke:none;stroke-width:1.88976;stroke-miterlimit:10;stroke-dasharray:none;stroke-opacity:1"><tspan x="39.235" y="52.11" style="font-size:21.3333px"><tspan x="39.235" y="52.11" style="font-size:21.3333px;text-align:start;text-anchor:start">-taise est constante sur toute sa longueur.</tspan></tspan></text><text xml:space="preserve" x="20.813" y="135.075" style="font-style:normal;font-variant:normal;font-weight:400;font-stretch:normal;font-size:21.3333px;line-height:1;font-family:Calibri;-inkscape-font-specification:Calibri;text-align:start;writing-mode:lr-tb;direction:ltr;text-anchor:start;clip-rule:evenodd;opacity:.66855;fill:#000;fill-opacity:1;fill-rule:evenodd;stroke:none;stroke-width:1.88976;stroke-miterlimit:10;stroke-dasharray:none;stroke-opacity:1"><tspan x="20.813" y="135.075" style="font-size:21.3333px"><tspan x="20.813" y="135.075" style="font-size:21.3333px;text-align:start;text-anchor:start">2. Il existe souvent une surépaisseur en partie </tspan></tspan></text><text xml:space="preserve" x="39.807" y="153.877" style="font-style:normal;font-variant:normal;font-weight:400;font-stretch:normal;font-size:21.3333px;line-height:1;font-family:Calibri;-inkscape-font-specification:Calibri;text-align:start;writing-mode:lr-tb;direction:ltr;text-anchor:start;clip-rule:evenodd;opacity:.66855;fill:#000;fill-opacity:1;fill-rule:evenodd;stroke:none;stroke-width:1.88976;stroke-miterlimit:10;stroke-dasharray:none;stroke-opacity:1"><tspan x="39.807" y="153.877" style="font-size:21.3333px">haute, ce qui empêche l’appui correct du</tspan></text><text xml:space="preserve" x="39.776" y="174.179" style="font-style:normal;font-variant:normal;font-weight:400;font-stretch:normal;font-size:21.3333px;line-height:1;font-family:Calibri;-inkscape-font-specification:Calibri;text-align:start;writing-mode:lr-tb;direction:ltr;text-anchor:start;clip-rule:evenodd;opacity:.66855;fill:#000;fill-opacity:1;fill-rule:evenodd;stroke:none;stroke-width:1.88976;stroke-miterlimit:10;stroke-dasharray:none;stroke-opacity:1"><tspan x="39.776" y="174.179" style="font-size:21.3333px">chant du tenon</tspan></text><path d="m567.084 153.666-150.351-18.749" style="opacity:.669;fill:none;stroke:#4232a9;stroke-width:1.999;stroke-linejoin:round;stroke-dasharray:none;stroke-opacity:.501961;marker-start:url(#b)"/><g fill="none" stroke="#000" stroke-linejoin="round" stroke-width="3"><path stroke-width=".78789" d="M576.438 143.915c-68.57-7.841-65.628-7.496-134.198-15.337M830.161 172.928l-133.963-15.32c-4.604 8.961-10.002 17.69-14.126 26.79l-1.22 17.3M441.31 229.822l388.865 68.755M571.903 151.387l6.315-5.481M442.24 152.646c96.756 12.742 17.449 1.817 114.088 15.15l124.523 33.903M553.794 167.106l9.384-8.145M681.637 190.554l-118.46-31.593 8.726-7.574"/><path stroke-width=".78789" d="M830.175 202.855c-115.915-14.977-32.137-4.191-148.053-19.169M586.535 155.214l-14.632-3.827 11.38 12.936M555.979 8.262c42.87 48.307 66.01 73.409 108.882 121.715l-1.077 18.785"/><path stroke-width=".78789" d="m664.86 129.977 1.625-2.063 1.624-2.064 1.624-2.064 1.625-2.063 1.624-2.064 1.624-2.064 1.624-2.064 1.624-2.063 1.625-2.064 1.449-1.841"/><path stroke-width=".78789" d="m653.652 183.09 13.704 1.977c4.506-7.41.006-.208 4.77-7.773.646-12.52 2.136-31.452 2.782-43.972 5.719-6.44 1.05-1.264 5.546-6.519.425-3.786.052-12.67.394-17.074-37.178-41.62-53.585-59.846-90.763-101.467"/><path stroke-width=".78789" d="M442.24 8.262c38.058 43.86 56.52 65.115 94.578 108.974l126.966 31.526 5.779-8.021M667.356 185.067l2.207-44.326M557.097 122.271l41.143 46.04M671.86 177.532l2.54.665 2.541.664 2.541.665 2.54.664 1.742.456M688.353 172.144l-2.544-.653-2.544-.654-2.543-.653-2.544-.653-2.544-.654-2.528-.649"/></g><path d="M683.764 180.646 840.442 24.448" style="opacity:.669;fill:none;stroke:#4232a9;stroke-width:1.999;stroke-linejoin:round;stroke-dasharray:none;stroke-opacity:.501961;marker-start:url(#c)"/><path d="m665.486 186.178 41.658 41.659L840.442 94.539" style="opacity:.669;fill:none;stroke:#4232a9;stroke-width:1.999;stroke-linejoin:round;stroke-dasharray:none;stroke-opacity:.501961;marker-start:url(#d)"/><path d="m642.902 186.634 92.197 92.198 105.343-105.343" style="opacity:.669;fill:none;stroke:#4232a9;stroke-width:1.999;stroke-linejoin:round;stroke-dasharray:none;stroke-opacity:.501961;marker-start:url(#e)"/></svg>