<svg xmlns="http://www.w3.org/2000/svg" xml:space="preserve" width="1000" height="300"><defs><marker id="a" markerHeight="1" markerWidth="1" orient="auto" preserveAspectRatio="xMidYMid" refX="0" refY="0" style="overflow:visible" viewBox="0 0 1 1"><path d="M5 0c0 2.76-2.24 5-5 5s-5-2.24-5-5 2.3-5 5-5c2.76 0 5 2.24 5 5" style="fill:context-stroke;fill-rule:evenodd;stroke:none" transform="scale(.5)"/></marker><marker id="b" markerHeight="1" markerWidth="1" orient="auto" preserveAspectRatio="xMidYMid" refX="0" refY="0" style="overflow:visible" viewBox="0 0 1 1"><path d="M5 0c0 2.76-2.24 5-5 5s-5-2.24-5-5 2.3-5 5-5c2.76 0 5 2.24 5 5" style="fill:context-stroke;fill-rule:evenodd;stroke:none" transform="scale(.5)"/></marker><marker id="c" markerHeight="1" markerWidth="1" orient="auto" preserveAspectRatio="xMidYMid" refX="0" refY="0" style="overflow:visible" viewBox="0 0 1 1"><path d="M5 0c0 2.76-2.24 5-5 5s-5-2.24-5-5 2.3-5 5-5c2.76 0 5 2.24 5 5" style="fill:context-stroke;fill-rule:evenodd;stroke:none" transform="scale(.5)"/></marker><marker id="d" markerHeight="1" markerWidth="1" orient="auto" preserveAspectRatio="xMidYMid" refX="0" refY="0" style="overflow:visible" viewBox="0 0 1 1"><path d="M5 0c0 2.76-2.24 5-5 5s-5-2.24-5-5 2.3-5 5-5c2.76 0 5 2.24 5 5" style="fill:context-stroke;fill-rule:evenodd;stroke:none" transform="scale(.5)"/></marker><marker id="e" markerHeight="1" markerWidth="1" orient="auto" preserveAspectRatio="xMidYMid" refX="0" refY="0" style="overflow:visible" viewBox="0 0 1 1"><path d="M5 0c0 2.76-2.24 5-5 5s-5-2.24-5-5 2.3-5 5-5c2.76 0 5 2.24 5 5" style="fill:context-stroke;fill-rule:evenodd;stroke:none" transform="scale(.5)"/></marker><marker id="f" markerHeight="1" markerWidth="1" orient="auto" preserveAspectRatio="xMidYMid" refX="0" refY="0" style="overflow:visible" viewBox="0 0 1 1"><path d="M5 0c0 2.76-2.24 5-5 5s-5-2.24-5-5 2.3-5 5-5c2.76 0 5 2.24 5 5" style="fill:context-stroke;fill-rule:evenodd;stroke:none" transform="scale(.5)"/></marker></defs><text xml:space="preserve" x="1.438" y="131.075" style="font-style:normal;font-variant:normal;font-weight:400;font-stretch:normal;font-size:21.3333px;line-height:1;font-family:Calibri;-inkscape-font-specification:Calibri;text-align:start;writing-mode:lr-tb;direction:ltr;text-anchor:start;clip-rule:evenodd;opacity:.66855;fill:#000;fill-opacity:1;fill-rule:evenodd;stroke:none;stroke-width:1.88976;stroke-miterlimit:10;stroke-dasharray:none;stroke-opacity:1"><tspan x="1.438" y="131.075" style="font-size:21.3333px"><tspan x="1.438" y="131.075" style="font-size:21.3333px;text-align:start;text-anchor:start">1. Vérifier que l&apos;épaisseur du tenon est bonne </tspan></tspan></text><text xml:space="preserve" x="20.432" y="149.877" style="font-style:normal;font-variant:normal;font-weight:400;font-stretch:normal;font-size:21.3333px;line-height:1;font-family:Calibri;-inkscape-font-specification:Calibri;text-align:start;writing-mode:lr-tb;direction:ltr;text-anchor:start;clip-rule:evenodd;opacity:.66855;fill:#000;fill-opacity:1;fill-rule:evenodd;stroke:none;stroke-width:1.88976;stroke-miterlimit:10;stroke-dasharray:none;stroke-opacity:1"><tspan x="20.432" y="149.877" style="font-size:21.3333px">tout le long des chants est que les chants sont</tspan><tspan x="20.432" y="171.21" style="font-size:21.3333px">rectiligne</tspan></text><path d="m572.917 151.092-175.56-20.175" style="opacity:.669;fill:none;stroke:#4232a9;stroke-width:1.999;stroke-linejoin:round;stroke-dasharray:none;stroke-opacity:.501961;marker-start:url(#a)"/><text xml:space="preserve" x=".813" y="213.459" style="font-style:normal;font-variant:normal;font-weight:400;font-stretch:normal;font-size:21.3333px;line-height:1;font-family:Calibri;-inkscape-font-specification:Calibri;text-align:start;writing-mode:lr-tb;direction:ltr;text-anchor:start;clip-rule:evenodd;opacity:.66855;fill:#000;fill-opacity:1;fill-rule:evenodd;stroke:none;stroke-width:1.88976;stroke-miterlimit:10;stroke-dasharray:none;stroke-opacity:1"><tspan x=".813" y="213.459" style="font-size:21.3333px"><tspan x=".813" y="213.459" style="font-size:21.3333px;text-align:start;text-anchor:start">2. Vérifier la planéité des joues du tenon </tspan></tspan></text><path d="m591.016 160.117-220.172 54.496" style="opacity:.669;fill:none;stroke:#4232a9;stroke-width:1.999;stroke-linejoin:round;stroke-dasharray:none;stroke-opacity:.501961;marker-start:url(#b)"/><text xml:space="preserve" x="740.279" y="85.764" style="font-style:normal;font-variant:normal;font-weight:400;font-stretch:normal;font-size:21.3333px;line-height:1;font-family:Calibri;-inkscape-font-specification:Calibri;text-align:start;writing-mode:lr-tb;direction:ltr;text-anchor:start;clip-rule:evenodd;opacity:.66855;fill:#000;fill-opacity:1;fill-rule:evenodd;stroke:none;stroke-width:1.88976;stroke-miterlimit:10;stroke-dasharray:none;stroke-opacity:1"><tspan x="740.279" y="85.764" style="font-size:21.3333px"><tspan x="740.279" y="85.764" style="font-size:21.3333px;text-align:start;text-anchor:start">4. Vérifier les angles du tenon</tspan></tspan></text><text xml:space="preserve" x="722.2" y="252.038" style="font-style:normal;font-variant:normal;font-weight:400;font-stretch:normal;font-size:21.3333px;line-height:1;font-family:Calibri;-inkscape-font-specification:Calibri;text-align:start;writing-mode:lr-tb;direction:ltr;text-anchor:start;clip-rule:evenodd;opacity:.66855;fill:#000;fill-opacity:1;fill-rule:evenodd;stroke:none;stroke-width:1.88976;stroke-miterlimit:10;stroke-dasharray:none;stroke-opacity:1"><tspan x="722.2" y="252.038" style="font-size:21.3333px"><tspan x="722.2" y="252.038" style="font-size:21.3333px;text-align:start;text-anchor:start">5. Vérifier la longueur du tenon</tspan></tspan></text><text xml:space="preserve" x="702.081" y="22.867" style="font-style:normal;font-variant:normal;font-weight:400;font-stretch:normal;font-size:21.3333px;line-height:1;font-family:Calibri;-inkscape-font-specification:Calibri;text-align:start;writing-mode:lr-tb;direction:ltr;text-anchor:start;clip-rule:evenodd;opacity:.66855;fill:#000;fill-opacity:1;fill-rule:evenodd;stroke:none;stroke-width:1.88976;stroke-miterlimit:10;stroke-dasharray:none;stroke-opacity:1"><tspan x="702.081" y="22.867" style="font-size:21.3333px"><tspan x="702.081" y="22.867" style="font-size:21.3333px;text-align:start;text-anchor:start">3. Vérifier que les arases sont bien</tspan></tspan><tspan x="702.081" y="44.2" style="font-size:21.3333px">perpendiculaire et planes</tspan></text><path d="m651.065 175.967 81.28-96.139" style="opacity:.669;fill:none;stroke:#4232a9;stroke-width:1.999;stroke-linejoin:round;stroke-dasharray:none;stroke-opacity:.501961;marker-start:url(#c)"/><path d="m652.795 116.69 79.55-36.862" style="opacity:.669;fill:none;stroke:#4232a9;stroke-width:1.999;stroke-linejoin:round;stroke-dasharray:none;stroke-opacity:.501961;marker-start:url(#d)"/><path d="M600.78 134.104 632.83 33.842h62.843" style="opacity:.669;fill:none;stroke:#4232a9;stroke-width:1.999;stroke-linejoin:round;stroke-dasharray:none;stroke-opacity:.501961;marker-start:url(#e)"/><path d="m620.833 173.57 32.049 70.262h62.842" style="opacity:.669;fill:none;stroke:#4232a9;stroke-width:1.999;stroke-linejoin:round;stroke-dasharray:none;stroke-opacity:.501961;marker-start:url(#f)"/><g fill="none" stroke="#000" stroke-linejoin="round" stroke-width="3"><path stroke-width=".78789" d="M557.063 139.915c-68.57-7.841-65.628-7.496-134.198-15.337M810.786 168.928l-133.963-15.32c-4.604 8.961-10.002 17.69-14.126 26.79l-1.22 17.3M421.935 225.822 810.8 294.577M552.528 147.387l6.315-5.481M422.865 148.646c96.756 12.742 17.449 1.817 114.088 15.15l124.523 33.903M534.419 163.106l9.384-8.145M662.262 186.554l-118.46-31.593 8.726-7.574"/><path stroke-width=".78789" d="M810.8 198.855c-115.915-14.977-32.137-4.191-148.053-19.169M567.16 151.214l-14.632-3.827 11.38 12.936M536.604 4.262c42.87 48.307 66.01 73.409 108.882 121.715l-1.077 18.785"/><path stroke-width=".78789" d="m645.486 125.977 1.624-2.063 1.624-2.064 1.624-2.064 1.625-2.063 1.624-2.064 1.624-2.064 1.624-2.064 1.624-2.063 1.625-2.064 1.449-1.841"/><path stroke-width=".78789" d="m634.277 179.09 13.704 1.977c4.506-7.41.006-.208 4.77-7.773.646-12.52 2.136-31.452 2.782-43.972 5.719-6.44 1.05-1.264 5.546-6.519.425-3.786.052-12.67.394-17.074-37.178-41.62-53.585-59.846-90.763-101.467"/><path stroke-width=".78789" d="M422.865 4.262c38.058 43.86 56.52 65.115 94.578 108.974l126.966 31.526 5.779-8.021M647.981 181.067l2.207-44.326M537.722 118.271l41.143 46.04M652.485 173.532l2.54.665 2.541.664 2.541.665 2.54.664 1.742.456M668.978 168.144l-2.544-.653-2.544-.654-2.543-.653-2.544-.653-2.544-.654-2.528-.649"/></g></svg>