<svg xmlns="http://www.w3.org/2000/svg" width="367.002" height="367.002" viewBox="0 0 97.103 97.103"><g transform="translate(-23.97 -69.338)"><circle cx="72.521" cy="117.889" r="48.383" style="fill:none;stroke:#000;stroke-width:.3372;stroke-linejoin:round;stroke-dasharray:none;stroke-dashoffset:0;stroke-opacity:1"/><path d="m72.521 118.02 44.63-.022" style="fill:none;stroke:#000;stroke-width:.190527;stroke-linejoin:round;stroke-dasharray:none"/><path d="m72.521 118.02 44.644-18.781" style="fill:none;stroke:#0300bb;stroke-width:.190527;stroke-linejoin:round;stroke-dasharray:none;stroke-opacity:1"/><path d="M83.11 113.564a7.858 8.118 83.526 0 1 .25 4.47" style="fill:none;stroke:#bb0100;stroke-width:.141667;stroke-linejoin:round;stroke-dasharray:.141667,.141667;stroke-dashoffset:0;stroke-opacity:1"/><text xml:space="preserve" x="84.635" y="115.945" style="font-size:2.10291px;font-family:Calibri;-inkscape-font-specification:Calibri;text-align:start;writing-mode:lr-tb;direction:ltr;text-anchor:start;fill:#000;fill-opacity:1;stroke:none;stroke-width:.0931412;stroke-linejoin:round;stroke-dasharray:.141667,.141667;stroke-dashoffset:0;stroke-opacity:1"><tspan x="84.635" y="115.945" style="fill:#000;fill-opacity:1;stroke:none;stroke-width:.0931412">α</tspan></text><path d="m72.521 118.02 44.63-.022" style="fill:none;stroke:#000;stroke-width:.186034;stroke-linejoin:round;stroke-dasharray:none"/><path d="m72.521 118.02 44.644-18.781" style="fill:none;stroke:#0300bb;stroke-width:.186034;stroke-linejoin:round;stroke-dasharray:none;stroke-opacity:1"/><path d="m117.156 99.242-.004 18.756" style="fill:none;stroke:#bb0100;stroke-width:.186034;stroke-linejoin:round;stroke-dasharray:none;stroke-dashoffset:0;stroke-opacity:1"/><path d="M112.855 91.153 112.851 118M104.308 81.414l-.004 36.59M90.658 73.003l-.004 45.137M77.104 69.698 77.1 118.07M40.474 81.353l-.004 36.549M31.139 92.661l-.004 25.24M54.29 73.003l-.003 44.899" style="fill:none;stroke:#bb0100;stroke-width:.186034;stroke-linejoin:round;stroke-dasharray:.186034,.186034;stroke-dashoffset:0;stroke-opacity:1"/><path d="M83.11 113.564a7.858 8.118 83.526 0 1 .25 4.47" style="fill:none;stroke:#bb0100;stroke-width:.141667;stroke-linejoin:round;stroke-dasharray:.141667,.141667;stroke-dashoffset:0;stroke-opacity:1"/><text xml:space="preserve" x="84.635" y="115.945" style="font-size:2.10291px;font-family:Calibri;-inkscape-font-specification:Calibri;text-align:start;writing-mode:lr-tb;direction:ltr;text-anchor:start;fill:#000;fill-opacity:1;stroke:none;stroke-width:.0931412;stroke-linejoin:round;stroke-dasharray:.141667,.141667;stroke-dashoffset:0;stroke-opacity:1"><tspan x="84.635" y="115.945" style="fill:#000;fill-opacity:1;stroke:none;stroke-width:.0931412">α</tspan></text><path d="m72.521 118.02 40.376-26.79M72.521 118.02l31.787-36.606M72.521 118.02l18.144-44.983M72.424 118.02 31.139 92.66M72.424 118.02 40.637 81.413M72.424 118.02 54.28 73.036M72.424 118.02l4.49-48.314" style="fill:none;stroke:#0300bb;stroke-width:.186034;stroke-linejoin:round;stroke-dasharray:.186034,.186034;stroke-dashoffset:0;stroke-opacity:1"/><path d="m31.135 117.902 86.017.093" style="fill:none;stroke:#000;stroke-width:.186034;stroke-linejoin:round;stroke-dasharray:none"/><path d="m112.855 144.84-.004-26.847M104.308 154.58l-.004-36.591M90.658 162.99l-.004-45.138M77.104 166.295l-.004-48.373M40.474 154.64l-.004-36.55M31.139 143.331l-.004-25.24" style="fill:none;stroke:#bb0100;stroke-width:.186034;stroke-linejoin:round;stroke-dasharray:.186034,.186034;stroke-dashoffset:0;stroke-opacity:1"/><path d="m54.29 162.99-.003-44.9" style="fill:none;stroke:#bb0100;stroke-width:.186034;stroke-linejoin:round;stroke-dasharray:none;stroke-dashoffset:0;stroke-opacity:1"/><path d="m72.521 117.973 40.376 26.79M72.521 117.973l31.787 36.606M72.521 117.973l18.144 44.982M72.424 117.973l-41.285 25.358M72.424 117.973 40.637 154.58" style="fill:none;stroke:#0300bb;stroke-width:.186034;stroke-linejoin:round;stroke-dasharray:.186034,.186034;stroke-dashoffset:0;stroke-opacity:1"/><path d="M72.424 117.973 54.28 162.955" style="fill:none;stroke:#0300bb;stroke-width:.186034;stroke-linejoin:round;stroke-dasharray:none;stroke-dashoffset:0;stroke-opacity:1"/><path d="m72.424 117.973 4.49 48.313" style="fill:none;stroke:#0300bb;stroke-width:.186034;stroke-linejoin:round;stroke-dasharray:.186034,.186034;stroke-dashoffset:0;stroke-opacity:1"/></g></svg>